<svg width="64" height="108" viewBox="0 0 64 108" fill="none" xmlns="http://www.w3.org/2000/svg">
<rect x="20" y="20" width="24" height="24" rx="12" fill="#E70D35"/>
<path d="M34.25 29.75L29.75 34.25M29.75 29.75L34.25 34.25M39.5 32C39.5 36.1421 36.1421 39.5 32 39.5C27.8579 39.5 24.5 36.1421 24.5 32C24.5 27.8579 27.8579 24.5 32 24.5C36.1421 24.5 39.5 27.8579 39.5 32Z" stroke="white" stroke-width="2" stroke-linecap="round" stroke-linejoin="round"/>
<path d="M34.25 73.75L29.75 78.25M29.75 73.75L34.25 78.25M39.5 76C39.5 80.1421 36.1421 83.5 32 83.5C27.8579 83.5 24.5 80.1421 24.5 76C24.5 71.8579 27.8579 68.5 32 68.5C36.1421 68.5 39.5 71.8579 39.5 76Z" stroke="#E70D35" stroke-width="2" stroke-linecap="round" stroke-linejoin="round"/>
<rect x="0.5" y="0.5" width="63" height="107" rx="4.5" stroke="#7B61FF" stroke-dasharray="10 5"/>
</svg>
