<svg width="257" height="520" viewBox="0 0 257 520" fill="none" xmlns="http://www.w3.org/2000/svg">
<g filter="url(#filter0_d)">
<rect x="20" y="82" width="217" height="115" rx="2" fill="white"/>
<rect x="36" y="106" width="186" height="32" rx="2" fill="#F6F8FA"/>
<path d="M50.732 120.144C50.732 120.568 50.632 120.968 50.432 121.344C50.232 121.72 49.912 122.028 49.472 122.268C49.032 122.5 48.468 122.616 47.78 122.616H46.268V126H44.9V117.66H47.78C48.42 117.66 48.96 117.772 49.4 117.996C49.848 118.212 50.18 118.508 50.396 118.884C50.62 119.26 50.732 119.68 50.732 120.144ZM47.78 121.5C48.3 121.5 48.688 121.384 48.944 121.152C49.2 120.912 49.328 120.576 49.328 120.144C49.328 119.232 48.812 118.776 47.78 118.776H46.268V121.5H47.78ZM53.4047 120.348C53.6047 120.012 53.8687 119.752 54.1967 119.568C54.5327 119.376 54.9287 119.28 55.3847 119.28V120.696H55.0367C54.5007 120.696 54.0927 120.832 53.8127 121.104C53.5407 121.376 53.4047 121.848 53.4047 122.52V126H52.0367V119.388H53.4047V120.348ZM59.5102 126.108C58.8862 126.108 58.3222 125.968 57.8182 125.688C57.3142 125.4 56.9182 125 56.6302 124.488C56.3422 123.968 56.1982 123.368 56.1982 122.688C56.1982 122.016 56.3462 121.42 56.6422 120.9C56.9382 120.38 57.3422 119.98 57.8542 119.7C58.3662 119.42 58.9382 119.28 59.5702 119.28C60.2022 119.28 60.7742 119.42 61.2862 119.7C61.7982 119.98 62.2022 120.38 62.4982 120.9C62.7942 121.42 62.9422 122.016 62.9422 122.688C62.9422 123.36 62.7902 123.956 62.4862 124.476C62.1822 124.996 61.7662 125.4 61.2382 125.688C60.7182 125.968 60.1422 126.108 59.5102 126.108ZM59.5102 124.92C59.8622 124.92 60.1902 124.836 60.4942 124.668C60.8062 124.5 61.0582 124.248 61.2502 123.912C61.4422 123.576 61.5382 123.168 61.5382 122.688C61.5382 122.208 61.4462 121.804 61.2622 121.476C61.0782 121.14 60.8342 120.888 60.5302 120.72C60.2262 120.552 59.8982 120.468 59.5462 120.468C59.1942 120.468 58.8662 120.552 58.5622 120.72C58.2662 120.888 58.0302 121.14 57.8542 121.476C57.6782 121.804 57.5902 122.208 57.5902 122.688C57.5902 123.4 57.7702 123.952 58.1302 124.344C58.4982 124.728 58.9582 124.92 59.5102 124.92ZM67.0665 120.504H65.8425V126H64.4625V120.504H63.6825V119.388H64.4625V118.92C64.4625 118.16 64.6625 117.608 65.0625 117.264C65.4705 116.912 66.1065 116.736 66.9705 116.736V117.876C66.5545 117.876 66.2625 117.956 66.0945 118.116C65.9265 118.268 65.8425 118.536 65.8425 118.92V119.388H67.0665V120.504ZM68.9749 118.512C68.7269 118.512 68.5189 118.428 68.3509 118.26C68.1829 118.092 68.0989 117.884 68.0989 117.636C68.0989 117.388 68.1829 117.18 68.3509 117.012C68.5189 116.844 68.7269 116.76 68.9749 116.76C69.2149 116.76 69.4189 116.844 69.5869 117.012C69.7549 117.18 69.8389 117.388 69.8389 117.636C69.8389 117.884 69.7549 118.092 69.5869 118.26C69.4189 118.428 69.2149 118.512 68.9749 118.512ZM69.6469 119.388V126H68.2789V119.388H69.6469ZM72.811 117.12V126H71.443V117.12H72.811ZM80.667 122.532C80.667 122.78 80.651 123.004 80.619 123.204H75.567C75.607 123.732 75.803 124.156 76.155 124.476C76.507 124.796 76.939 124.956 77.451 124.956C78.187 124.956 78.707 124.648 79.011 124.032H80.487C80.287 124.64 79.923 125.14 79.395 125.532C78.875 125.916 78.227 126.108 77.451 126.108C76.819 126.108 76.251 125.968 75.747 125.688C75.251 125.4 74.859 125 74.571 124.488C74.291 123.968 74.151 123.368 74.151 122.688C74.151 122.008 74.287 121.412 74.559 120.9C74.839 120.38 75.227 119.98 75.723 119.7C76.227 119.42 76.803 119.28 77.451 119.28C78.075 119.28 78.631 119.416 79.119 119.688C79.607 119.96 79.987 120.344 80.259 120.84C80.531 121.328 80.667 121.892 80.667 122.532ZM79.239 122.1C79.231 121.596 79.051 121.192 78.699 120.888C78.347 120.584 77.911 120.432 77.391 120.432C76.919 120.432 76.515 120.584 76.179 120.888C75.843 121.184 75.643 121.588 75.579 122.1H79.239Z" fill="#5857AB"/>
<rect x="222" y="106" width="2" height="32" rx="1" fill="#5857AB"/>
<path d="M47.648 167.084C47.088 167.084 46.584 166.988 46.136 166.796C45.688 166.596 45.336 166.316 45.08 165.956C44.824 165.596 44.696 165.176 44.696 164.696H46.16C46.192 165.056 46.332 165.352 46.58 165.584C46.836 165.816 47.192 165.932 47.648 165.932C48.12 165.932 48.488 165.82 48.752 165.596C49.016 165.364 49.148 165.068 49.148 164.708C49.148 164.428 49.064 164.2 48.896 164.024C48.736 163.848 48.532 163.712 48.284 163.616C48.044 163.52 47.708 163.416 47.276 163.304C46.732 163.16 46.288 163.016 45.944 162.872C45.608 162.72 45.32 162.488 45.08 162.176C44.84 161.864 44.72 161.448 44.72 160.928C44.72 160.448 44.84 160.028 45.08 159.668C45.32 159.308 45.656 159.032 46.088 158.84C46.52 158.648 47.02 158.552 47.588 158.552C48.396 158.552 49.056 158.756 49.568 159.164C50.088 159.564 50.376 160.116 50.432 160.82H48.92C48.896 160.516 48.752 160.256 48.488 160.04C48.224 159.824 47.876 159.716 47.444 159.716C47.052 159.716 46.732 159.816 46.484 160.016C46.236 160.216 46.112 160.504 46.112 160.88C46.112 161.136 46.188 161.348 46.34 161.516C46.5 161.676 46.7 161.804 46.94 161.9C47.18 161.996 47.508 162.1 47.924 162.212C48.476 162.364 48.924 162.516 49.268 162.668C49.62 162.82 49.916 163.056 50.156 163.376C50.404 163.688 50.528 164.108 50.528 164.636C50.528 165.06 50.412 165.46 50.18 165.836C49.956 166.212 49.624 166.516 49.184 166.748C48.752 166.972 48.24 167.084 47.648 167.084ZM58.2022 163.532C58.2022 163.78 58.1862 164.004 58.1542 164.204H53.1022C53.1422 164.732 53.3382 165.156 53.6902 165.476C54.0422 165.796 54.4742 165.956 54.9862 165.956C55.7222 165.956 56.2422 165.648 56.5462 165.032H58.0222C57.8222 165.64 57.4582 166.14 56.9302 166.532C56.4102 166.916 55.7622 167.108 54.9862 167.108C54.3542 167.108 53.7862 166.968 53.2822 166.688C52.7862 166.4 52.3942 166 52.1062 165.488C51.8262 164.968 51.6862 164.368 51.6862 163.688C51.6862 163.008 51.8222 162.412 52.0942 161.9C52.3742 161.38 52.7622 160.98 53.2582 160.7C53.7622 160.42 54.3382 160.28 54.9862 160.28C55.6102 160.28 56.1662 160.416 56.6542 160.688C57.1422 160.96 57.5222 161.344 57.7942 161.84C58.0662 162.328 58.2022 162.892 58.2022 163.532ZM56.7742 163.1C56.7662 162.596 56.5862 162.192 56.2342 161.888C55.8822 161.584 55.4462 161.432 54.9262 161.432C54.4542 161.432 54.0502 161.584 53.7142 161.888C53.3782 162.184 53.1782 162.588 53.1142 163.1H56.7742ZM61.1444 161.504V165.164C61.1444 165.412 61.2004 165.592 61.3124 165.704C61.4324 165.808 61.6324 165.86 61.9124 165.86H62.7524V167H61.6724C61.0564 167 60.5844 166.856 60.2564 166.568C59.9284 166.28 59.7644 165.812 59.7644 165.164V161.504H58.9844V160.388H59.7644V158.744H61.1444V160.388H62.7524V161.504H61.1444ZM65.6093 161.504V165.164C65.6093 165.412 65.6653 165.592 65.7773 165.704C65.8973 165.808 66.0973 165.86 66.3773 165.86H67.2173V167H66.1373C65.5213 167 65.0493 166.856 64.7213 166.568C64.3933 166.28 64.2293 165.812 64.2293 165.164V161.504H63.4493V160.388H64.2293V158.744H65.6093V160.388H67.2173V161.504H65.6093ZM69.1741 159.512C68.9261 159.512 68.7181 159.428 68.5501 159.26C68.3821 159.092 68.2981 158.884 68.2981 158.636C68.2981 158.388 68.3821 158.18 68.5501 158.012C68.7181 157.844 68.9261 157.76 69.1741 157.76C69.4141 157.76 69.6181 157.844 69.7861 158.012C69.9541 158.18 70.0381 158.388 70.0381 158.636C70.0381 158.884 69.9541 159.092 69.7861 159.26C69.6181 159.428 69.4141 159.512 69.1741 159.512ZM69.8461 160.388V167H68.4781V160.388H69.8461ZM74.9782 160.28C75.4982 160.28 75.9622 160.388 76.3702 160.604C76.7862 160.82 77.1102 161.14 77.3422 161.564C77.5742 161.988 77.6902 162.5 77.6902 163.1V167H76.3342V163.304C76.3342 162.712 76.1862 162.26 75.8902 161.948C75.5942 161.628 75.1902 161.468 74.6782 161.468C74.1662 161.468 73.7582 161.628 73.4542 161.948C73.1582 162.26 73.0102 162.712 73.0102 163.304V167H71.6422V160.388H73.0102V161.144C73.2342 160.872 73.5182 160.66 73.8622 160.508C74.2142 160.356 74.5862 160.28 74.9782 160.28ZM82.0992 160.28C82.6112 160.28 83.0632 160.384 83.4552 160.592C83.8552 160.792 84.1672 161.044 84.3912 161.348V160.388H85.7712V167.108C85.7712 167.716 85.6432 168.256 85.3872 168.728C85.1312 169.208 84.7592 169.584 84.2712 169.856C83.7912 170.128 83.2152 170.264 82.5432 170.264C81.6472 170.264 80.9032 170.052 80.3112 169.628C79.7192 169.212 79.3832 168.644 79.3032 167.924H80.6592C80.7632 168.268 80.9832 168.544 81.3192 168.752C81.6632 168.968 82.0712 169.076 82.5432 169.076C83.0952 169.076 83.5392 168.908 83.8752 168.572C84.2192 168.236 84.3912 167.748 84.3912 167.108V166.004C84.1592 166.316 83.8432 166.58 83.4432 166.796C83.0512 167.004 82.6032 167.108 82.0992 167.108C81.5232 167.108 80.9952 166.964 80.5152 166.676C80.0432 166.38 79.6672 165.972 79.3872 165.452C79.1152 164.924 78.9792 164.328 78.9792 163.664C78.9792 163 79.1152 162.412 79.3872 161.9C79.6672 161.388 80.0432 160.992 80.5152 160.712C80.9952 160.424 81.5232 160.28 82.0992 160.28ZM84.3912 163.688C84.3912 163.232 84.2952 162.836 84.1032 162.5C83.9192 162.164 83.6752 161.908 83.3712 161.732C83.0672 161.556 82.7392 161.468 82.3872 161.468C82.0352 161.468 81.7072 161.556 81.4032 161.732C81.0992 161.9 80.8512 162.152 80.6592 162.488C80.4752 162.816 80.3832 163.208 80.3832 163.664C80.3832 164.12 80.4752 164.52 80.6592 164.864C80.8512 165.208 81.0992 165.472 81.4032 165.656C81.7152 165.832 82.0432 165.92 82.3872 165.92C82.7392 165.92 83.0672 165.832 83.3712 165.656C83.6752 165.48 83.9192 165.224 84.1032 164.888C84.2952 164.544 84.3912 164.144 84.3912 163.688ZM89.968 167.108C89.448 167.108 88.98 167.016 88.564 166.832C88.156 166.64 87.832 166.384 87.592 166.064C87.352 165.736 87.224 165.372 87.208 164.972H88.624C88.648 165.252 88.78 165.488 89.02 165.68C89.268 165.864 89.576 165.956 89.944 165.956C90.328 165.956 90.624 165.884 90.832 165.74C91.048 165.588 91.156 165.396 91.156 165.164C91.156 164.916 91.036 164.732 90.796 164.612C90.564 164.492 90.192 164.36 89.68 164.216C89.184 164.08 88.78 163.948 88.468 163.82C88.156 163.692 87.884 163.496 87.652 163.232C87.428 162.968 87.316 162.62 87.316 162.188C87.316 161.836 87.42 161.516 87.628 161.228C87.836 160.932 88.132 160.7 88.516 160.532C88.908 160.364 89.356 160.28 89.86 160.28C90.612 160.28 91.216 160.472 91.672 160.856C92.136 161.232 92.384 161.748 92.416 162.404H91.048C91.024 162.108 90.904 161.872 90.688 161.696C90.472 161.52 90.18 161.432 89.812 161.432C89.452 161.432 89.176 161.5 88.984 161.636C88.792 161.772 88.696 161.952 88.696 162.176C88.696 162.352 88.76 162.5 88.888 162.62C89.016 162.74 89.172 162.836 89.356 162.908C89.54 162.972 89.812 163.056 90.172 163.16C90.652 163.288 91.044 163.42 91.348 163.556C91.66 163.684 91.928 163.876 92.152 164.132C92.376 164.388 92.492 164.728 92.5 165.152C92.5 165.528 92.396 165.864 92.188 166.16C91.98 166.456 91.684 166.688 91.3 166.856C90.924 167.024 90.48 167.108 89.968 167.108Z" fill="#252473"/>
</g>
<rect x="21" y="33" width="215" height="46" rx="3" fill="white"/>
<path d="M50.516 54.084C50.516 54.78 50.276 55.36 49.796 55.824C49.324 56.28 48.6 56.508 47.624 56.508H46.016V60H44.924V51.636H47.624C48.568 51.636 49.284 51.864 49.772 52.32C50.268 52.776 50.516 53.364 50.516 54.084ZM47.624 55.608C48.232 55.608 48.68 55.476 48.968 55.212C49.256 54.948 49.4 54.572 49.4 54.084C49.4 53.052 48.808 52.536 47.624 52.536H46.016V55.608H47.624ZM52.9652 54.492C53.1572 54.116 53.4292 53.824 53.7812 53.616C54.1412 53.408 54.5772 53.304 55.0892 53.304V54.432H54.8012C53.5772 54.432 52.9652 55.096 52.9652 56.424V60H51.8732V53.424H52.9652V54.492ZM59.2178 60.108C58.6018 60.108 58.0418 59.968 57.5378 59.688C57.0418 59.408 56.6498 59.012 56.3618 58.5C56.0818 57.98 55.9418 57.38 55.9418 56.7C55.9418 56.028 56.0858 55.436 56.3738 54.924C56.6698 54.404 57.0698 54.008 57.5738 53.736C58.0778 53.456 58.6418 53.316 59.2658 53.316C59.8898 53.316 60.4538 53.456 60.9578 53.736C61.4618 54.008 61.8578 54.4 62.1458 54.912C62.4418 55.424 62.5898 56.02 62.5898 56.7C62.5898 57.38 62.4378 57.98 62.1338 58.5C61.8378 59.012 61.4338 59.408 60.9218 59.688C60.4098 59.968 59.8418 60.108 59.2178 60.108ZM59.2178 59.148C59.6098 59.148 59.9778 59.056 60.3218 58.872C60.6658 58.688 60.9418 58.412 61.1498 58.044C61.3658 57.676 61.4738 57.228 61.4738 56.7C61.4738 56.172 61.3698 55.724 61.1618 55.356C60.9538 54.988 60.6818 54.716 60.3458 54.54C60.0098 54.356 59.6458 54.264 59.2538 54.264C58.8538 54.264 58.4858 54.356 58.1498 54.54C57.8218 54.716 57.5578 54.988 57.3578 55.356C57.1578 55.724 57.0578 56.172 57.0578 56.7C57.0578 57.236 57.1538 57.688 57.3458 58.056C57.5458 58.424 57.8098 58.7 58.1378 58.884C58.4658 59.06 58.8258 59.148 59.2178 59.148ZM66.7016 54.324H65.3216V60H64.2296V54.324H63.3776V53.424H64.2296V52.956C64.2296 52.22 64.4176 51.684 64.7936 51.348C65.1776 51.004 65.7896 50.832 66.6296 50.832V51.744C66.1496 51.744 65.8096 51.84 65.6096 52.032C65.4176 52.216 65.3216 52.524 65.3216 52.956V53.424H66.7016V54.324ZM68.5388 52.356C68.3308 52.356 68.1548 52.284 68.0108 52.14C67.8668 51.996 67.7948 51.82 67.7948 51.612C67.7948 51.404 67.8668 51.228 68.0108 51.084C68.1548 50.94 68.3308 50.868 68.5388 50.868C68.7388 50.868 68.9068 50.94 69.0428 51.084C69.1868 51.228 69.2588 51.404 69.2588 51.612C69.2588 51.82 69.1868 51.996 69.0428 52.14C68.9068 52.284 68.7388 52.356 68.5388 52.356ZM69.0668 53.424V60H67.9748V53.424H69.0668ZM72.0199 51.12V60H70.9279V51.12H72.0199ZM79.881 56.46C79.881 56.668 79.869 56.888 79.845 57.12H74.589C74.629 57.768 74.849 58.276 75.249 58.644C75.657 59.004 76.149 59.184 76.725 59.184C77.197 59.184 77.589 59.076 77.901 58.86C78.221 58.636 78.445 58.34 78.573 57.972H79.749C79.573 58.604 79.221 59.12 78.693 59.52C78.165 59.912 77.509 60.108 76.725 60.108C76.101 60.108 75.541 59.968 75.045 59.688C74.557 59.408 74.173 59.012 73.893 58.5C73.613 57.98 73.473 57.38 73.473 56.7C73.473 56.02 73.609 55.424 73.881 54.912C74.153 54.4 74.533 54.008 75.021 53.736C75.517 53.456 76.085 53.316 76.725 53.316C77.349 53.316 77.901 53.452 78.381 53.724C78.861 53.996 79.229 54.372 79.485 54.852C79.749 55.324 79.881 55.86 79.881 56.46ZM78.753 56.232C78.753 55.816 78.661 55.46 78.477 55.164C78.293 54.86 78.041 54.632 77.721 54.48C77.409 54.32 77.061 54.24 76.677 54.24C76.125 54.24 75.653 54.416 75.261 54.768C74.877 55.12 74.657 55.608 74.601 56.232H78.753Z" fill="#33343E"/>
<path d="M203 53L209 59L215 53" stroke="#252473" stroke-width="2" stroke-linecap="round" stroke-linejoin="round"/>
<rect x="21" y="33" width="215" height="46" rx="3" stroke="#E4EBF1" stroke-width="2"/>
<rect width="62" height="26" transform="translate(37 19)" fill="white"/>
<path d="M47.268 34.896H50.088V36H45.9V27.66H47.268V34.896ZM51.928 28.512C51.68 28.512 51.472 28.428 51.304 28.26C51.136 28.092 51.052 27.884 51.052 27.636C51.052 27.388 51.136 27.18 51.304 27.012C51.472 26.844 51.68 26.76 51.928 26.76C52.168 26.76 52.372 26.844 52.54 27.012C52.708 27.18 52.792 27.388 52.792 27.636C52.792 27.884 52.708 28.092 52.54 28.26C52.372 28.428 52.168 28.512 51.928 28.512ZM52.6 29.388V36H51.232V29.388H52.6ZM53.9401 32.688C53.9401 32.008 54.0761 31.412 54.3481 30.9C54.6281 30.38 55.0121 29.98 55.5001 29.7C55.9881 29.42 56.5481 29.28 57.1801 29.28C57.9801 29.28 58.6401 29.472 59.1601 29.856C59.6881 30.232 60.0441 30.772 60.2281 31.476H58.7521C58.6321 31.148 58.4401 30.892 58.1761 30.708C57.9121 30.524 57.5801 30.432 57.1801 30.432C56.6201 30.432 56.1721 30.632 55.8361 31.032C55.5081 31.424 55.3441 31.976 55.3441 32.688C55.3441 33.4 55.5081 33.956 55.8361 34.356C56.1721 34.756 56.6201 34.956 57.1801 34.956C57.9721 34.956 58.4961 34.608 58.7521 33.912H60.2281C60.0361 34.584 59.6761 35.12 59.1481 35.52C58.6201 35.912 57.9641 36.108 57.1801 36.108C56.5481 36.108 55.9881 35.968 55.5001 35.688C55.0121 35.4 54.6281 35 54.3481 34.488C54.0761 33.968 53.9401 33.368 53.9401 32.688ZM67.6514 32.532C67.6514 32.78 67.6354 33.004 67.6034 33.204H62.5514C62.5914 33.732 62.7874 34.156 63.1394 34.476C63.4914 34.796 63.9234 34.956 64.4354 34.956C65.1714 34.956 65.6914 34.648 65.9954 34.032H67.4714C67.2714 34.64 66.9074 35.14 66.3794 35.532C65.8594 35.916 65.2114 36.108 64.4354 36.108C63.8034 36.108 63.2354 35.968 62.7314 35.688C62.2354 35.4 61.8434 35 61.5554 34.488C61.2754 33.968 61.1354 33.368 61.1354 32.688C61.1354 32.008 61.2714 31.412 61.5434 30.9C61.8234 30.38 62.2114 29.98 62.7074 29.7C63.2114 29.42 63.7874 29.28 64.4354 29.28C65.0594 29.28 65.6154 29.416 66.1034 29.688C66.5914 29.96 66.9714 30.344 67.2434 30.84C67.5154 31.328 67.6514 31.892 67.6514 32.532ZM66.2234 32.1C66.2154 31.596 66.0354 31.192 65.6834 30.888C65.3314 30.584 64.8954 30.432 64.3754 30.432C63.9034 30.432 63.4994 30.584 63.1634 30.888C62.8274 31.184 62.6274 31.588 62.5634 32.1H66.2234ZM72.3337 29.28C72.8537 29.28 73.3177 29.388 73.7257 29.604C74.1417 29.82 74.4657 30.14 74.6977 30.564C74.9297 30.988 75.0457 31.5 75.0457 32.1V36H73.6897V32.304C73.6897 31.712 73.5417 31.26 73.2457 30.948C72.9497 30.628 72.5457 30.468 72.0337 30.468C71.5217 30.468 71.1137 30.628 70.8097 30.948C70.5137 31.26 70.3657 31.712 70.3657 32.304V36H68.9977V29.388H70.3657V30.144C70.5897 29.872 70.8737 29.66 71.2177 29.508C71.5697 29.356 71.9417 29.28 72.3337 29.28ZM76.3346 32.688C76.3346 32.008 76.4706 31.412 76.7426 30.9C77.0226 30.38 77.4066 29.98 77.8946 29.7C78.3826 29.42 78.9426 29.28 79.5746 29.28C80.3746 29.28 81.0346 29.472 81.5546 29.856C82.0826 30.232 82.4386 30.772 82.6226 31.476H81.1466C81.0266 31.148 80.8346 30.892 80.5706 30.708C80.3066 30.524 79.9746 30.432 79.5746 30.432C79.0146 30.432 78.5666 30.632 78.2306 31.032C77.9026 31.424 77.7386 31.976 77.7386 32.688C77.7386 33.4 77.9026 33.956 78.2306 34.356C78.5666 34.756 79.0146 34.956 79.5746 34.956C80.3666 34.956 80.8906 34.608 81.1466 33.912H82.6226C82.4306 34.584 82.0706 35.12 81.5426 35.52C81.0146 35.912 80.3586 36.108 79.5746 36.108C78.9426 36.108 78.3826 35.968 77.8946 35.688C77.4066 35.4 77.0226 35 76.7426 34.488C76.4706 33.968 76.3346 33.368 76.3346 32.688ZM90.0459 32.532C90.0459 32.78 90.0299 33.004 89.9979 33.204H84.9459C84.9859 33.732 85.1819 34.156 85.5339 34.476C85.8859 34.796 86.3179 34.956 86.8299 34.956C87.5659 34.956 88.0859 34.648 88.3899 34.032H89.8659C89.6659 34.64 89.3019 35.14 88.7739 35.532C88.2539 35.916 87.6059 36.108 86.8299 36.108C86.1979 36.108 85.6299 35.968 85.1259 35.688C84.6299 35.4 84.2379 35 83.9499 34.488C83.6699 33.968 83.5299 33.368 83.5299 32.688C83.5299 32.008 83.6659 31.412 83.9379 30.9C84.2179 30.38 84.6059 29.98 85.1019 29.7C85.6059 29.42 86.1819 29.28 86.8299 29.28C87.4539 29.28 88.0099 29.416 88.4979 29.688C88.9859 29.96 89.3659 30.344 89.6379 30.84C89.9099 31.328 90.0459 31.892 90.0459 32.532ZM88.6179 32.1C88.6099 31.596 88.4299 31.192 88.0779 30.888C87.7259 30.584 87.2899 30.432 86.7699 30.432C86.2979 30.432 85.8939 30.584 85.5579 30.888C85.2219 31.184 85.0219 31.588 84.9579 32.1H88.6179Z" fill="#5857AB"/>
<g filter="url(#filter1_d)">
<rect x="20" y="293" width="217" height="205" rx="2" fill="white"/>
<rect x="36" y="317" width="186" height="34" rx="2" fill="#F6F8FA"/>
<circle cx="54" cy="334" r="9.5" fill="#19B0FF" stroke="#0B79DE"/>
<g filter="url(#filter2_d)">
<rect x="49" y="329" width="10" height="10" rx="5" fill="white"/>
</g>
<path d="M74.288 329.66V330.776H72.068V338H70.7V330.776H68.468V329.66H74.288ZM81.6614 331.388V338H80.2934V337.22C80.0774 337.492 79.7934 337.708 79.4414 337.868C79.0974 338.02 78.7294 338.096 78.3374 338.096C77.8174 338.096 77.3494 337.988 76.9334 337.772C76.5254 337.556 76.2014 337.236 75.9614 336.812C75.7294 336.388 75.6134 335.876 75.6134 335.276V331.388H76.9694V335.072C76.9694 335.664 77.1174 336.12 77.4134 336.44C77.7094 336.752 78.1134 336.908 78.6254 336.908C79.1374 336.908 79.5414 336.752 79.8374 336.44C80.1414 336.12 80.2934 335.664 80.2934 335.072V331.388H81.6614ZM84.8344 332.348C85.0344 332.012 85.2984 331.752 85.6264 331.568C85.9624 331.376 86.3584 331.28 86.8144 331.28V332.696H86.4664C85.9304 332.696 85.5224 332.832 85.2424 333.104C84.9704 333.376 84.8344 333.848 84.8344 334.52V338H83.4664V331.388H84.8344V332.348ZM90.6879 334.7L93.7359 338H91.8879L89.4399 335.156V338H88.0719V329.12H89.4399V334.28L91.8399 331.388H93.7359L90.6879 334.7ZM95.4124 330.512C95.1644 330.512 94.9564 330.428 94.7884 330.26C94.6204 330.092 94.5364 329.884 94.5364 329.636C94.5364 329.388 94.6204 329.18 94.7884 329.012C94.9564 328.844 95.1644 328.76 95.4124 328.76C95.6524 328.76 95.8564 328.844 96.0244 329.012C96.1924 329.18 96.2764 329.388 96.2764 329.636C96.2764 329.884 96.1924 330.092 96.0244 330.26C95.8564 330.428 95.6524 330.512 95.4124 330.512ZM96.0844 331.388V338H94.7164V331.388H96.0844ZM100.28 338.108C99.7605 338.108 99.2925 338.016 98.8765 337.832C98.4685 337.64 98.1445 337.384 97.9045 337.064C97.6645 336.736 97.5365 336.372 97.5205 335.972H98.9365C98.9605 336.252 99.0925 336.488 99.3325 336.68C99.5805 336.864 99.8885 336.956 100.256 336.956C100.64 336.956 100.936 336.884 101.144 336.74C101.36 336.588 101.468 336.396 101.468 336.164C101.468 335.916 101.348 335.732 101.108 335.612C100.876 335.492 100.504 335.36 99.9925 335.216C99.4965 335.08 99.0925 334.948 98.7805 334.82C98.4685 334.692 98.1965 334.496 97.9645 334.232C97.7405 333.968 97.6285 333.62 97.6285 333.188C97.6285 332.836 97.7325 332.516 97.9405 332.228C98.1485 331.932 98.4445 331.7 98.8285 331.532C99.2205 331.364 99.6685 331.28 100.172 331.28C100.924 331.28 101.528 331.472 101.984 331.856C102.448 332.232 102.696 332.748 102.728 333.404H101.36C101.336 333.108 101.216 332.872 101 332.696C100.784 332.52 100.492 332.432 100.124 332.432C99.7645 332.432 99.4885 332.5 99.2965 332.636C99.1045 332.772 99.0085 332.952 99.0085 333.176C99.0085 333.352 99.0725 333.5 99.2005 333.62C99.3285 333.74 99.4845 333.836 99.6685 333.908C99.8525 333.972 100.124 334.056 100.484 334.16C100.964 334.288 101.356 334.42 101.66 334.556C101.972 334.684 102.24 334.876 102.464 335.132C102.688 335.388 102.804 335.728 102.812 336.152C102.812 336.528 102.708 336.864 102.5 337.16C102.292 337.456 101.996 337.688 101.612 337.856C101.236 338.024 100.792 338.108 100.28 338.108ZM107.711 331.28C108.215 331.28 108.663 331.388 109.055 331.604C109.455 331.82 109.767 332.14 109.991 332.564C110.223 332.988 110.339 333.5 110.339 334.1V338H108.983V334.304C108.983 333.712 108.835 333.26 108.539 332.948C108.243 332.628 107.839 332.468 107.327 332.468C106.815 332.468 106.407 332.628 106.103 332.948C105.807 333.26 105.659 333.712 105.659 334.304V338H104.291V329.12H105.659V332.156C105.891 331.876 106.183 331.66 106.535 331.508C106.895 331.356 107.287 331.28 107.711 331.28Z" fill="#5857AB"/>
<rect x="222" y="317" width="2" height="34" rx="1" fill="#5857AB"/>
<rect x="44.5" y="367.5" width="19" height="19" rx="9.5" fill="#E4EBF1" stroke="#C8D6E3"/>
<path d="M77.808 372.66V373.776H74.268V376.236H77.028V377.352H74.268V381H72.9V372.66H77.808ZM80.4438 375.348C80.6438 375.012 80.9078 374.752 81.2358 374.568C81.5718 374.376 81.9678 374.28 82.4238 374.28V375.696H82.0758C81.5398 375.696 81.1318 375.832 80.8518 376.104C80.5798 376.376 80.4438 376.848 80.4438 377.52V381H79.0758V374.388H80.4438V375.348ZM89.7413 377.532C89.7413 377.78 89.7253 378.004 89.6933 378.204H84.6413C84.6813 378.732 84.8773 379.156 85.2293 379.476C85.5813 379.796 86.0133 379.956 86.5253 379.956C87.2613 379.956 87.7813 379.648 88.0853 379.032H89.5612C89.3613 379.64 88.9973 380.14 88.4693 380.532C87.9493 380.916 87.3013 381.108 86.5253 381.108C85.8933 381.108 85.3253 380.968 84.8213 380.688C84.3253 380.4 83.9333 380 83.6453 379.488C83.3653 378.968 83.2253 378.368 83.2253 377.688C83.2253 377.008 83.3613 376.412 83.6333 375.9C83.9133 375.38 84.3013 374.98 84.7973 374.7C85.3013 374.42 85.8773 374.28 86.5253 374.28C87.1493 374.28 87.7053 374.416 88.1933 374.688C88.6813 374.96 89.0613 375.344 89.3333 375.84C89.6053 376.328 89.7413 376.892 89.7413 377.532ZM88.3133 377.1C88.3053 376.596 88.1253 376.192 87.7733 375.888C87.4213 375.584 86.9853 375.432 86.4653 375.432C85.9933 375.432 85.5893 375.584 85.2533 375.888C84.9173 376.184 84.7173 376.588 84.6533 377.1H88.3133ZM94.4235 374.28C94.9435 374.28 95.4075 374.388 95.8155 374.604C96.2315 374.82 96.5555 375.14 96.7875 375.564C97.0195 375.988 97.1355 376.5 97.1355 377.1V381H95.7795V377.304C95.7795 376.712 95.6315 376.26 95.3355 375.948C95.0395 375.628 94.6355 375.468 94.1235 375.468C93.6115 375.468 93.2035 375.628 92.8995 375.948C92.6035 376.26 92.4555 376.712 92.4555 377.304V381H91.0875V374.388H92.4555V375.144C92.6795 374.872 92.9635 374.66 93.3075 374.508C93.6595 374.356 94.0315 374.28 94.4235 374.28ZM98.4245 377.688C98.4245 377.008 98.5605 376.412 98.8325 375.9C99.1125 375.38 99.4965 374.98 99.9845 374.7C100.472 374.42 101.032 374.28 101.664 374.28C102.464 374.28 103.124 374.472 103.644 374.856C104.172 375.232 104.528 375.772 104.712 376.476H103.236C103.116 376.148 102.924 375.892 102.66 375.708C102.396 375.524 102.064 375.432 101.664 375.432C101.104 375.432 100.656 375.632 100.32 376.032C99.9925 376.424 99.8285 376.976 99.8285 377.688C99.8285 378.4 99.9925 378.956 100.32 379.356C100.656 379.756 101.104 379.956 101.664 379.956C102.456 379.956 102.98 379.608 103.236 378.912H104.712C104.52 379.584 104.16 380.12 103.632 380.52C103.104 380.912 102.448 381.108 101.664 381.108C101.032 381.108 100.472 380.968 99.9845 380.688C99.4965 380.4 99.1125 380 98.8325 379.488C98.5605 378.968 98.4245 378.368 98.4245 377.688ZM109.496 374.28C110 374.28 110.448 374.388 110.84 374.604C111.24 374.82 111.552 375.14 111.776 375.564C112.008 375.988 112.124 376.5 112.124 377.1V381H110.768V377.304C110.768 376.712 110.62 376.26 110.324 375.948C110.028 375.628 109.624 375.468 109.112 375.468C108.6 375.468 108.192 375.628 107.888 375.948C107.592 376.26 107.444 376.712 107.444 377.304V381H106.076V372.12H107.444V375.156C107.676 374.876 107.968 374.66 108.32 374.508C108.68 374.356 109.072 374.28 109.496 374.28Z" fill="#5857AB"/>
<circle cx="54" cy="420" r="9.5" fill="#19B0FF" stroke="#0B79DE"/>
<g filter="url(#filter3_d)">
<rect x="49" y="415" width="10" height="10" rx="5" fill="white"/>
</g>
<path d="M71.648 424.084C71.088 424.084 70.584 423.988 70.136 423.796C69.688 423.596 69.336 423.316 69.08 422.956C68.824 422.596 68.696 422.176 68.696 421.696H70.16C70.192 422.056 70.332 422.352 70.58 422.584C70.836 422.816 71.192 422.932 71.648 422.932C72.12 422.932 72.488 422.82 72.752 422.596C73.016 422.364 73.148 422.068 73.148 421.708C73.148 421.428 73.064 421.2 72.896 421.024C72.736 420.848 72.532 420.712 72.284 420.616C72.044 420.52 71.708 420.416 71.276 420.304C70.732 420.16 70.288 420.016 69.944 419.872C69.608 419.72 69.32 419.488 69.08 419.176C68.84 418.864 68.72 418.448 68.72 417.928C68.72 417.448 68.84 417.028 69.08 416.668C69.32 416.308 69.656 416.032 70.088 415.84C70.52 415.648 71.02 415.552 71.588 415.552C72.396 415.552 73.056 415.756 73.568 416.164C74.088 416.564 74.376 417.116 74.432 417.82H72.92C72.896 417.516 72.752 417.256 72.488 417.04C72.224 416.824 71.876 416.716 71.444 416.716C71.052 416.716 70.732 416.816 70.484 417.016C70.236 417.216 70.112 417.504 70.112 417.88C70.112 418.136 70.188 418.348 70.34 418.516C70.5 418.676 70.7 418.804 70.94 418.9C71.18 418.996 71.508 419.1 71.924 419.212C72.476 419.364 72.924 419.516 73.268 419.668C73.62 419.82 73.916 420.056 74.156 420.376C74.404 420.688 74.528 421.108 74.528 421.636C74.528 422.06 74.412 422.46 74.18 422.836C73.956 423.212 73.624 423.516 73.184 423.748C72.752 423.972 72.24 424.084 71.648 424.084ZM77.5102 418.36C77.7422 418.056 78.0582 417.8 78.4582 417.592C78.8582 417.384 79.3102 417.28 79.8142 417.28C80.3902 417.28 80.9142 417.424 81.3862 417.712C81.8662 417.992 82.2422 418.388 82.5142 418.9C82.7862 419.412 82.9222 420 82.9222 420.664C82.9222 421.328 82.7862 421.924 82.5142 422.452C82.2422 422.972 81.8662 423.38 81.3862 423.676C80.9142 423.964 80.3902 424.108 79.8142 424.108C79.3102 424.108 78.8622 424.008 78.4702 423.808C78.0782 423.6 77.7582 423.344 77.5102 423.04V427.144H76.1422V417.388H77.5102V418.36ZM81.5302 420.664C81.5302 420.208 81.4342 419.816 81.2422 419.488C81.0582 419.152 80.8102 418.9 80.4982 418.732C80.1942 418.556 79.8662 418.468 79.5142 418.468C79.1702 418.468 78.8422 418.556 78.5302 418.732C78.2262 418.908 77.9782 419.164 77.7862 419.5C77.6022 419.836 77.5102 420.232 77.5102 420.688C77.5102 421.144 77.6022 421.544 77.7862 421.888C77.9782 422.224 78.2262 422.48 78.5302 422.656C78.8422 422.832 79.1702 422.92 79.5142 422.92C79.8662 422.92 80.1942 422.832 80.4982 422.656C80.8102 422.472 81.0582 422.208 81.2422 421.864C81.4342 421.52 81.5302 421.12 81.5302 420.664ZM83.819 420.664C83.819 420 83.955 419.412 84.227 418.9C84.507 418.388 84.883 417.992 85.355 417.712C85.835 417.424 86.363 417.28 86.939 417.28C87.459 417.28 87.911 417.384 88.295 417.592C88.687 417.792 88.999 418.044 89.231 418.348V417.388H90.611V424H89.231V423.016C88.999 423.328 88.683 423.588 88.283 423.796C87.883 424.004 87.427 424.108 86.915 424.108C86.347 424.108 85.827 423.964 85.355 423.676C84.883 423.38 84.507 422.972 84.227 422.452C83.955 421.924 83.819 421.328 83.819 420.664ZM89.231 420.688C89.231 420.232 89.135 419.836 88.943 419.5C88.759 419.164 88.515 418.908 88.211 418.732C87.907 418.556 87.579 418.468 87.227 418.468C86.875 418.468 86.547 418.556 86.243 418.732C85.939 418.9 85.691 419.152 85.499 419.488C85.315 419.816 85.223 420.208 85.223 420.664C85.223 421.12 85.315 421.52 85.499 421.864C85.691 422.208 85.939 422.472 86.243 422.656C86.555 422.832 86.883 422.92 87.227 422.92C87.579 422.92 87.907 422.832 88.211 422.656C88.515 422.48 88.759 422.224 88.943 421.888C89.135 421.544 89.231 421.144 89.231 420.688ZM95.7438 417.28C96.2638 417.28 96.7278 417.388 97.1358 417.604C97.5518 417.82 97.8758 418.14 98.1078 418.564C98.3398 418.988 98.4558 419.5 98.4558 420.1V424H97.0998V420.304C97.0998 419.712 96.9518 419.26 96.6558 418.948C96.3598 418.628 95.9558 418.468 95.4438 418.468C94.9318 418.468 94.5238 418.628 94.2198 418.948C93.9238 419.26 93.7758 419.712 93.7758 420.304V424H92.4078V417.388H93.7758V418.144C93.9998 417.872 94.2838 417.66 94.6278 417.508C94.9798 417.356 95.3518 417.28 95.7438 417.28ZM100.897 416.512C100.649 416.512 100.441 416.428 100.273 416.26C100.105 416.092 100.021 415.884 100.021 415.636C100.021 415.388 100.105 415.18 100.273 415.012C100.441 414.844 100.649 414.76 100.897 414.76C101.137 414.76 101.341 414.844 101.509 415.012C101.677 415.18 101.761 415.388 101.761 415.636C101.761 415.884 101.677 416.092 101.509 416.26C101.341 416.428 101.137 416.512 100.897 416.512ZM101.569 417.388V424H100.201V417.388H101.569ZM105.765 424.108C105.245 424.108 104.777 424.016 104.361 423.832C103.953 423.64 103.629 423.384 103.389 423.064C103.149 422.736 103.021 422.372 103.005 421.972H104.421C104.445 422.252 104.577 422.488 104.817 422.68C105.065 422.864 105.373 422.956 105.741 422.956C106.125 422.956 106.421 422.884 106.629 422.74C106.845 422.588 106.953 422.396 106.953 422.164C106.953 421.916 106.833 421.732 106.593 421.612C106.361 421.492 105.989 421.36 105.477 421.216C104.981 421.08 104.577 420.948 104.265 420.82C103.953 420.692 103.681 420.496 103.449 420.232C103.225 419.968 103.113 419.62 103.113 419.188C103.113 418.836 103.217 418.516 103.425 418.228C103.633 417.932 103.929 417.7 104.313 417.532C104.705 417.364 105.153 417.28 105.657 417.28C106.409 417.28 107.013 417.472 107.469 417.856C107.933 418.232 108.181 418.748 108.213 419.404H106.845C106.821 419.108 106.701 418.872 106.485 418.696C106.269 418.52 105.977 418.432 105.609 418.432C105.249 418.432 104.973 418.5 104.781 418.636C104.589 418.772 104.493 418.952 104.493 419.176C104.493 419.352 104.557 419.5 104.685 419.62C104.813 419.74 104.969 419.836 105.153 419.908C105.337 419.972 105.609 420.056 105.969 420.16C106.449 420.288 106.841 420.42 107.145 420.556C107.457 420.684 107.725 420.876 107.949 421.132C108.173 421.388 108.289 421.728 108.297 422.152C108.297 422.528 108.193 422.864 107.985 423.16C107.777 423.456 107.481 423.688 107.097 423.856C106.721 424.024 106.277 424.108 105.765 424.108ZM113.195 417.28C113.699 417.28 114.147 417.388 114.539 417.604C114.939 417.82 115.251 418.14 115.475 418.564C115.707 418.988 115.823 419.5 115.823 420.1V424H114.467V420.304C114.467 419.712 114.319 419.26 114.023 418.948C113.727 418.628 113.323 418.468 112.811 418.468C112.299 418.468 111.891 418.628 111.587 418.948C111.291 419.26 111.143 419.712 111.143 420.304V424H109.775V415.12H111.143V418.156C111.375 417.876 111.667 417.66 112.019 417.508C112.379 417.356 112.771 417.28 113.195 417.28Z" fill="#5857AB"/>
<rect x="44.5" y="453.5" width="19" height="19" rx="9.5" fill="#E4EBF1" stroke="#C8D6E3"/>
<path d="M74.268 459.764V462.212H77.148V463.328H74.268V465.884H77.508V467H72.9V458.648H77.508V459.764H74.268ZM82.529 460.28C83.049 460.28 83.513 460.388 83.921 460.604C84.337 460.82 84.661 461.14 84.893 461.564C85.125 461.988 85.241 462.5 85.241 463.1V467H83.885V463.304C83.885 462.712 83.737 462.26 83.441 461.948C83.145 461.628 82.741 461.468 82.229 461.468C81.717 461.468 81.309 461.628 81.005 461.948C80.709 462.26 80.561 462.712 80.561 463.304V467H79.193V460.388H80.561V461.144C80.785 460.872 81.069 460.66 81.413 460.508C81.765 460.356 82.137 460.28 82.529 460.28ZM89.6499 460.28C90.1619 460.28 90.6139 460.384 91.0059 460.592C91.4059 460.792 91.7179 461.044 91.9419 461.348V460.388H93.3219V467.108C93.3219 467.716 93.1939 468.256 92.9379 468.728C92.6819 469.208 92.3099 469.584 91.8219 469.856C91.3419 470.128 90.7659 470.264 90.0939 470.264C89.1979 470.264 88.4539 470.052 87.8619 469.628C87.2699 469.212 86.9339 468.644 86.8539 467.924H88.2099C88.3139 468.268 88.5339 468.544 88.8699 468.752C89.2139 468.968 89.6219 469.076 90.0939 469.076C90.6459 469.076 91.0899 468.908 91.4259 468.572C91.7699 468.236 91.9419 467.748 91.9419 467.108V466.004C91.7099 466.316 91.3939 466.58 90.9939 466.796C90.6019 467.004 90.1539 467.108 89.6499 467.108C89.0739 467.108 88.5459 466.964 88.0659 466.676C87.5939 466.38 87.2179 465.972 86.9379 465.452C86.6659 464.924 86.5299 464.328 86.5299 463.664C86.5299 463 86.6659 462.412 86.9379 461.9C87.2179 461.388 87.5939 460.992 88.0659 460.712C88.5459 460.424 89.0739 460.28 89.6499 460.28ZM91.9419 463.688C91.9419 463.232 91.8459 462.836 91.6539 462.5C91.4699 462.164 91.2259 461.908 90.9219 461.732C90.6179 461.556 90.2899 461.468 89.9379 461.468C89.5859 461.468 89.2579 461.556 88.9539 461.732C88.6499 461.9 88.4019 462.152 88.2099 462.488C88.0259 462.816 87.9339 463.208 87.9339 463.664C87.9339 464.12 88.0259 464.52 88.2099 464.864C88.4019 465.208 88.6499 465.472 88.9539 465.656C89.2659 465.832 89.5939 465.92 89.9379 465.92C90.2899 465.92 90.6179 465.832 90.9219 465.656C91.2259 465.48 91.4699 465.224 91.6539 464.888C91.8459 464.544 91.9419 464.144 91.9419 463.688ZM96.4868 458.12V467H95.1188V458.12H96.4868ZM98.9788 459.512C98.7308 459.512 98.5228 459.428 98.3548 459.26C98.1868 459.092 98.1028 458.884 98.1028 458.636C98.1028 458.388 98.1868 458.18 98.3548 458.012C98.5228 457.844 98.7308 457.76 98.9788 457.76C99.2188 457.76 99.4228 457.844 99.5908 458.012C99.7588 458.18 99.8428 458.388 99.8428 458.636C99.8428 458.884 99.7588 459.092 99.5908 459.26C99.4228 459.428 99.2188 459.512 98.9788 459.512ZM99.6508 460.388V467H98.2828V460.388H99.6508ZM103.847 467.108C103.327 467.108 102.859 467.016 102.443 466.832C102.035 466.64 101.711 466.384 101.471 466.064C101.231 465.736 101.103 465.372 101.087 464.972H102.503C102.527 465.252 102.659 465.488 102.899 465.68C103.147 465.864 103.455 465.956 103.823 465.956C104.207 465.956 104.503 465.884 104.711 465.74C104.927 465.588 105.035 465.396 105.035 465.164C105.035 464.916 104.915 464.732 104.675 464.612C104.443 464.492 104.071 464.36 103.559 464.216C103.063 464.08 102.659 463.948 102.347 463.82C102.035 463.692 101.763 463.496 101.531 463.232C101.307 462.968 101.195 462.62 101.195 462.188C101.195 461.836 101.299 461.516 101.507 461.228C101.715 460.932 102.011 460.7 102.395 460.532C102.787 460.364 103.235 460.28 103.739 460.28C104.491 460.28 105.095 460.472 105.551 460.856C106.015 461.232 106.263 461.748 106.295 462.404H104.927C104.903 462.108 104.783 461.872 104.567 461.696C104.351 461.52 104.059 461.432 103.691 461.432C103.331 461.432 103.055 461.5 102.863 461.636C102.671 461.772 102.575 461.952 102.575 462.176C102.575 462.352 102.639 462.5 102.767 462.62C102.895 462.74 103.051 462.836 103.235 462.908C103.419 462.972 103.691 463.056 104.051 463.16C104.531 463.288 104.923 463.42 105.227 463.556C105.539 463.684 105.807 463.876 106.031 464.132C106.255 464.388 106.371 464.728 106.379 465.152C106.379 465.528 106.275 465.864 106.067 466.16C105.859 466.456 105.563 466.688 105.179 466.856C104.803 467.024 104.359 467.108 103.847 467.108ZM111.277 460.28C111.781 460.28 112.229 460.388 112.621 460.604C113.021 460.82 113.333 461.14 113.557 461.564C113.789 461.988 113.905 462.5 113.905 463.1V467H112.549V463.304C112.549 462.712 112.401 462.26 112.105 461.948C111.809 461.628 111.405 461.468 110.893 461.468C110.381 461.468 109.973 461.628 109.669 461.948C109.373 462.26 109.225 462.712 109.225 463.304V467H107.857V458.12H109.225V461.156C109.457 460.876 109.749 460.66 110.101 460.508C110.461 460.356 110.853 460.28 111.277 460.28Z" fill="#5857AB"/>
</g>
<rect x="21" y="244" width="215" height="46" rx="3" fill="white"/>
<path d="M46.016 263.524V266.32H49.064V267.22H46.016V270.1H49.424V271H44.924V262.624H49.424V263.524H46.016ZM54.2803 264.304C55.0803 264.304 55.7283 264.548 56.2243 265.036C56.7203 265.516 56.9683 266.212 56.9683 267.124V271H55.8883V267.28C55.8883 266.624 55.7243 266.124 55.3963 265.78C55.0683 265.428 54.6203 265.252 54.0523 265.252C53.4763 265.252 53.0163 265.432 52.6723 265.792C52.3363 266.152 52.1683 266.676 52.1683 267.364V271H51.0763V264.424H52.1683V265.36C52.3843 265.024 52.6763 264.764 53.0443 264.58C53.4203 264.396 53.8323 264.304 54.2803 264.304ZM61.4641 264.316C62.0321 264.316 62.5281 264.44 62.9521 264.688C63.3841 264.936 63.7041 265.248 63.9121 265.624V264.424H65.0161V271.144C65.0161 271.744 64.8881 272.276 64.6321 272.74C64.3761 273.212 64.0081 273.58 63.5281 273.844C63.0561 274.108 62.5041 274.24 61.8721 274.24C61.0081 274.24 60.2881 274.036 59.7121 273.628C59.1361 273.22 58.7961 272.664 58.6921 271.96H59.7721C59.8921 272.36 60.1401 272.68 60.5161 272.92C60.8921 273.168 61.3441 273.292 61.8721 273.292C62.4721 273.292 62.9601 273.104 63.3361 272.728C63.7201 272.352 63.9121 271.824 63.9121 271.144V269.764C63.6961 270.148 63.3761 270.468 62.9521 270.724C62.5281 270.98 62.0321 271.108 61.4641 271.108C60.8801 271.108 60.3481 270.964 59.8681 270.676C59.3961 270.388 59.0241 269.984 58.7521 269.464C58.4801 268.944 58.3441 268.352 58.3441 267.688C58.3441 267.016 58.4801 266.428 58.7521 265.924C59.0241 265.412 59.3961 265.016 59.8681 264.736C60.3481 264.456 60.8801 264.316 61.4641 264.316ZM63.9121 267.7C63.9121 267.204 63.8121 266.772 63.6121 266.404C63.4121 266.036 63.1401 265.756 62.7961 265.564C62.4601 265.364 62.0881 265.264 61.6801 265.264C61.2721 265.264 60.9001 265.36 60.5641 265.552C60.2281 265.744 59.9601 266.024 59.7601 266.392C59.5601 266.76 59.4601 267.192 59.4601 267.688C59.4601 268.192 59.5601 268.632 59.7601 269.008C59.9601 269.376 60.2281 269.66 60.5641 269.86C60.9001 270.052 61.2721 270.148 61.6801 270.148C62.0881 270.148 62.4601 270.052 62.7961 269.86C63.1401 269.66 63.4121 269.376 63.6121 269.008C63.8121 268.632 63.9121 268.196 63.9121 267.7ZM67.9535 262.12V271H66.8615V262.12H67.9535ZM70.3786 263.356C70.1706 263.356 69.9946 263.284 69.8506 263.14C69.7066 262.996 69.6346 262.82 69.6346 262.612C69.6346 262.404 69.7066 262.228 69.8506 262.084C69.9946 261.94 70.1706 261.868 70.3786 261.868C70.5786 261.868 70.7466 261.94 70.8826 262.084C71.0266 262.228 71.0986 262.404 71.0986 262.612C71.0986 262.82 71.0266 262.996 70.8826 263.14C70.7466 263.284 70.5786 263.356 70.3786 263.356ZM70.9066 264.424V271H69.8146V264.424H70.9066ZM75.0958 271.108C74.5918 271.108 74.1398 271.024 73.7398 270.856C73.3398 270.68 73.0238 270.44 72.7918 270.136C72.5598 269.824 72.4318 269.468 72.4078 269.068H73.5358C73.5678 269.396 73.7198 269.664 73.9918 269.872C74.2718 270.08 74.6358 270.184 75.0838 270.184C75.4998 270.184 75.8278 270.092 76.0678 269.908C76.3078 269.724 76.4278 269.492 76.4278 269.212C76.4278 268.924 76.2998 268.712 76.0438 268.576C75.7878 268.432 75.3918 268.292 74.8558 268.156C74.3678 268.028 73.9678 267.9 73.6558 267.772C73.3518 267.636 73.0878 267.44 72.8638 267.184C72.6478 266.92 72.5398 266.576 72.5398 266.152C72.5398 265.816 72.6398 265.508 72.8398 265.228C73.0398 264.948 73.3238 264.728 73.6918 264.568C74.0598 264.4 74.4798 264.316 74.9518 264.316C75.6798 264.316 76.2678 264.5 76.7158 264.868C77.1638 265.236 77.4038 265.74 77.4358 266.38H76.3438C76.3198 266.036 76.1798 265.76 75.9238 265.552C75.6758 265.344 75.3398 265.24 74.9158 265.24C74.5238 265.24 74.2118 265.324 73.9798 265.492C73.7478 265.66 73.6318 265.88 73.6318 266.152C73.6318 266.368 73.6998 266.548 73.8358 266.692C73.9798 266.828 74.1558 266.94 74.3638 267.028C74.5798 267.108 74.8758 267.2 75.2518 267.304C75.7238 267.432 76.1078 267.56 76.4038 267.688C76.6998 267.808 76.9518 267.992 77.1598 268.24C77.3758 268.488 77.4878 268.812 77.4958 269.212C77.4958 269.572 77.3958 269.896 77.1958 270.184C76.9958 270.472 76.7118 270.7 76.3438 270.868C75.9838 271.028 75.5678 271.108 75.0958 271.108ZM82.3013 264.304C82.7973 264.304 83.2453 264.412 83.6453 264.628C84.0453 264.836 84.3573 265.152 84.5813 265.576C84.8133 266 84.9293 266.516 84.9293 267.124V271H83.8493V267.28C83.8493 266.624 83.6853 266.124 83.3573 265.78C83.0293 265.428 82.5813 265.252 82.0133 265.252C81.4373 265.252 80.9773 265.432 80.6333 265.792C80.2973 266.152 80.1293 266.676 80.1293 267.364V271H79.0373V262.12H80.1293V265.36C80.3453 265.024 80.6413 264.764 81.0173 264.58C81.4013 264.396 81.8293 264.304 82.3013 264.304ZM87.8411 269.488L86.4971 272.716H85.7651L86.6411 269.488H87.8411ZM97.4392 262.636V263.524H95.1592V271H94.0672V263.524H91.7752V262.636H97.4392ZM104.615 264.424V271H103.523V270.028C103.315 270.364 103.023 270.628 102.647 270.82C102.279 271.004 101.871 271.096 101.423 271.096C100.911 271.096 100.451 270.992 100.043 270.784C99.6354 270.568 99.3114 270.248 99.0714 269.824C98.8394 269.4 98.7234 268.884 98.7234 268.276V264.424H99.8034V268.132C99.8034 268.78 99.9674 269.28 100.295 269.632C100.623 269.976 101.071 270.148 101.639 270.148C102.223 270.148 102.683 269.968 103.019 269.608C103.355 269.248 103.523 268.724 103.523 268.036V264.424H104.615ZM107.551 265.492C107.743 265.116 108.015 264.824 108.367 264.616C108.727 264.408 109.163 264.304 109.675 264.304V265.432H109.387C108.163 265.432 107.551 266.096 107.551 267.424V271H106.459V264.424H107.551V265.492ZM114.608 271L112.028 268.096V271H110.936V262.12H112.028V267.34L114.56 264.424H116.084L112.988 267.7L116.096 271H114.608ZM117.676 263.356C117.468 263.356 117.292 263.284 117.148 263.14C117.004 262.996 116.932 262.82 116.932 262.612C116.932 262.404 117.004 262.228 117.148 262.084C117.292 261.94 117.468 261.868 117.676 261.868C117.876 261.868 118.044 261.94 118.18 262.084C118.324 262.228 118.396 262.404 118.396 262.612C118.396 262.82 118.324 262.996 118.18 263.14C118.044 263.284 117.876 263.356 117.676 263.356ZM118.204 264.424V271H117.112V264.424H118.204ZM122.393 271.108C121.889 271.108 121.437 271.024 121.037 270.856C120.637 270.68 120.321 270.44 120.089 270.136C119.857 269.824 119.729 269.468 119.705 269.068H120.833C120.865 269.396 121.017 269.664 121.289 269.872C121.569 270.08 121.933 270.184 122.381 270.184C122.797 270.184 123.125 270.092 123.365 269.908C123.605 269.724 123.725 269.492 123.725 269.212C123.725 268.924 123.597 268.712 123.341 268.576C123.085 268.432 122.689 268.292 122.153 268.156C121.665 268.028 121.265 267.9 120.953 267.772C120.649 267.636 120.385 267.44 120.161 267.184C119.945 266.92 119.837 266.576 119.837 266.152C119.837 265.816 119.937 265.508 120.137 265.228C120.337 264.948 120.621 264.728 120.989 264.568C121.357 264.4 121.777 264.316 122.249 264.316C122.977 264.316 123.565 264.5 124.013 264.868C124.461 265.236 124.701 265.74 124.733 266.38H123.641C123.617 266.036 123.477 265.76 123.221 265.552C122.973 265.344 122.637 265.24 122.213 265.24C121.821 265.24 121.509 265.324 121.277 265.492C121.045 265.66 120.929 265.88 120.929 266.152C120.929 266.368 120.997 266.548 121.133 266.692C121.277 266.828 121.453 266.94 121.661 267.028C121.877 267.108 122.173 267.2 122.549 267.304C123.021 267.432 123.405 267.56 123.701 267.688C123.997 267.808 124.249 267.992 124.457 268.24C124.673 268.488 124.785 268.812 124.793 269.212C124.793 269.572 124.693 269.896 124.493 270.184C124.293 270.472 124.009 270.7 123.641 270.868C123.281 271.028 122.865 271.108 122.393 271.108ZM129.598 264.304C130.094 264.304 130.542 264.412 130.942 264.628C131.342 264.836 131.654 265.152 131.878 265.576C132.11 266 132.226 266.516 132.226 267.124V271H131.146V267.28C131.146 266.624 130.982 266.124 130.654 265.78C130.326 265.428 129.878 265.252 129.31 265.252C128.734 265.252 128.274 265.432 127.93 265.792C127.594 266.152 127.426 266.676 127.426 267.364V271H126.334V262.12H127.426V265.36C127.642 265.024 127.938 264.764 128.314 264.58C128.698 264.396 129.126 264.304 129.598 264.304Z" fill="#33343E"/>
<path d="M203 264L209 270L215 264" stroke="#5857AB" stroke-width="2" stroke-linecap="round" stroke-linejoin="round"/>
<rect x="21" y="244" width="215" height="46" rx="3" stroke="#E4EBF1" stroke-width="2"/>
<rect width="77" height="26" transform="translate(37 230)" fill="white"/>
<path d="M47.268 245.896H50.088V247H45.9V238.66H47.268V245.896ZM50.776 243.664C50.776 243 50.912 242.412 51.184 241.9C51.464 241.388 51.84 240.992 52.312 240.712C52.792 240.424 53.32 240.28 53.896 240.28C54.416 240.28 54.868 240.384 55.252 240.592C55.644 240.792 55.956 241.044 56.188 241.348V240.388H57.568V247H56.188V246.016C55.956 246.328 55.64 246.588 55.24 246.796C54.84 247.004 54.384 247.108 53.872 247.108C53.304 247.108 52.784 246.964 52.312 246.676C51.84 246.38 51.464 245.972 51.184 245.452C50.912 244.924 50.776 244.328 50.776 243.664ZM56.188 243.688C56.188 243.232 56.092 242.836 55.9 242.5C55.716 242.164 55.472 241.908 55.168 241.732C54.864 241.556 54.536 241.468 54.184 241.468C53.832 241.468 53.504 241.556 53.2 241.732C52.896 241.9 52.648 242.152 52.456 242.488C52.272 242.816 52.18 243.208 52.18 243.664C52.18 244.12 52.272 244.52 52.456 244.864C52.648 245.208 52.896 245.472 53.2 245.656C53.512 245.832 53.84 245.92 54.184 245.92C54.536 245.92 54.864 245.832 55.168 245.656C55.472 245.48 55.716 245.224 55.9 244.888C56.092 244.544 56.188 244.144 56.188 243.688ZM62.7008 240.28C63.2208 240.28 63.6848 240.388 64.0928 240.604C64.5088 240.82 64.8328 241.14 65.0648 241.564C65.2968 241.988 65.4128 242.5 65.4128 243.1V247H64.0568V243.304C64.0568 242.712 63.9088 242.26 63.6128 241.948C63.3168 241.628 62.9128 241.468 62.4008 241.468C61.8888 241.468 61.4808 241.628 61.1768 241.948C60.8808 242.26 60.7328 242.712 60.7328 243.304V247H59.3648V240.388H60.7328V241.144C60.9568 240.872 61.2408 240.66 61.5848 240.508C61.9368 240.356 62.3088 240.28 62.7008 240.28ZM69.8218 240.28C70.3338 240.28 70.7858 240.384 71.1778 240.592C71.5778 240.792 71.8898 241.044 72.1138 241.348V240.388H73.4938V247.108C73.4938 247.716 73.3658 248.256 73.1098 248.728C72.8538 249.208 72.4818 249.584 71.9938 249.856C71.5138 250.128 70.9378 250.264 70.2658 250.264C69.3698 250.264 68.6258 250.052 68.0338 249.628C67.4418 249.212 67.1058 248.644 67.0258 247.924H68.3818C68.4858 248.268 68.7058 248.544 69.0418 248.752C69.3858 248.968 69.7938 249.076 70.2658 249.076C70.8178 249.076 71.2618 248.908 71.5978 248.572C71.9418 248.236 72.1138 247.748 72.1138 247.108V246.004C71.8818 246.316 71.5658 246.58 71.1658 246.796C70.7738 247.004 70.3258 247.108 69.8218 247.108C69.2458 247.108 68.7178 246.964 68.2378 246.676C67.7658 246.38 67.3898 245.972 67.1098 245.452C66.8378 244.924 66.7018 244.328 66.7018 243.664C66.7018 243 66.8378 242.412 67.1098 241.9C67.3898 241.388 67.7658 240.992 68.2378 240.712C68.7178 240.424 69.2458 240.28 69.8218 240.28ZM72.1138 243.688C72.1138 243.232 72.0178 242.836 71.8258 242.5C71.6418 242.164 71.3978 241.908 71.0938 241.732C70.7898 241.556 70.4618 241.468 70.1098 241.468C69.7578 241.468 69.4298 241.556 69.1258 241.732C68.8218 241.9 68.5738 242.152 68.3818 242.488C68.1978 242.816 68.1058 243.208 68.1058 243.664C68.1058 244.12 68.1978 244.52 68.3818 244.864C68.5738 245.208 68.8218 245.472 69.1258 245.656C69.4378 245.832 69.7658 245.92 70.1098 245.92C70.4618 245.92 70.7898 245.832 71.0938 245.656C71.3978 245.48 71.6418 245.224 71.8258 244.888C72.0178 244.544 72.1138 244.144 72.1138 243.688ZM81.2786 240.388V247H79.9106V246.22C79.6946 246.492 79.4106 246.708 79.0586 246.868C78.7146 247.02 78.3466 247.096 77.9546 247.096C77.4346 247.096 76.9666 246.988 76.5506 246.772C76.1426 246.556 75.8186 246.236 75.5786 245.812C75.3466 245.388 75.2306 244.876 75.2306 244.276V240.388H76.5866V244.072C76.5866 244.664 76.7346 245.12 77.0306 245.44C77.3266 245.752 77.7306 245.908 78.2426 245.908C78.7546 245.908 79.1586 245.752 79.4546 245.44C79.7586 245.12 79.9106 244.664 79.9106 244.072V240.388H81.2786ZM82.6276 243.664C82.6276 243 82.7636 242.412 83.0356 241.9C83.3156 241.388 83.6916 240.992 84.1636 240.712C84.6436 240.424 85.1716 240.28 85.7476 240.28C86.2676 240.28 86.7196 240.384 87.1036 240.592C87.4956 240.792 87.8076 241.044 88.0396 241.348V240.388H89.4196V247H88.0396V246.016C87.8076 246.328 87.4916 246.588 87.0916 246.796C86.6916 247.004 86.2356 247.108 85.7236 247.108C85.1556 247.108 84.6356 246.964 84.1636 246.676C83.6916 246.38 83.3156 245.972 83.0356 245.452C82.7636 244.924 82.6276 244.328 82.6276 243.664ZM88.0396 243.688C88.0396 243.232 87.9436 242.836 87.7516 242.5C87.5676 242.164 87.3236 241.908 87.0196 241.732C86.7156 241.556 86.3876 241.468 86.0356 241.468C85.6836 241.468 85.3556 241.556 85.0516 241.732C84.7476 241.9 84.4996 242.152 84.3076 242.488C84.1236 242.816 84.0316 243.208 84.0316 243.664C84.0316 244.12 84.1236 244.52 84.3076 244.864C84.4996 245.208 84.7476 245.472 85.0516 245.656C85.3636 245.832 85.6916 245.92 86.0356 245.92C86.3876 245.92 86.7156 245.832 87.0196 245.656C87.3236 245.48 87.5676 245.224 87.7516 244.888C87.9436 244.544 88.0396 244.144 88.0396 243.688ZM93.8804 240.28C94.3924 240.28 94.8444 240.384 95.2364 240.592C95.6364 240.792 95.9484 241.044 96.1724 241.348V240.388H97.5524V247.108C97.5524 247.716 97.4244 248.256 97.1684 248.728C96.9124 249.208 96.5404 249.584 96.0524 249.856C95.5724 250.128 94.9964 250.264 94.3244 250.264C93.4284 250.264 92.6844 250.052 92.0924 249.628C91.5004 249.212 91.1644 248.644 91.0844 247.924H92.4404C92.5444 248.268 92.7644 248.544 93.1004 248.752C93.4444 248.968 93.8524 249.076 94.3244 249.076C94.8764 249.076 95.3204 248.908 95.6564 248.572C96.0004 248.236 96.1724 247.748 96.1724 247.108V246.004C95.9404 246.316 95.6244 246.58 95.2244 246.796C94.8324 247.004 94.3844 247.108 93.8804 247.108C93.3044 247.108 92.7764 246.964 92.2964 246.676C91.8244 246.38 91.4484 245.972 91.1684 245.452C90.8964 244.924 90.7604 244.328 90.7604 243.664C90.7604 243 90.8964 242.412 91.1684 241.9C91.4484 241.388 91.8244 240.992 92.2964 240.712C92.7764 240.424 93.3044 240.28 93.8804 240.28ZM96.1724 243.688C96.1724 243.232 96.0764 242.836 95.8844 242.5C95.7004 242.164 95.4564 241.908 95.1524 241.732C94.8484 241.556 94.5204 241.468 94.1684 241.468C93.8164 241.468 93.4884 241.556 93.1844 241.732C92.8804 241.9 92.6324 242.152 92.4404 242.488C92.2564 242.816 92.1644 243.208 92.1644 243.664C92.1644 244.12 92.2564 244.52 92.4404 244.864C92.6324 245.208 92.8804 245.472 93.1844 245.656C93.4964 245.832 93.8244 245.92 94.1684 245.92C94.5204 245.92 94.8484 245.832 95.1524 245.656C95.4564 245.48 95.7004 245.224 95.8844 244.888C96.0764 244.544 96.1724 244.144 96.1724 243.688ZM105.409 243.532C105.409 243.78 105.393 244.004 105.361 244.204H100.309C100.349 244.732 100.545 245.156 100.897 245.476C101.249 245.796 101.681 245.956 102.193 245.956C102.929 245.956 103.449 245.648 103.753 245.032H105.229C105.029 245.64 104.665 246.14 104.137 246.532C103.617 246.916 102.969 247.108 102.193 247.108C101.561 247.108 100.993 246.968 100.489 246.688C99.9932 246.4 99.6012 246 99.3132 245.488C99.0332 244.968 98.8932 244.368 98.8932 243.688C98.8932 243.008 99.0292 242.412 99.3012 241.9C99.5812 241.38 99.9692 240.98 100.465 240.7C100.969 240.42 101.545 240.28 102.193 240.28C102.817 240.28 103.373 240.416 103.861 240.688C104.349 240.96 104.729 241.344 105.001 241.84C105.273 242.328 105.409 242.892 105.409 243.532ZM103.981 243.1C103.973 242.596 103.793 242.192 103.441 241.888C103.089 241.584 102.653 241.432 102.133 241.432C101.661 241.432 101.257 241.584 100.921 241.888C100.585 242.184 100.385 242.588 100.321 243.1H103.981Z" fill="#5857AB"/>
<rect x="0.5" y="0.5" width="256" height="519" rx="4.5" stroke="#4E1BC9" stroke-dasharray="10 5"/>
<defs>
<filter id="filter0_d" x="10" y="74" width="237" height="135" filterUnits="userSpaceOnUse" color-interpolation-filters="sRGB">
<feFlood flood-opacity="0" result="BackgroundImageFix"/>
<feColorMatrix in="SourceAlpha" type="matrix" values="0 0 0 0 0 0 0 0 0 0 0 0 0 0 0 0 0 0 127 0" result="hardAlpha"/>
<feOffset dy="2"/>
<feGaussianBlur stdDeviation="5"/>
<feColorMatrix type="matrix" values="0 0 0 0 0 0 0 0 0 0 0 0 0 0 0 0 0 0 0.05 0"/>
<feBlend mode="normal" in2="BackgroundImageFix" result="effect1_dropShadow"/>
<feBlend mode="normal" in="SourceGraphic" in2="effect1_dropShadow" result="shape"/>
</filter>
<filter id="filter1_d" x="10" y="285" width="237" height="225" filterUnits="userSpaceOnUse" color-interpolation-filters="sRGB">
<feFlood flood-opacity="0" result="BackgroundImageFix"/>
<feColorMatrix in="SourceAlpha" type="matrix" values="0 0 0 0 0 0 0 0 0 0 0 0 0 0 0 0 0 0 127 0" result="hardAlpha"/>
<feOffset dy="2"/>
<feGaussianBlur stdDeviation="5"/>
<feColorMatrix type="matrix" values="0 0 0 0 0 0 0 0 0 0 0 0 0 0 0 0 0 0 0.05 0"/>
<feBlend mode="normal" in2="BackgroundImageFix" result="effect1_dropShadow"/>
<feBlend mode="normal" in="SourceGraphic" in2="effect1_dropShadow" result="shape"/>
</filter>
<filter id="filter2_d" x="47" y="329" width="14" height="14" filterUnits="userSpaceOnUse" color-interpolation-filters="sRGB">
<feFlood flood-opacity="0" result="BackgroundImageFix"/>
<feColorMatrix in="SourceAlpha" type="matrix" values="0 0 0 0 0 0 0 0 0 0 0 0 0 0 0 0 0 0 127 0" result="hardAlpha"/>
<feOffset dy="2"/>
<feGaussianBlur stdDeviation="1"/>
<feColorMatrix type="matrix" values="0 0 0 0 0 0 0 0 0 0 0 0 0 0 0 0 0 0 0.1 0"/>
<feBlend mode="normal" in2="BackgroundImageFix" result="effect1_dropShadow"/>
<feBlend mode="normal" in="SourceGraphic" in2="effect1_dropShadow" result="shape"/>
</filter>
<filter id="filter3_d" x="47" y="415" width="14" height="14" filterUnits="userSpaceOnUse" color-interpolation-filters="sRGB">
<feFlood flood-opacity="0" result="BackgroundImageFix"/>
<feColorMatrix in="SourceAlpha" type="matrix" values="0 0 0 0 0 0 0 0 0 0 0 0 0 0 0 0 0 0 127 0" result="hardAlpha"/>
<feOffset dy="2"/>
<feGaussianBlur stdDeviation="1"/>
<feColorMatrix type="matrix" values="0 0 0 0 0 0 0 0 0 0 0 0 0 0 0 0 0 0 0.1 0"/>
<feBlend mode="normal" in2="BackgroundImageFix" result="effect1_dropShadow"/>
<feBlend mode="normal" in="SourceGraphic" in2="effect1_dropShadow" result="shape"/>
</filter>
</defs>
</svg>
