<svg width="26" height="34" viewBox="0 0 26 34" fill="none" xmlns="http://www.w3.org/2000/svg">
<path d="M0 0H25C25.5523 0 26 0.447715 26 1V33C26 33.5523 25.5523 34 25 34H0V0Z" fill="#19B0FF"/>
<g clip-path="url(#clip0_3289:67038)">
<path d="M20.3334 11.9999C19.695 12.4502 18.9882 12.7946 18.2401 13.0199C17.8386 12.5582 17.305 12.231 16.7114 12.0825C16.1179 11.934 15.4931 11.9713 14.9215 12.1895C14.3499 12.4077 13.859 12.7961 13.5154 13.3023C13.1718 13.8086 12.9919 14.4081 13.0001 15.0199V15.6865C11.8285 15.7169 10.6676 15.4571 9.62075 14.9302C8.57391 14.4033 7.67363 13.6256 7.00008 12.6665C7.00008 12.6665 4.33341 18.6665 10.3334 21.3332C8.96043 22.2652 7.32485 22.7325 5.66675 22.6665C11.6667 25.9999 19.0001 22.6665 19.0001 14.9999C18.9995 14.8142 18.9816 14.6289 18.9467 14.4465C19.6271 13.7755 20.1073 12.9283 20.3334 11.9999Z" stroke="white" stroke-width="1.5" stroke-linecap="round" stroke-linejoin="round"/>
</g>
<defs>
<clipPath id="clip0_3289:67038">
<rect width="16" height="16" fill="white" transform="translate(5 10)"/>
</clipPath>
</defs>
</svg>
