<svg width="343" height="62" viewBox="0 0 343 62" fill="none" xmlns="http://www.w3.org/2000/svg">
<path d="M0 4C0 1.79086 1.79086 0 4 0H341C342.105 0 343 0.89543 343 2V60C343 61.1046 342.105 62 341 62H1.99999C0.895424 62 0 61.1046 0 60V4Z" fill="#F8F5FF"/>
<path d="M32.396 30.776C32.396 29.944 32.576 29.204 32.936 28.556C33.296 27.9 33.796 27.392 34.436 27.032C35.084 26.664 35.816 26.48 36.632 26.48C37.632 26.48 38.488 26.744 39.2 27.272C39.912 27.8 40.388 28.52 40.628 29.432H38.372C38.204 29.08 37.964 28.812 37.652 28.628C37.348 28.444 37 28.352 36.608 28.352C35.976 28.352 35.464 28.572 35.072 29.012C34.68 29.452 34.484 30.04 34.484 30.776C34.484 31.512 34.68 32.1 35.072 32.54C35.464 32.98 35.976 33.2 36.608 33.2C37 33.2 37.348 33.108 37.652 32.924C37.964 32.74 38.204 32.472 38.372 32.12H40.628C40.388 33.032 39.912 33.752 39.2 34.28C38.488 34.8 37.632 35.06 36.632 35.06C35.816 35.06 35.084 34.88 34.436 34.52C33.796 34.152 33.296 33.644 32.936 32.996C32.576 32.348 32.396 31.608 32.396 30.776ZM41.4766 31.64C41.4766 30.952 41.6046 30.348 41.8606 29.828C42.1246 29.308 42.4806 28.908 42.9286 28.628C43.3766 28.348 43.8766 28.208 44.4286 28.208C44.9006 28.208 45.3126 28.304 45.6646 28.496C46.0246 28.688 46.3006 28.94 46.4926 29.252V28.304H48.5446V35H46.4926V34.052C46.2926 34.364 46.0126 34.616 45.6526 34.808C45.3006 35 44.8886 35.096 44.4166 35.096C43.8726 35.096 43.3766 34.956 42.9286 34.676C42.4806 34.388 42.1246 33.984 41.8606 33.464C41.6046 32.936 41.4766 32.328 41.4766 31.64ZM46.4926 31.652C46.4926 31.14 46.3486 30.736 46.0606 30.44C45.7806 30.144 45.4366 29.996 45.0286 29.996C44.6206 29.996 44.2726 30.144 43.9846 30.44C43.7046 30.728 43.5646 31.128 43.5646 31.64C43.5646 32.152 43.7046 32.56 43.9846 32.864C44.2726 33.16 44.6206 33.308 45.0286 33.308C45.4366 33.308 45.7806 33.16 46.0606 32.864C46.3486 32.568 46.4926 32.164 46.4926 31.652ZM58.5732 28.232C59.4052 28.232 60.0652 28.484 60.5532 28.988C61.0492 29.492 61.2972 30.192 61.2972 31.088V35H59.2572V31.364C59.2572 30.932 59.1412 30.6 58.9092 30.368C58.6852 30.128 58.3732 30.008 57.9732 30.008C57.5732 30.008 57.2572 30.128 57.0252 30.368C56.8012 30.6 56.6892 30.932 56.6892 31.364V35H54.6492V31.364C54.6492 30.932 54.5332 30.6 54.3012 30.368C54.0772 30.128 53.7652 30.008 53.3652 30.008C52.9652 30.008 52.6492 30.128 52.4172 30.368C52.1932 30.6 52.0812 30.932 52.0812 31.364V35H50.0292V28.304H52.0812V29.144C52.2892 28.864 52.5612 28.644 52.8972 28.484C53.2332 28.316 53.6132 28.232 54.0372 28.232C54.5412 28.232 54.9892 28.34 55.3812 28.556C55.7812 28.772 56.0932 29.08 56.3172 29.48C56.5492 29.112 56.8652 28.812 57.2652 28.58C57.6652 28.348 58.1012 28.232 58.5732 28.232ZM64.7843 29.252C64.9843 28.94 65.2603 28.688 65.6123 28.496C65.9643 28.304 66.3763 28.208 66.8483 28.208C67.4003 28.208 67.9003 28.348 68.3483 28.628C68.7963 28.908 69.1483 29.308 69.4043 29.828C69.6683 30.348 69.8003 30.952 69.8003 31.64C69.8003 32.328 69.6683 32.936 69.4043 33.464C69.1483 33.984 68.7963 34.388 68.3483 34.676C67.9003 34.956 67.4003 35.096 66.8483 35.096C66.3843 35.096 65.9723 35 65.6123 34.808C65.2603 34.616 64.9843 34.368 64.7843 34.064V38.192H62.7323V28.304H64.7843V29.252ZM67.7123 31.64C67.7123 31.128 67.5683 30.728 67.2803 30.44C67.0003 30.144 66.6523 29.996 66.2363 29.996C65.8283 29.996 65.4803 30.144 65.1923 30.44C64.9123 30.736 64.7723 31.14 64.7723 31.652C64.7723 32.164 64.9123 32.568 65.1923 32.864C65.4803 33.16 65.8283 33.308 66.2363 33.308C66.6443 33.308 66.9923 33.16 67.2803 32.864C67.5683 32.56 67.7123 32.152 67.7123 31.64ZM70.4688 31.64C70.4688 30.952 70.5968 30.348 70.8528 29.828C71.1168 29.308 71.4728 28.908 71.9208 28.628C72.3688 28.348 72.8688 28.208 73.4208 28.208C73.8928 28.208 74.3048 28.304 74.6568 28.496C75.0168 28.688 75.2928 28.94 75.4848 29.252V28.304H77.5368V35H75.4848V34.052C75.2848 34.364 75.0048 34.616 74.6448 34.808C74.2928 35 73.8808 35.096 73.4088 35.096C72.8648 35.096 72.3688 34.956 71.9208 34.676C71.4728 34.388 71.1168 33.984 70.8528 33.464C70.5968 32.936 70.4688 32.328 70.4688 31.64ZM75.4848 31.652C75.4848 31.14 75.3408 30.736 75.0528 30.44C74.7728 30.144 74.4288 29.996 74.0208 29.996C73.6128 29.996 73.2648 30.144 72.9768 30.44C72.6968 30.728 72.5568 31.128 72.5568 31.64C72.5568 32.152 72.6968 32.56 72.9768 32.864C73.2648 33.16 73.6128 33.308 74.0208 33.308C74.4288 33.308 74.7728 33.16 75.0528 32.864C75.3408 32.568 75.4848 32.164 75.4848 31.652ZM80.0533 27.608C79.6933 27.608 79.3973 27.504 79.1653 27.296C78.9413 27.08 78.8293 26.816 78.8293 26.504C78.8293 26.184 78.9413 25.92 79.1653 25.712C79.3973 25.496 79.6933 25.388 80.0533 25.388C80.4053 25.388 80.6933 25.496 80.9173 25.712C81.1493 25.92 81.2653 26.184 81.2653 26.504C81.2653 26.816 81.1493 27.08 80.9173 27.296C80.6933 27.504 80.4053 27.608 80.0533 27.608ZM81.0733 28.304V35H79.0213V28.304H81.0733ZM85.1044 28.208C85.5764 28.208 85.9884 28.304 86.3404 28.496C86.7004 28.688 86.9764 28.94 87.1684 29.252V28.304H89.2204V34.988C89.2204 35.604 89.0964 36.16 88.8484 36.656C88.6084 37.16 88.2364 37.56 87.7324 37.856C87.2364 38.152 86.6164 38.3 85.8724 38.3C84.8804 38.3 84.0764 38.064 83.4604 37.592C82.8444 37.128 82.4924 36.496 82.4044 35.696H84.4324C84.4964 35.952 84.6484 36.152 84.8884 36.296C85.1284 36.448 85.4244 36.524 85.7764 36.524C86.2004 36.524 86.5364 36.4 86.7844 36.152C87.0404 35.912 87.1684 35.524 87.1684 34.988V34.04C86.9684 34.352 86.6924 34.608 86.3404 34.808C85.9884 35 85.5764 35.096 85.1044 35.096C84.5524 35.096 84.0524 34.956 83.6044 34.676C83.1564 34.388 82.8004 33.984 82.5364 33.464C82.2804 32.936 82.1524 32.328 82.1524 31.64C82.1524 30.952 82.2804 30.348 82.5364 29.828C82.8004 29.308 83.1564 28.908 83.6044 28.628C84.0524 28.348 84.5524 28.208 85.1044 28.208ZM87.1684 31.652C87.1684 31.14 87.0244 30.736 86.7364 30.44C86.4564 30.144 86.1124 29.996 85.7044 29.996C85.2964 29.996 84.9484 30.144 84.6604 30.44C84.3804 30.728 84.2404 31.128 84.2404 31.64C84.2404 32.152 84.3804 32.56 84.6604 32.864C84.9484 33.16 85.2964 33.308 85.7044 33.308C86.1124 33.308 86.4564 33.16 86.7364 32.864C87.0244 32.568 87.1684 32.164 87.1684 31.652ZM94.7849 28.232C95.5689 28.232 96.1929 28.488 96.6569 29C97.1289 29.504 97.3649 30.2 97.3649 31.088V35H95.3249V31.364C95.3249 30.916 95.2089 30.568 94.9769 30.32C94.7449 30.072 94.4329 29.948 94.0409 29.948C93.6489 29.948 93.3369 30.072 93.1049 30.32C92.8729 30.568 92.7569 30.916 92.7569 31.364V35H90.7049V28.304H92.7569V29.192C92.9649 28.896 93.2449 28.664 93.5969 28.496C93.9489 28.32 94.3449 28.232 94.7849 28.232Z" fill="#5857AB"/>
<path d="M317 29L321 33L325 29" stroke="#5857AB" stroke-width="2" stroke-linecap="round" stroke-linejoin="round"/>
</svg>
