<svg width="26" height="34" viewBox="0 0 26 34" fill="none" xmlns="http://www.w3.org/2000/svg">
<path d="M0 0H25C25.5523 0 26 0.447715 26 1V33C26 33.5523 25.5523 34 25 34H0V0Z" fill="#0B79DE"/>
<path d="M19 20C19 20.3536 18.8595 20.6928 18.6095 20.9428C18.3594 21.1929 18.0203 21.3333 17.6667 21.3333H9.66667L7 24V13.3333C7 12.9797 7.14048 12.6406 7.39052 12.3905C7.64057 12.1405 7.97971 12 8.33333 12H17.6667C18.0203 12 18.3594 12.1405 18.6095 12.3905C18.8595 12.6406 19 12.9797 19 13.3333V20Z" stroke="white" stroke-width="1.5" stroke-linecap="round" stroke-linejoin="round"/>
</svg>
