<svg width="18" height="483" viewBox="0 0 18 483" fill="none" xmlns="http://www.w3.org/2000/svg">
<circle cx="9" cy="9.80859" r="7.5" fill="white" stroke="#5857AB" stroke-width="3"/>
<rect x="7.5" y="18.8086" width="3" height="40" fill="#E4EBF1"/>
<circle cx="9" cy="67.8086" r="7.5" fill="white" stroke="#5857AB" stroke-width="3"/>
<rect x="7.5" y="76.8086" width="3" height="40" fill="#E4EBF1"/>
<circle cx="9" cy="125.809" r="7.5" fill="white" stroke="#5857AB" stroke-width="3"/>
<rect x="7.5" y="134.809" width="3" height="40" fill="#E4EBF1"/>
<circle cx="9" cy="183.809" r="7.5" fill="white" stroke="#4E1BC9" stroke-width="3"/>
<rect x="7.5" y="192.809" width="3" height="40" fill="#E4EBF1"/>
<circle cx="9" cy="241.809" r="7.5" fill="white" stroke="#C8D6E3" stroke-width="3"/>
<rect x="7.5" y="250.809" width="3" height="40" fill="#E4EBF1"/>
<circle cx="9" cy="299.809" r="7.5" fill="white" stroke="#C8D6E3" stroke-width="3"/>
<rect x="7.5" y="308.809" width="3" height="40" fill="#E4EBF1"/>
<circle cx="9" cy="357.809" r="7.5" fill="white" stroke="#C8D6E3" stroke-width="3"/>
<rect x="7.5" y="366.809" width="3" height="40" fill="#E4EBF1"/>
<circle cx="9" cy="415.809" r="7.5" fill="white" stroke="#C8D6E3" stroke-width="3"/>
<rect x="7.5" y="424.809" width="3" height="40" fill="#E4EBF1"/>
<circle cx="9" cy="473.809" r="7.5" fill="white" stroke="#C8D6E3" stroke-width="3"/>
</svg>
