<svg width="94" height="168" viewBox="0 0 94 168" fill="none" xmlns="http://www.w3.org/2000/svg">
<g filter="url(#filter0_d)">
<path d="M20 47C20 32.0883 32.0883 20 47 20C61.9117 20 74 32.0883 74 47C74 61.9117 61.9117 74 47 74C32.0883 74 20 61.9117 20 47Z" fill="white"/>
<rect width="24" height="24" transform="translate(35 35)" fill="white"/>
<path d="M47 35V59" stroke="#5857AB" stroke-width="3" stroke-linecap="round" stroke-linejoin="round"/>
<path d="M35 47H59" stroke="#5857AB" stroke-width="3" stroke-linecap="round" stroke-linejoin="round"/>
</g>
<g filter="url(#filter1_d)">
<path d="M20 116C20 103.85 29.8497 94 42 94C54.1503 94 64 103.85 64 116C64 128.15 54.1503 138 42 138C29.8497 138 20 128.15 20 116Z" fill="white"/>
<rect width="14" height="14" transform="translate(35 109)" fill="white"/>
<path d="M42 109V123" stroke="#5857AB" stroke-width="2" stroke-linecap="round" stroke-linejoin="round"/>
<path d="M35 116H49" stroke="#5857AB" stroke-width="2" stroke-linecap="round" stroke-linejoin="round"/>
</g>
<rect x="0.5" y="0.5" width="93" height="167" rx="4.5" stroke="#4E1BC9" stroke-dasharray="10 5"/>
<defs>
<filter id="filter0_d" x="10" y="14" width="74" height="74" filterUnits="userSpaceOnUse" color-interpolation-filters="sRGB">
<feFlood flood-opacity="0" result="BackgroundImageFix"/>
<feColorMatrix in="SourceAlpha" type="matrix" values="0 0 0 0 0 0 0 0 0 0 0 0 0 0 0 0 0 0 127 0" result="hardAlpha"/>
<feOffset dy="4"/>
<feGaussianBlur stdDeviation="5"/>
<feColorMatrix type="matrix" values="0 0 0 0 0 0 0 0 0 0 0 0 0 0 0 0 0 0 0.1 0"/>
<feBlend mode="normal" in2="BackgroundImageFix" result="effect1_dropShadow"/>
<feBlend mode="normal" in="SourceGraphic" in2="effect1_dropShadow" result="shape"/>
</filter>
<filter id="filter1_d" x="10" y="88" width="64" height="64" filterUnits="userSpaceOnUse" color-interpolation-filters="sRGB">
<feFlood flood-opacity="0" result="BackgroundImageFix"/>
<feColorMatrix in="SourceAlpha" type="matrix" values="0 0 0 0 0 0 0 0 0 0 0 0 0 0 0 0 0 0 127 0" result="hardAlpha"/>
<feOffset dy="4"/>
<feGaussianBlur stdDeviation="5"/>
<feColorMatrix type="matrix" values="0 0 0 0 0 0 0 0 0 0 0 0 0 0 0 0 0 0 0.1 0"/>
<feBlend mode="normal" in2="BackgroundImageFix" result="effect1_dropShadow"/>
<feBlend mode="normal" in="SourceGraphic" in2="effect1_dropShadow" result="shape"/>
</filter>
</defs>
</svg>
