<svg width="352" height="397" viewBox="0 0 352 397" fill="none" xmlns="http://www.w3.org/2000/svg">
<g filter="url(#filter0_d)">
<path d="M8 5C8 3.89543 8.89543 3 10 3H342C343.105 3 344 3.89543 344 5V367C344 375.837 336.837 383 328 383H24C15.1634 383 8 375.837 8 367V5Z" fill="white"/>
<path d="M20.256 25.098C19.6027 25.098 19.0147 24.986 18.492 24.762C17.9693 24.5287 17.5587 24.202 17.26 23.782C16.9613 23.362 16.812 22.872 16.812 22.312H18.52C18.5573 22.732 18.7207 23.0773 19.01 23.348C19.3087 23.6187 19.724 23.754 20.256 23.754C20.8067 23.754 21.236 23.6233 21.544 23.362C21.852 23.0913 22.006 22.746 22.006 22.326C22.006 21.9993 21.908 21.7333 21.712 21.528C21.5253 21.3227 21.2873 21.164 20.998 21.052C20.718 20.94 20.326 20.8187 19.822 20.688C19.1873 20.52 18.6693 20.352 18.268 20.184C17.876 20.0067 17.54 19.736 17.26 19.372C16.98 19.008 16.84 18.5227 16.84 17.916C16.84 17.356 16.98 16.866 17.26 16.446C17.54 16.026 17.932 15.704 18.436 15.48C18.94 15.256 19.5233 15.144 20.186 15.144C21.1287 15.144 21.8987 15.382 22.496 15.858C23.1027 16.3247 23.4387 16.9687 23.504 17.79H21.74C21.712 17.4353 21.544 17.132 21.236 16.88C20.928 16.628 20.522 16.502 20.018 16.502C19.5607 16.502 19.1873 16.6187 18.898 16.852C18.6087 17.0853 18.464 17.4213 18.464 17.86C18.464 18.1587 18.5527 18.406 18.73 18.602C18.9167 18.7887 19.15 18.938 19.43 19.05C19.71 19.162 20.0927 19.2833 20.578 19.414C21.222 19.5913 21.7447 19.7687 22.146 19.946C22.5567 20.1233 22.902 20.3987 23.182 20.772C23.4713 21.136 23.616 21.626 23.616 22.242C23.616 22.7367 23.4807 23.2033 23.21 23.642C22.9487 24.0807 22.5613 24.4353 22.048 24.706C21.544 24.9673 20.9467 25.098 20.256 25.098ZM27.0952 15.27V25H25.4992V15.27H27.0952ZM36.2326 18.07C35.9806 17.5847 35.6306 17.2207 35.1826 16.978C34.7346 16.726 34.2166 16.6 33.6286 16.6C32.9846 16.6 32.4106 16.7447 31.9066 17.034C31.4026 17.3233 31.006 17.734 30.7166 18.266C30.4366 18.798 30.2966 19.414 30.2966 20.114C30.2966 20.814 30.4366 21.4347 30.7166 21.976C31.006 22.508 31.4026 22.9187 31.9066 23.208C32.4106 23.4973 32.9846 23.642 33.6286 23.642C34.4966 23.642 35.2013 23.3993 35.7426 22.914C36.284 22.4287 36.6153 21.7707 36.7366 20.94H33.0826V19.666H38.4446V20.912C38.342 21.668 38.0713 22.3633 37.6326 22.998C37.2033 23.6327 36.6386 24.1413 35.9386 24.524C35.248 24.8973 34.478 25.084 33.6286 25.084C32.714 25.084 31.8786 24.874 31.1226 24.454C30.3666 24.0247 29.7646 23.432 29.3166 22.676C28.878 21.92 28.6586 21.066 28.6586 20.114C28.6586 19.162 28.878 18.308 29.3166 17.552C29.7646 16.796 30.3666 16.208 31.1226 15.788C31.888 15.3587 32.7233 15.144 33.6286 15.144C34.6646 15.144 35.584 15.4007 36.3866 15.914C37.1986 16.418 37.7866 17.1367 38.1506 18.07H36.2326ZM48.0128 25H46.4168L41.6148 17.734V25H40.0188V15.256H41.6148L46.4168 22.508V15.256H48.0128V25ZM55.3413 15.27V25H53.7453V15.27H55.3413ZM65.4307 25H63.8347L59.0327 17.734V25H57.4367V15.256H59.0327L63.8347 22.508V15.256H65.4307V25Z" fill="#5857AB"/>
<rect x="68" y="105" width="216" height="46" rx="3" fill="white"/>
<path d="M98.164 128.076H95.608V130.668H94.588V128.076H92.044V127.152H94.588V124.548H95.608V127.152H98.164V128.076ZM101.339 129.672C101.419 130.128 101.603 130.48 101.891 130.728C102.187 130.976 102.583 131.1 103.079 131.1C103.743 131.1 104.231 130.84 104.543 130.32C104.863 129.8 105.015 128.924 104.999 127.692C104.831 128.052 104.551 128.336 104.159 128.544C103.767 128.744 103.331 128.844 102.851 128.844C102.315 128.844 101.835 128.736 101.411 128.52C100.995 128.296 100.667 127.972 100.427 127.548C100.187 127.124 100.067 126.612 100.067 126.012C100.067 125.156 100.315 124.468 100.811 123.948C101.307 123.42 102.011 123.156 102.923 123.156C104.043 123.156 104.827 123.52 105.275 124.248C105.731 124.976 105.959 126.06 105.959 127.5C105.959 128.508 105.867 129.34 105.683 129.996C105.507 130.652 105.203 131.152 104.771 131.496C104.347 131.84 103.763 132.012 103.019 132.012C102.203 132.012 101.567 131.792 101.111 131.352C100.655 130.912 100.395 130.352 100.331 129.672H101.339ZM103.031 127.92C103.567 127.92 104.007 127.756 104.351 127.428C104.695 127.092 104.867 126.64 104.867 126.072C104.867 125.472 104.699 124.988 104.363 124.62C104.027 124.252 103.555 124.068 102.947 124.068C102.387 124.068 101.939 124.244 101.603 124.596C101.275 124.948 101.111 125.412 101.111 125.988C101.111 126.572 101.275 127.04 101.603 127.392C101.931 127.744 102.407 127.92 103.031 127.92ZM107.494 127.572C107.494 126.196 107.718 125.124 108.166 124.356C108.614 123.58 109.398 123.192 110.518 123.192C111.63 123.192 112.41 123.58 112.858 124.356C113.306 125.124 113.53 126.196 113.53 127.572C113.53 128.972 113.306 130.06 112.858 130.836C112.41 131.612 111.63 132 110.518 132C109.398 132 108.614 131.612 108.166 130.836C107.718 130.06 107.494 128.972 107.494 127.572ZM112.45 127.572C112.45 126.876 112.402 126.288 112.306 125.808C112.218 125.32 112.03 124.928 111.742 124.632C111.462 124.336 111.054 124.188 110.518 124.188C109.974 124.188 109.558 124.336 109.27 124.632C108.99 124.928 108.802 125.32 108.706 125.808C108.618 126.288 108.574 126.876 108.574 127.572C108.574 128.292 108.618 128.896 108.706 129.384C108.802 129.872 108.99 130.264 109.27 130.56C109.558 130.856 109.974 131.004 110.518 131.004C111.054 131.004 111.462 130.856 111.742 130.56C112.03 130.264 112.218 129.872 112.306 129.384C112.402 128.896 112.45 128.292 112.45 127.572Z" fill="#8B8EAD"/>
<path d="M121 126L125 130L129 126" stroke="#5857AB" stroke-width="2" stroke-linecap="round" stroke-linejoin="round"/>
<path d="M153.276 124.272H149.064V127.008C149.248 126.752 149.52 126.544 149.88 126.384C150.24 126.216 150.628 126.132 151.044 126.132C151.708 126.132 152.248 126.272 152.664 126.552C153.08 126.824 153.376 127.18 153.552 127.62C153.736 128.052 153.828 128.512 153.828 129C153.828 129.576 153.72 130.092 153.504 130.548C153.288 131.004 152.956 131.364 152.508 131.628C152.068 131.892 151.52 132.024 150.864 132.024C150.024 132.024 149.344 131.808 148.824 131.376C148.304 130.944 147.988 130.368 147.876 129.648H148.944C149.048 130.104 149.268 130.46 149.604 130.716C149.94 130.972 150.364 131.1 150.876 131.1C151.508 131.1 151.984 130.912 152.304 130.536C152.624 130.152 152.784 129.648 152.784 129.024C152.784 128.4 152.624 127.92 152.304 127.584C151.984 127.24 151.512 127.068 150.888 127.068C150.464 127.068 150.092 127.172 149.772 127.38C149.46 127.58 149.232 127.856 149.088 128.208H148.056V123.312H153.276V124.272ZM155.255 125.508C155.311 124.772 155.595 124.196 156.107 123.78C156.619 123.364 157.283 123.156 158.099 123.156C158.643 123.156 159.111 123.256 159.503 123.456C159.903 123.648 160.203 123.912 160.403 124.248C160.611 124.584 160.715 124.964 160.715 125.388C160.715 125.884 160.571 126.312 160.283 126.672C160.003 127.032 159.635 127.264 159.179 127.368V127.428C159.699 127.556 160.111 127.808 160.415 128.184C160.719 128.56 160.871 129.052 160.871 129.66C160.871 130.116 160.767 130.528 160.559 130.896C160.351 131.256 160.039 131.54 159.623 131.748C159.207 131.956 158.707 132.06 158.123 132.06C157.275 132.06 156.579 131.84 156.035 131.4C155.491 130.952 155.187 130.32 155.123 129.504H156.179C156.235 129.984 156.431 130.376 156.767 130.68C157.103 130.984 157.551 131.136 158.111 131.136C158.671 131.136 159.095 130.992 159.383 130.704C159.679 130.408 159.827 130.028 159.827 129.564C159.827 128.964 159.627 128.532 159.227 128.268C158.827 128.004 158.223 127.872 157.415 127.872H157.139V126.96H157.427C158.163 126.952 158.719 126.832 159.095 126.6C159.471 126.36 159.659 125.992 159.659 125.496C159.659 125.072 159.519 124.732 159.239 124.476C158.967 124.22 158.575 124.092 158.063 124.092C157.567 124.092 157.167 124.22 156.863 124.476C156.559 124.732 156.379 125.076 156.323 125.508H155.255ZM162.322 125.508C162.378 124.772 162.662 124.196 163.174 123.78C163.686 123.364 164.35 123.156 165.166 123.156C165.71 123.156 166.178 123.256 166.57 123.456C166.97 123.648 167.27 123.912 167.47 124.248C167.678 124.584 167.782 124.964 167.782 125.388C167.782 125.884 167.638 126.312 167.35 126.672C167.07 127.032 166.702 127.264 166.246 127.368V127.428C166.766 127.556 167.178 127.808 167.482 128.184C167.786 128.56 167.938 129.052 167.938 129.66C167.938 130.116 167.834 130.528 167.626 130.896C167.418 131.256 167.106 131.54 166.69 131.748C166.274 131.956 165.774 132.06 165.19 132.06C164.342 132.06 163.646 131.84 163.102 131.4C162.558 130.952 162.254 130.32 162.19 129.504H163.246C163.302 129.984 163.498 130.376 163.834 130.68C164.17 130.984 164.618 131.136 165.178 131.136C165.738 131.136 166.162 130.992 166.45 130.704C166.746 130.408 166.894 130.028 166.894 129.564C166.894 128.964 166.694 128.532 166.294 128.268C165.894 128.004 165.29 127.872 164.482 127.872H164.206V126.96H164.494C165.23 126.952 165.786 126.832 166.162 126.6C166.538 126.36 166.726 125.992 166.726 125.496C166.726 125.072 166.586 124.732 166.306 124.476C166.034 124.22 165.642 124.092 165.13 124.092C164.634 124.092 164.234 124.22 163.93 124.476C163.626 124.732 163.446 125.076 163.39 125.508H162.322ZM174.195 127.488C173.747 127.312 173.403 127.056 173.163 126.72C172.923 126.384 172.803 125.976 172.803 125.496C172.803 125.064 172.911 124.676 173.127 124.332C173.343 123.98 173.663 123.704 174.087 123.504C174.519 123.296 175.039 123.192 175.647 123.192C176.255 123.192 176.771 123.296 177.195 123.504C177.627 123.704 177.951 123.98 178.167 124.332C178.391 124.676 178.503 125.064 178.503 125.496C178.503 125.96 178.379 126.368 178.131 126.72C177.883 127.064 177.543 127.32 177.111 127.488C177.607 127.64 177.999 127.908 178.287 128.292C178.583 128.668 178.731 129.124 178.731 129.66C178.731 130.18 178.603 130.636 178.347 131.028C178.091 131.412 177.727 131.712 177.255 131.928C176.791 132.136 176.255 132.24 175.647 132.24C175.039 132.24 174.503 132.136 174.039 131.928C173.583 131.712 173.227 131.412 172.971 131.028C172.715 130.636 172.587 130.18 172.587 129.66C172.587 129.124 172.731 128.664 173.019 128.28C173.307 127.896 173.699 127.632 174.195 127.488ZM177.447 125.628C177.447 125.14 177.287 124.764 176.967 124.5C176.647 124.236 176.207 124.104 175.647 124.104C175.095 124.104 174.659 124.236 174.339 124.5C174.019 124.764 173.859 125.144 173.859 125.64C173.859 126.088 174.023 126.448 174.351 126.72C174.687 126.992 175.119 127.128 175.647 127.128C176.183 127.128 176.615 126.992 176.943 126.72C177.279 126.44 177.447 126.076 177.447 125.628ZM175.647 127.968C175.055 127.968 174.571 128.108 174.195 128.388C173.819 128.66 173.631 129.072 173.631 129.624C173.631 130.136 173.811 130.548 174.171 130.86C174.539 131.172 175.031 131.328 175.647 131.328C176.263 131.328 176.751 131.172 177.111 130.86C177.471 130.548 177.651 130.136 177.651 129.624C177.651 129.088 177.467 128.68 177.099 128.4C176.731 128.112 176.247 127.968 175.647 127.968ZM179.918 130.068V129.24L184.13 123.408H185.438V129.12H186.638V130.068H185.438V132H184.358V130.068H179.918ZM184.406 124.548L181.178 129.12H184.406V124.548ZM193.068 124.176L189.732 132H188.628L192.012 124.284H187.38V123.348H193.068V124.176ZM202.314 125.388C202.138 124.5 201.59 124.056 200.67 124.056C199.958 124.056 199.426 124.332 199.074 124.884C198.722 125.428 198.55 126.328 198.558 127.584C198.742 127.168 199.046 126.844 199.47 126.612C199.902 126.372 200.382 126.252 200.91 126.252C201.734 126.252 202.39 126.508 202.878 127.02C203.374 127.532 203.622 128.24 203.622 129.144C203.622 129.688 203.514 130.176 203.298 130.608C203.09 131.04 202.77 131.384 202.338 131.64C201.914 131.896 201.398 132.024 200.79 132.024C199.966 132.024 199.322 131.84 198.858 131.472C198.394 131.104 198.07 130.596 197.886 129.948C197.702 129.3 197.61 128.5 197.61 127.548C197.61 124.612 198.634 123.144 200.682 123.144C201.466 123.144 202.082 123.356 202.53 123.78C202.978 124.204 203.242 124.74 203.322 125.388H202.314ZM200.682 127.176C200.338 127.176 200.014 127.248 199.71 127.392C199.406 127.528 199.158 127.74 198.966 128.028C198.782 128.308 198.69 128.652 198.69 129.06C198.69 129.668 198.866 130.164 199.218 130.548C199.57 130.924 200.074 131.112 200.73 131.112C201.29 131.112 201.734 130.94 202.062 130.596C202.398 130.244 202.566 129.772 202.566 129.18C202.566 128.556 202.406 128.068 202.086 127.716C201.766 127.356 201.298 127.176 200.682 127.176ZM210.628 124.272H206.416V127.008C206.6 126.752 206.872 126.544 207.232 126.384C207.592 126.216 207.98 126.132 208.396 126.132C209.06 126.132 209.6 126.272 210.016 126.552C210.432 126.824 210.728 127.18 210.904 127.62C211.088 128.052 211.18 128.512 211.18 129C211.18 129.576 211.072 130.092 210.856 130.548C210.64 131.004 210.308 131.364 209.86 131.628C209.42 131.892 208.872 132.024 208.216 132.024C207.376 132.024 206.696 131.808 206.176 131.376C205.656 130.944 205.34 130.368 205.228 129.648H206.296C206.4 130.104 206.62 130.46 206.956 130.716C207.292 130.972 207.716 131.1 208.228 131.1C208.86 131.1 209.336 130.912 209.656 130.536C209.976 130.152 210.136 129.648 210.136 129.024C210.136 128.4 209.976 127.92 209.656 127.584C209.336 127.24 208.864 127.068 208.24 127.068C207.816 127.068 207.444 127.172 207.124 127.38C206.812 127.58 206.584 127.856 206.44 128.208H205.408V123.312H210.628V124.272ZM221.17 124.176L217.834 132H216.73L220.114 124.284H215.482V123.348H221.17V124.176ZM223.965 127.488C223.517 127.312 223.173 127.056 222.933 126.72C222.693 126.384 222.573 125.976 222.573 125.496C222.573 125.064 222.681 124.676 222.897 124.332C223.113 123.98 223.433 123.704 223.857 123.504C224.289 123.296 224.809 123.192 225.417 123.192C226.025 123.192 226.541 123.296 226.965 123.504C227.397 123.704 227.721 123.98 227.937 124.332C228.161 124.676 228.273 125.064 228.273 125.496C228.273 125.96 228.149 126.368 227.901 126.72C227.653 127.064 227.313 127.32 226.881 127.488C227.377 127.64 227.769 127.908 228.057 128.292C228.353 128.668 228.501 129.124 228.501 129.66C228.501 130.18 228.373 130.636 228.117 131.028C227.861 131.412 227.497 131.712 227.025 131.928C226.561 132.136 226.025 132.24 225.417 132.24C224.809 132.24 224.273 132.136 223.809 131.928C223.353 131.712 222.997 131.412 222.741 131.028C222.485 130.636 222.357 130.18 222.357 129.66C222.357 129.124 222.501 128.664 222.789 128.28C223.077 127.896 223.469 127.632 223.965 127.488ZM227.217 125.628C227.217 125.14 227.057 124.764 226.737 124.5C226.417 124.236 225.977 124.104 225.417 124.104C224.865 124.104 224.429 124.236 224.109 124.5C223.789 124.764 223.629 125.144 223.629 125.64C223.629 126.088 223.793 126.448 224.121 126.72C224.457 126.992 224.889 127.128 225.417 127.128C225.953 127.128 226.385 126.992 226.713 126.72C227.049 126.44 227.217 126.076 227.217 125.628ZM225.417 127.968C224.825 127.968 224.341 128.108 223.965 128.388C223.589 128.66 223.401 129.072 223.401 129.624C223.401 130.136 223.581 130.548 223.941 130.86C224.309 131.172 224.801 131.328 225.417 131.328C226.033 131.328 226.521 131.172 226.881 130.86C227.241 130.548 227.421 130.136 227.421 129.624C227.421 129.088 227.237 128.68 226.869 128.4C226.501 128.112 226.017 127.968 225.417 127.968Z" fill="#33343E"/>
<rect x="68" y="105" width="216" height="46" rx="3" stroke="#E4EBF1" stroke-width="2"/>
<rect width="106" height="26" transform="translate(84 92)" fill="white"/>
<path d="M98.732 103.144C98.732 103.568 98.632 103.968 98.432 104.344C98.232 104.72 97.912 105.028 97.472 105.268C97.032 105.5 96.468 105.616 95.78 105.616H94.268V109H92.9V100.66H95.78C96.42 100.66 96.96 100.772 97.4 100.996C97.848 101.212 98.18 101.508 98.396 101.884C98.62 102.26 98.732 102.68 98.732 103.144ZM95.78 104.5C96.3 104.5 96.688 104.384 96.944 104.152C97.2 103.912 97.328 103.576 97.328 103.144C97.328 102.232 96.812 101.776 95.78 101.776H94.268V104.5H95.78ZM103.457 102.28C103.961 102.28 104.409 102.388 104.801 102.604C105.201 102.82 105.513 103.14 105.737 103.564C105.969 103.988 106.085 104.5 106.085 105.1V109H104.729V105.304C104.729 104.712 104.581 104.26 104.285 103.948C103.989 103.628 103.585 103.468 103.073 103.468C102.561 103.468 102.153 103.628 101.849 103.948C101.553 104.26 101.405 104.712 101.405 105.304V109H100.037V100.12H101.405V103.156C101.637 102.876 101.929 102.66 102.281 102.508C102.641 102.356 103.033 102.28 103.457 102.28ZM110.698 109.108C110.074 109.108 109.51 108.968 109.006 108.688C108.502 108.4 108.106 108 107.818 107.488C107.53 106.968 107.386 106.368 107.386 105.688C107.386 105.016 107.534 104.42 107.83 103.9C108.126 103.38 108.53 102.98 109.042 102.7C109.554 102.42 110.126 102.28 110.758 102.28C111.39 102.28 111.962 102.42 112.474 102.7C112.986 102.98 113.39 103.38 113.686 103.9C113.982 104.42 114.13 105.016 114.13 105.688C114.13 106.36 113.978 106.956 113.674 107.476C113.37 107.996 112.954 108.4 112.426 108.688C111.906 108.968 111.33 109.108 110.698 109.108ZM110.698 107.92C111.05 107.92 111.378 107.836 111.682 107.668C111.994 107.5 112.246 107.248 112.438 106.912C112.63 106.576 112.726 106.168 112.726 105.688C112.726 105.208 112.634 104.804 112.45 104.476C112.266 104.14 112.022 103.888 111.718 103.72C111.414 103.552 111.086 103.468 110.734 103.468C110.382 103.468 110.054 103.552 109.75 103.72C109.454 103.888 109.218 104.14 109.042 104.476C108.866 104.804 108.778 105.208 108.778 105.688C108.778 106.4 108.958 106.952 109.318 107.344C109.686 107.728 110.146 107.92 110.698 107.92ZM118.818 102.28C119.338 102.28 119.802 102.388 120.21 102.604C120.626 102.82 120.95 103.14 121.182 103.564C121.414 103.988 121.53 104.5 121.53 105.1V109H120.174V105.304C120.174 104.712 120.026 104.26 119.73 103.948C119.434 103.628 119.03 103.468 118.518 103.468C118.006 103.468 117.598 103.628 117.294 103.948C116.998 104.26 116.85 104.712 116.85 105.304V109H115.482V102.388H116.85V103.144C117.074 102.872 117.358 102.66 117.702 102.508C118.054 102.356 118.426 102.28 118.818 102.28ZM129.335 105.532C129.335 105.78 129.319 106.004 129.287 106.204H124.235C124.275 106.732 124.471 107.156 124.823 107.476C125.175 107.796 125.607 107.956 126.119 107.956C126.855 107.956 127.375 107.648 127.679 107.032H129.155C128.955 107.64 128.591 108.14 128.063 108.532C127.543 108.916 126.895 109.108 126.119 109.108C125.487 109.108 124.919 108.968 124.415 108.688C123.919 108.4 123.527 108 123.239 107.488C122.959 106.968 122.819 106.368 122.819 105.688C122.819 105.008 122.955 104.412 123.227 103.9C123.507 103.38 123.895 102.98 124.391 102.7C124.895 102.42 125.471 102.28 126.119 102.28C126.743 102.28 127.299 102.416 127.787 102.688C128.275 102.96 128.655 103.344 128.927 103.84C129.199 104.328 129.335 104.892 129.335 105.532ZM127.907 105.1C127.899 104.596 127.719 104.192 127.367 103.888C127.015 103.584 126.579 103.432 126.059 103.432C125.587 103.432 125.183 103.584 124.847 103.888C124.511 104.184 124.311 104.588 124.247 105.1H127.907ZM140.65 109H139.282L135.166 102.772V109H133.798V100.648H135.166L139.282 106.864V100.648H140.65V109ZM148.435 102.388V109H147.067V108.22C146.851 108.492 146.567 108.708 146.215 108.868C145.871 109.02 145.503 109.096 145.111 109.096C144.591 109.096 144.123 108.988 143.707 108.772C143.299 108.556 142.975 108.236 142.735 107.812C142.503 107.388 142.387 106.876 142.387 106.276V102.388H143.743V106.072C143.743 106.664 143.891 107.12 144.187 107.44C144.483 107.752 144.887 107.908 145.399 107.908C145.911 107.908 146.315 107.752 146.611 107.44C146.915 107.12 147.067 106.664 147.067 106.072V102.388H148.435ZM158.244 102.28C158.764 102.28 159.228 102.388 159.636 102.604C160.052 102.82 160.376 103.14 160.608 103.564C160.848 103.988 160.968 104.5 160.968 105.1V109H159.612V105.304C159.612 104.712 159.464 104.26 159.168 103.948C158.872 103.628 158.468 103.468 157.956 103.468C157.444 103.468 157.036 103.628 156.732 103.948C156.436 104.26 156.288 104.712 156.288 105.304V109H154.932V105.304C154.932 104.712 154.784 104.26 154.488 103.948C154.192 103.628 153.788 103.468 153.276 103.468C152.764 103.468 152.356 103.628 152.052 103.948C151.756 104.26 151.608 104.712 151.608 105.304V109H150.24V102.388H151.608V103.144C151.832 102.872 152.116 102.66 152.46 102.508C152.804 102.356 153.172 102.28 153.564 102.28C154.092 102.28 154.564 102.392 154.98 102.616C155.396 102.84 155.716 103.164 155.94 103.588C156.14 103.188 156.452 102.872 156.876 102.64C157.3 102.4 157.756 102.28 158.244 102.28ZM164.077 103.372C164.309 103.052 164.625 102.792 165.025 102.592C165.433 102.384 165.885 102.28 166.381 102.28C166.965 102.28 167.493 102.42 167.965 102.7C168.437 102.98 168.809 103.38 169.081 103.9C169.353 104.412 169.489 105 169.489 105.664C169.489 106.328 169.353 106.924 169.081 107.452C168.809 107.972 168.433 108.38 167.953 108.676C167.481 108.964 166.957 109.108 166.381 109.108C165.869 109.108 165.413 109.008 165.013 108.808C164.621 108.608 164.309 108.352 164.077 108.04V109H162.709V100.12H164.077V103.372ZM168.097 105.664C168.097 105.208 168.001 104.816 167.809 104.488C167.625 104.152 167.377 103.9 167.065 103.732C166.761 103.556 166.433 103.468 166.081 103.468C165.737 103.468 165.409 103.556 165.097 103.732C164.793 103.908 164.545 104.164 164.353 104.5C164.169 104.836 164.077 105.232 164.077 105.688C164.077 106.144 164.169 106.544 164.353 106.888C164.545 107.224 164.793 107.48 165.097 107.656C165.409 107.832 165.737 107.92 166.081 107.92C166.433 107.92 166.761 107.832 167.065 107.656C167.377 107.472 167.625 107.208 167.809 106.864C168.001 106.52 168.097 106.12 168.097 105.664ZM176.901 105.532C176.901 105.78 176.885 106.004 176.853 106.204H171.801C171.841 106.732 172.037 107.156 172.389 107.476C172.741 107.796 173.173 107.956 173.685 107.956C174.421 107.956 174.941 107.648 175.245 107.032H176.721C176.521 107.64 176.157 108.14 175.629 108.532C175.109 108.916 174.461 109.108 173.685 109.108C173.053 109.108 172.485 108.968 171.981 108.688C171.485 108.4 171.093 108 170.805 107.488C170.525 106.968 170.385 106.368 170.385 105.688C170.385 105.008 170.521 104.412 170.793 103.9C171.073 103.38 171.461 102.98 171.957 102.7C172.461 102.42 173.037 102.28 173.685 102.28C174.309 102.28 174.865 102.416 175.353 102.688C175.841 102.96 176.221 103.344 176.493 103.84C176.765 104.328 176.901 104.892 176.901 105.532ZM175.473 105.1C175.465 104.596 175.285 104.192 174.933 103.888C174.581 103.584 174.145 103.432 173.625 103.432C173.153 103.432 172.749 103.584 172.413 103.888C172.077 104.184 171.877 104.588 171.813 105.1H175.473ZM179.616 103.348C179.816 103.012 180.08 102.752 180.408 102.568C180.744 102.376 181.14 102.28 181.596 102.28V103.696H181.248C180.712 103.696 180.304 103.832 180.024 104.104C179.752 104.376 179.616 104.848 179.616 105.52V109H178.248V102.388H179.616V103.348Z" fill="#5857AB"/>
<rect x="67" y="168" width="218" height="52" rx="2" fill="#E2633A"/>
<path d="M163.578 200H161.754L156.266 191.696V200H154.442V188.864H156.266L161.754 197.152V188.864H163.578V200ZM167.797 190.352V193.616H171.637V195.104H167.797V198.512H172.117V200H165.973V188.864H172.117V190.352H167.797ZM179.468 194.448L182.924 200H180.876L178.364 195.968L176.012 200H173.98L177.436 194.448L173.964 188.88H176.012L178.54 192.944L180.908 188.88H182.94L179.468 194.448ZM192.111 188.88V190.368H189.151V200H187.327V190.368H184.351V188.88H192.111Z" fill="white"/>
<path d="M288.84 342.376C288.84 343.72 289.288 344.776 290.184 345.544C291.08 346.28 292.024 346.648 293.016 346.648C294.04 346.648 294.984 346.36 295.848 345.784C296.744 345.176 297.464 344.872 298.008 344.872C298.968 344.872 300.136 345.72 301.512 347.416C302.248 348.344 302.616 349.176 302.616 349.912C302.616 351.128 301.736 352.264 299.976 353.32C298.152 354.6 295.912 355.24 293.256 355.24C290.28 355.24 287.416 354.168 284.664 352.024C283.352 351 282.28 349.64 281.448 347.944C280.616 346.216 280.2 344.328 280.2 342.28C280.2 340.2 280.616 338.328 281.448 336.664C282.28 334.968 283.352 333.608 284.664 332.584C287.32 330.472 290.152 329.416 293.16 329.416C294.376 329.416 295.56 329.592 296.712 329.944C297.864 330.264 298.712 330.584 299.256 330.904L300.024 331.384C300.6 331.768 301.048 332.072 301.368 332.296C302.2 332.936 302.616 333.672 302.616 334.504C302.616 335.304 302.28 336.216 301.608 337.24C300.456 339 299.352 339.88 298.296 339.88C297.688 339.88 296.824 339.528 295.704 338.824C295.128 338.28 294.296 338.008 293.208 338.008C292.152 338.008 291.16 338.392 290.232 339.16C289.304 339.928 288.84 341 288.84 342.376Z" fill="#252473"/>
<path d="M305.909 352.744C305.301 352.36 304.997 351.752 304.997 350.92C304.997 350.088 305.605 348.824 306.821 347.128C307.173 346.584 307.733 346.312 308.501 346.312C309.301 346.312 310.373 346.712 311.717 347.512C313.061 348.28 314.277 348.664 315.365 348.664C317.317 348.664 318.293 348.28 318.293 347.512C318.293 346.904 317.221 346.456 315.077 346.168C313.061 345.88 311.061 345.128 309.077 343.912C308.149 343.336 307.381 342.44 306.773 341.224C306.165 339.976 305.861 338.504 305.861 336.808C305.861 331.752 309.333 329.224 316.277 329.224C318.549 329.224 320.885 329.768 323.285 330.856C324.405 331.368 324.965 332.008 324.965 332.776C324.965 333.544 324.613 334.488 323.909 335.608C323.205 336.728 322.485 337.288 321.749 337.288C321.365 337.288 320.645 337.048 319.589 336.568C318.565 336.088 317.445 335.848 316.229 335.848C314.341 335.848 313.397 336.2 313.397 336.904C313.397 337.864 314.485 338.488 316.661 338.776C318.773 339 320.821 339.608 322.805 340.6C323.733 341.048 324.501 341.832 325.109 342.952C325.749 344.04 326.069 345.416 326.069 347.08C326.069 348.744 325.749 350.168 325.109 351.352C324.501 352.504 323.637 353.368 322.517 353.944C320.469 354.936 317.893 355.432 314.789 355.432C311.717 355.432 308.757 354.536 305.909 352.744Z" fill="#5857AB"/>
<rect x="298" y="359" width="28" height="9" rx="4.5" fill="#252473"/>
</g>
<defs>
<filter id="filter0_d" x="0" y="0" width="352" height="397" filterUnits="userSpaceOnUse" color-interpolation-filters="sRGB">
<feFlood flood-opacity="0" result="BackgroundImageFix"/>
<feColorMatrix in="SourceAlpha" type="matrix" values="0 0 0 0 0 0 0 0 0 0 0 0 0 0 0 0 0 0 127 0" result="hardAlpha"/>
<feOffset dy="5"/>
<feGaussianBlur stdDeviation="4"/>
<feColorMatrix type="matrix" values="0 0 0 0 0 0 0 0 0 0 0 0 0 0 0 0 0 0 0.05 0"/>
<feBlend mode="normal" in2="BackgroundImageFix" result="effect1_dropShadow"/>
<feBlend mode="normal" in="SourceGraphic" in2="effect1_dropShadow" result="shape"/>
</filter>
</defs>
</svg>
