<svg width="26" height="34" viewBox="0 0 26 34" fill="none" xmlns="http://www.w3.org/2000/svg">
<path d="M0 0H25C25.5523 0 26 0.447715 26 1V33C26 33.5523 25.5523 34 25 34H0V0Z" fill="#5857AB"/>
<g clip-path="url(#clip0)">
<path d="M15.0333 13.3334C15.6845 13.4605 16.2829 13.7789 16.752 14.248C17.2211 14.7172 17.5396 15.3156 17.6666 15.9667M15.0333 10.6667C16.3862 10.817 17.6477 11.4229 18.6108 12.3848C19.5739 13.3466 20.1813 14.6074 20.3333 15.9601M19.6666 21.2801V23.2801C19.6674 23.4657 19.6294 23.6495 19.555 23.8196C19.4806 23.9898 19.3715 24.1425 19.2347 24.268C19.0979 24.3935 18.9364 24.4891 18.7605 24.5486C18.5846 24.608 18.3982 24.6301 18.2133 24.6134C16.1619 24.3905 14.1913 23.6895 12.46 22.5667C10.8492 21.5432 9.48353 20.1775 8.45998 18.5667C7.33329 16.8276 6.63214 14.8474 6.41331 12.7867C6.39665 12.6024 6.41856 12.4166 6.47764 12.2412C6.53673 12.0657 6.63169 11.9045 6.75649 11.7678C6.88128 11.6311 7.03318 11.5219 7.2025 11.4471C7.37183 11.3723 7.55487 11.3336 7.73998 11.3334H9.73998C10.0635 11.3302 10.3772 11.4448 10.6225 11.6558C10.8678 11.8667 11.028 12.1597 11.0733 12.4801C11.1577 13.1201 11.3143 13.7486 11.54 14.3534C11.6297 14.592 11.6491 14.8514 11.5959 15.1007C11.5427 15.35 11.4192 15.5788 11.24 15.7601L10.3933 16.6067C11.3423 18.2758 12.7243 19.6577 14.3933 20.6067L15.24 19.7601C15.4212 19.5808 15.6501 19.4573 15.8994 19.4041C16.1487 19.351 16.408 19.3704 16.6466 19.4601C17.2515 19.6858 17.8799 19.8423 18.52 19.9267C18.8438 19.9724 19.1396 20.1356 19.351 20.3851C19.5624 20.6346 19.6748 20.9531 19.6666 21.2801Z" stroke="white" stroke-width="1.5" stroke-linecap="round" stroke-linejoin="round"/>
</g>
<defs>
<clipPath id="clip0">
<rect width="16" height="16" fill="white" transform="translate(5 10)"/>
</clipPath>
</defs>
</svg>
