<svg width="238" height="224" viewBox="0 0 238 224" fill="none" xmlns="http://www.w3.org/2000/svg">
<g filter="url(#filter0_d)">
<path d="M10 6.99999C10 5.89542 10.8954 5 12 5H226C227.105 5 228 5.89543 228 7V205C228 207.209 226.209 209 224 209H14C11.7909 209 10 207.209 10 205V6.99999Z" fill="url(#paint0_linear)"/>
<path d="M10 7C10 5.89543 10.8954 5 12 5H226C227.105 5 228 5.89543 228 7V7H10V7Z" fill="#19B0FF"/>
<path d="M29.1171 19.48V26.5H27.4071V19.48H29.1171ZM36.6363 26.5H34.9263L32.0663 22.17V26.5H30.3563V19.48H32.0663L34.9263 23.83V19.48H36.6363V26.5ZM37.5859 22.98C37.5859 22.2867 37.7359 21.67 38.0359 21.13C38.3359 20.5833 38.7525 20.16 39.2859 19.86C39.8259 19.5533 40.4359 19.4 41.1159 19.4C41.9492 19.4 42.6625 19.62 43.2559 20.06C43.8492 20.5 44.2459 21.1 44.4459 21.86H42.5659C42.4259 21.5667 42.2259 21.3433 41.9659 21.19C41.7125 21.0367 41.4225 20.96 41.0959 20.96C40.5692 20.96 40.1425 21.1433 39.8159 21.51C39.4892 21.8767 39.3259 22.3667 39.3259 22.98C39.3259 23.5933 39.4892 24.0833 39.8159 24.45C40.1425 24.8167 40.5692 25 41.0959 25C41.4225 25 41.7125 24.9233 41.9659 24.77C42.2259 24.6167 42.4259 24.3933 42.5659 24.1H44.4459C44.2459 24.86 43.8492 25.46 43.2559 25.9C42.6625 26.3333 41.9492 26.55 41.1159 26.55C40.4359 26.55 39.8259 26.4 39.2859 26.1C38.7525 25.7933 38.3359 25.37 38.0359 24.83C37.7359 24.29 37.5859 23.6733 37.5859 22.98ZM48.813 26.57C48.153 26.57 47.5464 26.4167 46.993 26.11C46.4464 25.8033 46.0097 25.3767 45.683 24.83C45.363 24.2767 45.203 23.6567 45.203 22.97C45.203 22.2833 45.363 21.6667 45.683 21.12C46.0097 20.5733 46.4464 20.1467 46.993 19.84C47.5464 19.5333 48.153 19.38 48.813 19.38C49.473 19.38 50.0764 19.5333 50.623 19.84C51.1764 20.1467 51.6097 20.5733 51.923 21.12C52.243 21.6667 52.403 22.2833 52.403 22.97C52.403 23.6567 52.243 24.2767 51.923 24.83C51.603 25.3767 51.1697 25.8033 50.623 26.11C50.0764 26.4167 49.473 26.57 48.813 26.57ZM48.813 25.01C49.373 25.01 49.8197 24.8233 50.153 24.45C50.493 24.0767 50.663 23.5833 50.663 22.97C50.663 22.35 50.493 21.8567 50.153 21.49C49.8197 21.1167 49.373 20.93 48.813 20.93C48.2464 20.93 47.793 21.1133 47.453 21.48C47.1197 21.8467 46.953 22.3433 46.953 22.97C46.953 23.59 47.1197 24.0867 47.453 24.46C47.793 24.8267 48.2464 25.01 48.813 25.01ZM61.3044 19.48V26.5H59.5944V22.29L58.0244 26.5H56.6444L55.0644 22.28V26.5H53.3544V19.48H55.3744L57.3444 24.34L59.2944 19.48H61.3044ZM64.2441 19.48V26.5H62.5341V19.48H64.2441ZM71.7633 26.5H70.0533L67.1933 22.17V26.5H65.4833V19.48H67.1933L70.0533 23.83V19.48H71.7633V26.5ZM77.6628 21.7C77.5361 21.4667 77.3528 21.29 77.1128 21.17C76.8795 21.0433 76.6028 20.98 76.2828 20.98C75.7295 20.98 75.2861 21.1633 74.9528 21.53C74.6195 21.89 74.4528 22.3733 74.4528 22.98C74.4528 23.6267 74.6261 24.1333 74.9728 24.5C75.3261 24.86 75.8095 25.04 76.4228 25.04C76.8428 25.04 77.1961 24.9333 77.4828 24.72C77.7761 24.5067 77.9895 24.2 78.1228 23.8H75.9528V22.54H79.6728V24.13C79.5461 24.5567 79.3295 24.9533 79.0228 25.32C78.7228 25.6867 78.3395 25.9833 77.8728 26.21C77.4061 26.4367 76.8795 26.55 76.2928 26.55C75.5995 26.55 74.9795 26.4 74.4328 26.1C73.8928 25.7933 73.4695 25.37 73.1628 24.83C72.8628 24.29 72.7128 23.6733 72.7128 22.98C72.7128 22.2867 72.8628 21.67 73.1628 21.13C73.4695 20.5833 73.8928 20.16 74.4328 19.86C74.9728 19.5533 75.5895 19.4 76.2828 19.4C77.1228 19.4 77.8295 19.6033 78.4028 20.01C78.9828 20.4167 79.3661 20.98 79.5528 21.7H77.6628Z" fill="#19B0FF"/>
<path d="M204 24C204.552 24 205 23.5523 205 23C205 22.4477 204.552 22 204 22C203.448 22 203 22.4477 203 23C203 23.5523 203.448 24 204 24Z" stroke="#C8D6E3" stroke-width="2" stroke-linecap="round" stroke-linejoin="round"/>
<path d="M211 24C211.552 24 212 23.5523 212 23C212 22.4477 211.552 22 211 22C210.448 22 210 22.4477 210 23C210 23.5523 210.448 24 211 24Z" stroke="#C8D6E3" stroke-width="2" stroke-linecap="round" stroke-linejoin="round"/>
<path d="M197 24C197.552 24 198 23.5523 198 23C198 22.4477 197.552 22 197 22C196.448 22 196 22.4477 196 23C196 23.5523 196.448 24 197 24Z" stroke="#C8D6E3" stroke-width="2" stroke-linecap="round" stroke-linejoin="round"/>
<g filter="url(#filter1_d)">
<path d="M10 35H209C211.209 35 213 36.7909 213 39V65C213 67.2091 211.209 69 209 69H10V35Z" fill="white"/>
<path d="M10 35H35C35.5523 35 36 35.4477 36 36V68C36 68.5523 35.5523 69 35 69H10V35Z" fill="#5857AB"/>
<g clip-path="url(#clip0)">
<path d="M25.0332 48.3334C25.6844 48.4604 26.2828 48.7789 26.752 49.248C27.2211 49.7171 27.5395 50.3155 27.6666 50.9667M25.0332 45.6667C26.3861 45.817 27.6476 46.4228 28.6107 47.3847C29.5738 48.3466 30.1813 49.6074 30.3332 50.96M29.6666 56.28V58.28C29.6673 58.4657 29.6293 58.6495 29.5549 58.8196C29.4805 58.9897 29.3714 59.1424 29.2346 59.2679C29.0978 59.3934 28.9363 59.489 28.7604 59.5485C28.5845 59.608 28.3982 59.6301 28.2132 59.6134C26.1618 59.3904 24.1912 58.6894 22.4599 57.5667C20.8491 56.5431 19.4835 55.1775 18.4599 53.5667C17.3332 51.8275 16.6321 49.8473 16.4132 47.7867C16.3966 47.6023 16.4185 47.4165 16.4776 47.2411C16.5367 47.0657 16.6316 46.9045 16.7564 46.7678C16.8812 46.6311 17.0331 46.5218 17.2024 46.447C17.3718 46.3722 17.5548 46.3335 17.7399 46.3334H19.7399C20.0635 46.3302 20.3771 46.4447 20.6224 46.6557C20.8677 46.8667 21.028 47.1597 21.0732 47.48C21.1577 48.1201 21.3142 48.7485 21.5399 49.3534C21.6296 49.592 21.649 49.8513 21.5959 50.1006C21.5427 50.3499 21.4192 50.5788 21.2399 50.76L20.3932 51.6067C21.3423 53.2757 22.7242 54.6576 24.3932 55.6067L25.2399 54.76C25.4212 54.5808 25.65 54.4573 25.8993 54.4041C26.1486 54.3509 26.408 54.3703 26.6466 54.46C27.2514 54.6857 27.8799 54.8423 28.5199 54.9267C28.8438 54.9724 29.1395 55.1355 29.3509 55.385C29.5624 55.6345 29.6747 55.9531 29.6666 56.28Z" stroke="white" stroke-width="1.5" stroke-linecap="round" stroke-linejoin="round"/>
</g>
<path d="M44.324 49.148V47.24H47.648V56H45.512V49.148H44.324ZM49.1237 49.712C49.1557 48.856 49.4357 48.196 49.9637 47.732C50.4917 47.268 51.2077 47.036 52.1117 47.036C52.7117 47.036 53.2237 47.14 53.6477 47.348C54.0797 47.556 54.4037 47.84 54.6197 48.2C54.8437 48.56 54.9557 48.964 54.9557 49.412C54.9557 49.94 54.8237 50.372 54.5597 50.708C54.2957 51.036 53.9877 51.26 53.6357 51.38V51.428C54.0917 51.58 54.4517 51.832 54.7157 52.184C54.9797 52.536 55.1117 52.988 55.1117 53.54C55.1117 54.036 54.9957 54.476 54.7637 54.86C54.5397 55.236 54.2077 55.532 53.7677 55.748C53.3357 55.964 52.8197 56.072 52.2197 56.072C51.2597 56.072 50.4917 55.836 49.9157 55.364C49.3477 54.892 49.0477 54.18 49.0157 53.228H51.0077C51.0157 53.58 51.1157 53.86 51.3077 54.068C51.4997 54.268 51.7797 54.368 52.1477 54.368C52.4597 54.368 52.6997 54.28 52.8677 54.104C53.0437 53.92 53.1317 53.68 53.1317 53.384C53.1317 53 53.0077 52.724 52.7597 52.556C52.5197 52.38 52.1317 52.292 51.5957 52.292H51.2117V50.624H51.5957C52.0037 50.624 52.3317 50.556 52.5797 50.42C52.8357 50.276 52.9637 50.024 52.9637 49.664C52.9637 49.376 52.8837 49.152 52.7237 48.992C52.5637 48.832 52.3437 48.752 52.0637 48.752C51.7597 48.752 51.5317 48.844 51.3797 49.028C51.2357 49.212 51.1517 49.44 51.1277 49.712H49.1237ZM56.3653 54.44V52.784L60.1573 47.36H62.4493V52.664H63.4333V54.44H62.4493V56H60.3973V54.44H56.3653ZM60.5413 49.616L58.5253 52.664H60.5413V49.616ZM64.5104 49.712C64.5424 48.856 64.8224 48.196 65.3504 47.732C65.8784 47.268 66.5944 47.036 67.4984 47.036C68.0984 47.036 68.6104 47.14 69.0344 47.348C69.4664 47.556 69.7904 47.84 70.0064 48.2C70.2304 48.56 70.3424 48.964 70.3424 49.412C70.3424 49.94 70.2104 50.372 69.9464 50.708C69.6824 51.036 69.3744 51.26 69.0224 51.38V51.428C69.4784 51.58 69.8384 51.832 70.1024 52.184C70.3664 52.536 70.4984 52.988 70.4984 53.54C70.4984 54.036 70.3824 54.476 70.1504 54.86C69.9264 55.236 69.5944 55.532 69.1544 55.748C68.7224 55.964 68.2064 56.072 67.6064 56.072C66.6464 56.072 65.8784 55.836 65.3024 55.364C64.7344 54.892 64.4344 54.18 64.4024 53.228H66.3944C66.4024 53.58 66.5024 53.86 66.6944 54.068C66.8864 54.268 67.1664 54.368 67.5344 54.368C67.8464 54.368 68.0864 54.28 68.2544 54.104C68.4304 53.92 68.5184 53.68 68.5184 53.384C68.5184 53 68.3944 52.724 68.1464 52.556C67.9064 52.38 67.5184 52.292 66.9824 52.292H66.5984V50.624H66.9824C67.3904 50.624 67.7184 50.556 67.9664 50.42C68.2224 50.276 68.3504 50.024 68.3504 49.664C68.3504 49.376 68.2704 49.152 68.1104 48.992C67.9504 48.832 67.7304 48.752 67.4504 48.752C67.1464 48.752 66.9184 48.844 66.7664 49.028C66.6224 49.212 66.5384 49.44 66.5144 49.712H64.5104ZM71.7521 54.44V52.784L75.5441 47.36H77.8361V52.664H78.8201V54.44H77.8361V56H75.7841V54.44H71.7521ZM75.9281 49.616L73.9121 52.664H75.9281V49.616Z" fill="#5857AB"/>
<rect x="179" y="40" width="26" height="24" rx="12" fill="#8B8EAD"/>
<path d="M184.03 50.26C184.056 49.5467 184.29 48.9967 184.73 48.61C185.17 48.2233 185.766 48.03 186.52 48.03C187.02 48.03 187.446 48.1167 187.8 48.29C188.16 48.4633 188.43 48.7 188.61 49C188.796 49.3 188.89 49.6367 188.89 50.01C188.89 50.45 188.78 50.81 188.56 51.09C188.34 51.3633 188.083 51.55 187.79 51.65V51.69C188.17 51.8167 188.47 52.0267 188.69 52.32C188.91 52.6133 189.02 52.99 189.02 53.45C189.02 53.8633 188.923 54.23 188.73 54.55C188.543 54.8633 188.266 55.11 187.9 55.29C187.54 55.47 187.11 55.56 186.61 55.56C185.81 55.56 185.17 55.3633 184.69 54.97C184.216 54.5767 183.966 53.9833 183.94 53.19H185.6C185.606 53.4833 185.69 53.7167 185.85 53.89C186.01 54.0567 186.243 54.14 186.55 54.14C186.81 54.14 187.01 54.0667 187.15 53.92C187.296 53.7667 187.37 53.5667 187.37 53.32C187.37 53 187.266 52.77 187.06 52.63C186.86 52.4833 186.536 52.41 186.09 52.41H185.77V51.02H186.09C186.43 51.02 186.703 50.9633 186.91 50.85C187.123 50.73 187.23 50.52 187.23 50.22C187.23 49.98 187.163 49.7933 187.03 49.66C186.896 49.5267 186.713 49.46 186.48 49.46C186.226 49.46 186.036 49.5367 185.91 49.69C185.79 49.8433 185.72 50.0333 185.7 50.26H184.03ZM189.964 54.13C190.191 53.95 190.294 53.8667 190.274 53.88C190.928 53.34 191.441 52.8967 191.814 52.55C192.194 52.2033 192.514 51.84 192.774 51.46C193.034 51.08 193.164 50.71 193.164 50.35C193.164 50.0767 193.101 49.8633 192.974 49.71C192.848 49.5567 192.658 49.48 192.404 49.48C192.151 49.48 191.951 49.5767 191.804 49.77C191.664 49.9567 191.594 50.2233 191.594 50.57H189.944C189.958 50.0033 190.078 49.53 190.304 49.15C190.538 48.77 190.841 48.49 191.214 48.31C191.594 48.13 192.014 48.04 192.474 48.04C193.268 48.04 193.864 48.2433 194.264 48.65C194.671 49.0567 194.874 49.5867 194.874 50.24C194.874 50.9533 194.631 51.6167 194.144 52.23C193.658 52.8367 193.038 53.43 192.284 54.01H194.984V55.4H189.964V54.13ZM195.677 54.13C195.904 53.95 196.007 53.8667 195.987 53.88C196.64 53.34 197.154 52.8967 197.527 52.55C197.907 52.2033 198.227 51.84 198.487 51.46C198.747 51.08 198.877 50.71 198.877 50.35C198.877 50.0767 198.814 49.8633 198.687 49.71C198.56 49.5567 198.37 49.48 198.117 49.48C197.864 49.48 197.664 49.5767 197.517 49.77C197.377 49.9567 197.307 50.2233 197.307 50.57H195.657C195.67 50.0033 195.79 49.53 196.017 49.15C196.25 48.77 196.554 48.49 196.927 48.31C197.307 48.13 197.727 48.04 198.187 48.04C198.98 48.04 199.577 48.2433 199.977 48.65C200.384 49.0567 200.587 49.5867 200.587 50.24C200.587 50.9533 200.344 51.6167 199.857 52.23C199.37 52.8367 198.75 53.43 197.997 54.01H200.697V55.4H195.677V54.13Z" fill="white"/>
</g>
<path d="M32.104 91L29.864 87.108H28.646V91H27.05V81.27H30.41C31.1567 81.27 31.7867 81.4007 32.3 81.662C32.8227 81.9233 33.21 82.2733 33.462 82.712C33.7233 83.1507 33.854 83.6407 33.854 84.182C33.854 84.8167 33.6673 85.3953 33.294 85.918C32.93 86.4313 32.3653 86.7813 31.6 86.968L34.008 91H32.104ZM28.646 85.834H30.41C31.0073 85.834 31.4553 85.6847 31.754 85.386C32.062 85.0873 32.216 84.686 32.216 84.182C32.216 83.678 32.0667 83.286 31.768 83.006C31.4693 82.7167 31.0167 82.572 30.41 82.572H28.646V85.834ZM42.9657 86.954C42.9657 87.2433 42.947 87.5047 42.9097 87.738H37.0157C37.0624 88.354 37.291 88.8487 37.7017 89.222C38.1124 89.5953 38.6164 89.782 39.2137 89.782C40.0724 89.782 40.679 89.4227 41.0337 88.704H42.7557C42.5224 89.4133 42.0977 89.9967 41.4817 90.454C40.875 90.902 40.119 91.126 39.2137 91.126C38.4764 91.126 37.8137 90.9627 37.2257 90.636C36.647 90.3 36.1897 89.8333 35.8537 89.236C35.527 88.6293 35.3637 87.9293 35.3637 87.136C35.3637 86.3427 35.5224 85.6473 35.8397 85.05C36.1664 84.4433 36.619 83.9767 37.1977 83.65C37.7857 83.3233 38.4577 83.16 39.2137 83.16C39.9417 83.16 40.5904 83.3187 41.1597 83.636C41.729 83.9533 42.1724 84.4013 42.4897 84.98C42.807 85.5493 42.9657 86.2073 42.9657 86.954ZM41.2997 86.45C41.2904 85.862 41.0804 85.3907 40.6697 85.036C40.259 84.6813 39.7504 84.504 39.1437 84.504C38.593 84.504 38.1217 84.6813 37.7297 85.036C37.3377 85.3813 37.1044 85.8527 37.0297 86.45H41.2997ZM46.1323 84.42C46.403 84.0653 46.7717 83.7667 47.2383 83.524C47.705 83.2813 48.2323 83.16 48.8203 83.16C49.4923 83.16 50.1037 83.328 50.6543 83.664C51.2143 83.9907 51.653 84.4527 51.9703 85.05C52.2877 85.6473 52.4463 86.3333 52.4463 87.108C52.4463 87.8827 52.2877 88.578 51.9703 89.194C51.653 89.8007 51.2143 90.2767 50.6543 90.622C50.1037 90.958 49.4923 91.126 48.8203 91.126C48.2323 91.126 47.7097 91.0093 47.2523 90.776C46.795 90.5333 46.4217 90.2347 46.1323 89.88V94.668H44.5363V83.286H46.1323V84.42ZM50.8223 87.108C50.8223 86.576 50.7103 86.1187 50.4863 85.736C50.2717 85.344 49.9823 85.05 49.6183 84.854C49.2637 84.6487 48.881 84.546 48.4703 84.546C48.069 84.546 47.6863 84.6487 47.3223 84.854C46.9677 85.0593 46.6783 85.358 46.4543 85.75C46.2397 86.142 46.1323 86.604 46.1323 87.136C46.1323 87.668 46.2397 88.1347 46.4543 88.536C46.6783 88.928 46.9677 89.2267 47.3223 89.432C47.6863 89.6373 48.069 89.74 48.4703 89.74C48.881 89.74 49.2637 89.6373 49.6183 89.432C49.9823 89.2173 50.2717 88.9093 50.4863 88.508C50.7103 88.1067 50.8223 87.64 50.8223 87.108ZM57.3706 91.126C56.6426 91.126 55.9846 90.9627 55.3966 90.636C54.8086 90.3 54.3466 89.8333 54.0106 89.236C53.6746 88.6293 53.5066 87.9293 53.5066 87.136C53.5066 86.352 53.6793 85.6567 54.0246 85.05C54.3699 84.4433 54.8413 83.9767 55.4386 83.65C56.0359 83.3233 56.7033 83.16 57.4406 83.16C58.1779 83.16 58.8453 83.3233 59.4426 83.65C60.0399 83.9767 60.5113 84.4433 60.8566 85.05C61.2019 85.6567 61.3746 86.352 61.3746 87.136C61.3746 87.92 61.1973 88.6153 60.8426 89.222C60.4879 89.8287 60.0026 90.3 59.3866 90.636C58.7799 90.9627 58.1079 91.126 57.3706 91.126ZM57.3706 89.74C57.7813 89.74 58.1639 89.642 58.5186 89.446C58.8826 89.25 59.1766 88.956 59.4006 88.564C59.6246 88.172 59.7366 87.696 59.7366 87.136C59.7366 86.576 59.6293 86.1047 59.4146 85.722C59.1999 85.33 58.9153 85.036 58.5606 84.84C58.2059 84.644 57.8233 84.546 57.4126 84.546C57.0019 84.546 56.6193 84.644 56.2646 84.84C55.9193 85.036 55.6439 85.33 55.4386 85.722C55.2333 86.1047 55.1306 86.576 55.1306 87.136C55.1306 87.9667 55.3406 88.6107 55.7606 89.068C56.1899 89.516 56.7266 89.74 57.3706 89.74ZM64.5483 84.406C64.7817 84.014 65.0897 83.7107 65.4723 83.496C65.8643 83.272 66.3263 83.16 66.8583 83.16V84.812H66.4523C65.827 84.812 65.351 84.9707 65.0243 85.288C64.707 85.6053 64.5483 86.156 64.5483 86.94V91H62.9523V83.286H64.5483V84.406ZM70.1874 84.588V88.858C70.1874 89.1473 70.2527 89.3573 70.3834 89.488C70.5234 89.6093 70.7567 89.67 71.0834 89.67H72.0634V91H70.8034C70.0847 91 69.5341 90.832 69.1514 90.496C68.7687 90.16 68.5774 89.614 68.5774 88.858V84.588H67.6674V83.286H68.5774V81.368H70.1874V83.286H72.0634V84.588H70.1874ZM74.3464 82.264C74.057 82.264 73.8144 82.166 73.6184 81.97C73.4224 81.774 73.3244 81.5313 73.3244 81.242C73.3244 80.9527 73.4224 80.71 73.6184 80.514C73.8144 80.318 74.057 80.22 74.3464 80.22C74.6264 80.22 74.8644 80.318 75.0604 80.514C75.2564 80.71 75.3544 80.9527 75.3544 81.242C75.3544 81.5313 75.2564 81.774 75.0604 81.97C74.8644 82.166 74.6264 82.264 74.3464 82.264ZM75.1304 83.286V91H73.5344V83.286H75.1304ZM81.1178 83.16C81.7244 83.16 82.2658 83.286 82.7418 83.538C83.2271 83.79 83.6051 84.1633 83.8758 84.658C84.1464 85.1527 84.2818 85.75 84.2818 86.45V91H82.6998V86.688C82.6998 85.9973 82.5271 85.47 82.1818 85.106C81.8364 84.7327 81.3651 84.546 80.7678 84.546C80.1704 84.546 79.6944 84.7327 79.3398 85.106C78.9944 85.47 78.8218 85.9973 78.8218 86.688V91H77.2258V83.286H78.8218V84.168C79.0831 83.8507 79.4144 83.6033 79.8158 83.426C80.2264 83.2487 80.6604 83.16 81.1178 83.16ZM89.4256 83.16C90.0229 83.16 90.5502 83.2813 91.0076 83.524C91.4742 83.7573 91.8382 84.0513 92.0996 84.406V83.286H93.7096V91.126C93.7096 91.8353 93.5602 92.4653 93.2616 93.016C92.9629 93.576 92.5289 94.0147 91.9596 94.332C91.3996 94.6493 90.7276 94.808 89.9436 94.808C88.8982 94.808 88.0302 94.5607 87.3396 94.066C86.6489 93.5807 86.2569 92.918 86.1636 92.078H87.7456C87.8669 92.4793 88.1236 92.8013 88.5156 93.044C88.9169 93.296 89.3929 93.422 89.9436 93.422C90.5876 93.422 91.1056 93.226 91.4976 92.834C91.8989 92.442 92.0996 91.8727 92.0996 91.126V89.838C91.8289 90.202 91.4602 90.51 90.9936 90.762C90.5362 91.0047 90.0136 91.126 89.4256 91.126C88.7536 91.126 88.1376 90.958 87.5776 90.622C87.0269 90.2767 86.5882 89.8007 86.2616 89.194C85.9442 88.578 85.7856 87.8827 85.7856 87.108C85.7856 86.3333 85.9442 85.6473 86.2616 85.05C86.5882 84.4527 87.0269 83.9907 87.5776 83.664C88.1376 83.328 88.7536 83.16 89.4256 83.16ZM92.0996 87.136C92.0996 86.604 91.9876 86.142 91.7636 85.75C91.5489 85.358 91.2642 85.0593 90.9096 84.854C90.5549 84.6487 90.1722 84.546 89.7616 84.546C89.3509 84.546 88.9682 84.6487 88.6136 84.854C88.2589 85.05 87.9696 85.344 87.7456 85.736C87.5309 86.1187 87.4236 86.576 87.4236 87.108C87.4236 87.64 87.5309 88.1067 87.7456 88.508C87.9696 88.9093 88.2589 89.2173 88.6136 89.432C88.9776 89.6373 89.3602 89.74 89.7616 89.74C90.1722 89.74 90.5549 89.6373 90.9096 89.432C91.2642 89.2267 91.5489 88.928 91.7636 88.536C91.9876 88.1347 92.0996 87.668 92.0996 87.136ZM102.649 91.098C101.995 91.098 101.407 90.986 100.885 90.762C100.362 90.5287 99.9512 90.202 99.6526 89.782C99.3539 89.362 99.2046 88.872 99.2046 88.312H100.913C100.95 88.732 101.113 89.0773 101.403 89.348C101.701 89.6187 102.117 89.754 102.649 89.754C103.199 89.754 103.629 89.6233 103.937 89.362C104.245 89.0913 104.399 88.746 104.399 88.326C104.399 87.9993 104.301 87.7333 104.105 87.528C103.918 87.3227 103.68 87.164 103.391 87.052C103.111 86.94 102.719 86.8187 102.215 86.688C101.58 86.52 101.062 86.352 100.661 86.184C100.269 86.0067 99.9326 85.736 99.6526 85.372C99.3726 85.008 99.2326 84.5227 99.2326 83.916C99.2326 83.356 99.3726 82.866 99.6526 82.446C99.9326 82.026 100.325 81.704 100.829 81.48C101.333 81.256 101.916 81.144 102.579 81.144C103.521 81.144 104.291 81.382 104.889 81.858C105.495 82.3247 105.831 82.9687 105.897 83.79H104.133C104.105 83.4353 103.937 83.132 103.629 82.88C103.321 82.628 102.915 82.502 102.411 82.502C101.953 82.502 101.58 82.6187 101.291 82.852C101.001 83.0853 100.857 83.4213 100.857 83.86C100.857 84.1587 100.945 84.406 101.123 84.602C101.309 84.7887 101.543 84.938 101.823 85.05C102.103 85.162 102.485 85.2833 102.971 85.414C103.615 85.5913 104.137 85.7687 104.539 85.946C104.949 86.1233 105.295 86.3987 105.575 86.772C105.864 87.136 106.009 87.626 106.009 88.242C106.009 88.7367 105.873 89.2033 105.603 89.642C105.341 90.0807 104.954 90.4353 104.441 90.706C103.937 90.9673 103.339 91.098 102.649 91.098ZM109.754 84.588V88.858C109.754 89.1473 109.819 89.3573 109.95 89.488C110.09 89.6093 110.323 89.67 110.65 89.67H111.63V91H110.37C109.651 91 109.1 90.832 108.718 90.496C108.335 90.16 108.144 89.614 108.144 88.858V84.588H107.234V83.286H108.144V81.368H109.754V83.286H111.63V84.588H109.754ZM116.447 91.126C115.719 91.126 115.061 90.9627 114.473 90.636C113.885 90.3 113.423 89.8333 113.087 89.236C112.751 88.6293 112.583 87.9293 112.583 87.136C112.583 86.352 112.755 85.6567 113.101 85.05C113.446 84.4433 113.917 83.9767 114.515 83.65C115.112 83.3233 115.779 83.16 116.517 83.16C117.254 83.16 117.921 83.3233 118.519 83.65C119.116 83.9767 119.587 84.4433 119.933 85.05C120.278 85.6567 120.451 86.352 120.451 87.136C120.451 87.92 120.273 88.6153 119.919 89.222C119.564 89.8287 119.079 90.3 118.463 90.636C117.856 90.9627 117.184 91.126 116.447 91.126ZM116.447 89.74C116.857 89.74 117.24 89.642 117.595 89.446C117.959 89.25 118.253 88.956 118.477 88.564C118.701 88.172 118.813 87.696 118.813 87.136C118.813 86.576 118.705 86.1047 118.491 85.722C118.276 85.33 117.991 85.036 117.637 84.84C117.282 84.644 116.899 84.546 116.489 84.546C116.078 84.546 115.695 84.644 115.341 84.84C114.995 85.036 114.72 85.33 114.515 85.722C114.309 86.1047 114.207 86.576 114.207 87.136C114.207 87.9667 114.417 88.6107 114.837 89.068C115.266 89.516 115.803 89.74 116.447 89.74ZM123.625 80.64V91H122.029V80.64H123.625ZM132.79 86.954C132.79 87.2433 132.771 87.5047 132.734 87.738H126.84C126.887 88.354 127.115 88.8487 127.526 89.222C127.937 89.5953 128.441 89.782 129.038 89.782C129.897 89.782 130.503 89.4227 130.858 88.704H132.58C132.347 89.4133 131.922 89.9967 131.306 90.454C130.699 90.902 129.943 91.126 129.038 91.126C128.301 91.126 127.638 90.9627 127.05 90.636C126.471 90.3 126.014 89.8333 125.678 89.236C125.351 88.6293 125.188 87.9293 125.188 87.136C125.188 86.3427 125.347 85.6473 125.664 85.05C125.991 84.4433 126.443 83.9767 127.022 83.65C127.61 83.3233 128.282 83.16 129.038 83.16C129.766 83.16 130.415 83.3187 130.984 83.636C131.553 83.9533 131.997 84.4013 132.314 84.98C132.631 85.5493 132.79 86.2073 132.79 86.954ZM131.124 86.45C131.115 85.862 130.905 85.3907 130.494 85.036C130.083 84.6813 129.575 84.504 128.968 84.504C128.417 84.504 127.946 84.6813 127.554 85.036C127.162 85.3813 126.929 85.8527 126.854 86.45H131.124ZM138.253 83.16C138.859 83.16 139.401 83.286 139.877 83.538C140.362 83.79 140.74 84.1633 141.011 84.658C141.281 85.1527 141.417 85.75 141.417 86.45V91H139.835V86.688C139.835 85.9973 139.662 85.47 139.317 85.106C138.971 84.7327 138.5 84.546 137.903 84.546C137.305 84.546 136.829 84.7327 136.475 85.106C136.129 85.47 135.957 85.9973 135.957 86.688V91H134.361V83.286H135.957V84.168C136.218 83.8507 136.549 83.6033 136.951 83.426C137.361 83.2487 137.795 83.16 138.253 83.16ZM154.607 91L153.403 89.796C152.936 90.2627 152.428 90.6127 151.877 90.846C151.326 91.07 150.71 91.182 150.029 91.182C149.338 91.182 148.727 91.0607 148.195 90.818C147.663 90.5753 147.252 90.23 146.963 89.782C146.674 89.3247 146.529 88.7973 146.529 88.2C146.529 87.528 146.72 86.9307 147.103 86.408C147.486 85.876 148.055 85.456 148.811 85.148C148.54 84.8213 148.349 84.518 148.237 84.238C148.125 83.9487 148.069 83.6313 148.069 83.286C148.069 82.8567 148.176 82.474 148.391 82.138C148.615 81.802 148.932 81.536 149.343 81.34C149.754 81.144 150.23 81.046 150.771 81.046C151.322 81.046 151.788 81.1533 152.171 81.368C152.563 81.5733 152.852 81.858 153.039 82.222C153.235 82.586 153.314 82.992 153.277 83.44H151.681C151.69 83.0947 151.606 82.8287 151.429 82.642C151.252 82.446 151.009 82.348 150.701 82.348C150.393 82.348 150.141 82.4413 149.945 82.628C149.758 82.8053 149.665 83.0247 149.665 83.286C149.665 83.538 149.735 83.79 149.875 84.042C150.024 84.2847 150.281 84.602 150.645 84.994L153.221 87.556L154.215 85.918H155.937L154.677 88.074L154.327 88.648L156.693 91H154.607ZM150.029 89.824C150.906 89.824 151.681 89.4647 152.353 88.746L149.777 86.156C148.676 86.5947 148.125 87.2573 148.125 88.144C148.125 88.62 148.302 89.0213 148.657 89.348C149.012 89.6653 149.469 89.824 150.029 89.824ZM162.972 89.712H166.262V91H161.376V81.27H162.972V89.712ZM170.943 91.126C170.215 91.126 169.557 90.9627 168.969 90.636C168.381 90.3 167.919 89.8333 167.583 89.236C167.247 88.6293 167.079 87.9293 167.079 87.136C167.079 86.352 167.252 85.6567 167.597 85.05C167.942 84.4433 168.414 83.9767 169.011 83.65C169.608 83.3233 170.276 83.16 171.013 83.16C171.75 83.16 172.418 83.3233 173.015 83.65C173.612 83.9767 174.084 84.4433 174.429 85.05C174.774 85.6567 174.947 86.352 174.947 87.136C174.947 87.92 174.77 88.6153 174.415 89.222C174.06 89.8287 173.575 90.3 172.959 90.636C172.352 90.9627 171.68 91.126 170.943 91.126ZM170.943 89.74C171.354 89.74 171.736 89.642 172.091 89.446C172.455 89.25 172.749 88.956 172.973 88.564C173.197 88.172 173.309 87.696 173.309 87.136C173.309 86.576 173.202 86.1047 172.987 85.722C172.772 85.33 172.488 85.036 172.133 84.84C171.778 84.644 171.396 84.546 170.985 84.546C170.574 84.546 170.192 84.644 169.837 84.84C169.492 85.036 169.216 85.33 169.011 85.722C168.806 86.1047 168.703 86.576 168.703 87.136C168.703 87.9667 168.913 88.6107 169.333 89.068C169.762 89.516 170.299 89.74 170.943 89.74ZM179.325 91.126C178.718 91.126 178.172 91.0187 177.687 90.804C177.211 90.58 176.833 90.2813 176.553 89.908C176.273 89.5253 176.123 89.1007 176.105 88.634H177.757C177.785 88.9607 177.939 89.236 178.219 89.46C178.508 89.6747 178.867 89.782 179.297 89.782C179.745 89.782 180.09 89.698 180.333 89.53C180.585 89.3527 180.711 89.1287 180.711 88.858C180.711 88.5687 180.571 88.354 180.291 88.214C180.02 88.074 179.586 87.92 178.989 87.752C178.41 87.5933 177.939 87.4393 177.575 87.29C177.211 87.1407 176.893 86.912 176.623 86.604C176.361 86.296 176.231 85.89 176.231 85.386C176.231 84.9753 176.352 84.602 176.595 84.266C176.837 83.9207 177.183 83.65 177.631 83.454C178.088 83.258 178.611 83.16 179.199 83.16C180.076 83.16 180.781 83.384 181.313 83.832C181.854 84.2707 182.143 84.8727 182.181 85.638H180.585C180.557 85.2927 180.417 85.0173 180.165 84.812C179.913 84.6067 179.572 84.504 179.143 84.504C178.723 84.504 178.401 84.5833 178.177 84.742C177.953 84.9007 177.841 85.1107 177.841 85.372C177.841 85.5773 177.915 85.75 178.065 85.89C178.214 86.03 178.396 86.142 178.611 86.226C178.825 86.3007 179.143 86.3987 179.563 86.52C180.123 86.6693 180.58 86.8233 180.935 86.982C181.299 87.1313 181.611 87.3553 181.873 87.654C182.134 87.9527 182.269 88.3493 182.279 88.844C182.279 89.2827 182.157 89.6747 181.915 90.02C181.672 90.3653 181.327 90.636 180.879 90.832C180.44 91.028 179.922 91.126 179.325 91.126ZM185.865 84.588V88.858C185.865 89.1473 185.93 89.3573 186.061 89.488C186.201 89.6093 186.434 89.67 186.761 89.67H187.741V91H186.481C185.762 91 185.212 90.832 184.829 90.496C184.446 90.16 184.255 89.614 184.255 88.858V84.588H183.345V83.286H184.255V81.368H185.865V83.286H187.741V84.588H185.865ZM26.518 105.114C26.518 104.162 26.7373 103.308 27.176 102.552C27.624 101.796 28.226 101.208 28.982 100.788C29.7473 100.359 30.5827 100.144 31.488 100.144C32.524 100.144 33.4433 100.401 34.246 100.914C35.058 101.418 35.646 102.137 36.01 103.07H34.092C33.84 102.557 33.49 102.174 33.042 101.922C32.594 101.67 32.076 101.544 31.488 101.544C30.844 101.544 30.27 101.689 29.766 101.978C29.262 102.267 28.8653 102.683 28.576 103.224C28.296 103.765 28.156 104.395 28.156 105.114C28.156 105.833 28.296 106.463 28.576 107.004C28.8653 107.545 29.262 107.965 29.766 108.264C30.27 108.553 30.844 108.698 31.488 108.698C32.076 108.698 32.594 108.572 33.042 108.32C33.49 108.068 33.84 107.685 34.092 107.172H36.01C35.646 108.105 35.058 108.824 34.246 109.328C33.4433 109.832 32.524 110.084 31.488 110.084C30.5733 110.084 29.738 109.874 28.982 109.454C28.226 109.025 27.624 108.432 27.176 107.676C26.7373 106.92 26.518 106.066 26.518 105.114ZM39.4741 103.406C39.7075 103.014 40.0155 102.711 40.3981 102.496C40.7901 102.272 41.2521 102.16 41.7841 102.16V103.812H41.3781C40.7528 103.812 40.2768 103.971 39.9501 104.288C39.6328 104.605 39.4741 105.156 39.4741 105.94V110H37.8781V102.286H39.4741V103.406ZM50.3212 105.954C50.3212 106.243 50.3025 106.505 50.2652 106.738H44.3712C44.4178 107.354 44.6465 107.849 45.0572 108.222C45.4678 108.595 45.9718 108.782 46.5692 108.782C47.4278 108.782 48.0345 108.423 48.3892 107.704H50.1112C49.8778 108.413 49.4532 108.997 48.8372 109.454C48.2305 109.902 47.4745 110.126 46.5692 110.126C45.8318 110.126 45.1692 109.963 44.5812 109.636C44.0025 109.3 43.5452 108.833 43.2092 108.236C42.8825 107.629 42.7192 106.929 42.7192 106.136C42.7192 105.343 42.8778 104.647 43.1952 104.05C43.5218 103.443 43.9745 102.977 44.5532 102.65C45.1412 102.323 45.8132 102.16 46.5692 102.16C47.2972 102.16 47.9458 102.319 48.5152 102.636C49.0845 102.953 49.5278 103.401 49.8452 103.98C50.1625 104.549 50.3212 105.207 50.3212 105.954ZM48.6552 105.45C48.6458 104.862 48.4358 104.391 48.0252 104.036C47.6145 103.681 47.1058 103.504 46.4992 103.504C45.9485 103.504 45.4772 103.681 45.0852 104.036C44.6932 104.381 44.4598 104.853 44.3852 105.45H48.6552ZM51.3598 106.108C51.3598 105.333 51.5185 104.647 51.8358 104.05C52.1625 103.453 52.6011 102.991 53.1518 102.664C53.7118 102.328 54.3325 102.16 55.0138 102.16C55.5178 102.16 56.0125 102.272 56.4978 102.496C56.9925 102.711 57.3845 103 57.6738 103.364V99.64H59.2838V110H57.6738V108.838C57.4125 109.211 57.0485 109.519 56.5818 109.762C56.1245 110.005 55.5971 110.126 54.9998 110.126C54.3278 110.126 53.7118 109.958 53.1518 109.622C52.6011 109.277 52.1625 108.801 51.8358 108.194C51.5185 107.578 51.3598 106.883 51.3598 106.108ZM57.6738 106.136C57.6738 105.604 57.5618 105.142 57.3378 104.75C57.1231 104.358 56.8385 104.059 56.4838 103.854C56.1291 103.649 55.7465 103.546 55.3358 103.546C54.9251 103.546 54.5425 103.649 54.1878 103.854C53.8331 104.05 53.5438 104.344 53.3198 104.736C53.1051 105.119 52.9978 105.576 52.9978 106.108C52.9978 106.64 53.1051 107.107 53.3198 107.508C53.5438 107.909 53.8331 108.217 54.1878 108.432C54.5518 108.637 54.9345 108.74 55.3358 108.74C55.7465 108.74 56.1291 108.637 56.4838 108.432C56.8385 108.227 57.1231 107.928 57.3378 107.536C57.5618 107.135 57.6738 106.668 57.6738 106.136ZM62.1921 101.264C61.9027 101.264 61.6601 101.166 61.4641 100.97C61.2681 100.774 61.1701 100.531 61.1701 100.242C61.1701 99.9527 61.2681 99.71 61.4641 99.514C61.6601 99.318 61.9027 99.22 62.1921 99.22C62.4721 99.22 62.7101 99.318 62.9061 99.514C63.1021 99.71 63.2001 99.9527 63.2001 100.242C63.2001 100.531 63.1021 100.774 62.9061 100.97C62.7101 101.166 62.4721 101.264 62.1921 101.264ZM62.9761 102.286V110H61.3801V102.286H62.9761ZM66.9335 103.588V107.858C66.9335 108.147 66.9988 108.357 67.1295 108.488C67.2695 108.609 67.5028 108.67 67.8295 108.67H68.8095V110H67.5495C66.8308 110 66.2802 109.832 65.8975 109.496C65.5148 109.16 65.3235 108.614 65.3235 107.858V103.588H64.4135V102.286H65.3235V100.368H66.9335V102.286H68.8095V103.588H66.9335ZM73.3852 105.114C73.3852 104.162 73.6045 103.308 74.0432 102.552C74.4912 101.796 75.0932 101.208 75.8492 100.788C76.6145 100.359 77.4499 100.144 78.3552 100.144C79.3912 100.144 80.3105 100.401 81.1132 100.914C81.9252 101.418 82.5132 102.137 82.8772 103.07H80.9592C80.7072 102.557 80.3572 102.174 79.9092 101.922C79.4612 101.67 78.9432 101.544 78.3552 101.544C77.7112 101.544 77.1372 101.689 76.6332 101.978C76.1292 102.267 75.7325 102.683 75.4432 103.224C75.1632 103.765 75.0232 104.395 75.0232 105.114C75.0232 105.833 75.1632 106.463 75.4432 107.004C75.7325 107.545 76.1292 107.965 76.6332 108.264C77.1372 108.553 77.7112 108.698 78.3552 108.698C78.9432 108.698 79.4612 108.572 79.9092 108.32C80.3572 108.068 80.7072 107.685 80.9592 107.172H82.8772C82.5132 108.105 81.9252 108.824 81.1132 109.328C80.3105 109.832 79.3912 110.084 78.3552 110.084C77.4405 110.084 76.6052 109.874 75.8492 109.454C75.0932 109.025 74.4912 108.432 74.0432 107.676C73.6045 106.92 73.3852 106.066 73.3852 105.114ZM84.2133 106.108C84.2133 105.333 84.372 104.647 84.6893 104.05C85.016 103.453 85.4546 102.991 86.0053 102.664C86.5653 102.328 87.1813 102.16 87.8533 102.16C88.46 102.16 88.9873 102.281 89.4353 102.524C89.8926 102.757 90.2566 103.051 90.5273 103.406V102.286H92.1373V110H90.5273V108.852C90.2566 109.216 89.888 109.519 89.4213 109.762C88.9546 110.005 88.4226 110.126 87.8253 110.126C87.1626 110.126 86.556 109.958 86.0053 109.622C85.4546 109.277 85.016 108.801 84.6893 108.194C84.372 107.578 84.2133 106.883 84.2133 106.108ZM90.5273 106.136C90.5273 105.604 90.4153 105.142 90.1913 104.75C89.9766 104.358 89.692 104.059 89.3373 103.854C88.9826 103.649 88.6 103.546 88.1893 103.546C87.7786 103.546 87.396 103.649 87.0413 103.854C86.6866 104.05 86.3973 104.344 86.1733 104.736C85.9586 105.119 85.8513 105.576 85.8513 106.108C85.8513 106.64 85.9586 107.107 86.1733 107.508C86.3973 107.909 86.6866 108.217 87.0413 108.432C87.4053 108.637 87.788 108.74 88.1893 108.74C88.6 108.74 88.9826 108.637 89.3373 108.432C89.692 108.227 89.9766 107.928 90.1913 107.536C90.4153 107.135 90.5273 106.668 90.5273 106.136ZM95.8296 103.406C96.0629 103.014 96.3709 102.711 96.7536 102.496C97.1456 102.272 97.6076 102.16 98.1396 102.16V103.812H97.7336C97.1083 103.812 96.6323 103.971 96.3056 104.288C95.9883 104.605 95.8296 105.156 95.8296 105.94V110H94.2336V102.286H95.8296V103.406ZM99.0746 106.108C99.0746 105.333 99.2333 104.647 99.5506 104.05C99.8773 103.453 100.316 102.991 100.867 102.664C101.427 102.328 102.047 102.16 102.729 102.16C103.233 102.16 103.727 102.272 104.213 102.496C104.707 102.711 105.099 103 105.389 103.364V99.64H106.999V110H105.389V108.838C105.127 109.211 104.763 109.519 104.297 109.762C103.839 110.005 103.312 110.126 102.715 110.126C102.043 110.126 101.427 109.958 100.867 109.622C100.316 109.277 99.8773 108.801 99.5506 108.194C99.2333 107.578 99.0746 106.883 99.0746 106.108ZM105.389 106.136C105.389 105.604 105.277 105.142 105.053 104.75C104.838 104.358 104.553 104.059 104.199 103.854C103.844 103.649 103.461 103.546 103.051 103.546C102.64 103.546 102.257 103.649 101.903 103.854C101.548 104.05 101.259 104.344 101.035 104.736C100.82 105.119 100.713 105.576 100.713 106.108C100.713 106.64 100.82 107.107 101.035 107.508C101.259 107.909 101.548 108.217 101.903 108.432C102.267 108.637 102.649 108.74 103.051 108.74C103.461 108.74 103.844 108.637 104.199 108.432C104.553 108.227 104.838 107.928 105.053 107.536C105.277 107.135 105.389 106.668 105.389 106.136ZM111.895 110.126C111.288 110.126 110.742 110.019 110.257 109.804C109.781 109.58 109.403 109.281 109.123 108.908C108.843 108.525 108.694 108.101 108.675 107.634H110.327C110.355 107.961 110.509 108.236 110.789 108.46C111.078 108.675 111.438 108.782 111.867 108.782C112.315 108.782 112.66 108.698 112.903 108.53C113.155 108.353 113.281 108.129 113.281 107.858C113.281 107.569 113.141 107.354 112.861 107.214C112.59 107.074 112.156 106.92 111.559 106.752C110.98 106.593 110.509 106.439 110.145 106.29C109.781 106.141 109.464 105.912 109.193 105.604C108.932 105.296 108.801 104.89 108.801 104.386C108.801 103.975 108.922 103.602 109.165 103.266C109.408 102.921 109.753 102.65 110.201 102.454C110.658 102.258 111.181 102.16 111.769 102.16C112.646 102.16 113.351 102.384 113.883 102.832C114.424 103.271 114.714 103.873 114.751 104.638H113.155C113.127 104.293 112.987 104.017 112.735 103.812C112.483 103.607 112.142 103.504 111.713 103.504C111.293 103.504 110.971 103.583 110.747 103.742C110.523 103.901 110.411 104.111 110.411 104.372C110.411 104.577 110.486 104.75 110.635 104.89C110.784 105.03 110.966 105.142 111.181 105.226C111.396 105.301 111.713 105.399 112.133 105.52C112.693 105.669 113.15 105.823 113.505 105.982C113.869 106.131 114.182 106.355 114.443 106.654C114.704 106.953 114.84 107.349 114.849 107.844C114.849 108.283 114.728 108.675 114.485 109.02C114.242 109.365 113.897 109.636 113.449 109.832C113.01 110.028 112.492 110.126 111.895 110.126Z" fill="#0B79DE"/>
<path d="M26 131C26 126.582 29.5817 123 34 123H205C209.418 123 213 126.582 213 131V185C213 189.418 209.418 193 205 193H34C29.5817 193 26 189.418 26 185V131Z" fill="white"/>
<path d="M186 140C186.552 140 187 139.552 187 139C187 138.448 186.552 138 186 138C185.448 138 185 138.448 185 139C185 139.552 185.448 140 186 140Z" stroke="#C8D6E3" stroke-width="2" stroke-linecap="round" stroke-linejoin="round"/>
<path d="M193 140C193.552 140 194 139.552 194 139C194 138.448 193.552 138 193 138C192.448 138 192 138.448 192 139C192 139.552 192.448 140 193 140Z" stroke="#C8D6E3" stroke-width="2" stroke-linecap="round" stroke-linejoin="round"/>
<path d="M179 140C179.552 140 180 139.552 180 139C180 138.448 179.552 138 179 138C178.448 138 178 138.448 178 139C178 139.552 178.448 140 179 140Z" stroke="#C8D6E3" stroke-width="2" stroke-linecap="round" stroke-linejoin="round"/>
<path d="M47.336 155.27V156.572H44.746V165H43.15V156.572H40.546V155.27H47.336ZM56.0223 160.954C56.0223 161.243 56.0037 161.505 55.9663 161.738H50.0723C50.119 162.354 50.3477 162.849 50.7583 163.222C51.169 163.595 51.673 163.782 52.2703 163.782C53.129 163.782 53.7357 163.423 54.0903 162.704H55.8123C55.579 163.413 55.1543 163.997 54.5383 164.454C53.9317 164.902 53.1757 165.126 52.2703 165.126C51.533 165.126 50.8703 164.963 50.2823 164.636C49.7037 164.3 49.2463 163.833 48.9103 163.236C48.5837 162.629 48.4203 161.929 48.4203 161.136C48.4203 160.343 48.579 159.647 48.8963 159.05C49.223 158.443 49.6757 157.977 50.2543 157.65C50.8423 157.323 51.5143 157.16 52.2703 157.16C52.9983 157.16 53.647 157.319 54.2163 157.636C54.7857 157.953 55.229 158.401 55.5463 158.98C55.8637 159.549 56.0223 160.207 56.0223 160.954ZM54.3563 160.45C54.347 159.862 54.137 159.391 53.7263 159.036C53.3157 158.681 52.807 158.504 52.2003 158.504C51.6497 158.504 51.1783 158.681 50.7863 159.036C50.3943 159.381 50.161 159.853 50.0863 160.45H54.3563ZM57.061 161.108C57.061 160.333 57.2196 159.647 57.537 159.05C57.8636 158.453 58.3023 157.991 58.853 157.664C59.413 157.328 60.029 157.16 60.701 157.16C61.3076 157.16 61.835 157.281 62.283 157.524C62.7403 157.757 63.1043 158.051 63.375 158.406V157.286H64.985V165H63.375V163.852C63.1043 164.216 62.7356 164.519 62.269 164.762C61.8023 165.005 61.2703 165.126 60.673 165.126C60.0103 165.126 59.4036 164.958 58.853 164.622C58.3023 164.277 57.8636 163.801 57.537 163.194C57.2196 162.578 57.061 161.883 57.061 161.108ZM63.375 161.136C63.375 160.604 63.263 160.142 63.039 159.75C62.8243 159.358 62.5396 159.059 62.185 158.854C61.8303 158.649 61.4476 158.546 61.037 158.546C60.6263 158.546 60.2436 158.649 59.889 158.854C59.5343 159.05 59.245 159.344 59.021 159.736C58.8063 160.119 58.699 160.576 58.699 161.108C58.699 161.64 58.8063 162.107 59.021 162.508C59.245 162.909 59.5343 163.217 59.889 163.432C60.253 163.637 60.6356 163.74 61.037 163.74C61.4476 163.74 61.8303 163.637 62.185 163.432C62.5396 163.227 62.8243 162.928 63.039 162.536C63.263 162.135 63.375 161.668 63.375 161.136ZM76.4193 157.16C77.0259 157.16 77.5673 157.286 78.0433 157.538C78.5286 157.79 78.9066 158.163 79.1773 158.658C79.4573 159.153 79.5973 159.75 79.5973 160.45V165H78.0153V160.688C78.0153 159.997 77.8426 159.47 77.4973 159.106C77.1519 158.733 76.6806 158.546 76.0833 158.546C75.4859 158.546 75.0099 158.733 74.6553 159.106C74.3099 159.47 74.1373 159.997 74.1373 160.688V165H72.5553V160.688C72.5553 159.997 72.3826 159.47 72.0373 159.106C71.6919 158.733 71.2206 158.546 70.6233 158.546C70.0259 158.546 69.5499 158.733 69.1953 159.106C68.8499 159.47 68.6773 159.997 68.6773 160.688V165H67.0813V157.286H68.6773V158.168C68.9386 157.851 69.2699 157.603 69.6713 157.426C70.0726 157.249 70.5019 157.16 70.9593 157.16C71.5753 157.16 72.1259 157.291 72.6113 157.552C73.0966 157.813 73.4699 158.191 73.7313 158.686C73.9646 158.219 74.3286 157.851 74.8233 157.58C75.3179 157.3 75.8499 157.16 76.4193 157.16ZM97.0636 158.588L96.5456 161.01H98.3936V162.41H96.2516L95.6916 165H94.1656L94.7256 162.41H91.9816L91.4216 165H89.8956L90.4556 162.41H88.2856V161.01H90.7496L91.2676 158.588H89.1116V157.188H91.5616L92.1076 154.64H93.6336L93.0876 157.188H95.8316L96.3776 154.64H97.9036L97.3576 157.188H99.2196V158.588H97.0636ZM95.5376 158.588H92.7936L92.2756 161.01H95.0196L95.5376 158.588ZM100.691 156.25V154.794H103.603V165H101.993V156.25H100.691Z" fill="#19B0FF"/>
<path d="M40.51 175.76C40.5367 175.047 40.77 174.497 41.21 174.11C41.65 173.723 42.2467 173.53 43 173.53C43.5 173.53 43.9267 173.617 44.28 173.79C44.64 173.963 44.91 174.2 45.09 174.5C45.2767 174.8 45.37 175.137 45.37 175.51C45.37 175.95 45.26 176.31 45.04 176.59C44.82 176.863 44.5633 177.05 44.27 177.15V177.19C44.65 177.317 44.95 177.527 45.17 177.82C45.39 178.113 45.5 178.49 45.5 178.95C45.5 179.363 45.4033 179.73 45.21 180.05C45.0233 180.363 44.7467 180.61 44.38 180.79C44.02 180.97 43.59 181.06 43.09 181.06C42.29 181.06 41.65 180.863 41.17 180.47C40.6967 180.077 40.4467 179.483 40.42 178.69H42.08C42.0867 178.983 42.17 179.217 42.33 179.39C42.49 179.557 42.7233 179.64 43.03 179.64C43.29 179.64 43.49 179.567 43.63 179.42C43.7767 179.267 43.85 179.067 43.85 178.82C43.85 178.5 43.7467 178.27 43.54 178.13C43.34 177.983 43.0167 177.91 42.57 177.91H42.25V176.52H42.57C42.91 176.52 43.1833 176.463 43.39 176.35C43.6033 176.23 43.71 176.02 43.71 175.72C43.71 175.48 43.6433 175.293 43.51 175.16C43.3767 175.027 43.1933 174.96 42.96 174.96C42.7067 174.96 42.5167 175.037 42.39 175.19C42.27 175.343 42.2 175.533 42.18 175.76H40.51ZM51.6447 175.19H48.5247V176.57C48.658 176.423 48.8447 176.303 49.0847 176.21C49.3247 176.117 49.5847 176.07 49.8647 176.07C50.3647 176.07 50.778 176.183 51.1047 176.41C51.438 176.637 51.6814 176.93 51.8347 177.29C51.988 177.65 52.0647 178.04 52.0647 178.46C52.0647 179.24 51.8447 179.86 51.4047 180.32C50.9647 180.773 50.3447 181 49.5447 181C49.0114 181 48.548 180.91 48.1547 180.73C47.7614 180.543 47.458 180.287 47.2447 179.96C47.0314 179.633 46.9147 179.257 46.8947 178.83H48.5647C48.6047 179.037 48.7014 179.21 48.8547 179.35C49.008 179.483 49.218 179.55 49.4847 179.55C49.798 179.55 50.0314 179.45 50.1847 179.25C50.338 179.05 50.4147 178.783 50.4147 178.45C50.4147 178.123 50.3347 177.873 50.1747 177.7C50.0147 177.527 49.7814 177.44 49.4747 177.44C49.248 177.44 49.0614 177.497 48.9147 177.61C48.768 177.717 48.6714 177.86 48.6247 178.04H46.9747V173.69H51.6447V175.19ZM60.3477 173.98V175.35H58.4877V181H56.7777V175.35H54.9177V173.98H60.3477ZM62.9159 175.35V176.77H65.2059V178.09H62.9159V179.63H65.5059V181H61.2059V173.98H65.5059V175.35H62.9159ZM70.9861 179.76H68.3661L67.9461 181H66.1561L68.6961 173.98H70.6761L73.2161 181H71.4061L70.9861 179.76ZM70.5461 178.44L69.6761 175.87L68.8161 178.44H70.5461ZM81.9391 173.98V181H80.2291V176.79L78.6591 181H77.2791L75.6991 176.78V181H73.9891V173.98H76.0091L77.9791 178.84L79.9291 173.98H81.9391ZM93.238 173.98V181H91.528V176.79L89.958 181H88.578L86.998 176.78V181H85.288V173.98H87.308L89.278 178.84L91.228 173.98H93.238ZM96.1777 175.35V176.77H98.4677V178.09H96.1777V179.63H98.7677V181H94.4677V173.98H98.7677V175.35H96.1777ZM107.828 173.98V181H106.118V176.79L104.548 181H103.168L101.588 176.78V181H99.8778V173.98H101.898L103.868 178.84L105.818 173.98H107.828ZM113.308 177.4C113.714 177.487 114.041 177.69 114.288 178.01C114.534 178.323 114.658 178.683 114.658 179.09C114.658 179.677 114.451 180.143 114.038 180.49C113.631 180.83 113.061 181 112.328 181H109.058V173.98H112.218C112.931 173.98 113.488 174.143 113.888 174.47C114.294 174.797 114.498 175.24 114.498 175.8C114.498 176.213 114.388 176.557 114.168 176.83C113.954 177.103 113.668 177.293 113.308 177.4ZM110.768 176.82H111.888C112.168 176.82 112.381 176.76 112.528 176.64C112.681 176.513 112.758 176.33 112.758 176.09C112.758 175.85 112.681 175.667 112.528 175.54C112.381 175.413 112.168 175.35 111.888 175.35H110.768V176.82ZM112.028 179.62C112.314 179.62 112.534 179.557 112.688 179.43C112.848 179.297 112.928 179.107 112.928 178.86C112.928 178.613 112.844 178.42 112.678 178.28C112.518 178.14 112.294 178.07 112.008 178.07H110.768V179.62H112.028ZM117.359 175.35V176.77H119.649V178.09H117.359V179.63H119.949V181H115.649V173.98H119.949V175.35H117.359ZM124.639 181L123.179 178.35H122.769V181H121.059V173.98H123.929C124.483 173.98 124.953 174.077 125.339 174.27C125.733 174.463 126.026 174.73 126.219 175.07C126.413 175.403 126.509 175.777 126.509 176.19C126.509 176.657 126.376 177.073 126.109 177.44C125.849 177.807 125.463 178.067 124.949 178.22L126.569 181H124.639ZM122.769 177.14H123.829C124.143 177.14 124.376 177.063 124.529 176.91C124.689 176.757 124.769 176.54 124.769 176.26C124.769 175.993 124.689 175.783 124.529 175.63C124.376 175.477 124.143 175.4 123.829 175.4H122.769V177.14Z" fill="#8B8EAD"/>
<path d="M174 168C174 161.373 179.373 156 186 156V156C192.627 156 198 161.373 198 168V168C198 174.627 192.627 180 186 180V180C179.373 180 174 174.627 174 168V168Z" fill="#1DB792"/>
<path d="M183.677 170.13C183.904 169.95 184.007 169.867 183.987 169.88C184.64 169.34 185.154 168.897 185.527 168.55C185.907 168.203 186.227 167.84 186.487 167.46C186.747 167.08 186.877 166.71 186.877 166.35C186.877 166.077 186.814 165.863 186.687 165.71C186.56 165.557 186.37 165.48 186.117 165.48C185.864 165.48 185.664 165.577 185.517 165.77C185.377 165.957 185.307 166.223 185.307 166.57H183.657C183.67 166.003 183.79 165.53 184.017 165.15C184.25 164.77 184.554 164.49 184.927 164.31C185.307 164.13 185.727 164.04 186.187 164.04C186.98 164.04 187.577 164.243 187.977 164.65C188.384 165.057 188.587 165.587 188.587 166.24C188.587 166.953 188.344 167.617 187.857 168.23C187.37 168.837 186.75 169.43 185.997 170.01H188.697V171.4H183.677V170.13Z" fill="white"/>
<path d="M34 124H205V122H34V124ZM212 131V185H214V131H212ZM205 192H34V194H205V192ZM27 185V131H25V185H27ZM34 192C30.134 192 27 188.866 27 185H25C25 189.971 29.0294 194 34 194V192ZM212 185C212 188.866 208.866 192 205 192V194C209.971 194 214 189.971 214 185H212ZM205 124C208.866 124 212 127.134 212 131H214C214 126.029 209.971 122 205 122V124ZM34 122C29.0294 122 25 126.029 25 131H27C27 127.134 30.134 124 34 124V122Z" fill="#E4EBF1"/>
</g>
<defs>
<filter id="filter0_d" x="0" y="0" width="238" height="224" filterUnits="userSpaceOnUse" color-interpolation-filters="sRGB">
<feFlood flood-opacity="0" result="BackgroundImageFix"/>
<feColorMatrix in="SourceAlpha" type="matrix" values="0 0 0 0 0 0 0 0 0 0 0 0 0 0 0 0 0 0 127 0" result="hardAlpha"/>
<feOffset dy="5"/>
<feGaussianBlur stdDeviation="5"/>
<feColorMatrix type="matrix" values="0 0 0 0 0 0 0 0 0 0 0 0 0 0 0 0 0 0 0.3 0"/>
<feBlend mode="normal" in2="BackgroundImageFix" result="effect1_dropShadow"/>
<feBlend mode="normal" in="SourceGraphic" in2="effect1_dropShadow" result="shape"/>
</filter>
<filter id="filter1_d" x="8" y="32" width="211" height="42" filterUnits="userSpaceOnUse" color-interpolation-filters="sRGB">
<feFlood flood-opacity="0" result="BackgroundImageFix"/>
<feColorMatrix in="SourceAlpha" type="matrix" values="0 0 0 0 0 0 0 0 0 0 0 0 0 0 0 0 0 0 127 0" result="hardAlpha"/>
<feOffset dx="2" dy="1"/>
<feGaussianBlur stdDeviation="2"/>
<feColorMatrix type="matrix" values="0 0 0 0 0.894601 0 0 0 0 0.921242 0 0 0 0 0.945833 0 0 0 1 0"/>
<feBlend mode="normal" in2="BackgroundImageFix" result="effect1_dropShadow"/>
<feBlend mode="normal" in="SourceGraphic" in2="effect1_dropShadow" result="shape"/>
</filter>
<linearGradient id="paint0_linear" x1="167.5" y1="179.523" x2="168.376" y2="4.99936" gradientUnits="userSpaceOnUse">
<stop stop-color="white"/>
<stop offset="1" stop-color="#F6F8FA"/>
</linearGradient>
<clipPath id="clip0">
<rect width="16" height="16" fill="white" transform="translate(15 45)"/>
</clipPath>
</defs>
</svg>
