<svg width="335" height="64" viewBox="0 0 335 64" fill="none" xmlns="http://www.w3.org/2000/svg">
<path d="M0 0H335V60C335 62.2091 333.209 64 331 64H4C1.79086 64 0 62.2091 0 60V0Z" fill="#F6F8FA"/>
<rect x="49" y="8.5" width="77" height="47" rx="3" fill="white"/>
<path d="M64.63 27.75V26.294H67.542V36.5H65.932V27.75H64.63ZM70.6165 34.33C71.5125 33.5553 72.2172 32.9207 72.7305 32.426C73.2532 31.922 73.6872 31.3993 74.0325 30.858C74.3779 30.3167 74.5505 29.7753 74.5505 29.234C74.5505 28.674 74.4152 28.2353 74.1445 27.918C73.8832 27.6007 73.4679 27.442 72.8985 27.442C72.3479 27.442 71.9185 27.6193 71.6105 27.974C71.3119 28.3193 71.1532 28.786 71.1345 29.374H69.5945C69.6225 28.31 69.9399 27.498 70.5465 26.938C71.1625 26.3687 71.9419 26.084 72.8845 26.084C73.9019 26.084 74.6952 26.364 75.2645 26.924C75.8432 27.484 76.1325 28.2307 76.1325 29.164C76.1325 29.836 75.9599 30.4847 75.6145 31.11C75.2785 31.726 74.8725 32.2813 74.3965 32.776C73.9299 33.2613 73.3325 33.826 72.6045 34.47L71.9745 35.03H76.4125V36.36H69.6085V35.198L70.6165 34.33Z" fill="#5857AB"/>
<path d="M97 37L103 43L109 37" stroke="#252473" stroke-width="2" stroke-linecap="round" stroke-linejoin="round"/>
<path d="M109 27L103 21L97 27" stroke="#252473" stroke-width="2" stroke-linecap="round" stroke-linejoin="round"/>
<rect x="49" y="8.5" width="77" height="47" rx="3" stroke="#E4EBF1" stroke-width="2"/>
<rect x="137" y="8.5" width="77" height="47" rx="3" fill="white"/>
<path d="M152.84 31.264C152.84 29.6493 153.111 28.3893 153.652 27.484C154.203 26.5693 155.145 26.112 156.48 26.112C157.815 26.112 158.753 26.5693 159.294 27.484C159.845 28.3893 160.12 29.6493 160.12 31.264C160.12 32.8973 159.845 34.176 159.294 35.1C158.753 36.0147 157.815 36.472 156.48 36.472C155.145 36.472 154.203 36.0147 153.652 35.1C153.111 34.176 152.84 32.8973 152.84 31.264ZM158.552 31.264C158.552 30.508 158.501 29.8687 158.398 29.346C158.305 28.8233 158.109 28.3987 157.81 28.072C157.511 27.736 157.068 27.568 156.48 27.568C155.892 27.568 155.449 27.736 155.15 28.072C154.851 28.3987 154.651 28.8233 154.548 29.346C154.455 29.8687 154.408 30.508 154.408 31.264C154.408 32.048 154.455 32.706 154.548 33.238C154.641 33.77 154.837 34.1993 155.136 34.526C155.444 34.8527 155.892 35.016 156.48 35.016C157.068 35.016 157.511 34.8527 157.81 34.526C158.118 34.1993 158.319 33.77 158.412 33.238C158.505 32.706 158.552 32.048 158.552 31.264ZM161.809 31.264C161.809 29.6493 162.079 28.3893 162.621 27.484C163.171 26.5693 164.114 26.112 165.449 26.112C166.783 26.112 167.721 26.5693 168.263 27.484C168.813 28.3893 169.089 29.6493 169.089 31.264C169.089 32.8973 168.813 34.176 168.263 35.1C167.721 36.0147 166.783 36.472 165.449 36.472C164.114 36.472 163.171 36.0147 162.621 35.1C162.079 34.176 161.809 32.8973 161.809 31.264ZM167.521 31.264C167.521 30.508 167.469 29.8687 167.367 29.346C167.273 28.8233 167.077 28.3987 166.779 28.072C166.48 27.736 166.037 27.568 165.449 27.568C164.861 27.568 164.417 27.736 164.119 28.072C163.82 28.3987 163.619 28.8233 163.517 29.346C163.423 29.8687 163.377 30.508 163.377 31.264C163.377 32.048 163.423 32.706 163.517 33.238C163.61 33.77 163.806 34.1993 164.105 34.526C164.413 34.8527 164.861 35.016 165.449 35.016C166.037 35.016 166.48 34.8527 166.779 34.526C167.087 34.1993 167.287 33.77 167.381 33.238C167.474 32.706 167.521 32.048 167.521 31.264Z" fill="#5857AB"/>
<path d="M185 37L191 43L197 37" stroke="#252473" stroke-width="2" stroke-linecap="round" stroke-linejoin="round"/>
<path d="M197 27L191 21L185 27" stroke="#252473" stroke-width="2" stroke-linecap="round" stroke-linejoin="round"/>
<rect x="137" y="8.5" width="77" height="47" rx="3" stroke="#E4EBF1" stroke-width="2"/>
<rect x="225.5" y="8.5" width="60" height="47" rx="3" fill="white"/>
<path d="M253.064 29.836C253.064 30.4053 252.933 30.928 252.672 31.404C252.411 31.8707 252.009 32.2487 251.468 32.538C250.927 32.8273 250.255 32.972 249.452 32.972H247.968V36.5H245.574V26.672H249.452C250.236 26.672 250.899 26.8073 251.44 27.078C251.981 27.3487 252.387 27.722 252.658 28.198C252.929 28.674 253.064 29.22 253.064 29.836ZM249.27 31.068C249.727 31.068 250.068 30.9607 250.292 30.746C250.516 30.5313 250.628 30.228 250.628 29.836C250.628 29.444 250.516 29.1407 250.292 28.926C250.068 28.7113 249.727 28.604 249.27 28.604H247.968V31.068H249.27ZM265.44 26.672V36.5H263.046V30.606L260.848 36.5H258.916L256.704 30.592V36.5H254.31V26.672H257.138L259.896 33.476L262.626 26.672H265.44Z" fill="#252473"/>
<rect x="225.5" y="8.5" width="60" height="47" rx="3" stroke="#E4EBF1" stroke-width="2"/>
</svg>
