<svg width="23" height="34" viewBox="0 0 23 34" fill="none" xmlns="http://www.w3.org/2000/svg">
<path d="M0 0H22C22.5523 0 23 0.447715 23 1V33C23 33.5523 22.5523 34 22 34H0V0Z" fill="#A1A0D3"/>
<path d="M11.5 21.2499C11.0858 21.2499 10.75 21.5857 10.75 21.9999C10.75 22.4141 11.0858 22.7499 11.5 22.7499V21.2499ZM11.5066 22.7499C11.9209 22.7499 12.2566 22.4141 12.2566 21.9999C12.2566 21.5857 11.9209 21.2499 11.5066 21.2499V22.7499ZM8.83331 13.9166C8.4191 13.9166 8.08331 14.2524 8.08331 14.6666C8.08331 15.0808 8.4191 15.4166 8.83331 15.4166V13.9166ZM14.1666 15.4166C14.5809 15.4166 14.9166 15.0808 14.9166 14.6666C14.9166 14.2524 14.5809 13.9166 14.1666 13.9166V15.4166ZM8.83331 15.9166C8.4191 15.9166 8.08331 16.2524 8.08331 16.6666C8.08331 17.0808 8.4191 17.4166 8.83331 17.4166V15.9166ZM14.1666 17.4166C14.5809 17.4166 14.9166 17.0808 14.9166 16.6666C14.9166 16.2524 14.5809 15.9166 14.1666 15.9166V17.4166ZM8.83331 17.9166C8.4191 17.9166 8.08331 18.2524 8.08331 18.6666C8.08331 19.0808 8.4191 19.4166 8.83331 19.4166V17.9166ZM11.5 19.4166C11.9142 19.4166 12.25 19.0808 12.25 18.6666C12.25 18.2524 11.9142 17.9166 11.5 17.9166V19.4166ZM8.16665 12.0833H14.8333V10.5833H8.16665V12.0833ZM14.8333 12.0833C15.1555 12.0833 15.4166 12.3444 15.4166 12.6666H16.9166C16.9166 11.516 15.9839 10.5833 14.8333 10.5833V12.0833ZM15.4166 12.6666V23.3333H16.9166V12.6666H15.4166ZM15.4166 23.3333C15.4166 23.6554 15.1555 23.9166 14.8333 23.9166V25.4166C15.9839 25.4166 16.9166 24.4838 16.9166 23.3333H15.4166ZM14.8333 23.9166H8.16665V25.4166H14.8333V23.9166ZM8.16665 23.9166C7.84448 23.9166 7.58331 23.6554 7.58331 23.3333H6.08331C6.08331 24.4838 7.01605 25.4166 8.16665 25.4166V23.9166ZM7.58331 23.3333V12.6666H6.08331V23.3333H7.58331ZM7.58331 12.6666C7.58331 12.3444 7.84448 12.0833 8.16665 12.0833V10.5833C7.01605 10.5833 6.08331 11.516 6.08331 12.6666H7.58331ZM11.5 22.7499H11.5066V21.2499H11.5V22.7499ZM8.83331 15.4166H14.1666V13.9166H8.83331V15.4166ZM8.83331 17.4166H14.1666V15.9166H8.83331V17.4166ZM8.83331 19.4166H11.5V17.9166H8.83331V19.4166Z" fill="white"/>
</svg>
