<svg width="80" height="40" viewBox="0 0 80 40" fill="none" xmlns="http://www.w3.org/2000/svg">
<path d="M0 0H76C78.2091 0 80 1.79086 80 4V36C80 38.2091 78.2091 40 76 40H0V0Z" fill="white"/>
<rect width="40" height="40" fill="#5857AB"/>
<path d="M21.525 10.5C22.0133 10.5953 22.4622 10.8341 22.814 11.186C23.1658 11.5378 23.4047 11.9866 23.5 12.475M21.525 8.5C22.5396 8.61272 23.4858 9.06709 24.2081 9.7885C24.9304 10.5099 25.386 11.4555 25.5 12.47M25 16.46V17.96C25.0005 18.0993 24.972 18.2371 24.9162 18.3647C24.8604 18.4923 24.7786 18.6068 24.676 18.7009C24.5734 18.7951 24.4523 18.8667 24.3203 18.9114C24.1884 18.956 24.0487 18.9725 23.91 18.96C22.3714 18.7928 20.8935 18.2671 19.595 17.425C18.3869 16.6573 17.3626 15.6331 16.595 14.425C15.75 13.1206 15.2241 11.6355 15.06 10.09C15.0475 9.95173 15.0639 9.81238 15.1082 9.68081C15.1525 9.54924 15.2238 9.42834 15.3173 9.32581C15.4109 9.22328 15.5249 9.14135 15.6519 9.08526C15.7789 9.02917 15.9161 9.00013 16.055 9H17.555C17.7976 8.99761 18.0329 9.08354 18.2168 9.24177C18.4008 9.39999 18.521 9.61972 18.555 9.86C18.6183 10.34 18.7357 10.8114 18.905 11.265C18.9722 11.444 18.9868 11.6385 18.9469 11.8254C18.907 12.0124 18.8144 12.1841 18.68 12.32L18.045 12.955C18.7567 14.2068 19.7932 15.2432 21.045 15.955L21.68 15.32C21.8159 15.1856 21.9875 15.0929 22.1745 15.053C22.3615 15.0132 22.556 15.0277 22.735 15.095C23.1886 15.2643 23.6599 15.3817 24.14 15.445C24.3828 15.4793 24.6047 15.6016 24.7632 15.7887C24.9218 15.9759 25.0061 16.2148 25 16.46Z" stroke="#F6F8FA" stroke-linecap="round" stroke-linejoin="round"/>
<path d="M12.5847 26.03L9.95469 33H8.90469L6.27469 26.03H7.24469L9.43469 32.04L11.6247 26.03H12.5847ZM15.9725 33.09C15.4592 33.09 14.9925 32.9733 14.5725 32.74C14.1592 32.5067 13.8325 32.1767 13.5925 31.75C13.3592 31.3167 13.2425 30.8167 13.2425 30.25C13.2425 29.69 13.3625 29.1967 13.6025 28.77C13.8492 28.3367 14.1825 28.0067 14.6025 27.78C15.0225 27.5467 15.4925 27.43 16.0125 27.43C16.5325 27.43 17.0025 27.5467 17.4225 27.78C17.8425 28.0067 18.1725 28.3333 18.4125 28.76C18.6592 29.1867 18.7825 29.6833 18.7825 30.25C18.7825 30.8167 18.6558 31.3167 18.4025 31.75C18.1558 32.1767 17.8192 32.5067 17.3925 32.74C16.9658 32.9733 16.4925 33.09 15.9725 33.09ZM15.9725 32.29C16.2992 32.29 16.6058 32.2133 16.8925 32.06C17.1792 31.9067 17.4092 31.6767 17.5825 31.37C17.7625 31.0633 17.8525 30.69 17.8525 30.25C17.8525 29.81 17.7658 29.4367 17.5925 29.13C17.4192 28.8233 17.1925 28.5967 16.9125 28.45C16.6325 28.2967 16.3292 28.22 16.0025 28.22C15.6692 28.22 15.3625 28.2967 15.0825 28.45C14.8092 28.5967 14.5892 28.8233 14.4225 29.13C14.2558 29.4367 14.1725 29.81 14.1725 30.25C14.1725 30.6967 14.2525 31.0733 14.4125 31.38C14.5792 31.6867 14.7992 31.9167 15.0725 32.07C15.3458 32.2167 15.6458 32.29 15.9725 32.29ZM20.449 26.63C20.2757 26.63 20.129 26.57 20.009 26.45C19.889 26.33 19.829 26.1833 19.829 26.01C19.829 25.8367 19.889 25.69 20.009 25.57C20.129 25.45 20.2757 25.39 20.449 25.39C20.6157 25.39 20.7557 25.45 20.869 25.57C20.989 25.69 21.049 25.8367 21.049 26.01C21.049 26.1833 20.989 26.33 20.869 26.45C20.7557 26.57 20.6157 26.63 20.449 26.63ZM20.889 27.52V33H19.979V27.52H20.889ZM22.0999 30.25C22.0999 29.6833 22.2133 29.19 22.4399 28.77C22.6666 28.3433 22.9799 28.0133 23.3799 27.78C23.7866 27.5467 24.2499 27.43 24.7699 27.43C25.4433 27.43 25.9966 27.5933 26.4299 27.92C26.8699 28.2467 27.1599 28.7 27.2999 29.28H26.3199C26.2266 28.9467 26.0433 28.6833 25.7699 28.49C25.5033 28.2967 25.1699 28.2 24.7699 28.2C24.2499 28.2 23.8299 28.38 23.5099 28.74C23.1899 29.0933 23.0299 29.5967 23.0299 30.25C23.0299 30.91 23.1899 31.42 23.5099 31.78C23.8299 32.14 24.2499 32.32 24.7699 32.32C25.1699 32.32 25.5033 32.2267 25.7699 32.04C26.0366 31.8533 26.2199 31.5867 26.3199 31.24H27.2999C27.1533 31.8 26.8599 32.25 26.4199 32.59C25.9799 32.9233 25.4299 33.09 24.7699 33.09C24.2499 33.09 23.7866 32.9733 23.3799 32.74C22.9799 32.5067 22.6666 32.1767 22.4399 31.75C22.2133 31.3233 22.0999 30.8233 22.0999 30.25ZM33.5141 30.05C33.5141 30.2233 33.5041 30.4067 33.4841 30.6H29.1041C29.1375 31.14 29.3208 31.5633 29.6541 31.87C29.9941 32.17 30.4041 32.32 30.8841 32.32C31.2775 32.32 31.6041 32.23 31.8641 32.05C32.1308 31.8633 32.3175 31.6167 32.4241 31.31H33.4041C33.2575 31.8367 32.9641 32.2667 32.5241 32.6C32.0841 32.9267 31.5375 33.09 30.8841 33.09C30.3641 33.09 29.8975 32.9733 29.4841 32.74C29.0775 32.5067 28.7575 32.1767 28.5241 31.75C28.2908 31.3167 28.1741 30.8167 28.1741 30.25C28.1741 29.6833 28.2875 29.1867 28.5141 28.76C28.7408 28.3333 29.0575 28.0067 29.4641 27.78C29.8775 27.5467 30.3508 27.43 30.8841 27.43C31.4041 27.43 31.8641 27.5433 32.2641 27.77C32.6641 27.9967 32.9708 28.31 33.1841 28.71C33.4041 29.1033 33.5141 29.55 33.5141 30.05ZM32.5741 29.86C32.5741 29.5133 32.4975 29.2167 32.3441 28.97C32.1908 28.7167 31.9808 28.5267 31.7141 28.4C31.4541 28.2667 31.1641 28.2 30.8441 28.2C30.3841 28.2 29.9908 28.3467 29.6641 28.64C29.3441 28.9333 29.1608 29.34 29.1141 29.86H32.5741Z" fill="#F6F8FA"/>
<path d="M40 0H76C78.2091 0 80 1.79086 80 4V36C80 38.2091 78.2091 40 76 40H40V0Z" fill="#19B0FF"/>
<path d="M65 11C65 10.45 64.55 10 64 10H56C55.45 10 55 10.45 55 11M65 11V17C65 17.55 64.55 18 64 18H56C55.45 18 55 17.55 55 17V11M65 11L60 14.5L55 11" stroke="white" stroke-linecap="round" stroke-linejoin="round"/>
<path d="M48.1253 26.77V29.1H50.6653V29.85H48.1253V32.25H50.9653V33H47.2153V26.02H50.9653V26.77H48.1253ZM58.9323 27.42C59.3589 27.42 59.7389 27.51 60.0723 27.69C60.4056 27.8633 60.6689 28.1267 60.8623 28.48C61.0556 28.8333 61.1523 29.2633 61.1523 29.77V33H60.2523V29.9C60.2523 29.3533 60.1156 28.9367 59.8423 28.65C59.5756 28.3567 59.2123 28.21 58.7523 28.21C58.2789 28.21 57.9023 28.3633 57.6223 28.67C57.3423 28.97 57.2023 29.4067 57.2023 29.98V33H56.3023V29.9C56.3023 29.3533 56.1656 28.9367 55.8923 28.65C55.6256 28.3567 55.2623 28.21 54.8023 28.21C54.3289 28.21 53.9523 28.3633 53.6723 28.67C53.3923 28.97 53.2523 29.4067 53.2523 29.98V33H52.3423V27.52H53.2523V28.31C53.4323 28.0233 53.6723 27.8033 53.9723 27.65C54.2789 27.4967 54.6156 27.42 54.9823 27.42C55.4423 27.42 55.8489 27.5233 56.2023 27.73C56.5556 27.9367 56.8189 28.24 56.9923 28.64C57.1456 28.2533 57.3989 27.9533 57.7523 27.74C58.1056 27.5267 58.4989 27.42 58.9323 27.42ZM62.305 30.24C62.305 29.68 62.4183 29.19 62.645 28.77C62.8717 28.3433 63.1817 28.0133 63.575 27.78C63.975 27.5467 64.4183 27.43 64.905 27.43C65.385 27.43 65.8017 27.5333 66.155 27.74C66.5083 27.9467 66.7717 28.2067 66.945 28.52V27.52H67.865V33H66.945V31.98C66.765 32.3 66.495 32.5667 66.135 32.78C65.7817 32.9867 65.3683 33.09 64.895 33.09C64.4083 33.09 63.9683 32.97 63.575 32.73C63.1817 32.49 62.8717 32.1533 62.645 31.72C62.4183 31.2867 62.305 30.7933 62.305 30.24ZM66.945 30.25C66.945 29.8367 66.8617 29.4767 66.695 29.17C66.5283 28.8633 66.3017 28.63 66.015 28.47C65.735 28.3033 65.425 28.22 65.085 28.22C64.745 28.22 64.435 28.3 64.155 28.46C63.875 28.62 63.6517 28.8533 63.485 29.16C63.3183 29.4667 63.235 29.8267 63.235 30.24C63.235 30.66 63.3183 31.0267 63.485 31.34C63.6517 31.6467 63.875 31.8833 64.155 32.05C64.435 32.21 64.745 32.29 65.085 32.29C65.425 32.29 65.735 32.21 66.015 32.05C66.3017 31.8833 66.5283 31.6467 66.695 31.34C66.8617 31.0267 66.945 30.6633 66.945 30.25ZM69.8728 26.63C69.6995 26.63 69.5528 26.57 69.4328 26.45C69.3128 26.33 69.2528 26.1833 69.2528 26.01C69.2528 25.8367 69.3128 25.69 69.4328 25.57C69.5528 25.45 69.6995 25.39 69.8728 25.39C70.0395 25.39 70.1795 25.45 70.2928 25.57C70.4128 25.69 70.4728 25.8367 70.4728 26.01C70.4728 26.1833 70.4128 26.33 70.2928 26.45C70.1795 26.57 70.0395 26.63 69.8728 26.63ZM70.3128 27.52V33H69.4028V27.52H70.3128ZM72.7738 25.6V33H71.8638V25.6H72.7738Z" fill="#F6F8FA"/>
</svg>
