<svg width="24" height="21" viewBox="0 0 24 21" fill="none" xmlns="http://www.w3.org/2000/svg">
<path d="M17 19.02V17.02C17 15.9592 16.5786 14.9417 15.8284 14.1916C15.0783 13.4414 14.0609 13.02 13 13.02H5C3.93913 13.02 2.92172 13.4414 2.17157 14.1916C1.42143 14.9417 1 15.9592 1 17.02V19.02" stroke="#5857AB" stroke-width="2" stroke-linecap="round" stroke-linejoin="round"/>
<path d="M9 9.02002C11.2091 9.02002 13 7.22916 13 5.02002C13 2.81088 11.2091 1.02002 9 1.02002C6.79086 1.02002 5 2.81088 5 5.02002C5 7.22916 6.79086 9.02002 9 9.02002Z" stroke="#5857AB" stroke-width="2" stroke-linecap="round" stroke-linejoin="round"/>
<path d="M23 19.0199V17.0199C22.9993 16.1336 22.7044 15.2727 22.1614 14.5722C21.6184 13.8718 20.8581 13.3715 20 13.1499" stroke="#5857AB" stroke-width="2" stroke-linecap="round" stroke-linejoin="round"/>
<path d="M16 1.1499C16.8604 1.3702 17.623 1.8706 18.1676 2.57221C18.7122 3.27382 19.0078 4.13673 19.0078 5.0249C19.0078 5.91307 18.7122 6.77598 18.1676 7.47759C17.623 8.1792 16.8604 8.6796 16 8.8999" stroke="#5857AB" stroke-width="2" stroke-linecap="round" stroke-linejoin="round"/>
</svg>
