<svg width="63" height="63" viewBox="0 0 63 63" fill="none" xmlns="http://www.w3.org/2000/svg">
<path d="M18.3322 18.3074C18.3241 18.3149 18.3156 18.3222 18.3077 18.33M18.3322 18.3074C19.477 17.2101 21.5254 17.7506 24.9644 20.0563M18.3322 18.3074L18.1965 18.1604C18.1963 18.1606 18.196 18.1609 18.1955 18.1613C18.1951 18.1617 18.1947 18.1621 18.1941 18.1626C18.1893 18.1669 18.179 18.1763 18.1709 18.1841L18.1707 18.1839L18.1632 18.1914C18.1617 18.1929 18.1603 18.1943 18.1591 18.1956C17.8423 18.512 17.6441 18.8953 17.5661 19.3462L0.448192 59.9249L0.632395 60.0026L0.448191 59.9249C0.234214 60.4322 0.35022 61.0177 0.741065 61.4062L0.741102 61.4062C1.00157 61.665 1.34946 61.8022 1.70292 61.8022C1.87989 61.8022 2.05857 61.7679 2.2284 61.6971L2.22919 61.6967L2.22962 61.6966L2.22983 61.6965L2.23033 61.6963L2.23058 61.6962L2.23102 61.696L2.2312 61.6959L2.23124 61.6959L2.23162 61.6957L2.23289 61.6952L43.0491 44.6801C43.4619 44.6094 43.8175 44.4379 44.1185 44.1696C44.143 44.149 44.1653 44.128 44.1828 44.1116L44.1828 44.1117L44.1844 44.11C44.1844 44.11 44.1845 44.1099 44.1847 44.1098C44.1852 44.1094 44.1862 44.1085 44.1882 44.1067C44.1918 44.1036 44.201 44.0957 44.2107 44.0859L44.0686 43.9452M18.3322 18.3074L18.3077 18.33M18.3077 18.33L18.3042 18.3332L18.3077 18.33ZM24.9644 20.0563C25.6068 20.4869 26.2795 20.9705 26.9733 21.4966M24.9644 20.0563L25.0758 19.8902C25.0758 19.8902 25.0758 19.8902 25.0758 19.8902M24.9644 20.0563L25.0758 19.8902M26.9733 21.4966C30.6498 16.8869 32.5116 10.9133 32.5116 3.69551C32.5116 3.05842 33.0312 2.54199 33.672 2.54199C34.3127 2.54199 34.8323 3.05842 34.8323 3.69551C34.8323 8.37995 34.0725 12.65 32.5741 16.3876C31.6131 18.7847 30.3428 20.975 28.7865 22.9312M26.9733 21.4966L26.8169 21.3719C26.8574 21.3211 26.8977 21.2702 26.9377 21.2191M26.9733 21.4966L27.0941 21.3372C27.0419 21.2976 26.9897 21.2582 26.9377 21.2191M28.7865 22.9312C30.585 24.4112 32.4781 26.1302 34.3518 27.9926M28.7865 22.9312L28.9136 22.7768C28.9639 22.8182 29.0143 22.8598 29.0647 22.9015M28.7865 22.9312L28.943 23.0557C28.9838 23.0045 29.0243 22.9531 29.0647 22.9015M34.3518 27.9926C36.115 29.7454 37.7493 31.5151 39.177 33.2077C41.7326 31.9845 44.2879 31.0994 46.8039 30.5702M34.3518 27.9926L34.4928 27.8508C32.6675 26.0364 30.8232 24.3574 29.0647 22.9015M34.3518 27.9926L34.4928 27.8508C36.219 29.5667 37.8223 31.2993 39.2302 32.9608M46.8039 30.5702L46.7628 30.3745C47.4975 30.22 48.2193 30.6862 48.3751 31.4183C48.531 32.1507 48.0599 32.8685 47.3256 33.0229C45.2426 33.4611 43.1214 34.1673 40.9884 35.1315C41.5422 35.8504 42.0494 36.547 42.5008 37.2122C43.6639 38.9263 44.3952 40.3125 44.692 41.4244C44.9902 42.5417 44.8567 43.4173 44.2402 44.0545C44.2376 44.0574 44.227 44.0691 44.2172 44.079C44.2153 44.0811 44.2127 44.084 44.2095 44.0871L44.0686 43.9452M46.8039 30.5702L46.7628 30.3745C44.2754 30.8977 41.7522 31.7658 39.2302 32.9608M46.8039 30.5702L39.2302 32.9608M44.0686 43.9452C44.0647 43.9491 44.0606 43.9526 44.0566 43.9562C44.0529 43.9593 44.0493 43.9624 44.0458 43.9659L42.3353 37.3245C44.6548 40.7429 45.1984 42.779 44.0948 43.9172C44.0871 43.9254 44.0797 43.9339 44.0717 43.9418M44.0686 43.9452L44.0717 43.9418M25.0758 19.8902C25.6735 20.2908 26.2966 20.7366 26.9377 21.2191M25.0758 19.8902L39.0906 33.0273C39.1371 33.005 39.1836 32.9829 39.2302 32.9608M26.9377 21.2191C30.5003 16.673 32.3116 10.7985 32.3116 3.69551C32.3116 2.94683 32.9219 2.34199 33.672 2.34199C34.422 2.34199 35.0323 2.94683 35.0323 3.69551C35.0323 8.40134 34.2691 12.6973 32.7598 16.462C31.8168 18.8139 30.578 20.9691 29.0647 22.9015M44.0717 43.9418L44.2117 44.0846C44.212 44.0843 44.2123 44.084 44.2126 44.0837L44.0717 43.9418ZM1.98168 61.6149C1.98129 61.6142 1.9809 61.6135 1.9805 61.6127C1.98466 61.619 1.99102 61.6273 1.99805 61.6359C1.99127 61.628 1.98538 61.6205 1.98168 61.6149ZM2.03419 61.6727C2.03315 61.6718 2.03207 61.6709 2.03096 61.6699C2.03802 61.6748 2.04752 61.6806 2.05695 61.6859C2.04815 61.6813 2.03991 61.6765 2.03419 61.6727ZM2.09321 61.7026C2.0919 61.7022 2.09048 61.7016 2.08897 61.701C2.09533 61.7029 2.10316 61.705 2.11041 61.7067C2.10396 61.7054 2.09776 61.7039 2.09321 61.7026ZM2.13642 61.7111C2.13522 61.711 2.13387 61.7108 2.1324 61.7106C2.13678 61.711 2.14186 61.7113 2.1464 61.7115C2.14267 61.7114 2.13912 61.7113 2.13642 61.7111ZM2.16398 61.7115C2.163 61.7115 2.16185 61.7116 2.16056 61.7116L2.16936 61.7111C2.16735 61.7112 2.16546 61.7114 2.16398 61.7115ZM2.34322 61.4523C2.34132 61.447 2.33906 61.4412 2.33664 61.4352L2.33678 61.4352C2.33911 61.441 2.34133 61.4469 2.34322 61.4523ZM2.35238 61.497C2.3516 61.4896 2.34986 61.4768 2.34801 61.4673C2.34807 61.4676 2.34813 61.4678 2.34819 61.468C2.34994 61.477 2.35161 61.4896 2.35238 61.497ZM16.6894 49.4467L16.8864 49.4814L16.6894 49.4467C16.2417 51.9837 15.0749 53.2258 14.7158 53.5564L12.0631 54.6621C12.6601 52.21 12.688 48.5108 10.2193 43.7569L13.4956 35.9909C16.9012 42.5527 17.1395 46.8965 16.6894 49.4467ZM20.7772 32.7737L20.7771 32.7736C20.1011 31.21 18.424 28.8176 17.1036 27.4382L18.8122 23.388C19.1124 23.908 19.4654 24.4664 19.8724 25.0662C20.2171 25.5743 20.5943 26.1005 20.9996 26.6409C24.9274 32.569 24.8399 38.6369 24.0702 42.6934L24.2667 42.7307L24.0702 42.6934C23.2639 46.943 21.5529 50.0659 20.8969 50.9794L18.8736 51.823C19.0487 51.3242 19.2025 50.7747 19.3214 50.1711C20.2599 45.4093 18.7339 39.5601 14.8441 32.7943L15.9322 30.2149C16.8642 31.3716 17.8613 32.8797 18.2778 33.8432C18.4995 34.3563 19.0018 34.6623 19.528 34.6623C19.7074 34.6623 19.8896 34.6266 20.0641 34.5522L20.0642 34.5522C20.7542 34.2573 21.0744 33.4614 20.7772 32.7737ZM27.8801 34.4277L28.0211 34.2859L27.8801 34.4277C29.5938 36.1312 31.3237 37.7141 32.984 39.1061C32.796 44.3374 30.4144 46.7502 29.8593 47.2434L24.8462 49.3332C25.5787 47.6525 26.2996 45.536 26.7436 43.1957C27.2543 40.5033 27.4964 37.0091 26.6837 33.215C27.0751 33.6194 27.474 34.024 27.8801 34.4277ZM22.58 24.2024L22.4171 24.3185L22.58 24.2024C21.1639 22.2155 20.609 21.0422 20.393 20.4105C21.0284 20.6249 22.2093 21.1764 24.2099 22.5854C24.5117 22.798 24.8209 23.023 25.1355 23.258C25.1079 23.2862 25.0802 23.3143 25.052 23.3423C24.5202 23.8709 24.5202 24.7286 25.052 25.2574L25.052 25.2574C25.3177 25.5214 25.666 25.6534 26.0135 25.6534C26.361 25.6534 26.7094 25.5214 26.975 25.2574C27.0781 25.1549 27.1799 25.0516 27.2808 24.9476C28.9935 26.3633 30.7988 28.0055 32.5698 29.766C34.0714 31.2587 35.4866 32.7758 36.7511 34.2407C36.6123 34.3183 36.4735 34.3968 36.3347 34.4765L36.3347 34.4765C35.6841 34.85 35.4601 35.6781 35.8366 36.3261C36.0889 36.7606 36.5465 37.0026 37.0156 37.0026C37.2464 37.0026 37.4805 36.944 37.6942 36.8213L37.6943 36.8213C37.9653 36.6656 38.2368 36.5151 38.5085 36.3677C38.9714 36.9557 39.402 37.5274 39.793 38.0763L39.9559 37.9602L39.7931 38.0763C41.2093 40.0631 41.7641 41.2365 41.98 41.8681C41.3445 41.6537 40.1636 41.1022 38.1631 39.6932C35.6519 37.9246 32.6824 35.3747 29.8032 32.5125C26.9241 29.6505 24.359 26.6986 22.58 24.2024ZM9.54836 53.3526C9.32151 54.7587 8.82943 55.6997 8.57043 56.1181L4.2439 57.9217L8.77303 47.1854C9.58614 49.3872 9.85009 51.482 9.54836 53.3526ZM34.364 45.3656C34.8686 44.2201 35.3029 42.8174 35.5354 41.1345C36.1413 41.5882 36.7308 42.0084 37.2973 42.3882C37.8997 42.7922 38.4604 43.1424 38.9827 43.4403L34.364 45.3656Z" fill="#252473" stroke="#252473" stroke-width="0.4"/>
<path d="M43.2346 20.9624L43.2346 20.9624C43.5095 21.248 43.8717 21.3925 44.235 21.3925C44.5984 21.3925 44.9605 21.248 45.2353 20.9624L45.2354 20.9624C47.8937 18.1985 52.2215 16.9189 55.3972 16.6524C56.1805 16.5867 56.7511 15.8768 56.6894 15.0814L56.6894 15.0814C56.6275 14.2846 55.9541 13.6807 55.1695 13.744L55.1689 13.744C51.5128 14.0508 46.4508 15.5608 43.2346 18.9046C42.6873 19.4737 42.6873 20.3933 43.2346 20.9624Z" fill="#252473" stroke="#252473" stroke-width="0.4"/>
<path d="M60.3118 16.1563C59.6656 15.9909 59.2795 15.3236 59.438 14.6712L59.438 14.6712C59.5969 14.017 60.2469 13.6106 60.8957 13.7764L60.896 13.7765C60.9263 13.7843 60.9562 13.7922 60.9855 13.8003L60.3118 16.1563ZM60.3118 16.1563L60.3613 16.1694C60.4652 16.1979 60.5701 16.2117 60.6736 16.2117C61.2073 16.2117 61.6909 15.8473 61.8337 15.3015L60.3118 16.1563Z" fill="#252473" stroke="#252473" stroke-width="0.4"/>
<path d="M3.47791 18.4295H5.3775V20.329C5.3775 21.378 6.22795 22.2286 7.2771 22.2286C8.32625 22.2286 9.1767 21.378 9.1767 20.329V18.4295H11.0763C12.1254 18.4295 12.9759 17.5788 12.9759 16.5299C12.9759 15.4809 12.1254 14.6303 11.0763 14.6303H9.1767V12.7307C9.1767 11.6817 8.32625 10.8311 7.2771 10.8311C6.22795 10.8311 5.3775 11.6817 5.3775 12.7307V14.6303H3.47791C2.42876 14.6303 1.57831 15.4809 1.57831 16.5299C1.57831 17.579 2.42876 18.4295 3.47791 18.4295Z" fill="#252473"/>
<path d="M34.7349 22.2287H35.7712V23.2647C35.7712 23.837 36.2352 24.3009 36.8073 24.3009C37.3796 24.3009 37.8435 23.837 37.8435 23.2647V22.2287H38.8795C39.4517 22.2287 39.9157 21.7647 39.9157 21.1925C39.9157 20.6204 39.4517 20.1564 38.8795 20.1564H37.8435V19.1201C37.8435 18.548 37.3796 18.084 36.8073 18.084C36.2352 18.084 35.7712 18.548 35.7712 19.1201V20.1564H34.7349C34.1628 20.1564 33.6988 20.6204 33.6988 21.1925C33.6988 21.7648 34.1628 22.2287 34.7349 22.2287Z" fill="#252473"/>
<path d="M49.7591 51.2408H48.2048V49.6865C48.2048 48.8283 47.5089 48.1323 46.6506 48.1323C45.7924 48.1323 45.0964 48.8283 45.0964 49.6865V51.2408H43.5422C42.684 51.2408 41.988 51.9367 41.988 52.795C41.988 53.6532 42.684 54.3492 43.5422 54.3492H45.0964V55.9034C45.0964 56.7616 45.7924 57.4576 46.6506 57.4576C47.5089 57.4576 48.2048 56.7616 48.2048 55.9034V54.3492H49.7591C50.6173 54.3492 51.3133 53.6532 51.3133 52.795C51.3133 51.9367 50.6175 51.2408 49.7591 51.2408Z" fill="#252473"/>
<path d="M47.1687 10.8312C50.0254 10.8312 52.3494 8.5071 52.3494 5.65045C52.3494 2.7938 50.0254 0.469727 47.1687 0.469727C44.312 0.469727 41.988 2.7938 41.988 5.65045C41.988 8.5071 44.312 10.8312 47.1687 10.8312ZM47.1687 3.92354C48.1209 3.92354 48.8956 4.69823 48.8956 5.65045C48.8956 6.60267 48.1209 7.37736 47.1687 7.37736C46.2165 7.37736 45.4418 6.60267 45.4418 5.65045C45.4418 4.69823 46.2165 3.92354 47.1687 3.92354Z" fill="#252473"/>
<path d="M54.9398 20.1562C52.3688 20.1562 50.2771 22.2479 50.2771 24.8189C50.2771 27.3899 52.3688 29.4816 54.9398 29.4816C57.5107 29.4816 59.6024 27.3899 59.6024 24.8189C59.6024 22.2479 57.5106 20.1562 54.9398 20.1562ZM54.9398 26.3731C54.0828 26.3731 53.3855 25.6759 53.3855 24.8189C53.3855 23.9619 54.0828 23.2647 54.9398 23.2647C55.7968 23.2647 56.494 23.9619 56.494 24.8189C56.494 25.6759 55.7968 26.3731 54.9398 26.3731Z" fill="#252473"/>
<path d="M22.3012 16.0119C26.3005 16.0119 29.5542 12.7582 29.5542 8.75887C29.5542 4.75956 26.3005 1.50586 22.3012 1.50586C18.3019 1.50586 15.0482 4.75956 15.0482 8.75887C15.0482 12.7582 18.3019 16.0119 22.3012 16.0119ZM22.3012 6.3412C23.6343 6.3412 24.7189 7.42577 24.7189 8.75887C24.7189 10.092 23.6343 11.1765 22.3012 11.1765C20.9681 11.1765 19.8836 10.092 19.8836 8.75887C19.8836 7.42601 20.9681 6.3412 22.3012 6.3412Z" fill="#252473"/>
<path d="M52.5494 36.7349C52.5494 36.0537 51.9944 35.4987 51.3132 35.4987C50.6321 35.4987 50.0771 36.0537 50.0771 36.7349C50.0771 37.416 50.6321 37.971 51.3132 37.971C51.9944 37.971 52.5494 37.4159 52.5494 36.7349Z" fill="#252473" stroke="#252473" stroke-width="0.4"/>
<path d="M37.6434 12.9033V12.9034C37.6435 13.5844 38.1984 14.1395 38.8795 14.1395C39.5607 14.1395 40.1157 13.5845 40.1157 12.9033C40.1157 12.2222 39.5607 11.6672 38.8795 11.6672C38.1984 11.6672 37.6434 12.2222 37.6434 12.9033Z" fill="#252473" stroke="#252473" stroke-width="0.4"/>
<path d="M54.4218 43.7878C53.7406 43.7878 53.1856 44.3429 53.1856 45.024C53.1856 45.7052 53.7406 46.2601 54.4218 46.2601C55.1028 46.2601 55.6578 45.7051 55.6578 45.024C55.6578 44.3429 55.1028 43.7878 54.4218 43.7878Z" fill="#252473" stroke="#252473" stroke-width="0.4"/>
<path d="M11.9398 4.81428C12.6209 4.81428 13.1759 4.2593 13.1759 3.57814C13.1759 2.89697 12.6209 2.34199 11.9398 2.34199C11.2586 2.34199 10.7036 2.89697 10.7036 3.57814C10.7036 4.2593 11.2586 4.81428 11.9398 4.81428Z" fill="#252473" stroke="#252473" stroke-width="0.4"/>
</svg>
