<svg width="25" height="25" viewBox="0 0 25 25" fill="none" xmlns="http://www.w3.org/2000/svg">
<path d="M12.5 15.02C14.1569 15.02 15.5 13.6769 15.5 12.02C15.5 10.3632 14.1569 9.02002 12.5 9.02002C10.8431 9.02002 9.5 10.3632 9.5 12.02C9.5 13.6769 10.8431 15.02 12.5 15.02Z" stroke="#5857AB" stroke-width="2" stroke-linecap="round" stroke-linejoin="round"/>
<path d="M19.9 15.02C19.7669 15.3216 19.7272 15.6562 19.786 15.9806C19.8448 16.305 19.9995 16.6043 20.23 16.84L20.29 16.9C20.476 17.0858 20.6235 17.3063 20.7241 17.5491C20.8248 17.7919 20.8766 18.0522 20.8766 18.315C20.8766 18.5779 20.8248 18.8381 20.7241 19.0809C20.6235 19.3237 20.476 19.5443 20.29 19.73C20.1043 19.916 19.8837 20.0635 19.6409 20.1641C19.3981 20.2648 19.1378 20.3166 18.875 20.3166C18.6122 20.3166 18.3519 20.2648 18.1091 20.1641C17.8663 20.0635 17.6457 19.916 17.46 19.73L17.4 19.67C17.1643 19.4395 16.865 19.2848 16.5406 19.226C16.2162 19.1672 15.8816 19.2069 15.58 19.34C15.2842 19.4668 15.032 19.6773 14.8543 19.9456C14.6766 20.2138 14.5813 20.5282 14.58 20.85V21.02C14.58 21.5505 14.3693 22.0592 13.9942 22.4342C13.6191 22.8093 13.1104 23.02 12.58 23.02C12.0496 23.02 11.5409 22.8093 11.1658 22.4342C10.7907 22.0592 10.58 21.5505 10.58 21.02V20.93C10.5723 20.599 10.4651 20.278 10.2725 20.0087C10.0799 19.7394 9.81074 19.5343 9.5 19.42C9.19838 19.2869 8.86381 19.2472 8.53941 19.306C8.21502 19.3648 7.91568 19.5195 7.68 19.75L7.62 19.81C7.43425 19.996 7.21368 20.1435 6.97088 20.2441C6.72808 20.3448 6.46783 20.3966 6.205 20.3966C5.94217 20.3966 5.68192 20.3448 5.43912 20.2441C5.19632 20.1435 4.97575 19.996 4.79 19.81C4.60405 19.6243 4.45653 19.4037 4.35588 19.1609C4.25523 18.9181 4.20343 18.6579 4.20343 18.395C4.20343 18.1322 4.25523 17.8719 4.35588 17.6291C4.45653 17.3863 4.60405 17.1658 4.79 16.98L4.85 16.92C5.08054 16.6843 5.23519 16.385 5.294 16.0606C5.35282 15.7362 5.31312 15.4016 5.18 15.1C5.05324 14.8043 4.84276 14.552 4.57447 14.3743C4.30618 14.1967 3.99179 14.1013 3.67 14.1H3.5C2.96957 14.1 2.46086 13.8893 2.08579 13.5142C1.71071 13.1392 1.5 12.6305 1.5 12.1C1.5 11.5696 1.71071 11.0609 2.08579 10.6858C2.46086 10.3107 2.96957 10.1 3.5 10.1H3.59C3.92099 10.0923 4.242 9.98514 4.5113 9.79253C4.78059 9.59992 4.98572 9.33075 5.1 9.02002C5.23312 8.7184 5.27282 8.38383 5.214 8.05943C5.15519 7.73504 5.00054 7.4357 4.77 7.20002L4.71 7.14002C4.52405 6.95427 4.37653 6.7337 4.27588 6.4909C4.17523 6.2481 4.12343 5.98785 4.12343 5.72502C4.12343 5.46219 4.17523 5.20194 4.27588 4.95914C4.37653 4.71634 4.52405 4.49577 4.71 4.31002C4.89575 4.12407 5.11632 3.97655 5.35912 3.8759C5.60192 3.77525 5.86217 3.72345 6.125 3.72345C6.38783 3.72345 6.64808 3.77525 6.89088 3.8759C7.13368 3.97655 7.35425 4.12407 7.54 4.31002L7.6 4.37002C7.83568 4.60056 8.13502 4.75521 8.45941 4.81402C8.78381 4.87284 9.11838 4.83313 9.42 4.70002H9.5C9.79577 4.57326 10.048 4.36277 10.2257 4.09448C10.4034 3.82619 10.4987 3.51181 10.5 3.19002V3.02002C10.5 2.48959 10.7107 1.98088 11.0858 1.60581C11.4609 1.23073 11.9696 1.02002 12.5 1.02002C13.0304 1.02002 13.5391 1.23073 13.9142 1.60581C14.2893 1.98088 14.5 2.48959 14.5 3.02002V3.11002C14.5013 3.43181 14.5966 3.74619 14.7743 4.01449C14.952 4.28278 15.2042 4.49326 15.5 4.62002C15.8016 4.75313 16.1362 4.79284 16.4606 4.73402C16.785 4.67521 17.0843 4.52056 17.32 4.29002L17.38 4.23002C17.5657 4.04407 17.7863 3.89655 18.0291 3.7959C18.2719 3.69525 18.5322 3.64345 18.795 3.64345C19.0578 3.64345 19.3181 3.69525 19.5609 3.7959C19.8037 3.89655 20.0243 4.04407 20.21 4.23002C20.396 4.41577 20.5435 4.63634 20.6441 4.87914C20.7448 5.12194 20.7966 5.38219 20.7966 5.64502C20.7966 5.90785 20.7448 6.1681 20.6441 6.4109C20.5435 6.6537 20.396 6.87427 20.21 7.06002L20.15 7.12002C19.9195 7.3557 19.7648 7.65504 19.706 7.97943C19.6472 8.30383 19.6869 8.6384 19.82 8.94002V9.02002C19.9468 9.31579 20.1572 9.56804 20.4255 9.74571C20.6938 9.92339 21.0082 10.0187 21.33 10.02H21.5C22.0304 10.02 22.5391 10.2307 22.9142 10.6058C23.2893 10.9809 23.5 11.4896 23.5 12.02C23.5 12.5505 23.2893 13.0592 22.9142 13.4342C22.5391 13.8093 22.0304 14.02 21.5 14.02H21.41C21.0882 14.0213 20.7738 14.1167 20.5055 14.2943C20.2372 14.472 20.0268 14.7243 19.9 15.02V15.02Z" stroke="#5857AB" stroke-width="2" stroke-linecap="round" stroke-linejoin="round"/>
</svg>
