<svg width="417" height="106" viewBox="0 0 417 106" fill="none" xmlns="http://www.w3.org/2000/svg">
<g filter="url(#filter0_d_3289:67572)">
<rect x="31" y="20" width="361" height="23" rx="2" fill="white"/>
<path d="M44.65 28.03L42.38 32.37V35H41.47V32.37L39.19 28.03H40.2L41.92 31.56L43.64 28.03H44.65ZM47.9998 35.09C47.4865 35.09 47.0198 34.9733 46.5998 34.74C46.1865 34.5067 45.8598 34.1767 45.6198 33.75C45.3865 33.3167 45.2698 32.8167 45.2698 32.25C45.2698 31.69 45.3898 31.1967 45.6298 30.77C45.8765 30.3367 46.2098 30.0067 46.6298 29.78C47.0498 29.5467 47.5198 29.43 48.0398 29.43C48.5598 29.43 49.0298 29.5467 49.4498 29.78C49.8698 30.0067 50.1998 30.3333 50.4398 30.76C50.6865 31.1867 50.8098 31.6833 50.8098 32.25C50.8098 32.8167 50.6832 33.3167 50.4298 33.75C50.1832 34.1767 49.8465 34.5067 49.4198 34.74C48.9932 34.9733 48.5198 35.09 47.9998 35.09ZM47.9998 34.29C48.3265 34.29 48.6332 34.2133 48.9198 34.06C49.2065 33.9067 49.4365 33.6767 49.6098 33.37C49.7898 33.0633 49.8798 32.69 49.8798 32.25C49.8798 31.81 49.7932 31.4367 49.6198 31.13C49.4465 30.8233 49.2198 30.5967 48.9398 30.45C48.6598 30.2967 48.3565 30.22 48.0298 30.22C47.6965 30.22 47.3898 30.2967 47.1098 30.45C46.8365 30.5967 46.6165 30.8233 46.4498 31.13C46.2832 31.4367 46.1998 31.81 46.1998 32.25C46.1998 32.6967 46.2798 33.0733 46.4398 33.38C46.6065 33.6867 46.8265 33.9167 47.0998 34.07C47.3732 34.2167 47.6732 34.29 47.9998 34.29ZM56.8663 29.52V35H55.9563V34.19C55.783 34.47 55.5397 34.69 55.2263 34.85C54.9197 35.0033 54.5797 35.08 54.2063 35.08C53.7797 35.08 53.3963 34.9933 53.0563 34.82C52.7163 34.64 52.4463 34.3733 52.2463 34.02C52.053 33.6667 51.9563 33.2367 51.9563 32.73V29.52H52.8563V32.61C52.8563 33.15 52.993 33.5667 53.2663 33.86C53.5397 34.1467 53.913 34.29 54.3863 34.29C54.873 34.29 55.2563 34.14 55.5363 33.84C55.8163 33.54 55.9563 33.1033 55.9563 32.53V29.52H56.8663ZM60.7288 32.24C60.7288 31.68 60.8422 31.19 61.0688 30.77C61.2955 30.3433 61.6055 30.0133 61.9988 29.78C62.3988 29.5467 62.8422 29.43 63.3288 29.43C63.8088 29.43 64.2255 29.5333 64.5788 29.74C64.9322 29.9467 65.1955 30.2067 65.3688 30.52V29.52H66.2888V35H65.3688V33.98C65.1888 34.3 64.9188 34.5667 64.5588 34.78C64.2055 34.9867 63.7922 35.09 63.3188 35.09C62.8322 35.09 62.3922 34.97 61.9988 34.73C61.6055 34.49 61.2955 34.1533 61.0688 33.72C60.8422 33.2867 60.7288 32.7933 60.7288 32.24ZM65.3688 32.25C65.3688 31.8367 65.2855 31.4767 65.1188 31.17C64.9522 30.8633 64.7255 30.63 64.4388 30.47C64.1588 30.3033 63.8488 30.22 63.5088 30.22C63.1688 30.22 62.8588 30.3 62.5788 30.46C62.2988 30.62 62.0755 30.8533 61.9088 31.16C61.7422 31.4667 61.6588 31.8267 61.6588 32.24C61.6588 32.66 61.7422 33.0267 61.9088 33.34C62.0755 33.6467 62.2988 33.8833 62.5788 34.05C62.8588 34.21 63.1688 34.29 63.5088 34.29C63.8488 34.29 64.1588 34.21 64.4388 34.05C64.7255 33.8833 64.9522 33.6467 65.1188 33.34C65.2855 33.0267 65.3688 32.6633 65.3688 32.25ZM68.7366 30.41C68.8966 30.0967 69.1233 29.8533 69.4166 29.68C69.7166 29.5067 70.08 29.42 70.5066 29.42V30.36H70.2666C69.2466 30.36 68.7366 30.9133 68.7366 32.02V35H67.8266V29.52H68.7366V30.41ZM76.5571 32.05C76.5571 32.2233 76.5471 32.4067 76.5271 32.6H72.1471C72.1804 33.14 72.3638 33.5633 72.6971 33.87C73.0371 34.17 73.4471 34.32 73.9271 34.32C74.3204 34.32 74.6471 34.23 74.9071 34.05C75.1738 33.8633 75.3604 33.6167 75.4671 33.31H76.4471C76.3004 33.8367 76.0071 34.2667 75.5671 34.6C75.1271 34.9267 74.5804 35.09 73.9271 35.09C73.4071 35.09 72.9404 34.9733 72.5271 34.74C72.1204 34.5067 71.8004 34.1767 71.5671 33.75C71.3338 33.3167 71.2171 32.8167 71.2171 32.25C71.2171 31.6833 71.3304 31.1867 71.5571 30.76C71.7838 30.3333 72.1004 30.0067 72.5071 29.78C72.9204 29.5467 73.3938 29.43 73.9271 29.43C74.4471 29.43 74.9071 29.5433 75.3071 29.77C75.7071 29.9967 76.0138 30.31 76.2271 30.71C76.4471 31.1033 76.5571 31.55 76.5571 32.05ZM75.6171 31.86C75.6171 31.5133 75.5404 31.2167 75.3871 30.97C75.2338 30.7167 75.0238 30.5267 74.7571 30.4C74.4971 30.2667 74.2071 30.2 73.8871 30.2C73.4271 30.2 73.0338 30.3467 72.7071 30.64C72.3871 30.9333 72.2038 31.34 72.1571 31.86H75.6171ZM83.1443 29.42C83.5576 29.42 83.931 29.51 84.2643 29.69C84.5976 29.8633 84.8576 30.1267 85.0443 30.48C85.2376 30.8333 85.3343 31.2633 85.3343 31.77V35H84.4343V31.9C84.4343 31.3533 84.2976 30.9367 84.0243 30.65C83.751 30.3567 83.3776 30.21 82.9043 30.21C82.4243 30.21 82.041 30.36 81.7543 30.66C81.4743 30.96 81.3343 31.3967 81.3343 31.97V35H80.4243V27.6H81.3343V30.3C81.5143 30.02 81.761 29.8033 82.0743 29.65C82.3943 29.4967 82.751 29.42 83.1443 29.42ZM86.4808 32.24C86.4808 31.68 86.5941 31.19 86.8208 30.77C87.0474 30.3433 87.3574 30.0133 87.7508 29.78C88.1508 29.5467 88.5941 29.43 89.0808 29.43C89.5608 29.43 89.9774 29.5333 90.3308 29.74C90.6841 29.9467 90.9474 30.2067 91.1208 30.52V29.52H92.0408V35H91.1208V33.98C90.9408 34.3 90.6708 34.5667 90.3108 34.78C89.9574 34.9867 89.5441 35.09 89.0708 35.09C88.5841 35.09 88.1441 34.97 87.7508 34.73C87.3574 34.49 87.0474 34.1533 86.8208 33.72C86.5941 33.2867 86.4808 32.7933 86.4808 32.24ZM91.1208 32.25C91.1208 31.8367 91.0374 31.4767 90.8708 31.17C90.7041 30.8633 90.4774 30.63 90.1908 30.47C89.9108 30.3033 89.6008 30.22 89.2608 30.22C88.9208 30.22 88.6108 30.3 88.3308 30.46C88.0508 30.62 87.8274 30.8533 87.6608 31.16C87.4941 31.4667 87.4108 31.8267 87.4108 32.24C87.4108 32.66 87.4941 33.0267 87.6608 33.34C87.8274 33.6467 88.0508 33.8833 88.3308 34.05C88.6108 34.21 88.9208 34.29 89.2608 34.29C89.6008 34.29 89.9108 34.21 90.1908 34.05C90.4774 33.8833 90.7041 33.6467 90.8708 33.34C91.0374 33.0267 91.1208 32.6633 91.1208 32.25ZM95.6186 34.16L97.3186 29.52H98.2886L96.1386 35H95.0786L92.9286 29.52H93.9086L95.6186 34.16ZM99.6541 28.63C99.4807 28.63 99.3341 28.57 99.2141 28.45C99.0941 28.33 99.0341 28.1833 99.0341 28.01C99.0341 27.8367 99.0941 27.69 99.2141 27.57C99.3341 27.45 99.4807 27.39 99.6541 27.39C99.8207 27.39 99.9607 27.45 100.074 27.57C100.194 27.69 100.254 27.8367 100.254 28.01C100.254 28.1833 100.194 28.33 100.074 28.45C99.9607 28.57 99.8207 28.63 99.6541 28.63ZM100.094 29.52V35H99.1841V29.52H100.094ZM104.315 29.42C104.982 29.42 105.522 29.6233 105.935 30.03C106.348 30.43 106.555 31.01 106.555 31.77V35H105.655V31.9C105.655 31.3533 105.518 30.9367 105.245 30.65C104.972 30.3567 104.598 30.21 104.125 30.21C103.645 30.21 103.262 30.36 102.975 30.66C102.695 30.96 102.555 31.3967 102.555 31.97V35H101.645V29.52H102.555V30.3C102.735 30.02 102.978 29.8033 103.285 29.65C103.598 29.4967 103.942 29.42 104.315 29.42ZM110.301 29.43C110.775 29.43 111.188 29.5333 111.541 29.74C111.901 29.9467 112.168 30.2067 112.341 30.52V29.52H113.261V35.12C113.261 35.62 113.155 36.0633 112.941 36.45C112.728 36.8433 112.421 37.15 112.021 37.37C111.628 37.59 111.168 37.7 110.641 37.7C109.921 37.7 109.321 37.53 108.841 37.19C108.361 36.85 108.078 36.3867 107.991 35.8H108.891C108.991 36.1333 109.198 36.4 109.511 36.6C109.825 36.8067 110.201 36.91 110.641 36.91C111.141 36.91 111.548 36.7533 111.861 36.44C112.181 36.1267 112.341 35.6867 112.341 35.12V33.97C112.161 34.29 111.895 34.5567 111.541 34.77C111.188 34.9833 110.775 35.09 110.301 35.09C109.815 35.09 109.371 34.97 108.971 34.73C108.578 34.49 108.268 34.1533 108.041 33.72C107.815 33.2867 107.701 32.7933 107.701 32.24C107.701 31.68 107.815 31.19 108.041 30.77C108.268 30.3433 108.578 30.0133 108.971 29.78C109.371 29.5467 109.815 29.43 110.301 29.43ZM112.341 32.25C112.341 31.8367 112.258 31.4767 112.091 31.17C111.925 30.8633 111.698 30.63 111.411 30.47C111.131 30.3033 110.821 30.22 110.481 30.22C110.141 30.22 109.831 30.3 109.551 30.46C109.271 30.62 109.048 30.8533 108.881 31.16C108.715 31.4667 108.631 31.8267 108.631 32.24C108.631 32.66 108.715 33.0267 108.881 33.34C109.048 33.6467 109.271 33.8833 109.551 34.05C109.831 34.21 110.141 34.29 110.481 34.29C110.821 34.29 111.131 34.21 111.411 34.05C111.698 33.8833 111.925 33.6467 112.091 33.34C112.258 33.0267 112.341 32.6633 112.341 32.25ZM117.125 32.25C117.125 31.6833 117.239 31.19 117.465 30.77C117.692 30.3433 118.005 30.0133 118.405 29.78C118.812 29.5467 119.275 29.43 119.795 29.43C120.469 29.43 121.022 29.5933 121.455 29.92C121.895 30.2467 122.185 30.7 122.325 31.28H121.345C121.252 30.9467 121.069 30.6833 120.795 30.49C120.529 30.2967 120.195 30.2 119.795 30.2C119.275 30.2 118.855 30.38 118.535 30.74C118.215 31.0933 118.055 31.5967 118.055 32.25C118.055 32.91 118.215 33.42 118.535 33.78C118.855 34.14 119.275 34.32 119.795 34.32C120.195 34.32 120.529 34.2267 120.795 34.04C121.062 33.8533 121.245 33.5867 121.345 33.24H122.325C122.179 33.8 121.885 34.25 121.445 34.59C121.005 34.9233 120.455 35.09 119.795 35.09C119.275 35.09 118.812 34.9733 118.405 34.74C118.005 34.5067 117.692 34.1767 117.465 33.75C117.239 33.3233 117.125 32.8233 117.125 32.25ZM125.93 35.09C125.416 35.09 124.95 34.9733 124.53 34.74C124.116 34.5067 123.79 34.1767 123.55 33.75C123.316 33.3167 123.2 32.8167 123.2 32.25C123.2 31.69 123.32 31.1967 123.56 30.77C123.806 30.3367 124.14 30.0067 124.56 29.78C124.98 29.5467 125.45 29.43 125.97 29.43C126.49 29.43 126.96 29.5467 127.38 29.78C127.8 30.0067 128.13 30.3333 128.37 30.76C128.616 31.1867 128.74 31.6833 128.74 32.25C128.74 32.8167 128.613 33.3167 128.36 33.75C128.113 34.1767 127.776 34.5067 127.35 34.74C126.923 34.9733 126.45 35.09 125.93 35.09ZM125.93 34.29C126.256 34.29 126.563 34.2133 126.85 34.06C127.136 33.9067 127.366 33.6767 127.54 33.37C127.72 33.0633 127.81 32.69 127.81 32.25C127.81 31.81 127.723 31.4367 127.55 31.13C127.376 30.8233 127.15 30.5967 126.87 30.45C126.59 30.2967 126.286 30.22 125.96 30.22C125.626 30.22 125.32 30.2967 125.04 30.45C124.766 30.5967 124.546 30.8233 124.38 31.13C124.213 31.4367 124.13 31.81 124.13 32.25C124.13 32.6967 124.21 33.0733 124.37 33.38C124.536 33.6867 124.756 33.9167 125.03 34.07C125.303 34.2167 125.603 34.29 125.93 34.29ZM132.606 29.42C133.273 29.42 133.813 29.6233 134.226 30.03C134.639 30.43 134.846 31.01 134.846 31.77V35H133.946V31.9C133.946 31.3533 133.809 30.9367 133.536 30.65C133.263 30.3567 132.889 30.21 132.416 30.21C131.936 30.21 131.553 30.36 131.266 30.66C130.986 30.96 130.846 31.3967 130.846 31.97V35H129.936V29.52H130.846V30.3C131.026 30.02 131.269 29.8033 131.576 29.65C131.889 29.4967 132.233 29.42 132.606 29.42ZM139.003 29.42C139.669 29.42 140.209 29.6233 140.623 30.03C141.036 30.43 141.243 31.01 141.243 31.77V35H140.343V31.9C140.343 31.3533 140.206 30.9367 139.933 30.65C139.659 30.3567 139.286 30.21 138.813 30.21C138.333 30.21 137.949 30.36 137.663 30.66C137.383 30.96 137.243 31.3967 137.243 31.97V35H136.333V29.52H137.243V30.3C137.423 30.02 137.666 29.8033 137.973 29.65C138.286 29.4967 138.629 29.42 139.003 29.42ZM147.729 32.05C147.729 32.2233 147.719 32.4067 147.699 32.6H143.319C143.352 33.14 143.536 33.5633 143.869 33.87C144.209 34.17 144.619 34.32 145.099 34.32C145.492 34.32 145.819 34.23 146.079 34.05C146.346 33.8633 146.532 33.6167 146.639 33.31H147.619C147.472 33.8367 147.179 34.2667 146.739 34.6C146.299 34.9267 145.752 35.09 145.099 35.09C144.579 35.09 144.112 34.9733 143.699 34.74C143.292 34.5067 142.972 34.1767 142.739 33.75C142.506 33.3167 142.389 32.8167 142.389 32.25C142.389 31.6833 142.502 31.1867 142.729 30.76C142.956 30.3333 143.272 30.0067 143.679 29.78C144.092 29.5467 144.566 29.43 145.099 29.43C145.619 29.43 146.079 29.5433 146.479 29.77C146.879 29.9967 147.186 30.31 147.399 30.71C147.619 31.1033 147.729 31.55 147.729 32.05ZM146.789 31.86C146.789 31.5133 146.712 31.2167 146.559 30.97C146.406 30.7167 146.196 30.5267 145.929 30.4C145.669 30.2667 145.379 30.2 145.059 30.2C144.599 30.2 144.206 30.3467 143.879 30.64C143.559 30.9333 143.376 31.34 143.329 31.86H146.789ZM148.59 32.25C148.59 31.6833 148.703 31.19 148.93 30.77C149.157 30.3433 149.47 30.0133 149.87 29.78C150.277 29.5467 150.74 29.43 151.26 29.43C151.933 29.43 152.487 29.5933 152.92 29.92C153.36 30.2467 153.65 30.7 153.79 31.28H152.81C152.717 30.9467 152.533 30.6833 152.26 30.49C151.993 30.2967 151.66 30.2 151.26 30.2C150.74 30.2 150.32 30.38 150 30.74C149.68 31.0933 149.52 31.5967 149.52 32.25C149.52 32.91 149.68 33.42 150 33.78C150.32 34.14 150.74 34.32 151.26 34.32C151.66 34.32 151.993 34.2267 152.26 34.04C152.527 33.8533 152.71 33.5867 152.81 33.24H153.79C153.643 33.8 153.35 34.25 152.91 34.59C152.47 34.9233 151.92 35.09 151.26 35.09C150.74 35.09 150.277 34.9733 149.87 34.74C149.47 34.5067 149.157 34.1767 148.93 33.75C148.703 33.3233 148.59 32.8233 148.59 32.25ZM156.114 30.27V33.5C156.114 33.7667 156.171 33.9567 156.284 34.07C156.398 34.1767 156.594 34.23 156.874 34.23H157.544V35H156.724C156.218 35 155.838 34.8833 155.584 34.65C155.331 34.4167 155.204 34.0333 155.204 33.5V30.27H154.494V29.52H155.204V28.14H156.114V29.52H157.544V30.27H156.114ZM159.117 28.63C158.944 28.63 158.797 28.57 158.677 28.45C158.557 28.33 158.497 28.1833 158.497 28.01C158.497 27.8367 158.557 27.69 158.677 27.57C158.797 27.45 158.944 27.39 159.117 27.39C159.284 27.39 159.424 27.45 159.537 27.57C159.657 27.69 159.717 27.8367 159.717 28.01C159.717 28.1833 159.657 28.33 159.537 28.45C159.424 28.57 159.284 28.63 159.117 28.63ZM159.557 29.52V35H158.647V29.52H159.557ZM163.148 34.16L164.848 29.52H165.818L163.668 35H162.608L160.458 29.52H161.438L163.148 34.16ZM167.183 28.63C167.01 28.63 166.863 28.57 166.743 28.45C166.623 28.33 166.563 28.1833 166.563 28.01C166.563 27.8367 166.623 27.69 166.743 27.57C166.863 27.45 167.01 27.39 167.183 27.39C167.35 27.39 167.49 27.45 167.603 27.57C167.723 27.69 167.783 27.8367 167.783 28.01C167.783 28.1833 167.723 28.33 167.603 28.45C167.49 28.57 167.35 28.63 167.183 28.63ZM167.623 29.52V35H166.713V29.52H167.623ZM170.284 30.27V33.5C170.284 33.7667 170.341 33.9567 170.454 34.07C170.568 34.1767 170.764 34.23 171.044 34.23H171.714V35H170.894C170.388 35 170.008 34.8833 169.754 34.65C169.501 34.4167 169.374 34.0333 169.374 33.5V30.27H168.664V29.52H169.374V28.14H170.284V29.52H171.714V30.27H170.284ZM177.537 29.52L174.237 37.58H173.297L174.377 34.94L172.167 29.52H173.177L174.897 33.96L176.597 29.52H177.537ZM181.588 28.63C181.414 28.63 181.268 28.57 181.148 28.45C181.028 28.33 180.968 28.1833 180.968 28.01C180.968 27.8367 181.028 27.69 181.148 27.57C181.268 27.45 181.414 27.39 181.588 27.39C181.754 27.39 181.894 27.45 182.008 27.57C182.128 27.69 182.188 27.8367 182.188 28.01C182.188 28.1833 182.128 28.33 182.008 28.45C181.894 28.57 181.754 28.63 181.588 28.63ZM182.028 29.52V35H181.118V29.52H182.028ZM185.519 35.09C185.099 35.09 184.722 35.02 184.389 34.88C184.055 34.7333 183.792 34.5333 183.599 34.28C183.405 34.02 183.299 33.7233 183.279 33.39H184.219C184.245 33.6633 184.372 33.8867 184.599 34.06C184.832 34.2333 185.135 34.32 185.509 34.32C185.855 34.32 186.129 34.2433 186.329 34.09C186.529 33.9367 186.629 33.7433 186.629 33.51C186.629 33.27 186.522 33.0933 186.309 32.98C186.095 32.86 185.765 32.7433 185.319 32.63C184.912 32.5233 184.579 32.4167 184.319 32.31C184.065 32.1967 183.845 32.0333 183.659 31.82C183.479 31.6 183.389 31.3133 183.389 30.96C183.389 30.68 183.472 30.4233 183.639 30.19C183.805 29.9567 184.042 29.7733 184.349 29.64C184.655 29.5 185.005 29.43 185.399 29.43C186.005 29.43 186.495 29.5833 186.869 29.89C187.242 30.1967 187.442 30.6167 187.469 31.15H186.559C186.539 30.8633 186.422 30.6333 186.209 30.46C186.002 30.2867 185.722 30.2 185.369 30.2C185.042 30.2 184.782 30.27 184.589 30.41C184.395 30.55 184.299 30.7333 184.299 30.96C184.299 31.14 184.355 31.29 184.469 31.41C184.589 31.5233 184.735 31.6167 184.909 31.69C185.089 31.7567 185.335 31.8333 185.649 31.92C186.042 32.0267 186.362 32.1333 186.609 32.24C186.855 32.34 187.065 32.4933 187.239 32.7C187.419 32.9067 187.512 33.1767 187.519 33.51C187.519 33.81 187.435 34.08 187.269 34.32C187.102 34.56 186.865 34.75 186.559 34.89C186.259 35.0233 185.912 35.09 185.519 35.09ZM190.743 35.09C190.323 35.09 189.947 35.02 189.613 34.88C189.28 34.7333 189.017 34.5333 188.823 34.28C188.63 34.02 188.523 33.7233 188.503 33.39H189.443C189.47 33.6633 189.597 33.8867 189.823 34.06C190.057 34.2333 190.36 34.32 190.733 34.32C191.08 34.32 191.353 34.2433 191.553 34.09C191.753 33.9367 191.853 33.7433 191.853 33.51C191.853 33.27 191.747 33.0933 191.533 32.98C191.32 32.86 190.99 32.7433 190.543 32.63C190.137 32.5233 189.803 32.4167 189.543 32.31C189.29 32.1967 189.07 32.0333 188.883 31.82C188.703 31.6 188.613 31.3133 188.613 30.96C188.613 30.68 188.697 30.4233 188.863 30.19C189.03 29.9567 189.267 29.7733 189.573 29.64C189.88 29.5 190.23 29.43 190.623 29.43C191.23 29.43 191.72 29.5833 192.093 29.89C192.467 30.1967 192.667 30.6167 192.693 31.15H191.783C191.763 30.8633 191.647 30.6333 191.433 30.46C191.227 30.2867 190.947 30.2 190.593 30.2C190.267 30.2 190.007 30.27 189.813 30.41C189.62 30.55 189.523 30.7333 189.523 30.96C189.523 31.14 189.58 31.29 189.693 31.41C189.813 31.5233 189.96 31.6167 190.133 31.69C190.313 31.7567 190.56 31.8333 190.873 31.92C191.267 32.0267 191.587 32.1333 191.833 32.24C192.08 32.34 192.29 32.4933 192.463 32.7C192.643 32.9067 192.737 33.1767 192.743 33.51C192.743 33.81 192.66 34.08 192.493 34.32C192.327 34.56 192.09 34.75 191.783 34.89C191.483 35.0233 191.137 35.09 190.743 35.09ZM198.888 29.52V35H197.978V34.19C197.804 34.47 197.561 34.69 197.248 34.85C196.941 35.0033 196.601 35.08 196.228 35.08C195.801 35.08 195.418 34.9933 195.078 34.82C194.738 34.64 194.468 34.3733 194.268 34.02C194.074 33.6667 193.978 33.2367 193.978 32.73V29.52H194.878V32.61C194.878 33.15 195.014 33.5667 195.288 33.86C195.561 34.1467 195.934 34.29 196.408 34.29C196.894 34.29 197.278 34.14 197.558 33.84C197.838 33.54 197.978 33.1033 197.978 32.53V29.52H198.888ZM205.424 32.05C205.424 32.2233 205.414 32.4067 205.394 32.6H201.014C201.048 33.14 201.231 33.5633 201.564 33.87C201.904 34.17 202.314 34.32 202.794 34.32C203.188 34.32 203.514 34.23 203.774 34.05C204.041 33.8633 204.228 33.6167 204.334 33.31H205.314C205.168 33.8367 204.874 34.2667 204.434 34.6C203.994 34.9267 203.448 35.09 202.794 35.09C202.274 35.09 201.808 34.9733 201.394 34.74C200.988 34.5067 200.668 34.1767 200.434 33.75C200.201 33.3167 200.084 32.8167 200.084 32.25C200.084 31.6833 200.198 31.1867 200.424 30.76C200.651 30.3333 200.968 30.0067 201.374 29.78C201.788 29.5467 202.261 29.43 202.794 29.43C203.314 29.43 203.774 29.5433 204.174 29.77C204.574 29.9967 204.881 30.31 205.094 30.71C205.314 31.1033 205.424 31.55 205.424 32.05ZM204.484 31.86C204.484 31.5133 204.408 31.2167 204.254 30.97C204.101 30.7167 203.891 30.5267 203.624 30.4C203.364 30.2667 203.074 30.2 202.754 30.2C202.294 30.2 201.901 30.3467 201.574 30.64C201.254 30.9333 201.071 31.34 201.024 31.86H204.484ZM208.565 35.09C208.145 35.09 207.769 35.02 207.435 34.88C207.102 34.7333 206.839 34.5333 206.645 34.28C206.452 34.02 206.345 33.7233 206.325 33.39H207.265C207.292 33.6633 207.419 33.8867 207.645 34.06C207.879 34.2333 208.182 34.32 208.555 34.32C208.902 34.32 209.175 34.2433 209.375 34.09C209.575 33.9367 209.675 33.7433 209.675 33.51C209.675 33.27 209.569 33.0933 209.355 32.98C209.142 32.86 208.812 32.7433 208.365 32.63C207.959 32.5233 207.625 32.4167 207.365 32.31C207.112 32.1967 206.892 32.0333 206.705 31.82C206.525 31.6 206.435 31.3133 206.435 30.96C206.435 30.68 206.519 30.4233 206.685 30.19C206.852 29.9567 207.089 29.7733 207.395 29.64C207.702 29.5 208.052 29.43 208.445 29.43C209.052 29.43 209.542 29.5833 209.915 29.89C210.289 30.1967 210.489 30.6167 210.515 31.15H209.605C209.585 30.8633 209.469 30.6333 209.255 30.46C209.049 30.2867 208.769 30.2 208.415 30.2C208.089 30.2 207.829 30.27 207.635 30.41C207.442 30.55 207.345 30.7333 207.345 30.96C207.345 31.14 207.402 31.29 207.515 31.41C207.635 31.5233 207.782 31.6167 207.955 31.69C208.135 31.7567 208.382 31.8333 208.695 31.92C209.089 32.0267 209.409 32.1333 209.655 32.24C209.902 32.34 210.112 32.4933 210.285 32.7C210.465 32.9067 210.559 33.1767 210.565 33.51C210.565 33.81 210.482 34.08 210.315 34.32C210.149 34.56 209.912 34.75 209.605 34.89C209.305 35.0233 208.959 35.09 208.565 35.09ZM212.79 33.74L211.67 36.43H211.06L211.79 33.74H212.79ZM216.159 32.25C216.159 31.6833 216.272 31.19 216.499 30.77C216.725 30.3433 217.039 30.0133 217.439 29.78C217.845 29.5467 218.309 29.43 218.829 29.43C219.502 29.43 220.055 29.5933 220.489 29.92C220.929 30.2467 221.219 30.7 221.359 31.28H220.379C220.285 30.9467 220.102 30.6833 219.829 30.49C219.562 30.2967 219.229 30.2 218.829 30.2C218.309 30.2 217.889 30.38 217.569 30.74C217.249 31.0933 217.089 31.5967 217.089 32.25C217.089 32.91 217.249 33.42 217.569 33.78C217.889 34.14 218.309 34.32 218.829 34.32C219.229 34.32 219.562 34.2267 219.829 34.04C220.095 33.8533 220.279 33.5867 220.379 33.24H221.359C221.212 33.8 220.919 34.25 220.479 34.59C220.039 34.9233 219.489 35.09 218.829 35.09C218.309 35.09 217.845 34.9733 217.439 34.74C217.039 34.5067 216.725 34.1767 216.499 33.75C216.272 33.3233 216.159 32.8233 216.159 32.25ZM224.963 35.09C224.449 35.09 223.983 34.9733 223.563 34.74C223.149 34.5067 222.823 34.1767 222.583 33.75C222.349 33.3167 222.233 32.8167 222.233 32.25C222.233 31.69 222.353 31.1967 222.593 30.77C222.839 30.3367 223.173 30.0067 223.593 29.78C224.013 29.5467 224.483 29.43 225.003 29.43C225.523 29.43 225.993 29.5467 226.413 29.78C226.833 30.0067 227.163 30.3333 227.403 30.76C227.649 31.1867 227.773 31.6833 227.773 32.25C227.773 32.8167 227.646 33.3167 227.393 33.75C227.146 34.1767 226.809 34.5067 226.383 34.74C225.956 34.9733 225.483 35.09 224.963 35.09ZM224.963 34.29C225.289 34.29 225.596 34.2133 225.883 34.06C226.169 33.9067 226.399 33.6767 226.573 33.37C226.753 33.0633 226.843 32.69 226.843 32.25C226.843 31.81 226.756 31.4367 226.583 31.13C226.409 30.8233 226.183 30.5967 225.903 30.45C225.623 30.2967 225.319 30.22 224.993 30.22C224.659 30.22 224.353 30.2967 224.073 30.45C223.799 30.5967 223.579 30.8233 223.413 31.13C223.246 31.4367 223.163 31.81 223.163 32.25C223.163 32.6967 223.243 33.0733 223.403 33.38C223.569 33.6867 223.789 33.9167 224.063 34.07C224.336 34.2167 224.636 34.29 224.963 34.29ZM235.559 29.42C235.986 29.42 236.366 29.51 236.699 29.69C237.033 29.8633 237.296 30.1267 237.489 30.48C237.683 30.8333 237.779 31.2633 237.779 31.77V35H236.879V31.9C236.879 31.3533 236.743 30.9367 236.469 30.65C236.203 30.3567 235.839 30.21 235.379 30.21C234.906 30.21 234.529 30.3633 234.249 30.67C233.969 30.97 233.829 31.4067 233.829 31.98V35H232.929V31.9C232.929 31.3533 232.793 30.9367 232.519 30.65C232.253 30.3567 231.889 30.21 231.429 30.21C230.956 30.21 230.579 30.3633 230.299 30.67C230.019 30.97 229.879 31.4067 229.879 31.98V35H228.969V29.52H229.879V30.31C230.059 30.0233 230.299 29.8033 230.599 29.65C230.906 29.4967 231.243 29.42 231.609 29.42C232.069 29.42 232.476 29.5233 232.829 29.73C233.183 29.9367 233.446 30.24 233.619 30.64C233.773 30.2533 234.026 29.9533 234.379 29.74C234.733 29.5267 235.126 29.42 235.559 29.42ZM245.862 29.42C246.289 29.42 246.669 29.51 247.002 29.69C247.335 29.8633 247.599 30.1267 247.792 30.48C247.985 30.8333 248.082 31.2633 248.082 31.77V35H247.182V31.9C247.182 31.3533 247.045 30.9367 246.772 30.65C246.505 30.3567 246.142 30.21 245.682 30.21C245.209 30.21 244.832 30.3633 244.552 30.67C244.272 30.97 244.132 31.4067 244.132 31.98V35H243.232V31.9C243.232 31.3533 243.095 30.9367 242.822 30.65C242.555 30.3567 242.192 30.21 241.732 30.21C241.259 30.21 240.882 30.3633 240.602 30.67C240.322 30.97 240.182 31.4067 240.182 31.98V35H239.272V29.52H240.182V30.31C240.362 30.0233 240.602 29.8033 240.902 29.65C241.209 29.4967 241.545 29.42 241.912 29.42C242.372 29.42 242.779 29.5233 243.132 29.73C243.485 29.9367 243.749 30.24 243.922 30.64C244.075 30.2533 244.329 29.9533 244.682 29.74C245.035 29.5267 245.429 29.42 245.862 29.42ZM254.435 29.52V35H253.525V34.19C253.351 34.47 253.108 34.69 252.795 34.85C252.488 35.0033 252.148 35.08 251.775 35.08C251.348 35.08 250.965 34.9933 250.625 34.82C250.285 34.64 250.015 34.3733 249.815 34.02C249.621 33.6667 249.525 33.2367 249.525 32.73V29.52H250.425V32.61C250.425 33.15 250.561 33.5667 250.835 33.86C251.108 34.1467 251.481 34.29 251.955 34.29C252.441 34.29 252.825 34.14 253.105 33.84C253.385 33.54 253.525 33.1033 253.525 32.53V29.52H254.435ZM258.641 29.42C259.308 29.42 259.848 29.6233 260.261 30.03C260.675 30.43 260.881 31.01 260.881 31.77V35H259.981V31.9C259.981 31.3533 259.845 30.9367 259.571 30.65C259.298 30.3567 258.925 30.21 258.451 30.21C257.971 30.21 257.588 30.36 257.301 30.66C257.021 30.96 256.881 31.3967 256.881 31.97V35H255.971V29.52H256.881V30.3C257.061 30.02 257.305 29.8033 257.611 29.65C257.925 29.4967 258.268 29.42 258.641 29.42ZM262.838 28.63C262.664 28.63 262.518 28.57 262.398 28.45C262.278 28.33 262.218 28.1833 262.218 28.01C262.218 27.8367 262.278 27.69 262.398 27.57C262.518 27.45 262.664 27.39 262.838 27.39C263.004 27.39 263.144 27.45 263.258 27.57C263.378 27.69 263.438 27.8367 263.438 28.01C263.438 28.1833 263.378 28.33 263.258 28.45C263.144 28.57 263.004 28.63 262.838 28.63ZM263.278 29.52V35H262.368V29.52H263.278ZM264.489 32.25C264.489 31.6833 264.602 31.19 264.829 30.77C265.055 30.3433 265.369 30.0133 265.769 29.78C266.175 29.5467 266.639 29.43 267.159 29.43C267.832 29.43 268.385 29.5933 268.819 29.92C269.259 30.2467 269.549 30.7 269.689 31.28H268.709C268.615 30.9467 268.432 30.6833 268.159 30.49C267.892 30.2967 267.559 30.2 267.159 30.2C266.639 30.2 266.219 30.38 265.899 30.74C265.579 31.0933 265.419 31.5967 265.419 32.25C265.419 32.91 265.579 33.42 265.899 33.78C266.219 34.14 266.639 34.32 267.159 34.32C267.559 34.32 267.892 34.2267 268.159 34.04C268.425 33.8533 268.609 33.5867 268.709 33.24H269.689C269.542 33.8 269.249 34.25 268.809 34.59C268.369 34.9233 267.819 35.09 267.159 35.09C266.639 35.09 266.175 34.9733 265.769 34.74C265.369 34.5067 265.055 34.1767 264.829 33.75C264.602 33.3233 264.489 32.8233 264.489 32.25ZM270.563 32.24C270.563 31.68 270.676 31.19 270.903 30.77C271.129 30.3433 271.439 30.0133 271.833 29.78C272.233 29.5467 272.676 29.43 273.163 29.43C273.643 29.43 274.059 29.5333 274.413 29.74C274.766 29.9467 275.029 30.2067 275.203 30.52V29.52H276.123V35H275.203V33.98C275.023 34.3 274.753 34.5667 274.393 34.78C274.039 34.9867 273.626 35.09 273.153 35.09C272.666 35.09 272.226 34.97 271.833 34.73C271.439 34.49 271.129 34.1533 270.903 33.72C270.676 33.2867 270.563 32.7933 270.563 32.24ZM275.203 32.25C275.203 31.8367 275.119 31.4767 274.953 31.17C274.786 30.8633 274.559 30.63 274.273 30.47C273.993 30.3033 273.683 30.22 273.343 30.22C273.003 30.22 272.693 30.3 272.413 30.46C272.133 30.62 271.909 30.8533 271.743 31.16C271.576 31.4667 271.493 31.8267 271.493 32.24C271.493 32.66 271.576 33.0267 271.743 33.34C271.909 33.6467 272.133 33.8833 272.413 34.05C272.693 34.21 273.003 34.29 273.343 34.29C273.683 34.29 273.993 34.21 274.273 34.05C274.559 33.8833 274.786 33.6467 274.953 33.34C275.119 33.0267 275.203 32.6633 275.203 32.25ZM278.771 30.27V33.5C278.771 33.7667 278.827 33.9567 278.941 34.07C279.054 34.1767 279.251 34.23 279.531 34.23H280.201V35H279.381C278.874 35 278.494 34.8833 278.241 34.65C277.987 34.4167 277.861 34.0333 277.861 33.5V30.27H277.151V29.52H277.861V28.14H278.771V29.52H280.201V30.27H278.771ZM281.773 28.63C281.6 28.63 281.453 28.57 281.333 28.45C281.213 28.33 281.153 28.1833 281.153 28.01C281.153 27.8367 281.213 27.69 281.333 27.57C281.453 27.45 281.6 27.39 281.773 27.39C281.94 27.39 282.08 27.45 282.193 27.57C282.313 27.69 282.373 27.8367 282.373 28.01C282.373 28.1833 282.313 28.33 282.193 28.45C282.08 28.57 281.94 28.63 281.773 28.63ZM282.213 29.52V35H281.303V29.52H282.213ZM286.154 35.09C285.641 35.09 285.174 34.9733 284.754 34.74C284.341 34.5067 284.014 34.1767 283.774 33.75C283.541 33.3167 283.424 32.8167 283.424 32.25C283.424 31.69 283.544 31.1967 283.784 30.77C284.031 30.3367 284.364 30.0067 284.784 29.78C285.204 29.5467 285.674 29.43 286.194 29.43C286.714 29.43 287.184 29.5467 287.604 29.78C288.024 30.0067 288.354 30.3333 288.594 30.76C288.841 31.1867 288.964 31.6833 288.964 32.25C288.964 32.8167 288.837 33.3167 288.584 33.75C288.337 34.1767 288.001 34.5067 287.574 34.74C287.147 34.9733 286.674 35.09 286.154 35.09ZM286.154 34.29C286.481 34.29 286.787 34.2133 287.074 34.06C287.361 33.9067 287.591 33.6767 287.764 33.37C287.944 33.0633 288.034 32.69 288.034 32.25C288.034 31.81 287.947 31.4367 287.774 31.13C287.601 30.8233 287.374 30.5967 287.094 30.45C286.814 30.2967 286.511 30.22 286.184 30.22C285.851 30.22 285.544 30.2967 285.264 30.45C284.991 30.5967 284.771 30.8233 284.604 31.13C284.437 31.4367 284.354 31.81 284.354 32.25C284.354 32.6967 284.434 33.0733 284.594 33.38C284.761 33.6867 284.981 33.9167 285.254 34.07C285.527 34.2167 285.827 34.29 286.154 34.29ZM292.831 29.42C293.497 29.42 294.037 29.6233 294.451 30.03C294.864 30.43 295.071 31.01 295.071 31.77V35H294.171V31.9C294.171 31.3533 294.034 30.9367 293.761 30.65C293.487 30.3567 293.114 30.21 292.641 30.21C292.161 30.21 291.777 30.36 291.491 30.66C291.211 30.96 291.071 31.3967 291.071 31.97V35H290.161V29.52H291.071V30.3C291.251 30.02 291.494 29.8033 291.801 29.65C292.114 29.4967 292.457 29.42 292.831 29.42ZM305.813 29.42C306.24 29.42 306.62 29.51 306.953 29.69C307.286 29.8633 307.55 30.1267 307.743 30.48C307.936 30.8333 308.033 31.2633 308.033 31.77V35H307.133V31.9C307.133 31.3533 306.996 30.9367 306.723 30.65C306.456 30.3567 306.093 30.21 305.633 30.21C305.16 30.21 304.783 30.3633 304.503 30.67C304.223 30.97 304.083 31.4067 304.083 31.98V35H303.183V31.9C303.183 31.3533 303.046 30.9367 302.773 30.65C302.506 30.3567 302.143 30.21 301.683 30.21C301.21 30.21 300.833 30.3633 300.553 30.67C300.273 30.97 300.133 31.4067 300.133 31.98V35H299.223V29.52H300.133V30.31C300.313 30.0233 300.553 29.8033 300.853 29.65C301.16 29.4967 301.496 29.42 301.863 29.42C302.323 29.42 302.73 29.5233 303.083 29.73C303.436 29.9367 303.7 30.24 303.873 30.64C304.026 30.2533 304.28 29.9533 304.633 29.74C304.986 29.5267 305.38 29.42 305.813 29.42ZM309.186 32.24C309.186 31.68 309.299 31.19 309.526 30.77C309.753 30.3433 310.063 30.0133 310.456 29.78C310.856 29.5467 311.299 29.43 311.786 29.43C312.266 29.43 312.683 29.5333 313.036 29.74C313.389 29.9467 313.653 30.2067 313.826 30.52V29.52H314.746V35H313.826V33.98C313.646 34.3 313.376 34.5667 313.016 34.78C312.663 34.9867 312.249 35.09 311.776 35.09C311.289 35.09 310.849 34.97 310.456 34.73C310.063 34.49 309.753 34.1533 309.526 33.72C309.299 33.2867 309.186 32.7933 309.186 32.24ZM313.826 32.25C313.826 31.8367 313.743 31.4767 313.576 31.17C313.409 30.8633 313.183 30.63 312.896 30.47C312.616 30.3033 312.306 30.22 311.966 30.22C311.626 30.22 311.316 30.3 311.036 30.46C310.756 30.62 310.533 30.8533 310.366 31.16C310.199 31.4667 310.116 31.8267 310.116 32.24C310.116 32.66 310.199 33.0267 310.366 33.34C310.533 33.6467 310.756 33.8833 311.036 34.05C311.316 34.21 311.626 34.29 311.966 34.29C312.306 34.29 312.616 34.21 312.896 34.05C313.183 33.8833 313.409 33.6467 313.576 33.34C313.743 33.0267 313.826 32.6633 313.826 32.25ZM321.004 29.52L317.704 37.58H316.764L317.844 34.94L315.634 29.52H316.644L318.364 33.96L320.064 29.52H321.004ZM325.494 30.54C325.681 30.2133 325.954 29.9467 326.314 29.74C326.674 29.5333 327.084 29.43 327.544 29.43C328.038 29.43 328.481 29.5467 328.874 29.78C329.268 30.0133 329.578 30.3433 329.804 30.77C330.031 31.19 330.144 31.68 330.144 32.24C330.144 32.7933 330.031 33.2867 329.804 33.72C329.578 34.1533 329.264 34.49 328.864 34.73C328.471 34.97 328.031 35.09 327.544 35.09C327.071 35.09 326.654 34.9867 326.294 34.78C325.941 34.5733 325.674 34.31 325.494 33.99V35H324.584V27.6H325.494V30.54ZM329.214 32.24C329.214 31.8267 329.131 31.4667 328.964 31.16C328.798 30.8533 328.571 30.62 328.284 30.46C328.004 30.3 327.694 30.22 327.354 30.22C327.021 30.22 326.711 30.3033 326.424 30.47C326.144 30.63 325.918 30.8667 325.744 31.18C325.578 31.4867 325.494 31.8433 325.494 32.25C325.494 32.6633 325.578 33.0267 325.744 33.34C325.918 33.6467 326.144 33.8833 326.424 34.05C326.711 34.21 327.021 34.29 327.354 34.29C327.694 34.29 328.004 34.21 328.284 34.05C328.571 33.8833 328.798 33.6467 328.964 33.34C329.131 33.0267 329.214 32.66 329.214 32.24ZM336.342 32.05C336.342 32.2233 336.332 32.4067 336.312 32.6H331.932C331.966 33.14 332.149 33.5633 332.482 33.87C332.822 34.17 333.232 34.32 333.712 34.32C334.106 34.32 334.432 34.23 334.692 34.05C334.959 33.8633 335.146 33.6167 335.252 33.31H336.232C336.086 33.8367 335.792 34.2667 335.352 34.6C334.912 34.9267 334.366 35.09 333.712 35.09C333.192 35.09 332.726 34.9733 332.312 34.74C331.906 34.5067 331.586 34.1767 331.352 33.75C331.119 33.3167 331.002 32.8167 331.002 32.25C331.002 31.6833 331.116 31.1867 331.342 30.76C331.569 30.3333 331.886 30.0067 332.292 29.78C332.706 29.5467 333.179 29.43 333.712 29.43C334.232 29.43 334.692 29.5433 335.092 29.77C335.492 29.9967 335.799 30.31 336.012 30.71C336.232 31.1033 336.342 31.55 336.342 32.05ZM335.402 31.86C335.402 31.5133 335.326 31.2167 335.172 30.97C335.019 30.7167 334.809 30.5267 334.542 30.4C334.282 30.2667 333.992 30.2 333.672 30.2C333.212 30.2 332.819 30.3467 332.492 30.64C332.172 30.9333 331.989 31.34 331.942 31.86H335.402ZM339.869 32.24C339.869 31.68 339.983 31.19 340.209 30.77C340.436 30.3433 340.746 30.0133 341.139 29.78C341.539 29.5467 341.983 29.43 342.469 29.43C342.949 29.43 343.366 29.5333 343.719 29.74C344.073 29.9467 344.336 30.2067 344.509 30.52V29.52H345.429V35H344.509V33.98C344.329 34.3 344.059 34.5667 343.699 34.78C343.346 34.9867 342.933 35.09 342.459 35.09C341.973 35.09 341.533 34.97 341.139 34.73C340.746 34.49 340.436 34.1533 340.209 33.72C339.983 33.2867 339.869 32.7933 339.869 32.24ZM344.509 32.25C344.509 31.8367 344.426 31.4767 344.259 31.17C344.093 30.8633 343.866 30.63 343.579 30.47C343.299 30.3033 342.989 30.22 342.649 30.22C342.309 30.22 341.999 30.3 341.719 30.46C341.439 30.62 341.216 30.8533 341.049 31.16C340.883 31.4667 340.799 31.8267 340.799 32.24C340.799 32.66 340.883 33.0267 341.049 33.34C341.216 33.6467 341.439 33.8833 341.719 34.05C341.999 34.21 342.309 34.29 342.649 34.29C342.989 34.29 343.299 34.21 343.579 34.05C343.866 33.8833 344.093 33.6467 344.259 33.34C344.426 33.0267 344.509 32.6633 344.509 32.25ZM349.197 30.27H348.047V35H347.137V30.27H346.427V29.52H347.137V29.13C347.137 28.5167 347.294 28.07 347.607 27.79C347.927 27.5033 348.437 27.36 349.137 27.36V28.12C348.737 28.12 348.454 28.2 348.287 28.36C348.127 28.5133 348.047 28.77 348.047 29.13V29.52H349.197V30.27ZM352.488 30.27H351.338V35H350.428V30.27H349.718V29.52H350.428V29.13C350.428 28.5167 350.585 28.07 350.898 27.79C351.218 27.5033 351.728 27.36 352.428 27.36V28.12C352.028 28.12 351.745 28.2 351.578 28.36C351.418 28.5133 351.338 28.77 351.338 29.13V29.52H352.488V30.27ZM358.549 32.05C358.549 32.2233 358.539 32.4067 358.519 32.6H354.139C354.173 33.14 354.356 33.5633 354.689 33.87C355.029 34.17 355.439 34.32 355.919 34.32C356.313 34.32 356.639 34.23 356.899 34.05C357.166 33.8633 357.353 33.6167 357.459 33.31H358.439C358.293 33.8367 357.999 34.2667 357.559 34.6C357.119 34.9267 356.573 35.09 355.919 35.09C355.399 35.09 354.933 34.9733 354.519 34.74C354.113 34.5067 353.793 34.1767 353.559 33.75C353.326 33.3167 353.209 32.8167 353.209 32.25C353.209 31.6833 353.323 31.1867 353.549 30.76C353.776 30.3333 354.093 30.0067 354.499 29.78C354.913 29.5467 355.386 29.43 355.919 29.43C356.439 29.43 356.899 29.5433 357.299 29.77C357.699 29.9967 358.006 30.31 358.219 30.71C358.439 31.1033 358.549 31.55 358.549 32.05ZM357.609 31.86C357.609 31.5133 357.533 31.2167 357.379 30.97C357.226 30.7167 357.016 30.5267 356.749 30.4C356.489 30.2667 356.199 30.2 355.879 30.2C355.419 30.2 355.026 30.3467 354.699 30.64C354.379 30.9333 354.196 31.34 354.149 31.86H357.609ZM359.41 32.25C359.41 31.6833 359.524 31.19 359.75 30.77C359.977 30.3433 360.29 30.0133 360.69 29.78C361.097 29.5467 361.56 29.43 362.08 29.43C362.754 29.43 363.307 29.5933 363.74 29.92C364.18 30.2467 364.47 30.7 364.61 31.28H363.63C363.537 30.9467 363.354 30.6833 363.08 30.49C362.814 30.2967 362.48 30.2 362.08 30.2C361.56 30.2 361.14 30.38 360.82 30.74C360.5 31.0933 360.34 31.5967 360.34 32.25C360.34 32.91 360.5 33.42 360.82 33.78C361.14 34.14 361.56 34.32 362.08 34.32C362.48 34.32 362.814 34.2267 363.08 34.04C363.347 33.8533 363.53 33.5867 363.63 33.24H364.61C364.464 33.8 364.17 34.25 363.73 34.59C363.29 34.9233 362.74 35.09 362.08 35.09C361.56 35.09 361.097 34.9733 360.69 34.74C360.29 34.5067 359.977 34.1767 359.75 33.75C359.524 33.3233 359.41 32.8233 359.41 32.25ZM366.935 30.27V33.5C366.935 33.7667 366.991 33.9567 367.105 34.07C367.218 34.1767 367.415 34.23 367.695 34.23H368.365V35H367.545C367.038 35 366.658 34.8833 366.405 34.65C366.151 34.4167 366.025 34.0333 366.025 33.5V30.27H365.315V29.52H366.025V28.14H366.935V29.52H368.365V30.27H366.935ZM374.467 32.05C374.467 32.2233 374.457 32.4067 374.437 32.6H370.057C370.091 33.14 370.274 33.5633 370.607 33.87C370.947 34.17 371.357 34.32 371.837 34.32C372.231 34.32 372.557 34.23 372.817 34.05C373.084 33.8633 373.271 33.6167 373.377 33.31H374.357C374.211 33.8367 373.917 34.2667 373.477 34.6C373.037 34.9267 372.491 35.09 371.837 35.09C371.317 35.09 370.851 34.9733 370.437 34.74C370.031 34.5067 369.711 34.1767 369.477 33.75C369.244 33.3167 369.127 32.8167 369.127 32.25C369.127 31.6833 369.241 31.1867 369.467 30.76C369.694 30.3333 370.011 30.0067 370.417 29.78C370.831 29.5467 371.304 29.43 371.837 29.43C372.357 29.43 372.817 29.5433 373.217 29.77C373.617 29.9967 373.924 30.31 374.137 30.71C374.357 31.1033 374.467 31.55 374.467 32.05ZM373.527 31.86C373.527 31.5133 373.451 31.2167 373.297 30.97C373.144 30.7167 372.934 30.5267 372.667 30.4C372.407 30.2667 372.117 30.2 371.797 30.2C371.337 30.2 370.944 30.3467 370.617 30.64C370.297 30.9333 370.114 31.34 370.067 31.86H373.527ZM375.328 32.24C375.328 31.68 375.442 31.19 375.668 30.77C375.895 30.3433 376.205 30.0133 376.598 29.78C376.998 29.5467 377.445 29.43 377.938 29.43C378.365 29.43 378.762 29.53 379.128 29.73C379.495 29.9233 379.775 30.18 379.968 30.5V27.6H380.888V35H379.968V33.97C379.788 34.2967 379.522 34.5667 379.168 34.78C378.815 34.9867 378.402 35.09 377.928 35.09C377.442 35.09 376.998 34.97 376.598 34.73C376.205 34.49 375.895 34.1533 375.668 33.72C375.442 33.2867 375.328 32.7933 375.328 32.24ZM379.968 32.25C379.968 31.8367 379.885 31.4767 379.718 31.17C379.552 30.8633 379.325 30.63 379.038 30.47C378.758 30.3033 378.448 30.22 378.108 30.22C377.768 30.22 377.458 30.3 377.178 30.46C376.898 30.62 376.675 30.8533 376.508 31.16C376.342 31.4667 376.258 31.8267 376.258 32.24C376.258 32.66 376.342 33.0267 376.508 33.34C376.675 33.6467 376.898 33.8833 377.178 34.05C377.458 34.21 377.768 34.29 378.108 34.29C378.448 34.29 378.758 34.21 379.038 34.05C379.325 33.8833 379.552 33.6467 379.718 33.34C379.885 33.0267 379.968 32.6633 379.968 32.25ZM382.716 35.06C382.543 35.06 382.396 35 382.276 34.88C382.156 34.76 382.096 34.6133 382.096 34.44C382.096 34.2667 382.156 34.12 382.276 34C382.396 33.88 382.543 33.82 382.716 33.82C382.883 33.82 383.023 33.88 383.136 34C383.256 34.12 383.316 34.2667 383.316 34.44C383.316 34.6133 383.256 34.76 383.136 34.88C383.023 35 382.883 35.06 382.716 35.06Z" fill="#5857AB"/>
</g>
<path d="M51.1848 14.1472C51.5835 13.5861 52.4165 13.5861 52.8152 14.1472L57.806 21.1708C58.2765 21.8329 57.8031 22.75 56.9909 22.75H47.0091C46.1969 22.75 45.7235 21.8329 46.194 21.1708L51.1848 14.1472Z" fill="white"/>
<g filter="url(#filter1_d_3289:67572)">
<rect x="31" y="63" width="82" height="23" rx="2" fill="white"/>
<path d="M41.98 78.07C41.52 78.07 41.1067 77.99 40.74 77.83C40.38 77.6633 40.0967 77.4367 39.89 77.15C39.6833 76.8567 39.5767 76.52 39.57 76.14H40.54C40.5733 76.4667 40.7067 76.7433 40.94 76.97C41.18 77.19 41.5267 77.3 41.98 77.3C42.4133 77.3 42.7533 77.1933 43 76.98C43.2533 76.76 43.38 76.48 43.38 76.14C43.38 75.8733 43.3067 75.6567 43.16 75.49C43.0133 75.3233 42.83 75.1967 42.61 75.11C42.39 75.0233 42.0933 74.93 41.72 74.83C41.26 74.71 40.89 74.59 40.61 74.47C40.3367 74.35 40.1 74.1633 39.9 73.91C39.7067 73.65 39.61 73.3033 39.61 72.87C39.61 72.49 39.7067 72.1533 39.9 71.86C40.0933 71.5667 40.3633 71.34 40.71 71.18C41.0633 71.02 41.4667 70.94 41.92 70.94C42.5733 70.94 43.1067 71.1033 43.52 71.43C43.94 71.7567 44.1767 72.19 44.23 72.73H43.23C43.1967 72.4633 43.0567 72.23 42.81 72.03C42.5633 71.8233 42.2367 71.72 41.83 71.72C41.45 71.72 41.14 71.82 40.9 72.02C40.66 72.2133 40.54 72.4867 40.54 72.84C40.54 73.0933 40.61 73.3 40.75 73.46C40.8967 73.62 41.0733 73.7433 41.28 73.83C41.4933 73.91 41.79 74.0033 42.17 74.11C42.63 74.2367 43 74.3633 43.28 74.49C43.56 74.61 43.8 74.8 44 75.06C44.2 75.3133 44.3 75.66 44.3 76.1C44.3 76.44 44.21 76.76 44.03 77.06C43.85 77.36 43.5833 77.6033 43.23 77.79C42.8767 77.9767 42.46 78.07 41.98 78.07ZM50.4991 72.52V78H49.5891V77.19C49.4158 77.47 49.1725 77.69 48.8591 77.85C48.5525 78.0033 48.2125 78.08 47.8391 78.08C47.4125 78.08 47.0291 77.9933 46.6891 77.82C46.3491 77.64 46.0791 77.3733 45.8791 77.02C45.6858 76.6667 45.5891 76.2367 45.5891 75.73V72.52H46.4891V75.61C46.4891 76.15 46.6258 76.5667 46.8991 76.86C47.1725 77.1467 47.5458 77.29 48.0191 77.29C48.5058 77.29 48.8891 77.14 49.1691 76.84C49.4491 76.54 49.5891 76.1033 49.5891 75.53V72.52H50.4991ZM54.7056 72.42C55.3723 72.42 55.9123 72.6233 56.3256 73.03C56.739 73.43 56.9456 74.01 56.9456 74.77V78H56.0456V74.9C56.0456 74.3533 55.909 73.9367 55.6356 73.65C55.3623 73.3567 54.989 73.21 54.5156 73.21C54.0356 73.21 53.6523 73.36 53.3656 73.66C53.0856 73.96 52.9456 74.3967 52.9456 74.97V78H52.0356V72.52H52.9456V73.3C53.1256 73.02 53.369 72.8033 53.6756 72.65C53.989 72.4967 54.3323 72.42 54.7056 72.42ZM63.2921 72.52V78H62.3821V77.19C62.2088 77.47 61.9654 77.69 61.6521 77.85C61.3454 78.0033 61.0054 78.08 60.6321 78.08C60.2054 78.08 59.8221 77.9933 59.4821 77.82C59.1421 77.64 58.8721 77.3733 58.6721 77.02C58.4788 76.6667 58.3821 76.2367 58.3821 75.73V72.52H59.2821V75.61C59.2821 76.15 59.4188 76.5667 59.6921 76.86C59.9654 77.1467 60.3388 77.29 60.8121 77.29C61.2988 77.29 61.6821 77.14 61.9621 76.84C62.2421 76.54 62.3821 76.1033 62.3821 75.53V72.52H63.2921ZM64.4886 75.25C64.4886 74.6833 64.6019 74.19 64.8286 73.77C65.0553 73.3433 65.3686 73.0133 65.7686 72.78C66.1753 72.5467 66.6386 72.43 67.1586 72.43C67.8319 72.43 68.3853 72.5933 68.8186 72.92C69.2586 73.2467 69.5486 73.7 69.6886 74.28H68.7086C68.6153 73.9467 68.4319 73.6833 68.1586 73.49C67.8919 73.2967 67.5586 73.2 67.1586 73.2C66.6386 73.2 66.2186 73.38 65.8986 73.74C65.5786 74.0933 65.4186 74.5967 65.4186 75.25C65.4186 75.91 65.5786 76.42 65.8986 76.78C66.2186 77.14 66.6386 77.32 67.1586 77.32C67.5586 77.32 67.8919 77.2267 68.1586 77.04C68.4253 76.8533 68.6086 76.5867 68.7086 76.24H69.6886C69.5419 76.8 69.2486 77.25 68.8086 77.59C68.3686 77.9233 67.8186 78.09 67.1586 78.09C66.6386 78.09 66.1753 77.9733 65.7686 77.74C65.3686 77.5067 65.0553 77.1767 64.8286 76.75C64.6019 76.3233 64.4886 75.8233 64.4886 75.25ZM75.7628 72.52V78H74.8528V77.19C74.6795 77.47 74.4361 77.69 74.1228 77.85C73.8161 78.0033 73.4761 78.08 73.1028 78.08C72.6761 78.08 72.2928 77.9933 71.9528 77.82C71.6128 77.64 71.3428 77.3733 71.1428 77.02C70.9495 76.6667 70.8528 76.2367 70.8528 75.73V72.52H71.7528V75.61C71.7528 76.15 71.8895 76.5667 72.1628 76.86C72.4361 77.1467 72.8095 77.29 73.2828 77.29C73.7695 77.29 74.1528 77.14 74.4328 76.84C74.7128 76.54 74.8528 76.1033 74.8528 75.53V72.52H75.7628ZM79.4653 72.29V70.7H82.2353V78H80.4553V72.29H79.4653ZM84.3751 78.08C84.0751 78.08 83.8284 77.9933 83.6351 77.82C83.4484 77.64 83.3551 77.42 83.3551 77.16C83.3551 76.8933 83.4484 76.67 83.6351 76.49C83.8284 76.31 84.0751 76.22 84.3751 76.22C84.6684 76.22 84.9084 76.31 85.0951 76.49C85.2884 76.67 85.3851 76.8933 85.3851 77.16C85.3851 77.42 85.2884 77.64 85.0951 77.82C84.9084 77.9933 84.6684 78.08 84.3751 78.08ZM84.3751 74.01C84.0751 74.01 83.8284 73.9233 83.6351 73.75C83.4484 73.57 83.3551 73.35 83.3551 73.09C83.3551 72.8233 83.4484 72.6 83.6351 72.42C83.8284 72.24 84.0751 72.15 84.3751 72.15C84.6684 72.15 84.9084 72.24 85.0951 72.42C85.2884 72.6 85.3851 72.8233 85.3851 73.09C85.3851 73.35 85.2884 73.57 85.0951 73.75C84.9084 73.9233 84.6684 74.01 84.3751 74.01ZM88.186 72.29V70.7H90.956V78H89.176V72.29H88.186ZM92.1258 74.25C92.1258 73.1033 92.3458 72.2 92.7858 71.54C93.2324 70.88 93.9491 70.55 94.9358 70.55C95.9224 70.55 96.6358 70.88 97.0758 71.54C97.5224 72.2 97.7458 73.1033 97.7458 74.25C97.7458 75.41 97.5224 76.32 97.0758 76.98C96.6358 77.64 95.9224 77.97 94.9358 77.97C93.9491 77.97 93.2324 77.64 92.7858 76.98C92.3458 76.32 92.1258 75.41 92.1258 74.25ZM96.0658 74.25C96.0658 73.5767 95.9924 73.06 95.8458 72.7C95.6991 72.3333 95.3958 72.15 94.9358 72.15C94.4758 72.15 94.1724 72.3333 94.0258 72.7C93.8791 73.06 93.8058 73.5767 93.8058 74.25C93.8058 74.7033 93.8324 75.08 93.8858 75.38C93.9391 75.6733 94.0458 75.9133 94.2058 76.1C94.3724 76.28 94.6158 76.37 94.9358 76.37C95.2558 76.37 95.4958 76.28 95.6558 76.1C95.8224 75.9133 95.9324 75.6733 95.9858 75.38C96.0391 75.08 96.0658 74.7033 96.0658 74.25ZM98.6492 74.25C98.6492 73.1033 98.8692 72.2 99.3092 71.54C99.7559 70.88 100.473 70.55 101.459 70.55C102.446 70.55 103.159 70.88 103.599 71.54C104.046 72.2 104.269 73.1033 104.269 74.25C104.269 75.41 104.046 76.32 103.599 76.98C103.159 77.64 102.446 77.97 101.459 77.97C100.473 77.97 99.7559 77.64 99.3092 76.98C98.8692 76.32 98.6492 75.41 98.6492 74.25ZM102.589 74.25C102.589 73.5767 102.516 73.06 102.369 72.7C102.223 72.3333 101.919 72.15 101.459 72.15C100.999 72.15 100.696 72.3333 100.549 72.7C100.403 73.06 100.329 73.5767 100.329 74.25C100.329 74.7033 100.356 75.08 100.409 75.38C100.463 75.6733 100.569 75.9133 100.729 76.1C100.896 76.28 101.139 76.37 101.459 76.37C101.779 76.37 102.019 76.28 102.179 76.1C102.346 75.9133 102.456 75.6733 102.509 75.38C102.563 75.08 102.589 74.7033 102.589 74.25Z" fill="#5857AB"/>
</g>
<path d="M52.8152 91.8528C52.4165 92.4138 51.5835 92.4138 51.1848 91.8528L46.194 84.8292C45.7235 84.1671 46.1969 83.25 47.0091 83.25L56.9909 83.25C57.8031 83.25 58.2765 84.1671 57.806 84.8292L52.8152 91.8528Z" fill="white"/>
<rect x="0.5" y="0.5" width="416" height="105" rx="4.5" stroke="#7B61FF" stroke-dasharray="10 5"/>
<defs>
<filter id="filter0_d_3289:67572" x="15" y="0" width="393" height="55" filterUnits="userSpaceOnUse" color-interpolation-filters="sRGB">
<feFlood flood-opacity="0" result="BackgroundImageFix"/>
<feColorMatrix in="SourceAlpha" type="matrix" values="0 0 0 0 0 0 0 0 0 0 0 0 0 0 0 0 0 0 127 0" result="hardAlpha"/>
<feOffset dy="-4"/>
<feGaussianBlur stdDeviation="8"/>
<feColorMatrix type="matrix" values="0 0 0 0 0 0 0 0 0 0 0 0 0 0 0 0 0 0 0.1 0"/>
<feBlend mode="normal" in2="BackgroundImageFix" result="effect1_dropShadow_3289:67572"/>
<feBlend mode="normal" in="SourceGraphic" in2="effect1_dropShadow_3289:67572" result="shape"/>
</filter>
<filter id="filter1_d_3289:67572" x="15" y="51" width="114" height="55" filterUnits="userSpaceOnUse" color-interpolation-filters="sRGB">
<feFlood flood-opacity="0" result="BackgroundImageFix"/>
<feColorMatrix in="SourceAlpha" type="matrix" values="0 0 0 0 0 0 0 0 0 0 0 0 0 0 0 0 0 0 127 0" result="hardAlpha"/>
<feOffset dy="4"/>
<feGaussianBlur stdDeviation="8"/>
<feColorMatrix type="matrix" values="0 0 0 0 0 0 0 0 0 0 0 0 0 0 0 0 0 0 0.1 0"/>
<feBlend mode="normal" in2="BackgroundImageFix" result="effect1_dropShadow_3289:67572"/>
<feBlend mode="normal" in="SourceGraphic" in2="effect1_dropShadow_3289:67572" result="shape"/>
</filter>
</defs>
</svg>
