<svg width="24" height="25" viewBox="0 0 24 25" fill="none" xmlns="http://www.w3.org/2000/svg">
<path d="M12 15.02C13.6569 15.02 15 13.6769 15 12.02C15 10.3632 13.6569 9.02002 12 9.02002C10.3431 9.02002 9 10.3632 9 12.02C9 13.6769 10.3431 15.02 12 15.02Z" stroke="#5857AB" stroke-width="2" stroke-linecap="round" stroke-linejoin="round"/>
<path d="M19.4 15.02C19.2669 15.3216 19.2272 15.6562 19.286 15.9806C19.3448 16.305 19.4995 16.6043 19.73 16.84L19.79 16.9C19.976 17.0858 20.1235 17.3063 20.2241 17.5491C20.3248 17.7919 20.3766 18.0522 20.3766 18.315C20.3766 18.5779 20.3248 18.8381 20.2241 19.0809C20.1235 19.3237 19.976 19.5443 19.79 19.73C19.6043 19.916 19.3837 20.0635 19.1409 20.1641C18.8981 20.2648 18.6378 20.3166 18.375 20.3166C18.1122 20.3166 17.8519 20.2648 17.6091 20.1641C17.3663 20.0635 17.1457 19.916 16.96 19.73L16.9 19.67C16.6643 19.4395 16.365 19.2848 16.0406 19.226C15.7162 19.1672 15.3816 19.2069 15.08 19.34C14.7842 19.4668 14.532 19.6773 14.3543 19.9456C14.1766 20.2138 14.0813 20.5282 14.08 20.85V21.02C14.08 21.5505 13.8693 22.0592 13.4942 22.4342C13.1191 22.8093 12.6104 23.02 12.08 23.02C11.5496 23.02 11.0409 22.8093 10.6658 22.4342C10.2907 22.0592 10.08 21.5505 10.08 21.02V20.93C10.0723 20.599 9.96512 20.278 9.77251 20.0087C9.5799 19.7394 9.31074 19.5343 9 19.42C8.69838 19.2869 8.36381 19.2472 8.03941 19.306C7.71502 19.3648 7.41568 19.5195 7.18 19.75L7.12 19.81C6.93425 19.996 6.71368 20.1435 6.47088 20.2441C6.22808 20.3448 5.96783 20.3966 5.705 20.3966C5.44217 20.3966 5.18192 20.3448 4.93912 20.2441C4.69632 20.1435 4.47575 19.996 4.29 19.81C4.10405 19.6243 3.95653 19.4037 3.85588 19.1609C3.75523 18.9181 3.70343 18.6579 3.70343 18.395C3.70343 18.1322 3.75523 17.8719 3.85588 17.6291C3.95653 17.3863 4.10405 17.1658 4.29 16.98L4.35 16.92C4.58054 16.6843 4.73519 16.385 4.794 16.0606C4.85282 15.7362 4.81312 15.4016 4.68 15.1C4.55324 14.8043 4.34276 14.552 4.07447 14.3743C3.80618 14.1967 3.49179 14.1013 3.17 14.1H3C2.46957 14.1 1.96086 13.8893 1.58579 13.5142C1.21071 13.1392 1 12.6305 1 12.1C1 11.5696 1.21071 11.0609 1.58579 10.6858C1.96086 10.3107 2.46957 10.1 3 10.1H3.09C3.42099 10.0923 3.742 9.98514 4.0113 9.79253C4.28059 9.59992 4.48572 9.33075 4.6 9.02002C4.73312 8.7184 4.77282 8.38383 4.714 8.05943C4.65519 7.73504 4.50054 7.4357 4.27 7.20002L4.21 7.14002C4.02405 6.95427 3.87653 6.7337 3.77588 6.4909C3.67523 6.2481 3.62343 5.98785 3.62343 5.72502C3.62343 5.46219 3.67523 5.20194 3.77588 4.95914C3.87653 4.71634 4.02405 4.49577 4.21 4.31002C4.39575 4.12407 4.61632 3.97655 4.85912 3.8759C5.10192 3.77525 5.36217 3.72345 5.625 3.72345C5.88783 3.72345 6.14808 3.77525 6.39088 3.8759C6.63368 3.97655 6.85425 4.12407 7.04 4.31002L7.1 4.37002C7.33568 4.60056 7.63502 4.75521 7.95941 4.81402C8.28381 4.87284 8.61838 4.83313 8.92 4.70002H9C9.29577 4.57326 9.54802 4.36277 9.72569 4.09448C9.90337 3.82619 9.99872 3.51181 10 3.19002V3.02002C10 2.48959 10.2107 1.98088 10.5858 1.60581C10.9609 1.23073 11.4696 1.02002 12 1.02002C12.5304 1.02002 13.0391 1.23073 13.4142 1.60581C13.7893 1.98088 14 2.48959 14 3.02002V3.11002C14.0013 3.43181 14.0966 3.74619 14.2743 4.01449C14.452 4.28278 14.7042 4.49326 15 4.62002C15.3016 4.75313 15.6362 4.79284 15.9606 4.73402C16.285 4.67521 16.5843 4.52056 16.82 4.29002L16.88 4.23002C17.0657 4.04407 17.2863 3.89655 17.5291 3.7959C17.7719 3.69525 18.0322 3.64345 18.295 3.64345C18.5578 3.64345 18.8181 3.69525 19.0609 3.7959C19.3037 3.89655 19.5243 4.04407 19.71 4.23002C19.896 4.41577 20.0435 4.63634 20.1441 4.87914C20.2448 5.12194 20.2966 5.38219 20.2966 5.64502C20.2966 5.90785 20.2448 6.1681 20.1441 6.4109C20.0435 6.6537 19.896 6.87427 19.71 7.06002L19.65 7.12002C19.4195 7.3557 19.2648 7.65504 19.206 7.97943C19.1472 8.30383 19.1869 8.6384 19.32 8.94002V9.02002C19.4468 9.31579 19.6572 9.56804 19.9255 9.74571C20.1938 9.92339 20.5082 10.0187 20.83 10.02H21C21.5304 10.02 22.0391 10.2307 22.4142 10.6058C22.7893 10.9809 23 11.4896 23 12.02C23 12.5505 22.7893 13.0592 22.4142 13.4342C22.0391 13.8093 21.5304 14.02 21 14.02H20.91C20.5882 14.0213 20.2738 14.1167 20.0055 14.2943C19.7372 14.472 19.5268 14.7243 19.4 15.02V15.02Z" stroke="#5857AB" stroke-width="2" stroke-linecap="round" stroke-linejoin="round"/>
</svg>
