<svg width="344" height="136" viewBox="0 0 344 136" fill="none" xmlns="http://www.w3.org/2000/svg">
<path d="M0 19C0 10.1634 7.16344 3 16 3H320C328.837 3 336 10.1634 336 19V121C336 122.105 335.105 123 334 123H1.99999C0.895423 123 0 122.105 0 121V19Z" fill="#252473"/>
<path d="M12.92 102.688C12.92 103.36 13.144 103.888 13.592 104.272C14.04 104.64 14.512 104.824 15.008 104.824C15.52 104.824 15.992 104.68 16.424 104.392C16.872 104.088 17.232 103.936 17.504 103.936C17.984 103.936 18.568 104.36 19.256 105.208C19.624 105.672 19.808 106.088 19.808 106.456C19.808 107.064 19.368 107.632 18.488 108.16C17.576 108.8 16.456 109.12 15.128 109.12C13.64 109.12 12.208 108.584 10.832 107.512C10.176 107 9.64 106.32 9.224 105.472C8.808 104.608 8.6 103.664 8.6 102.64C8.6 101.6 8.808 100.664 9.224 99.832C9.64 98.984 10.176 98.304 10.832 97.792C12.16 96.736 13.576 96.208 15.08 96.208C15.688 96.208 16.28 96.296 16.856 96.472C17.432 96.632 17.856 96.792 18.128 96.952L18.512 97.192C18.8 97.384 19.024 97.536 19.184 97.648C19.6 97.968 19.808 98.336 19.808 98.752C19.808 99.152 19.64 99.608 19.304 100.12C18.728 101 18.176 101.44 17.648 101.44C17.344 101.44 16.912 101.264 16.352 100.912C16.064 100.64 15.648 100.504 15.104 100.504C14.576 100.504 14.08 100.696 13.616 101.08C13.152 101.464 12.92 102 12.92 102.688ZM33.1989 101.176C33.1989 102.152 32.9509 102.88 32.4549 103.36C31.9749 103.824 31.4389 104.056 30.8469 104.056H25.1589C25.1589 104.504 25.4229 104.88 25.9509 105.184C26.4789 105.488 27.0069 105.64 27.5349 105.64C28.4629 105.64 29.1909 105.544 29.7189 105.352L29.9829 105.256C30.3669 105.08 30.6869 104.992 30.9429 104.992C31.4549 104.992 31.8949 105.352 32.2629 106.072C32.4709 106.504 32.5749 106.872 32.5749 107.176C32.5749 108.6 30.8709 109.312 27.4629 109.312C26.2789 109.312 25.2229 109.112 24.2949 108.712C23.3829 108.296 22.6709 107.752 22.1589 107.08C21.1509 105.784 20.6469 104.336 20.6469 102.736C20.6469 100.72 21.2949 99.112 22.5909 97.912C23.9029 96.696 25.5349 96.088 27.4869 96.088C29.7109 96.088 31.3429 96.872 32.3829 98.44C32.9269 99.272 33.1989 100.184 33.1989 101.176ZM28.1349 101.872C28.7429 101.872 29.0469 101.616 29.0469 101.104C29.0469 100.736 28.9029 100.44 28.6149 100.216C28.3429 99.992 27.9429 99.88 27.4149 99.88C26.9029 99.88 26.3909 100.096 25.8789 100.528C25.3669 100.944 25.1109 101.392 25.1109 101.872H28.1349ZM41.7967 96.352C43.3967 96.352 44.7247 96.968 45.7807 98.2C46.8527 99.416 47.3887 100.904 47.3887 102.664V106.888C47.3887 107.256 47.3727 107.536 47.3407 107.728C47.3247 107.904 47.2607 108.104 47.1487 108.328C46.9247 108.76 46.3007 108.976 45.2767 108.976C44.1407 108.976 43.4847 108.68 43.3087 108.088C43.2127 107.816 43.1647 107.408 43.1647 106.864V102.64C43.1647 101.984 42.9727 101.472 42.5887 101.104C42.2207 100.736 41.7167 100.552 41.0767 100.552C40.4527 100.552 39.9407 100.744 39.5407 101.128C39.1567 101.512 38.9647 102.016 38.9647 102.64V106.888C38.9647 107.256 38.9487 107.536 38.9167 107.728C38.9007 107.904 38.8287 108.104 38.7007 108.328C38.4927 108.76 37.8767 108.976 36.8527 108.976C35.8447 108.976 35.2287 108.76 35.0047 108.328C34.8927 108.088 34.8207 107.88 34.7887 107.704C34.7727 107.512 34.7647 107.232 34.7647 106.864V98.368C34.7647 98.016 34.7727 97.752 34.7887 97.576C34.8207 97.384 34.9007 97.176 35.0287 96.952C35.2527 96.552 35.8687 96.352 36.8767 96.352C37.8527 96.352 38.4527 96.536 38.6767 96.904C38.8367 97.176 38.9167 97.504 38.9167 97.888C38.9807 97.776 39.1247 97.616 39.3487 97.408C39.5727 97.2 39.7887 97.032 39.9967 96.904C40.5407 96.536 41.1407 96.352 41.7967 96.352ZM56.429 100.6L54.869 100.504V103.816C54.869 104.248 54.933 104.56 55.061 104.752C55.205 104.944 55.461 105.04 55.829 105.04C56.213 105.04 56.501 105.056 56.693 105.088C56.901 105.104 57.117 105.176 57.341 105.304C57.709 105.512 57.893 106.048 57.893 106.912C57.893 107.92 57.669 108.536 57.221 108.76C56.981 108.872 56.765 108.944 56.573 108.976C56.397 108.992 56.133 109 55.781 109C54.117 109 52.853 108.624 51.989 107.872C51.125 107.12 50.693 105.848 50.693 104.056V100.504C50.389 100.552 50.061 100.576 49.709 100.576C49.357 100.576 49.061 100.44 48.821 100.168C48.597 99.896 48.485 99.432 48.485 98.776C48.485 98.12 48.525 97.648 48.605 97.36C48.685 97.056 48.797 96.84 48.941 96.712C49.197 96.504 49.517 96.4 49.901 96.4L50.693 96.496V94.024C50.693 93.656 50.701 93.384 50.717 93.208C50.749 93.032 50.829 92.84 50.957 92.632C51.165 92.232 51.781 92.032 52.805 92.032C53.893 92.032 54.541 92.328 54.749 92.92C54.829 93.176 54.869 93.584 54.869 94.144V96.496C55.573 96.432 56.101 96.4 56.453 96.4C56.821 96.4 57.093 96.416 57.269 96.448C57.461 96.464 57.677 96.536 57.917 96.664C58.333 96.872 58.541 97.488 58.541 98.512C58.541 99.52 58.325 100.136 57.893 100.36C57.653 100.472 57.437 100.544 57.245 100.576C57.069 100.592 56.797 100.6 56.429 100.6ZM68.4583 96.496C68.7623 96.592 69.0103 96.76 69.2023 97C69.4103 97.224 69.5143 97.592 69.5143 98.104C69.5143 98.616 69.3623 99.176 69.0583 99.784C68.7543 100.392 68.3143 100.696 67.7383 100.696C67.4503 100.696 67.1703 100.632 66.8983 100.504C66.6423 100.376 66.2983 100.312 65.8663 100.312C65.4343 100.312 65.0263 100.464 64.6423 100.768C64.2743 101.072 64.0903 101.44 64.0903 101.872V106.912C64.0903 107.28 64.0743 107.56 64.0423 107.752C64.0263 107.928 63.9543 108.136 63.8263 108.376C63.5863 108.792 62.9623 109 61.9543 109C61.1863 109 60.6343 108.864 60.2983 108.592C60.0423 108.368 59.8983 108.024 59.8663 107.56C59.8663 107.4 59.8663 107.168 59.8663 106.864V98.44C59.8663 98.072 59.8743 97.8 59.8903 97.624C59.9223 97.432 59.9943 97.224 60.1063 97C60.3303 96.568 60.9543 96.352 61.9783 96.352C62.9383 96.352 63.5383 96.536 63.7783 96.904C63.9543 97.16 64.0423 97.424 64.0423 97.696C64.1223 97.584 64.2343 97.448 64.3783 97.288C64.5383 97.128 64.8663 96.912 65.3623 96.64C65.8583 96.368 66.2903 96.232 66.6583 96.232C67.0423 96.232 67.3623 96.256 67.6183 96.304C67.8743 96.336 68.1543 96.4 68.4583 96.496ZM76.451 108.952C74.835 108.952 73.491 108.344 72.419 107.128C71.363 105.896 70.835 104.4 70.835 102.64V98.44C70.835 98.056 70.843 97.776 70.859 97.6C70.891 97.424 70.963 97.216 71.075 96.976C71.299 96.544 71.923 96.328 72.947 96.328C74.067 96.328 74.723 96.632 74.915 97.24C75.011 97.496 75.059 97.904 75.059 98.464V102.664C75.059 103.32 75.243 103.832 75.611 104.2C75.995 104.568 76.499 104.752 77.123 104.752C77.763 104.752 78.275 104.56 78.659 104.176C79.059 103.792 79.259 103.288 79.259 102.664V98.416C79.259 98.048 79.267 97.776 79.283 97.6C79.315 97.408 79.395 97.192 79.523 96.952C79.731 96.536 80.347 96.328 81.371 96.328C82.379 96.328 82.995 96.544 83.219 96.976C83.331 97.216 83.395 97.432 83.411 97.624C83.443 97.8 83.459 98.072 83.459 98.44V106.936C83.459 107.288 83.443 107.56 83.411 107.752C83.395 107.928 83.323 108.128 83.195 108.352C82.955 108.768 82.339 108.976 81.347 108.976C80.371 108.976 79.771 108.784 79.547 108.4C79.387 108.128 79.307 107.8 79.307 107.416C79.243 107.528 79.099 107.688 78.875 107.896C78.651 108.104 78.435 108.28 78.227 108.424C77.683 108.776 77.091 108.952 76.451 108.952ZM85.4857 107.872C85.1817 107.68 85.0297 107.376 85.0297 106.96C85.0297 106.544 85.3337 105.912 85.9417 105.064C86.1177 104.792 86.3977 104.656 86.7817 104.656C87.1817 104.656 87.7177 104.856 88.3897 105.256C89.0617 105.64 89.6697 105.832 90.2137 105.832C91.1897 105.832 91.6777 105.64 91.6777 105.256C91.6777 104.952 91.1417 104.728 90.0697 104.584C89.0617 104.44 88.0617 104.064 87.0697 103.456C86.6057 103.168 86.2217 102.72 85.9177 102.112C85.6137 101.488 85.4617 100.752 85.4617 99.904C85.4617 97.376 87.1977 96.112 90.6697 96.112C91.8057 96.112 92.9737 96.384 94.1737 96.928C94.7337 97.184 95.0137 97.504 95.0137 97.888C95.0137 98.272 94.8377 98.744 94.4857 99.304C94.1337 99.864 93.7737 100.144 93.4057 100.144C93.2137 100.144 92.8537 100.024 92.3257 99.784C91.8137 99.544 91.2537 99.424 90.6457 99.424C89.7017 99.424 89.2297 99.6 89.2297 99.952C89.2297 100.432 89.7737 100.744 90.8617 100.888C91.9177 101 92.9417 101.304 93.9337 101.8C94.3977 102.024 94.7817 102.416 95.0857 102.976C95.4057 103.52 95.5657 104.208 95.5657 105.04C95.5657 105.872 95.4057 106.584 95.0857 107.176C94.7817 107.752 94.3497 108.184 93.7897 108.472C92.7657 108.968 91.4777 109.216 89.9257 109.216C88.3897 109.216 86.9097 108.768 85.4857 107.872Z" fill="white"/>
<path d="M100.852 105.04C101.124 105.312 101.26 105.872 101.26 106.72V106.816C101.26 107.2 101.244 107.488 101.212 107.68C101.196 107.856 101.116 108.072 100.972 108.328C100.732 108.792 100.124 109.024 99.1479 109.024C98.1879 109.024 97.5479 108.872 97.2279 108.568C96.9239 108.264 96.7719 107.688 96.7719 106.84V106.744C96.7719 106.376 96.7799 106.096 96.7959 105.904C96.8279 105.712 96.9079 105.496 97.0359 105.256C97.2759 104.776 97.8759 104.536 98.8359 104.536C99.8119 104.536 100.484 104.704 100.852 105.04ZM102.467 102.688C102.467 100.768 103.139 99.184 104.483 97.936C105.827 96.688 107.363 96.064 109.091 96.064C110.819 96.064 112.347 96.688 113.675 97.936C115.003 99.168 115.667 100.744 115.667 102.664C115.667 103.992 115.323 105.176 114.635 106.216C113.947 107.24 113.107 108 112.115 108.496C111.139 108.976 110.123 109.216 109.067 109.216C108.011 109.216 106.987 108.96 105.995 108.448C105.003 107.92 104.163 107.152 103.475 106.144C102.803 105.12 102.467 103.968 102.467 102.688ZM107.483 104.416C107.995 104.8 108.515 104.992 109.043 104.992C109.571 104.992 110.099 104.792 110.627 104.392C111.155 103.992 111.419 103.4 111.419 102.616C111.419 101.832 111.171 101.248 110.675 100.864C110.179 100.48 109.643 100.288 109.067 100.288C108.491 100.288 107.955 100.488 107.459 100.888C106.963 101.288 106.715 101.88 106.715 102.664C106.715 103.432 106.971 104.016 107.483 104.416ZM124.25 96.352C125.85 96.352 127.178 96.968 128.234 98.2C129.306 99.416 129.842 100.904 129.842 102.664V106.888C129.842 107.256 129.826 107.536 129.794 107.728C129.778 107.904 129.714 108.104 129.602 108.328C129.378 108.76 128.754 108.976 127.73 108.976C126.594 108.976 125.938 108.68 125.762 108.088C125.666 107.816 125.618 107.408 125.618 106.864V102.64C125.618 101.984 125.426 101.472 125.042 101.104C124.674 100.736 124.17 100.552 123.53 100.552C122.906 100.552 122.394 100.744 121.994 101.128C121.61 101.512 121.418 102.016 121.418 102.64V106.888C121.418 107.256 121.402 107.536 121.37 107.728C121.354 107.904 121.282 108.104 121.154 108.328C120.946 108.76 120.33 108.976 119.306 108.976C118.298 108.976 117.682 108.76 117.458 108.328C117.346 108.088 117.274 107.88 117.242 107.704C117.226 107.512 117.218 107.232 117.218 106.864V98.368C117.218 98.016 117.226 97.752 117.242 97.576C117.274 97.384 117.354 97.176 117.482 96.952C117.706 96.552 118.322 96.352 119.33 96.352C120.306 96.352 120.906 96.536 121.13 96.904C121.29 97.176 121.37 97.504 121.37 97.888C121.434 97.776 121.578 97.616 121.802 97.408C122.026 97.2 122.242 97.032 122.45 96.904C122.994 96.536 123.594 96.352 124.25 96.352ZM143.965 101.176C143.965 102.152 143.717 102.88 143.221 103.36C142.741 103.824 142.205 104.056 141.613 104.056H135.925C135.925 104.504 136.189 104.88 136.717 105.184C137.245 105.488 137.773 105.64 138.301 105.64C139.229 105.64 139.957 105.544 140.485 105.352L140.749 105.256C141.133 105.08 141.453 104.992 141.709 104.992C142.221 104.992 142.661 105.352 143.029 106.072C143.237 106.504 143.341 106.872 143.341 107.176C143.341 108.6 141.637 109.312 138.229 109.312C137.045 109.312 135.989 109.112 135.061 108.712C134.149 108.296 133.437 107.752 132.925 107.08C131.917 105.784 131.413 104.336 131.413 102.736C131.413 100.72 132.061 99.112 133.357 97.912C134.669 96.696 136.301 96.088 138.253 96.088C140.477 96.088 142.109 96.872 143.148 98.44C143.693 99.272 143.965 100.184 143.965 101.176ZM138.901 101.872C139.509 101.872 139.813 101.616 139.813 101.104C139.813 100.736 139.669 100.44 139.381 100.216C139.109 99.992 138.709 99.88 138.181 99.88C137.669 99.88 137.157 100.096 136.645 100.528C136.133 100.944 135.877 101.392 135.877 101.872H138.901Z" fill="#A1A0D3"/>
<mask id="mask0" style="mask-type:alpha" maskUnits="userSpaceOnUse" x="145" y="3" width="191" height="120">
<path d="M145 121C145 122.105 145.895 123 147 123H334C335.105 123 336 122.105 336 121V19C336 10.1634 328.837 3 320 3H145V121Z" fill="#252473"/>
</mask>
<g mask="url(#mask0)">
<path opacity="0.16" fill-rule="evenodd" clip-rule="evenodd" d="M454.326 -157.352C471.133 -145.848 481.832 -128.471 498.369 -116.628C513.971 -105.455 534.61 -101.914 549.085 -89.4889C564.629 -76.1475 586.136 -61.308 585.531 -41.8136C584.852 -19.9048 556.581 -8.02026 545.956 11.3819C538.714 24.606 547.746 48.1514 533.072 53.9845C511.407 62.5958 480.341 29.3594 463.164 44.2908C444.686 60.3523 477.474 95.5736 463.006 114.888C453.59 127.458 430.398 111.178 413.82 110.165C397.448 109.166 380.282 114.825 365.066 108.906C349.851 102.988 345.335 81.3625 329.451 77.3457C295.254 68.6986 254.276 91.4992 224.522 73.367C202.403 59.8876 209.113 26.7546 206.499 2.41834C203.83 -22.4247 184.576 -61.7016 208.944 -71.6441C252.807 -89.5403 304.74 -47.3667 351.677 -56.8154C367.784 -60.0577 355.417 -87.0336 359.356 -101.923C367.502 -132.716 358.806 -175.683 387.563 -192.467C409.078 -205.024 433.537 -171.58 454.326 -157.352Z" fill="#5857AB"/>
<path opacity="0.16" fill-rule="evenodd" clip-rule="evenodd" d="M401.52 -141.508C417.862 -129.397 427.869 -111.641 443.928 -99.2011C459.078 -87.4645 479.563 -83.1704 493.539 -70.2244C508.546 -56.3234 529.453 -40.7071 528.082 -21.2489C526.54 0.619197 497.821 11.46 486.44 30.4591C478.683 43.4085 486.781 67.2677 471.888 72.5592C449.9 80.3711 420.165 46.0212 402.412 60.3129C383.315 75.6863 414.692 112.083 399.475 130.853C389.571 143.07 367.036 125.952 350.51 124.333C334.189 122.735 316.812 127.761 301.841 121.29C286.87 114.818 283.209 93.0436 267.493 88.4481C233.662 78.5551 191.816 99.8388 162.797 80.6302C141.225 66.3507 149.235 33.4873 147.58 9.07288C145.892 -15.8499 128.198 -55.8035 152.941 -64.8466C197.476 -81.1239 247.711 -37.0792 294.987 -44.8024C311.209 -47.4526 299.914 -74.862 304.436 -89.5959C313.789 -120.069 306.791 -163.323 336.188 -179.042C358.182 -190.802 381.307 -156.487 401.52 -141.508Z" fill="#5857AB"/>
<path opacity="0.16" fill-rule="evenodd" clip-rule="evenodd" d="M315.759 -201.886C336.359 -201.237 355.226 -192.44 375.794 -191.365C395.2 -190.35 414.437 -198.381 433.62 -195.723C454.217 -192.869 480.645 -191.94 491.298 -175.361C503.269 -156.729 486.495 -131.773 488.738 -109.939C490.268 -95.0572 511.275 -80.2287 502.375 -67.5547C489.237 -48.8441 444.309 -60.0279 438.53 -38.4346C432.313 -15.207 479.812 -3.28417 478.801 20.5215C478.143 36.0157 449.485 34.7816 435.081 42.7596C420.855 50.639 409.779 64.4939 393.703 67.6555C377.628 70.817 361.486 55.1867 345.94 60.2906C312.474 71.2783 291.35 112.1 256.161 112.814C230.001 113.344 216.634 82.143 200.527 63.2398C184.083 43.9428 145.549 21.4355 160.18 0.175709C186.516 -38.0914 253.96 -30.5596 287.695 -63.4183C299.271 -74.6938 273.52 -90.6085 268.284 -105.121C257.454 -135.136 225.613 -166.339 239.988 -195.64C250.744 -217.561 290.281 -202.688 315.759 -201.886Z" fill="#5857AB"/>
<path opacity="0.16" fill-rule="evenodd" clip-rule="evenodd" d="M480.608 -128.386C499.669 -120.824 514.148 -106.214 533.024 -98.2636C550.833 -90.7621 571.769 -91.7903 588.773 -82.825C607.031 -73.1983 631.449 -63.4061 635.409 -44.2804C639.859 -22.786 615.086 -5.07188 609.261 16.1381C605.291 30.5944 619.585 51.5762 606.648 60.4439C587.548 73.5352 549.524 47.8921 536.271 66.1678C522.015 85.8268 562.18 113.03 552.591 134.988C546.349 149.28 519.953 138.449 503.564 141.06C487.378 143.638 471.973 152.877 455.766 150.412C439.561 147.946 430.114 127.856 413.7 127.389C378.363 126.383 343.756 157.491 310.534 146.28C285.837 137.946 284.643 104.206 276.417 81.0615C268.02 57.4347 240.095 23.3428 261.518 8.36775C300.08 -18.5871 360.522 11.2363 404.051 -8.15469C418.988 -14.8087 400.644 -38.4096 401.007 -53.7713C401.76 -85.5431 383.261 -125.521 407.364 -148.114C425.397 -165.018 457.033 -137.738 480.608 -128.386Z" fill="#5857AB"/>
</g>
</svg>
