<svg width="376" height="300" viewBox="0 0 376 300" fill="none" xmlns="http://www.w3.org/2000/svg">
<path d="M20 36C20 27.1634 27.1634 20 36 20H340C348.837 20 356 27.1634 356 36V138C356 139.105 355.105 140 354 140H22C20.8954 140 20 139.105 20 138V36Z" fill="#252473"/>
<path d="M33.6801 98.4543C33.6801 99.2301 33.9387 99.8397 34.4559 100.283C34.9731 100.708 35.5181 100.92 36.0907 100.92C36.6818 100.92 37.2267 100.754 37.7255 100.422C38.2427 100.071 38.6583 99.8951 38.9723 99.8951C39.5265 99.8951 40.2007 100.385 40.995 101.364C41.4198 101.899 41.6323 102.38 41.6323 102.804C41.6323 103.506 41.1243 104.162 40.1083 104.772C39.0554 105.511 37.7624 105.88 36.2292 105.88C34.5113 105.88 32.8581 105.261 31.2695 104.024C30.5122 103.432 29.8934 102.647 29.4131 101.668C28.9328 100.671 28.6927 99.5811 28.6927 98.3989C28.6927 97.1982 28.9328 96.1176 29.4131 95.157C29.8934 94.178 30.5122 93.393 31.2695 92.8019C32.8027 91.5827 34.4375 90.9732 36.1738 90.9732C36.8758 90.9732 37.5592 91.0748 38.2242 91.2779C38.8892 91.4627 39.3787 91.6474 39.6927 91.8321L40.136 92.1092C40.4685 92.3308 40.7271 92.5063 40.9119 92.6356C41.3921 93.0051 41.6323 93.4299 41.6323 93.9102C41.6323 94.372 41.4383 94.8984 41.0504 95.4895C40.3854 96.5055 39.7481 97.0135 39.1386 97.0135C38.7876 97.0135 38.2889 96.8103 37.6423 96.4039C37.3098 96.0899 36.8296 95.9329 36.2015 95.9329C35.592 95.9329 35.0193 96.1545 34.4836 96.5979C33.948 97.0412 33.6801 97.66 33.6801 98.4543ZM52.8983 92.6911C53.0092 91.6566 53.7388 91.1394 55.0873 91.1394C55.8077 91.1394 56.3433 91.1948 56.6943 91.3057C57.0453 91.4165 57.2854 91.6104 57.4147 91.8875C57.5625 92.1646 57.6456 92.414 57.6641 92.6356C57.701 92.8388 57.7195 93.1528 57.7195 93.5777V103.275C57.7195 103.7 57.701 104.024 57.6641 104.245C57.6456 104.448 57.5717 104.689 57.4424 104.966C57.1838 105.446 56.5465 105.686 55.5306 105.686C54.5331 105.686 53.8589 105.566 53.5079 105.326C53.1754 105.067 52.9815 104.698 52.926 104.218C52.2426 105.197 51.0973 105.686 49.4903 105.686C47.9017 105.686 46.4239 104.956 45.057 103.497C43.6901 102.038 43.0066 100.348 43.0066 98.4266C43.0066 96.487 43.6901 94.7968 45.057 93.356C46.4424 91.8968 47.9571 91.1671 49.6011 91.1671C50.2291 91.1671 50.8018 91.2779 51.319 91.4996C51.8362 91.7213 52.1964 91.9337 52.3996 92.1369C52.6028 92.3216 52.769 92.5063 52.8983 92.6911ZM47.8555 98.4543C47.8555 99.0639 48.0956 99.618 48.5759 100.117C49.0562 100.597 49.638 100.837 50.3215 100.837C51.005 100.837 51.5684 100.588 52.0117 100.089C52.4735 99.5903 52.7044 99.0454 52.7044 98.4543C52.7044 97.8447 52.4827 97.2813 52.0394 96.7641C51.6145 96.2469 51.0327 95.9883 50.2938 95.9883C49.5734 95.9883 48.9823 96.2469 48.5205 96.7641C48.0772 97.2813 47.8555 97.8447 47.8555 98.4543ZM64.6937 93.079C65.5618 91.7675 66.6055 91.1117 67.8246 91.1117C69.7088 91.1117 71.1126 91.9152 72.0362 93.5223C72.2394 93.2452 72.4796 92.9589 72.7566 92.6633C73.0522 92.3493 73.514 92.0168 74.142 91.6659C74.7701 91.2964 75.4166 91.1117 76.0816 91.1117C77.5593 91.1117 78.797 91.6843 79.7944 92.8296C80.7919 93.9564 81.2907 95.8313 81.2907 98.4543V103.303C81.2907 103.728 81.2722 104.051 81.2353 104.273C81.2168 104.476 81.1337 104.716 80.9859 104.993C80.7457 105.492 80.0346 105.741 78.8524 105.741C77.6886 105.741 76.9775 105.483 76.7189 104.966C76.5896 104.689 76.5064 104.448 76.4695 104.245C76.451 104.024 76.4418 103.7 76.4418 103.275V98.4266C76.4418 96.8195 75.8692 96.016 74.7239 96.016C74.0774 96.016 73.6341 96.2284 73.3939 96.6533C73.1723 97.0781 73.0614 97.6785 73.0614 98.4543V103.303C73.0614 103.746 73.043 104.07 73.006 104.273C72.9875 104.476 72.9044 104.716 72.7566 104.993C72.498 105.492 71.7776 105.741 70.5954 105.741C69.4317 105.741 68.7205 105.483 68.4619 104.966C68.3326 104.689 68.2495 104.448 68.2126 104.245C68.1941 104.024 68.1848 103.7 68.1848 103.275V98.4266C68.1848 96.8195 67.6122 96.016 66.467 96.016C65.3586 96.016 64.8045 96.8195 64.8045 98.4266V103.331C64.8045 103.756 64.786 104.079 64.7491 104.301C64.7306 104.504 64.6475 104.744 64.4997 105.021C64.2226 105.501 63.5022 105.741 62.3385 105.741C61.1748 105.741 60.4636 105.492 60.205 104.993C60.0757 104.716 59.9926 104.476 59.9556 104.273C59.9371 104.07 59.9279 103.746 59.9279 103.303V93.55C59.9279 93.1251 59.9371 92.8111 59.9556 92.6079C59.9926 92.3863 60.0849 92.1461 60.2327 91.8875C60.5098 91.3888 61.1655 91.1394 62.1999 91.1394C63.2344 91.1394 63.9086 91.3057 64.2226 91.6382C64.5366 91.9706 64.6937 92.4509 64.6937 93.079ZM83.4958 109.704V93.5223C83.4958 93.0974 83.5051 92.7834 83.5235 92.5802C83.5605 92.377 83.6436 92.1461 83.7729 91.8875C84.0315 91.3888 84.6503 91.1394 85.6293 91.1394C86.6083 91.1394 87.2641 91.2687 87.5966 91.5273C87.9476 91.7675 88.1507 92.1277 88.2062 92.6079C88.9081 91.6474 90.0072 91.1671 91.5034 91.1671C93.0181 91.1671 94.4497 91.8783 95.7981 93.3006C97.1466 94.723 97.8208 96.3762 97.8208 98.2603C97.8208 100.144 97.1466 101.798 95.7981 103.22C94.4681 104.642 93.0458 105.354 91.5311 105.354C90.0164 105.354 88.9173 104.929 88.2339 104.079V109.676C88.2339 110.101 88.2154 110.415 88.1785 110.618C88.16 110.821 88.0769 111.052 87.9291 111.311C87.7998 111.588 87.5689 111.782 87.2364 111.893C86.9039 112.003 86.4513 112.059 85.8787 112.059C85.3061 112.059 84.8443 112.003 84.4933 111.893C84.1608 111.782 83.9207 111.597 83.7729 111.338C83.6436 111.08 83.5605 110.849 83.5235 110.646C83.5051 110.443 83.4958 110.129 83.4958 109.704ZM88.982 96.6533C88.5571 97.152 88.3447 97.6969 88.3447 98.288C88.3447 98.8791 88.5571 99.4241 88.982 99.9228C89.4253 100.403 89.9795 100.643 90.6445 100.643C91.3279 100.643 91.9005 100.403 92.3623 99.9228C92.8426 99.4425 93.0827 98.8976 93.0827 98.288C93.0827 97.6785 92.8611 97.1335 92.4178 96.6533C91.9744 96.1545 91.3926 95.9052 90.6722 95.9052C89.9702 95.9052 89.4068 96.1545 88.982 96.6533ZM109.099 92.6911C109.21 91.6566 109.939 91.1394 111.288 91.1394C112.008 91.1394 112.544 91.1948 112.895 91.3057C113.246 91.4165 113.486 91.6104 113.615 91.8875C113.763 92.1646 113.846 92.414 113.865 92.6356C113.901 92.8388 113.92 93.1528 113.92 93.5777V103.275C113.92 103.7 113.901 104.024 113.865 104.245C113.846 104.448 113.772 104.689 113.643 104.966C113.384 105.446 112.747 105.686 111.731 105.686C110.734 105.686 110.059 105.566 109.708 105.326C109.376 105.067 109.182 104.698 109.126 104.218C108.443 105.197 107.298 105.686 105.691 105.686C104.102 105.686 102.624 104.956 101.257 103.497C99.8905 102.038 99.207 100.348 99.207 98.4266C99.207 96.487 99.8905 94.7968 101.257 93.356C102.643 91.8968 104.158 91.1671 105.802 91.1671C106.43 91.1671 107.002 91.2779 107.519 91.4996C108.037 91.7213 108.397 91.9337 108.6 92.1369C108.803 92.3216 108.969 92.5063 109.099 92.6911ZM104.056 98.4543C104.056 99.0639 104.296 99.618 104.776 100.117C105.257 100.597 105.838 100.837 106.522 100.837C107.205 100.837 107.769 100.588 108.212 100.089C108.674 99.5903 108.905 99.0454 108.905 98.4543C108.905 97.8447 108.683 97.2813 108.24 96.7641C107.815 96.2469 107.233 95.9883 106.494 95.9883C105.774 95.9883 105.183 96.2469 104.721 96.7641C104.278 97.2813 104.056 97.8447 104.056 98.4543ZM116.128 93.5777C116.128 93.1528 116.138 92.8388 116.156 92.6356C116.193 92.414 116.276 92.1646 116.405 91.8875C116.664 91.4073 117.384 91.1671 118.567 91.1671C119.453 91.1671 120.081 91.3241 120.451 91.6382C120.765 91.8968 120.931 92.2939 120.949 92.8296C120.968 93.0143 120.977 93.2822 120.977 93.6331V103.331C120.977 103.756 120.959 104.079 120.922 104.301C120.903 104.504 120.82 104.744 120.672 105.021C120.432 105.501 119.721 105.741 118.539 105.741C117.375 105.741 116.664 105.492 116.405 104.993C116.276 104.716 116.193 104.476 116.156 104.273C116.138 104.07 116.128 103.746 116.128 103.303V93.5777ZM120.672 88.4517C120.543 88.7104 120.303 88.8951 119.952 89.0059C119.601 89.1167 119.13 89.1722 118.539 89.1722C117.966 89.1722 117.504 89.1167 117.154 89.0059C116.803 88.8951 116.553 88.7011 116.405 88.424C116.276 88.147 116.193 87.9068 116.156 87.7036C116.138 87.482 116.128 87.1587 116.128 86.7339C116.128 86.309 116.138 85.995 116.156 85.7918C116.193 85.5701 116.276 85.33 116.405 85.0714C116.664 84.5726 117.384 84.3233 118.567 84.3233C119.73 84.3233 120.432 84.5726 120.672 85.0714C120.82 85.3485 120.903 85.5978 120.922 85.8195C120.959 86.0227 120.977 86.3367 120.977 86.7616C120.977 87.1864 120.959 87.5097 120.922 87.7313C120.903 87.9345 120.82 88.1747 120.672 88.4517ZM132.445 103.913C131.743 104.836 130.626 105.298 129.092 105.298C127.559 105.298 126.118 104.596 124.77 103.192C123.44 101.77 122.775 100.117 122.775 98.2326C122.775 96.3485 123.449 94.6953 124.798 93.2729C126.146 91.8506 127.624 91.1394 129.231 91.1394C129.859 91.1394 130.432 91.2595 130.949 91.4996C131.466 91.7213 131.817 91.9337 132.002 92.1369C132.205 92.3216 132.362 92.4971 132.473 92.6633C132.528 92.1461 132.713 91.7582 133.027 91.4996C133.359 91.2225 133.886 91.084 134.606 91.084C135.327 91.084 135.853 91.1394 136.186 91.2502C136.518 91.3611 136.749 91.555 136.878 91.8321C137.026 92.0907 137.109 92.3216 137.128 92.5248C137.165 92.728 137.183 93.042 137.183 93.4669V104.938C137.183 107.062 136.444 108.771 134.966 110.064C133.489 111.375 131.826 112.031 129.979 112.031C128.575 112.031 127.236 111.689 125.961 111.006C124.687 110.322 124.05 109.704 124.05 109.15C124.05 108.429 124.327 107.792 124.881 107.238C125.232 106.85 125.5 106.582 125.684 106.434C125.887 106.286 126.118 106.212 126.377 106.212C126.636 106.212 126.903 106.323 127.181 106.545C128.067 107.228 129.028 107.57 130.062 107.57C130.764 107.57 131.337 107.293 131.78 106.739C132.223 106.185 132.445 105.52 132.445 104.744V103.913ZM127.513 98.2603C127.513 98.8514 127.744 99.3871 128.206 99.8674C128.686 100.348 129.259 100.588 129.924 100.588C130.607 100.588 131.17 100.348 131.614 99.8674C132.057 99.3686 132.279 98.833 132.279 98.2603C132.279 97.6692 132.066 97.1243 131.641 96.6256C131.217 96.1084 130.644 95.8497 129.924 95.8497C129.203 95.8497 128.621 96.0991 128.178 96.5979C127.735 97.0966 127.513 97.6508 127.513 98.2603ZM147.517 91.1394C149.364 91.1394 150.897 91.8506 152.117 93.2729C153.354 94.6768 153.973 96.3947 153.973 98.4266V103.303C153.973 103.728 153.954 104.051 153.918 104.273C153.899 104.476 153.825 104.707 153.696 104.966C153.437 105.464 152.717 105.714 151.535 105.714C150.223 105.714 149.466 105.372 149.263 104.689C149.152 104.375 149.096 103.903 149.096 103.275V98.3989C149.096 97.6415 148.875 97.0504 148.431 96.6256C148.007 96.2007 147.425 95.9883 146.686 95.9883C145.965 95.9883 145.374 96.2099 144.912 96.6533C144.469 97.0966 144.247 97.6785 144.247 98.3989V103.303C144.247 103.728 144.229 104.051 144.192 104.273C144.174 104.476 144.09 104.707 143.943 104.966C143.703 105.464 142.991 105.714 141.809 105.714C140.645 105.714 139.934 105.464 139.676 104.966C139.546 104.689 139.463 104.448 139.426 104.245C139.408 104.024 139.399 103.7 139.399 103.275V93.4669C139.399 93.0605 139.408 92.7557 139.426 92.5525C139.463 92.3308 139.556 92.0907 139.703 91.8321C139.962 91.3703 140.673 91.1394 141.837 91.1394C142.964 91.1394 143.656 91.3518 143.915 91.7767C144.1 92.0907 144.192 92.4694 144.192 92.9127C144.266 92.7834 144.432 92.5987 144.691 92.3586C144.949 92.1184 145.199 91.9245 145.439 91.7767C146.067 91.3518 146.76 91.1394 147.517 91.1394Z" fill="white"/>
<path d="M29.2191 128.439C28.8682 128.218 28.6927 127.867 28.6927 127.386C28.6927 126.906 29.0437 126.176 29.7456 125.197C29.9488 124.883 30.272 124.726 30.7154 124.726C31.1772 124.726 31.796 124.957 32.5718 125.419C33.3476 125.862 34.0496 126.084 34.6776 126.084C35.8044 126.084 36.3678 125.862 36.3678 125.419C36.3678 125.068 35.749 124.809 34.5113 124.643C33.3476 124.477 32.1931 124.043 31.0479 123.341C30.5122 123.008 30.0689 122.491 29.7179 121.789C29.3669 121.069 29.1914 120.219 29.1914 119.24C29.1914 116.322 31.1956 114.862 35.204 114.862C36.5156 114.862 37.864 115.176 39.2494 115.804C39.8959 116.1 40.2192 116.469 40.2192 116.913C40.2192 117.356 40.016 117.901 39.6096 118.547C39.2032 119.194 38.7876 119.517 38.3627 119.517C38.1411 119.517 37.7255 119.379 37.1159 119.102C36.5248 118.825 35.8783 118.686 35.1763 118.686C34.0865 118.686 33.5416 118.889 33.5416 119.296C33.5416 119.85 34.1696 120.21 35.4257 120.376C36.6449 120.505 37.8271 120.856 38.9723 121.429C39.508 121.688 39.9513 122.14 40.3023 122.787C40.6717 123.415 40.8564 124.209 40.8564 125.17C40.8564 126.13 40.6717 126.952 40.3023 127.636C39.9513 128.301 39.4526 128.799 38.8061 129.132C37.6239 129.705 36.1369 129.991 34.3451 129.991C32.5718 129.991 30.8631 129.474 29.2191 128.439ZM49.1482 129.686C47.2826 129.686 45.7309 128.984 44.4933 127.58C43.2742 126.158 42.6646 124.431 42.6646 122.399V117.55C42.6646 117.107 42.6738 116.783 42.6923 116.58C42.7293 116.377 42.8124 116.137 42.9417 115.86C43.2003 115.361 43.9207 115.112 45.1029 115.112C46.3959 115.112 47.1533 115.463 47.3749 116.165C47.4858 116.46 47.5412 116.931 47.5412 117.578V122.427C47.5412 123.184 47.7536 123.775 48.1785 124.2C48.6218 124.625 49.2037 124.837 49.9241 124.837C50.6629 124.837 51.254 124.616 51.6974 124.172C52.1592 123.729 52.3901 123.147 52.3901 122.427V117.522C52.3901 117.097 52.3993 116.783 52.4178 116.58C52.4547 116.359 52.5471 116.109 52.6949 115.832C52.935 115.352 53.6462 115.112 54.8284 115.112C55.9921 115.112 56.7033 115.361 56.9619 115.86C57.0912 116.137 57.1651 116.386 57.1835 116.608C57.2205 116.811 57.2389 117.125 57.2389 117.55V127.359C57.2389 127.765 57.2205 128.079 57.1835 128.301C57.1651 128.504 57.0819 128.735 56.9342 128.993C56.6571 129.474 55.9459 129.714 54.8006 129.714C53.6739 129.714 52.9812 129.492 52.7226 129.049C52.5378 128.735 52.4455 128.356 52.4455 127.913C52.3716 128.042 52.2053 128.227 51.9467 128.467C51.6881 128.707 51.4388 128.91 51.1986 129.076C50.5706 129.483 49.8871 129.686 49.1482 129.686ZM59.4679 117.578C59.4679 117.153 59.4771 116.839 59.4956 116.636C59.5326 116.414 59.6157 116.165 59.745 115.888C60.0036 115.407 60.724 115.167 61.9062 115.167C62.7929 115.167 63.4209 115.324 63.7903 115.638C64.1044 115.897 64.2706 116.294 64.2891 116.83C64.3075 117.014 64.3168 117.282 64.3168 117.633V127.331C64.3168 127.756 64.2983 128.079 64.2614 128.301C64.2429 128.504 64.1598 128.744 64.012 129.021C63.7719 129.501 63.0607 129.741 61.8785 129.741C60.7148 129.741 60.0036 129.492 59.745 128.993C59.6157 128.716 59.5326 128.476 59.4956 128.273C59.4771 128.07 59.4679 127.746 59.4679 127.303V117.578ZM64.012 112.452C63.8827 112.71 63.6426 112.895 63.2916 113.006C62.9406 113.117 62.4696 113.172 61.8785 113.172C61.3059 113.172 60.8441 113.117 60.4931 113.006C60.1421 112.895 59.8928 112.701 59.745 112.424C59.6157 112.147 59.5326 111.907 59.4956 111.704C59.4771 111.482 59.4679 111.159 59.4679 110.734C59.4679 110.309 59.4771 109.995 59.4956 109.792C59.5326 109.57 59.6157 109.33 59.745 109.071C60.0036 108.573 60.724 108.323 61.9062 108.323C63.0699 108.323 63.7719 108.573 64.012 109.071C64.1598 109.348 64.2429 109.598 64.2614 109.819C64.2983 110.023 64.3168 110.337 64.3168 110.762C64.3168 111.186 64.2983 111.51 64.2614 111.731C64.2429 111.935 64.1598 112.175 64.012 112.452ZM75.0088 120.044L73.2078 119.933V123.757C73.2078 124.255 73.2817 124.615 73.4294 124.837C73.5957 125.059 73.8912 125.17 74.3161 125.17C74.7594 125.17 75.0919 125.188 75.3136 125.225C75.5537 125.244 75.8031 125.327 76.0617 125.474C76.4865 125.715 76.699 126.333 76.699 127.331C76.699 128.495 76.4403 129.206 75.9231 129.464C75.6461 129.594 75.3967 129.677 75.175 129.714C74.9718 129.732 74.667 129.741 74.2607 129.741C72.3396 129.741 70.8803 129.307 69.8828 128.439C68.8853 127.571 68.3866 126.102 68.3866 124.034V119.933C68.0356 119.988 67.657 120.016 67.2506 120.016C66.8442 120.016 66.5025 119.859 66.2254 119.545C65.9668 119.231 65.8375 118.695 65.8375 117.938C65.8375 117.181 65.8836 116.636 65.976 116.303C66.0684 115.952 66.1977 115.703 66.3639 115.555C66.6595 115.315 67.0289 115.195 67.4722 115.195L68.3866 115.306V112.452C68.3866 112.027 68.3958 111.713 68.4143 111.51C68.4512 111.306 68.5436 111.085 68.6914 110.845C68.9315 110.383 69.6427 110.152 70.8249 110.152C72.081 110.152 72.8291 110.494 73.0692 111.177C73.1616 111.473 73.2078 111.944 73.2078 112.59V115.306C74.0205 115.232 74.6301 115.195 75.0365 115.195C75.4613 115.195 75.7754 115.213 75.9785 115.25C76.2002 115.269 76.4496 115.352 76.7267 115.5C77.2069 115.74 77.4471 116.451 77.4471 117.633C77.4471 118.797 77.1977 119.508 76.699 119.767C76.4219 119.896 76.1725 119.979 75.9508 120.016C75.7477 120.034 75.4336 120.044 75.0088 120.044ZM92.5115 120.709C92.5115 121.835 92.2252 122.676 91.6525 123.23C91.0984 123.766 90.4796 124.034 89.7961 124.034H83.2294C83.2294 124.551 83.5341 124.985 84.1437 125.336C84.7533 125.687 85.3629 125.862 85.9724 125.862C87.0438 125.862 87.8843 125.752 88.4938 125.53L88.7986 125.419C89.242 125.216 89.6114 125.114 89.9069 125.114C90.498 125.114 91.006 125.53 91.4309 126.361C91.671 126.86 91.7911 127.285 91.7911 127.636C91.7911 129.28 89.8238 130.102 85.8893 130.102C84.5224 130.102 83.3032 129.871 82.2319 129.409C81.179 128.929 80.357 128.301 79.7659 127.525C78.6021 126.029 78.0203 124.357 78.0203 122.51C78.0203 120.182 78.7684 118.326 80.2646 116.94C81.7793 115.537 83.6634 114.835 85.917 114.835C88.4846 114.835 90.3687 115.74 91.5694 117.55C92.1975 118.511 92.5115 119.563 92.5115 120.709ZM86.6651 121.512C87.3671 121.512 87.718 121.217 87.718 120.626C87.718 120.201 87.5518 119.859 87.2193 119.6C86.9053 119.342 86.4435 119.212 85.8339 119.212C85.2428 119.212 84.6517 119.462 84.0606 119.961C83.4695 120.441 83.1739 120.958 83.1739 121.512H86.6651Z" fill="#A1A0D3"/>
<rect x="95.7302" y="125.843" width="21.5506" height="4.61798" rx="2.30899" fill="white"/>
<mask id="mask0_3289:67474" style="mask-type:alpha" maskUnits="userSpaceOnUse" x="165" y="20" width="191" height="120">
<path d="M165 138C165 139.105 165.895 140 167 140H354C355.105 140 356 139.105 356 138V36C356 27.1634 348.837 20 340 20H165V138Z" fill="#252473"/>
</mask>
<g mask="url(#mask0_3289:67474)">
<path opacity="0.16" fill-rule="evenodd" clip-rule="evenodd" d="M474.326 -140.352C491.133 -128.848 501.832 -111.471 518.369 -99.6283C533.971 -88.4548 554.61 -84.9139 569.085 -72.4889C584.629 -59.1475 606.136 -44.308 605.531 -24.8136C604.852 -2.90477 576.581 8.97974 565.956 28.3819C558.714 41.606 567.746 65.1514 553.072 70.9845C531.407 79.5958 500.341 46.3594 483.164 61.2908C464.686 77.3523 497.474 112.574 483.006 131.888C473.59 144.458 450.398 128.178 433.82 127.165C417.448 126.166 400.282 131.825 385.066 125.906C369.851 119.988 365.335 98.3625 349.451 94.3457C315.254 85.6986 274.276 108.499 244.522 90.367C222.403 76.8876 229.113 43.7546 226.499 19.4183C223.83 -5.42466 204.576 -44.7016 228.944 -54.6441C272.807 -72.5403 324.74 -30.3667 371.677 -39.8154C387.784 -43.0577 375.417 -70.0336 379.356 -84.9225C387.502 -115.716 378.806 -158.683 407.563 -175.467C429.078 -188.024 453.537 -154.58 474.326 -140.352Z" fill="#5857AB"/>
<path opacity="0.16" fill-rule="evenodd" clip-rule="evenodd" d="M421.52 -124.508C437.862 -112.397 447.869 -94.6407 463.928 -82.2011C479.078 -70.4645 499.563 -66.1704 513.539 -53.2244C528.546 -39.3234 549.453 -23.7071 548.082 -4.2489C546.54 17.6192 517.821 28.46 506.44 47.4591C498.683 60.4085 506.781 84.2677 491.888 89.5592C469.9 97.3711 440.165 63.0212 422.412 77.3129C403.315 92.6863 434.692 129.083 419.475 147.853C409.571 160.07 387.036 142.952 370.51 141.333C354.189 139.735 336.812 144.761 321.841 138.29C306.87 131.818 303.209 110.044 287.493 105.448C253.662 95.5551 211.816 116.839 182.797 97.6302C161.225 83.3507 169.235 50.4873 167.58 26.0729C165.892 1.15006 148.198 -38.8035 172.941 -47.8466C217.476 -64.1239 267.711 -20.0792 314.987 -27.8024C331.209 -30.4526 319.914 -57.862 324.436 -72.5959C333.789 -103.069 326.791 -146.323 356.188 -162.042C378.182 -173.802 401.307 -139.487 421.52 -124.508Z" fill="#5857AB"/>
<path opacity="0.16" fill-rule="evenodd" clip-rule="evenodd" d="M335.759 -184.886C356.359 -184.237 375.226 -175.44 395.794 -174.365C415.2 -173.35 434.437 -181.381 453.62 -178.723C474.217 -175.869 500.645 -174.94 511.298 -158.361C523.269 -139.729 506.495 -114.773 508.738 -92.939C510.268 -78.0572 531.275 -63.2287 522.375 -50.5547C509.237 -31.8441 464.309 -43.0279 458.53 -21.4346C452.313 1.79304 499.812 13.7158 498.801 37.5215C498.143 53.0157 469.485 51.7816 455.081 59.7596C440.855 67.639 429.779 81.4939 413.703 84.6555C397.628 87.817 381.486 72.1867 365.94 77.2906C332.474 88.2783 311.35 129.1 276.161 129.814C250.001 130.344 236.634 99.143 220.527 80.2398C204.083 60.9428 165.549 38.4355 180.18 17.1757C206.516 -21.0914 273.96 -13.5596 307.695 -46.4183C319.271 -57.6938 293.52 -73.6085 288.284 -88.1209C277.454 -118.136 245.613 -149.339 259.988 -178.64C270.744 -200.561 310.281 -185.688 335.759 -184.886Z" fill="#5857AB"/>
<path opacity="0.16" fill-rule="evenodd" clip-rule="evenodd" d="M500.608 -111.386C519.669 -103.824 534.148 -89.2141 553.024 -81.2633C570.833 -73.7618 591.769 -74.7901 608.773 -65.8247C627.031 -56.1981 651.449 -46.4059 655.409 -27.2802C659.859 -5.78574 635.086 11.9284 629.261 33.1383C625.291 47.5947 639.585 68.5765 626.648 77.4441C607.548 90.5354 569.524 64.8923 556.271 83.168C542.015 102.827 582.18 130.031 572.591 151.989C566.349 166.28 539.953 155.449 523.564 158.06C507.378 160.638 491.973 169.877 475.766 167.412C459.561 164.947 450.114 144.856 433.7 144.389C398.363 143.384 363.756 174.491 330.534 163.28C305.837 154.946 304.643 121.207 296.417 98.0618C288.02 74.4349 260.095 40.343 281.518 25.368C320.08 -1.58685 380.522 28.2366 424.051 8.84555C438.988 2.19154 420.644 -21.4093 421.007 -36.771C421.76 -68.5429 403.261 -108.521 427.364 -131.114C445.397 -148.017 477.033 -120.738 500.608 -111.386Z" fill="#5857AB"/>
</g>
<path d="M20 176C20 167.163 27.1634 160 36 160H342C350.837 160 358 167.163 358 176V238C358 239.105 357.105 240 356 240H22C20.8954 240 20 239.105 20 238V176Z" fill="#252473"/>
<path d="M45.84 206.376C45.84 207.72 46.288 208.776 47.184 209.544C48.08 210.28 49.024 210.648 50.016 210.648C51.04 210.648 51.984 210.36 52.848 209.784C53.744 209.176 54.464 208.872 55.008 208.872C55.968 208.872 57.136 209.72 58.512 211.416C59.248 212.344 59.616 213.176 59.616 213.912C59.616 215.128 58.736 216.264 56.976 217.32C55.152 218.6 52.912 219.24 50.256 219.24C47.28 219.24 44.416 218.168 41.664 216.024C40.352 215 39.28 213.64 38.448 211.944C37.616 210.216 37.2 208.328 37.2 206.28C37.2 204.2 37.616 202.328 38.448 200.664C39.28 198.968 40.352 197.608 41.664 196.584C44.32 194.472 47.152 193.416 50.16 193.416C51.376 193.416 52.56 193.592 53.712 193.944C54.864 194.264 55.712 194.584 56.256 194.904L57.024 195.384C57.6 195.768 58.048 196.072 58.368 196.296C59.2 196.936 59.616 197.672 59.616 198.504C59.616 199.304 59.28 200.216 58.608 201.24C57.456 203 56.352 203.88 55.296 203.88C54.688 203.88 53.824 203.528 52.704 202.824C52.128 202.28 51.296 202.008 50.208 202.008C49.152 202.008 48.16 202.392 47.232 203.16C46.304 203.928 45.84 205 45.84 206.376Z" fill="white"/>
<path d="M62.9089 216.744C62.3009 216.36 61.9969 215.752 61.9969 214.92C61.9969 214.088 62.6049 212.824 63.8209 211.128C64.1729 210.584 64.7329 210.312 65.5009 210.312C66.3009 210.312 67.3729 210.712 68.7169 211.512C70.0609 212.28 71.2769 212.664 72.3649 212.664C74.3169 212.664 75.2929 212.28 75.2929 211.512C75.2929 210.904 74.2209 210.456 72.0769 210.168C70.0609 209.88 68.0609 209.128 66.0769 207.912C65.1489 207.336 64.3809 206.44 63.7729 205.224C63.1649 203.976 62.8609 202.504 62.8609 200.808C62.8609 195.752 66.3329 193.224 73.2769 193.224C75.5489 193.224 77.8849 193.768 80.2849 194.856C81.4049 195.368 81.9649 196.008 81.9649 196.776C81.9649 197.544 81.6129 198.488 80.9089 199.608C80.2049 200.728 79.4849 201.288 78.7489 201.288C78.3649 201.288 77.6449 201.048 76.5889 200.568C75.5649 200.088 74.4449 199.848 73.2289 199.848C71.3409 199.848 70.3969 200.2 70.3969 200.904C70.3969 201.864 71.4849 202.488 73.6609 202.776C75.7729 203 77.8209 203.608 79.8049 204.6C80.7329 205.048 81.5009 205.832 82.1089 206.952C82.7489 208.04 83.0689 209.416 83.0689 211.08C83.0689 212.744 82.7489 214.168 82.1089 215.352C81.5009 216.504 80.6369 217.368 79.5169 217.944C77.4689 218.936 74.8929 219.432 71.7889 219.432C68.7169 219.432 65.7569 218.536 62.9089 216.744Z" fill="#5857AB"/>
<rect x="55" y="223" width="28" height="9" rx="4.5" fill="white"/>
<mask id="mask1_3289:67474" style="mask-type:alpha" maskUnits="userSpaceOnUse" x="85" y="160" width="273" height="80">
<path d="M85 238C85 239.105 85.8954 240 87 240H356C357.105 240 358 239.105 358 238V176C358 167.163 350.837 160 342 160H85V238Z" fill="#252473"/>
</mask>
<g mask="url(#mask1_3289:67474)">
<path opacity="0.16" fill-rule="evenodd" clip-rule="evenodd" d="M386.491 -37.3515C402.82 -25.8479 413.214 -8.4709 429.28 3.37173C444.438 14.5452 464.489 18.0861 478.553 30.5111C493.654 43.8525 514.549 58.6921 513.961 78.1865C513.301 100.095 485.835 111.98 475.512 131.382C468.477 144.606 477.252 168.151 462.995 173.984C441.947 182.596 411.766 149.359 395.077 164.291C377.125 180.352 408.98 215.574 394.924 234.888C385.776 247.458 363.244 231.178 347.138 230.165C331.232 229.166 314.555 234.825 299.772 228.906C284.991 222.988 280.603 201.363 265.171 197.346C231.948 188.699 192.137 211.499 163.23 193.367C141.74 179.888 148.259 146.755 145.719 122.418C143.126 97.5754 124.421 58.2984 148.095 48.3559C190.709 30.4597 241.164 72.6333 286.765 63.1846C302.413 59.9424 290.398 32.9664 294.225 18.0775C302.139 -12.7164 293.691 -55.683 321.629 -72.4669C342.531 -85.024 366.294 -51.5796 386.491 -37.3515Z" fill="#5857AB"/>
<path opacity="0.16" fill-rule="evenodd" clip-rule="evenodd" d="M335.188 -21.5076C351.065 -9.39688 360.788 8.35931 376.389 20.7989C391.108 32.5355 411.01 36.8296 424.588 49.7756C439.167 63.6766 459.48 79.2929 458.147 98.7511C456.649 120.619 428.748 131.46 417.691 150.459C410.155 163.409 418.022 187.268 403.553 192.559C382.191 200.371 353.302 166.021 336.055 180.313C317.501 195.686 347.985 232.083 333.201 250.853C323.579 263.07 301.686 245.952 285.631 244.333C269.774 242.735 252.892 247.761 238.347 241.29C223.802 234.818 220.245 213.044 204.978 208.448C172.11 198.555 131.455 219.839 103.262 200.63C82.3041 186.351 90.0856 153.487 88.4785 129.073C86.8379 104.15 69.648 64.1965 93.6859 55.1534C136.954 38.8761 185.758 82.9208 231.688 75.1976C247.449 72.5473 236.475 45.138 240.868 30.4041C249.955 -0.0693124 243.157 -43.3233 271.717 -59.0422C293.084 -70.8024 315.55 -36.4866 335.188 -21.5076Z" fill="#5857AB"/>
<path opacity="0.16" fill-rule="evenodd" clip-rule="evenodd" d="M251.869 -81.8858C271.883 -81.2373 290.213 -72.4401 310.195 -71.3647C329.048 -70.35 347.738 -78.3809 366.374 -75.7231C386.385 -72.8693 412.061 -71.9401 422.41 -55.3613C434.041 -36.7293 417.744 -11.7732 419.924 10.061C421.409 24.9428 441.818 39.7713 433.172 52.4452C420.408 71.1559 376.759 59.9721 371.144 81.5654C365.104 104.793 411.252 116.716 410.269 140.521C409.63 156.016 381.788 154.782 367.794 162.76C353.973 170.639 343.212 184.494 327.594 187.656C311.976 190.817 296.294 175.187 281.191 180.291C248.678 191.278 228.155 232.1 193.967 232.814C168.552 233.344 155.566 202.143 139.917 183.24C123.942 163.943 86.5045 141.435 100.719 120.176C126.306 81.9086 191.83 89.4404 224.604 56.5816C235.851 45.3062 210.833 29.3915 205.745 14.8791C195.224 -15.1361 164.289 -46.3392 178.255 -75.6396C188.704 -97.5611 227.116 -82.6878 251.869 -81.8858Z" fill="#5857AB"/>
<path opacity="0.16" fill-rule="evenodd" clip-rule="evenodd" d="M412.025 -8.38554C430.543 -0.823906 444.61 13.7859 462.948 21.7367C480.251 29.2382 500.59 28.2099 517.11 37.1753C534.848 46.8019 558.572 56.5941 562.418 75.7198C566.742 97.2143 542.674 114.928 537.015 136.138C533.158 150.595 547.045 171.576 534.476 180.444C515.921 193.535 478.978 167.892 466.103 186.168C452.253 205.827 491.275 233.031 481.958 254.989C475.894 269.28 450.249 258.449 434.327 261.06C418.602 263.638 403.636 272.877 387.89 270.412C372.146 267.947 362.969 247.856 347.021 247.389C312.69 246.384 279.069 277.491 246.792 266.28C222.799 257.946 221.639 224.207 213.647 201.062C205.489 177.435 178.359 143.343 199.173 128.368C236.637 101.413 295.358 131.237 337.647 111.846C352.159 105.192 334.337 81.5907 334.691 66.229C335.421 34.4571 317.449 -5.5207 340.866 -28.114C358.385 -45.0175 389.121 -17.738 412.025 -8.38554Z" fill="#5857AB"/>
<path opacity="0.16" fill-rule="evenodd" clip-rule="evenodd" d="M531.17 -59.69C549.689 -52.1283 563.756 -37.5185 582.094 -29.5678C599.396 -22.0663 619.736 -23.0945 636.256 -14.1292C653.994 -4.50254 677.717 5.28968 681.564 24.4154C685.887 45.9098 661.82 63.6239 656.161 84.8339C652.304 99.2902 666.191 120.272 653.622 129.14C635.066 142.231 598.124 116.588 585.249 134.864C571.398 154.523 610.42 181.726 601.104 203.684C595.04 217.976 569.395 207.145 553.473 209.756C537.748 212.334 522.781 221.573 507.036 219.108C491.292 216.642 482.115 196.552 466.167 196.085C431.836 195.079 398.214 226.187 365.938 214.976C341.944 206.641 340.785 172.902 332.793 149.757C324.635 126.13 297.505 92.0386 318.318 77.0636C355.782 50.1087 414.504 79.9321 456.793 60.5411C471.305 53.8871 453.483 30.2862 453.836 14.9245C454.567 -16.8473 436.595 -56.8251 460.012 -79.4185C477.531 -96.3219 508.266 -69.0425 531.17 -59.69Z" fill="#5857AB"/>
</g>
<rect x="0.5" y="0.5" width="375" height="299" rx="4.5" stroke="#7B61FF" stroke-dasharray="10 5"/>
</svg>
