<svg width="285" height="419" viewBox="0 0 285 419" fill="none" xmlns="http://www.w3.org/2000/svg">
<g filter="url(#filter0_d_3289:67439)">
<path d="M20 22C20 20.8954 20.8954 20 22 20H263C264.105 20 265 20.8954 265 22V136C265 137.105 264.105 138 263 138H22C20.8954 138 20 137.105 20 136V22Z" fill="white"/>
<rect x="36" y="28" width="213" height="34" rx="2" fill="#F6F8FA"/>
<path d="M50.732 43.144C50.732 43.568 50.632 43.968 50.432 44.344C50.232 44.72 49.912 45.028 49.472 45.268C49.032 45.5 48.468 45.616 47.78 45.616H46.268V49H44.9V40.66H47.78C48.42 40.66 48.96 40.772 49.4 40.996C49.848 41.212 50.18 41.508 50.396 41.884C50.62 42.26 50.732 42.68 50.732 43.144ZM47.78 44.5C48.3 44.5 48.688 44.384 48.944 44.152C49.2 43.912 49.328 43.576 49.328 43.144C49.328 42.232 48.812 41.776 47.78 41.776H46.268V44.5H47.78ZM53.4047 43.348C53.6047 43.012 53.8687 42.752 54.1967 42.568C54.5327 42.376 54.9287 42.28 55.3847 42.28V43.696H55.0367C54.5007 43.696 54.0927 43.832 53.8127 44.104C53.5407 44.376 53.4047 44.848 53.4047 45.52V49H52.0367V42.388H53.4047V43.348ZM59.5102 49.108C58.8862 49.108 58.3222 48.968 57.8182 48.688C57.3142 48.4 56.9182 48 56.6302 47.488C56.3422 46.968 56.1982 46.368 56.1982 45.688C56.1982 45.016 56.3462 44.42 56.6422 43.9C56.9382 43.38 57.3422 42.98 57.8542 42.7C58.3662 42.42 58.9382 42.28 59.5702 42.28C60.2022 42.28 60.7742 42.42 61.2862 42.7C61.7982 42.98 62.2022 43.38 62.4982 43.9C62.7942 44.42 62.9422 45.016 62.9422 45.688C62.9422 46.36 62.7902 46.956 62.4862 47.476C62.1822 47.996 61.7662 48.4 61.2382 48.688C60.7182 48.968 60.1422 49.108 59.5102 49.108ZM59.5102 47.92C59.8622 47.92 60.1902 47.836 60.4942 47.668C60.8062 47.5 61.0582 47.248 61.2502 46.912C61.4422 46.576 61.5382 46.168 61.5382 45.688C61.5382 45.208 61.4462 44.804 61.2622 44.476C61.0782 44.14 60.8342 43.888 60.5302 43.72C60.2262 43.552 59.8982 43.468 59.5462 43.468C59.1942 43.468 58.8662 43.552 58.5622 43.72C58.2662 43.888 58.0302 44.14 57.8542 44.476C57.6782 44.804 57.5902 45.208 57.5902 45.688C57.5902 46.4 57.7702 46.952 58.1302 47.344C58.4982 47.728 58.9582 47.92 59.5102 47.92ZM67.0665 43.504H65.8425V49H64.4625V43.504H63.6825V42.388H64.4625V41.92C64.4625 41.16 64.6625 40.608 65.0625 40.264C65.4705 39.912 66.1065 39.736 66.9705 39.736V40.876C66.5545 40.876 66.2625 40.956 66.0945 41.116C65.9265 41.268 65.8425 41.536 65.8425 41.92V42.388H67.0665V43.504ZM68.9749 41.512C68.7269 41.512 68.5189 41.428 68.3509 41.26C68.1829 41.092 68.0989 40.884 68.0989 40.636C68.0989 40.388 68.1829 40.18 68.3509 40.012C68.5189 39.844 68.7269 39.76 68.9749 39.76C69.2149 39.76 69.4189 39.844 69.5869 40.012C69.7549 40.18 69.8389 40.388 69.8389 40.636C69.8389 40.884 69.7549 41.092 69.5869 41.26C69.4189 41.428 69.2149 41.512 68.9749 41.512ZM69.6469 42.388V49H68.2789V42.388H69.6469ZM72.811 40.12V49H71.443V40.12H72.811ZM80.667 45.532C80.667 45.78 80.651 46.004 80.619 46.204H75.567C75.607 46.732 75.803 47.156 76.155 47.476C76.507 47.796 76.939 47.956 77.451 47.956C78.187 47.956 78.707 47.648 79.011 47.032H80.487C80.287 47.64 79.923 48.14 79.395 48.532C78.875 48.916 78.227 49.108 77.451 49.108C76.819 49.108 76.251 48.968 75.747 48.688C75.251 48.4 74.859 48 74.571 47.488C74.291 46.968 74.151 46.368 74.151 45.688C74.151 45.008 74.287 44.412 74.559 43.9C74.839 43.38 75.227 42.98 75.723 42.7C76.227 42.42 76.803 42.28 77.451 42.28C78.075 42.28 78.631 42.416 79.119 42.688C79.607 42.96 79.987 43.344 80.259 43.84C80.531 44.328 80.667 44.892 80.667 45.532ZM79.239 45.1C79.231 44.596 79.051 44.192 78.699 43.888C78.347 43.584 77.911 43.432 77.391 43.432C76.919 43.432 76.515 43.584 76.179 43.888C75.843 44.184 75.643 44.588 75.579 45.1H79.239Z" fill="#5857AB"/>
<rect x="249" y="28" width="2" height="34" rx="1" fill="#5857AB"/>
<path d="M47.648 83.084C47.088 83.084 46.584 82.988 46.136 82.796C45.688 82.596 45.336 82.316 45.08 81.956C44.824 81.596 44.696 81.176 44.696 80.696H46.16C46.192 81.056 46.332 81.352 46.58 81.584C46.836 81.816 47.192 81.932 47.648 81.932C48.12 81.932 48.488 81.82 48.752 81.596C49.016 81.364 49.148 81.068 49.148 80.708C49.148 80.428 49.064 80.2 48.896 80.024C48.736 79.848 48.532 79.712 48.284 79.616C48.044 79.52 47.708 79.416 47.276 79.304C46.732 79.16 46.288 79.016 45.944 78.872C45.608 78.72 45.32 78.488 45.08 78.176C44.84 77.864 44.72 77.448 44.72 76.928C44.72 76.448 44.84 76.028 45.08 75.668C45.32 75.308 45.656 75.032 46.088 74.84C46.52 74.648 47.02 74.552 47.588 74.552C48.396 74.552 49.056 74.756 49.568 75.164C50.088 75.564 50.376 76.116 50.432 76.82H48.92C48.896 76.516 48.752 76.256 48.488 76.04C48.224 75.824 47.876 75.716 47.444 75.716C47.052 75.716 46.732 75.816 46.484 76.016C46.236 76.216 46.112 76.504 46.112 76.88C46.112 77.136 46.188 77.348 46.34 77.516C46.5 77.676 46.7 77.804 46.94 77.9C47.18 77.996 47.508 78.1 47.924 78.212C48.476 78.364 48.924 78.516 49.268 78.668C49.62 78.82 49.916 79.056 50.156 79.376C50.404 79.688 50.528 80.108 50.528 80.636C50.528 81.06 50.412 81.46 50.18 81.836C49.956 82.212 49.624 82.516 49.184 82.748C48.752 82.972 48.24 83.084 47.648 83.084ZM58.2022 79.532C58.2022 79.78 58.1862 80.004 58.1542 80.204H53.1022C53.1422 80.732 53.3382 81.156 53.6902 81.476C54.0422 81.796 54.4742 81.956 54.9862 81.956C55.7222 81.956 56.2422 81.648 56.5462 81.032H58.0222C57.8222 81.64 57.4582 82.14 56.9302 82.532C56.4102 82.916 55.7622 83.108 54.9862 83.108C54.3542 83.108 53.7862 82.968 53.2822 82.688C52.7862 82.4 52.3942 82 52.1062 81.488C51.8262 80.968 51.6862 80.368 51.6862 79.688C51.6862 79.008 51.8222 78.412 52.0942 77.9C52.3742 77.38 52.7622 76.98 53.2582 76.7C53.7622 76.42 54.3382 76.28 54.9862 76.28C55.6102 76.28 56.1662 76.416 56.6542 76.688C57.1422 76.96 57.5222 77.344 57.7942 77.84C58.0662 78.328 58.2022 78.892 58.2022 79.532ZM56.7742 79.1C56.7662 78.596 56.5862 78.192 56.2342 77.888C55.8822 77.584 55.4462 77.432 54.9262 77.432C54.4542 77.432 54.0502 77.584 53.7142 77.888C53.3782 78.184 53.1782 78.588 53.1142 79.1H56.7742ZM61.1444 77.504V81.164C61.1444 81.412 61.2004 81.592 61.3124 81.704C61.4324 81.808 61.6324 81.86 61.9124 81.86H62.7524V83H61.6724C61.0564 83 60.5844 82.856 60.2564 82.568C59.9284 82.28 59.7644 81.812 59.7644 81.164V77.504H58.9844V76.388H59.7644V74.744H61.1444V76.388H62.7524V77.504H61.1444ZM65.6093 77.504V81.164C65.6093 81.412 65.6653 81.592 65.7773 81.704C65.8973 81.808 66.0973 81.86 66.3773 81.86H67.2173V83H66.1373C65.5213 83 65.0493 82.856 64.7213 82.568C64.3933 82.28 64.2293 81.812 64.2293 81.164V77.504H63.4493V76.388H64.2293V74.744H65.6093V76.388H67.2173V77.504H65.6093ZM69.1741 75.512C68.9261 75.512 68.7181 75.428 68.5501 75.26C68.3821 75.092 68.2981 74.884 68.2981 74.636C68.2981 74.388 68.3821 74.18 68.5501 74.012C68.7181 73.844 68.9261 73.76 69.1741 73.76C69.4141 73.76 69.6181 73.844 69.7861 74.012C69.9541 74.18 70.0381 74.388 70.0381 74.636C70.0381 74.884 69.9541 75.092 69.7861 75.26C69.6181 75.428 69.4141 75.512 69.1741 75.512ZM69.8461 76.388V83H68.4781V76.388H69.8461ZM74.9782 76.28C75.4982 76.28 75.9622 76.388 76.3702 76.604C76.7862 76.82 77.1102 77.14 77.3422 77.564C77.5742 77.988 77.6902 78.5 77.6902 79.1V83H76.3342V79.304C76.3342 78.712 76.1862 78.26 75.8902 77.948C75.5942 77.628 75.1902 77.468 74.6782 77.468C74.1662 77.468 73.7582 77.628 73.4542 77.948C73.1582 78.26 73.0102 78.712 73.0102 79.304V83H71.6422V76.388H73.0102V77.144C73.2342 76.872 73.5182 76.66 73.8622 76.508C74.2142 76.356 74.5862 76.28 74.9782 76.28ZM82.0992 76.28C82.6112 76.28 83.0632 76.384 83.4552 76.592C83.8552 76.792 84.1672 77.044 84.3912 77.348V76.388H85.7712V83.108C85.7712 83.716 85.6432 84.256 85.3872 84.728C85.1312 85.208 84.7592 85.584 84.2712 85.856C83.7912 86.128 83.2152 86.264 82.5432 86.264C81.6472 86.264 80.9032 86.052 80.3112 85.628C79.7192 85.212 79.3832 84.644 79.3032 83.924H80.6592C80.7632 84.268 80.9832 84.544 81.3192 84.752C81.6632 84.968 82.0712 85.076 82.5432 85.076C83.0952 85.076 83.5392 84.908 83.8752 84.572C84.2192 84.236 84.3912 83.748 84.3912 83.108V82.004C84.1592 82.316 83.8432 82.58 83.4432 82.796C83.0512 83.004 82.6032 83.108 82.0992 83.108C81.5232 83.108 80.9952 82.964 80.5152 82.676C80.0432 82.38 79.6672 81.972 79.3872 81.452C79.1152 80.924 78.9792 80.328 78.9792 79.664C78.9792 79 79.1152 78.412 79.3872 77.9C79.6672 77.388 80.0432 76.992 80.5152 76.712C80.9952 76.424 81.5232 76.28 82.0992 76.28ZM84.3912 79.688C84.3912 79.232 84.2952 78.836 84.1032 78.5C83.9192 78.164 83.6752 77.908 83.3712 77.732C83.0672 77.556 82.7392 77.468 82.3872 77.468C82.0352 77.468 81.7072 77.556 81.4032 77.732C81.0992 77.9 80.8512 78.152 80.6592 78.488C80.4752 78.816 80.3832 79.208 80.3832 79.664C80.3832 80.12 80.4752 80.52 80.6592 80.864C80.8512 81.208 81.0992 81.472 81.4032 81.656C81.7152 81.832 82.0432 81.92 82.3872 81.92C82.7392 81.92 83.0672 81.832 83.3712 81.656C83.6752 81.48 83.9192 81.224 84.1032 80.888C84.2952 80.544 84.3912 80.144 84.3912 79.688ZM89.968 83.108C89.448 83.108 88.98 83.016 88.564 82.832C88.156 82.64 87.832 82.384 87.592 82.064C87.352 81.736 87.224 81.372 87.208 80.972H88.624C88.648 81.252 88.78 81.488 89.02 81.68C89.268 81.864 89.576 81.956 89.944 81.956C90.328 81.956 90.624 81.884 90.832 81.74C91.048 81.588 91.156 81.396 91.156 81.164C91.156 80.916 91.036 80.732 90.796 80.612C90.564 80.492 90.192 80.36 89.68 80.216C89.184 80.08 88.78 79.948 88.468 79.82C88.156 79.692 87.884 79.496 87.652 79.232C87.428 78.968 87.316 78.62 87.316 78.188C87.316 77.836 87.42 77.516 87.628 77.228C87.836 76.932 88.132 76.7 88.516 76.532C88.908 76.364 89.356 76.28 89.86 76.28C90.612 76.28 91.216 76.472 91.672 76.856C92.136 77.232 92.384 77.748 92.416 78.404H91.048C91.024 78.108 90.904 77.872 90.688 77.696C90.472 77.52 90.18 77.432 89.812 77.432C89.452 77.432 89.176 77.5 88.984 77.636C88.792 77.772 88.696 77.952 88.696 78.176C88.696 78.352 88.76 78.5 88.888 78.62C89.016 78.74 89.172 78.836 89.356 78.908C89.54 78.972 89.812 79.056 90.172 79.16C90.652 79.288 91.044 79.42 91.348 79.556C91.66 79.684 91.928 79.876 92.152 80.132C92.376 80.388 92.492 80.728 92.5 81.152C92.5 81.528 92.396 81.864 92.188 82.16C91.98 82.456 91.684 82.688 91.3 82.856C90.924 83.024 90.48 83.108 89.968 83.108Z" fill="#5857AB"/>
<path d="M46.268 115.896H49.088V117H44.9V108.66H46.268V115.896ZM53.1 117.108C52.476 117.108 51.912 116.968 51.408 116.688C50.904 116.4 50.508 116 50.22 115.488C49.932 114.968 49.788 114.368 49.788 113.688C49.788 113.016 49.936 112.42 50.232 111.9C50.528 111.38 50.932 110.98 51.444 110.7C51.956 110.42 52.528 110.28 53.16 110.28C53.792 110.28 54.364 110.42 54.876 110.7C55.388 110.98 55.792 111.38 56.088 111.9C56.384 112.42 56.532 113.016 56.532 113.688C56.532 114.36 56.38 114.956 56.076 115.476C55.772 115.996 55.356 116.4 54.828 116.688C54.308 116.968 53.732 117.108 53.1 117.108ZM53.1 115.92C53.452 115.92 53.78 115.836 54.084 115.668C54.396 115.5 54.648 115.248 54.84 114.912C55.032 114.576 55.128 114.168 55.128 113.688C55.128 113.208 55.036 112.804 54.852 112.476C54.668 112.14 54.424 111.888 54.12 111.72C53.816 111.552 53.488 111.468 53.136 111.468C52.784 111.468 52.456 111.552 52.152 111.72C51.856 111.888 51.62 112.14 51.444 112.476C51.268 112.804 51.18 113.208 51.18 113.688C51.18 114.4 51.36 114.952 51.72 115.344C52.088 115.728 52.548 115.92 53.1 115.92ZM59.2524 111.348C59.4524 111.012 59.7164 110.752 60.0444 110.568C60.3804 110.376 60.7764 110.28 61.2324 110.28V111.696H60.8844C60.3484 111.696 59.9404 111.832 59.6604 112.104C59.3884 112.376 59.2524 112.848 59.2524 113.52V117H57.8844V110.388H59.2524V111.348ZM68.5498 113.532C68.5498 113.78 68.5338 114.004 68.5018 114.204H63.4498C63.4898 114.732 63.6858 115.156 64.0378 115.476C64.3898 115.796 64.8218 115.956 65.3338 115.956C66.0698 115.956 66.5898 115.648 66.8938 115.032H68.3698C68.1698 115.64 67.8058 116.14 67.2778 116.532C66.7578 116.916 66.1098 117.108 65.3338 117.108C64.7018 117.108 64.1338 116.968 63.6298 116.688C63.1338 116.4 62.7418 116 62.4538 115.488C62.1738 114.968 62.0338 114.368 62.0338 113.688C62.0338 113.008 62.1698 112.412 62.4418 111.9C62.7218 111.38 63.1098 110.98 63.6058 110.7C64.1098 110.42 64.6858 110.28 65.3338 110.28C65.9578 110.28 66.5138 110.416 67.0018 110.688C67.4898 110.96 67.8698 111.344 68.1418 111.84C68.4138 112.328 68.5498 112.892 68.5498 113.532ZM67.1218 113.1C67.1138 112.596 66.9338 112.192 66.5818 111.888C66.2298 111.584 65.7938 111.432 65.2738 111.432C64.8018 111.432 64.3978 111.584 64.0618 111.888C63.7258 112.184 63.5258 112.588 63.4618 113.1H67.1218ZM77.9001 110.28C78.4201 110.28 78.8841 110.388 79.2921 110.604C79.7081 110.82 80.0321 111.14 80.2641 111.564C80.5041 111.988 80.6241 112.5 80.6241 113.1V117H79.2681V113.304C79.2681 112.712 79.1201 112.26 78.8241 111.948C78.5281 111.628 78.1241 111.468 77.6121 111.468C77.1001 111.468 76.6921 111.628 76.3881 111.948C76.0921 112.26 75.9441 112.712 75.9441 113.304V117H74.5881V113.304C74.5881 112.712 74.4401 112.26 74.1441 111.948C73.8481 111.628 73.4441 111.468 72.9321 111.468C72.4201 111.468 72.0121 111.628 71.7081 111.948C71.4121 112.26 71.2641 112.712 71.2641 113.304V117H69.8961V110.388H71.2641V111.144C71.4881 110.872 71.7721 110.66 72.1161 110.508C72.4601 110.356 72.8281 110.28 73.2201 110.28C73.7481 110.28 74.2201 110.392 74.6361 110.616C75.0521 110.84 75.3721 111.164 75.5961 111.588C75.7961 111.188 76.1081 110.872 76.5321 110.64C76.9561 110.4 77.4121 110.28 77.9001 110.28ZM86.85 108.66V117H85.482V108.66H86.85ZM90.0141 111.36C90.2461 111.056 90.5621 110.8 90.9621 110.592C91.3621 110.384 91.8141 110.28 92.3181 110.28C92.8941 110.28 93.4181 110.424 93.8901 110.712C94.3701 110.992 94.7461 111.388 95.0181 111.9C95.2901 112.412 95.4261 113 95.4261 113.664C95.4261 114.328 95.2901 114.924 95.0181 115.452C94.7461 115.972 94.3701 116.38 93.8901 116.676C93.4181 116.964 92.8941 117.108 92.3181 117.108C91.8141 117.108 91.3661 117.008 90.9741 116.808C90.5821 116.6 90.2621 116.344 90.0141 116.04V120.144H88.6461V110.388H90.0141V111.36ZM94.0341 113.664C94.0341 113.208 93.9381 112.816 93.7461 112.488C93.5621 112.152 93.3141 111.9 93.0021 111.732C92.6981 111.556 92.3701 111.468 92.0181 111.468C91.6741 111.468 91.3461 111.556 91.0341 111.732C90.7301 111.908 90.4821 112.164 90.2901 112.5C90.1061 112.836 90.0141 113.232 90.0141 113.688C90.0141 114.144 90.1061 114.544 90.2901 114.888C90.4821 115.224 90.7301 115.48 91.0341 115.656C91.3461 115.832 91.6741 115.92 92.0181 115.92C92.3701 115.92 92.6981 115.832 93.0021 115.656C93.3141 115.472 93.5621 115.208 93.7461 114.864C93.9381 114.52 94.0341 114.12 94.0341 113.664ZM99.1789 117.108C98.6589 117.108 98.1909 117.016 97.7749 116.832C97.3669 116.64 97.0429 116.384 96.8029 116.064C96.5629 115.736 96.4349 115.372 96.4189 114.972H97.8349C97.8589 115.252 97.9909 115.488 98.2309 115.68C98.4789 115.864 98.7869 115.956 99.1549 115.956C99.5389 115.956 99.8349 115.884 100.043 115.74C100.259 115.588 100.367 115.396 100.367 115.164C100.367 114.916 100.247 114.732 100.007 114.612C99.7749 114.492 99.4029 114.36 98.8909 114.216C98.3949 114.08 97.9909 113.948 97.6789 113.82C97.3669 113.692 97.0949 113.496 96.8629 113.232C96.6389 112.968 96.5269 112.62 96.5269 112.188C96.5269 111.836 96.6309 111.516 96.8389 111.228C97.0469 110.932 97.3429 110.7 97.7269 110.532C98.1189 110.364 98.5669 110.28 99.0709 110.28C99.8229 110.28 100.427 110.472 100.883 110.856C101.347 111.232 101.595 111.748 101.627 112.404H100.259C100.235 112.108 100.115 111.872 99.8989 111.696C99.6829 111.52 99.3909 111.432 99.0229 111.432C98.6629 111.432 98.3869 111.5 98.1949 111.636C98.0029 111.772 97.9069 111.952 97.9069 112.176C97.9069 112.352 97.9709 112.5 98.0989 112.62C98.2269 112.74 98.3829 112.836 98.5669 112.908C98.7509 112.972 99.0229 113.056 99.3829 113.16C99.8629 113.288 100.255 113.42 100.559 113.556C100.871 113.684 101.139 113.876 101.363 114.132C101.587 114.388 101.703 114.728 101.711 115.152C101.711 115.528 101.607 115.864 101.399 116.16C101.191 116.456 100.895 116.688 100.511 116.856C100.135 117.024 99.6909 117.108 99.1789 117.108ZM109.177 110.388V117H107.809V116.22C107.593 116.492 107.309 116.708 106.957 116.868C106.613 117.02 106.245 117.096 105.853 117.096C105.333 117.096 104.865 116.988 104.449 116.772C104.041 116.556 103.717 116.236 103.477 115.812C103.245 115.388 103.129 114.876 103.129 114.276V110.388H104.485V114.072C104.485 114.664 104.633 115.12 104.929 115.44C105.225 115.752 105.629 115.908 106.141 115.908C106.653 115.908 107.057 115.752 107.353 115.44C107.657 115.12 107.809 114.664 107.809 114.072V110.388H109.177ZM118.986 110.28C119.506 110.28 119.97 110.388 120.378 110.604C120.794 110.82 121.118 111.14 121.35 111.564C121.59 111.988 121.71 112.5 121.71 113.1V117H120.354V113.304C120.354 112.712 120.206 112.26 119.91 111.948C119.614 111.628 119.21 111.468 118.698 111.468C118.186 111.468 117.778 111.628 117.474 111.948C117.178 112.26 117.03 112.712 117.03 113.304V117H115.674V113.304C115.674 112.712 115.526 112.26 115.23 111.948C114.934 111.628 114.53 111.468 114.018 111.468C113.506 111.468 113.098 111.628 112.794 111.948C112.498 112.26 112.35 112.712 112.35 113.304V117H110.982V110.388H112.35V111.144C112.574 110.872 112.858 110.66 113.202 110.508C113.546 110.356 113.914 110.28 114.306 110.28C114.834 110.28 115.306 110.392 115.722 110.616C116.138 110.84 116.458 111.164 116.682 111.588C116.882 111.188 117.194 110.872 117.618 110.64C118.042 110.4 118.498 110.28 118.986 110.28Z" fill="#5857AB"/>
</g>
<g filter="url(#filter1_d_3289:67439)">
<path d="M20 160C20 158.895 20.8954 158 22 158H263C264.105 158 265 158.895 265 160V342C265 343.105 264.105 344 263 344H22C20.8954 344 20 343.105 20 342V160Z" fill="white"/>
<rect x="36" y="166" width="213" height="34" rx="2" fill="#F6F8FA"/>
<path d="M48.7272 191V184.778M48.7273 181.222V175M56 191V183M56 179.444V175M63.2728 191V186.556M63.2727 183V175M46 184.778H51.4545M53.2728 179.444H58.7273M60.5454 186.556H66" stroke="#5857AB" stroke-width="2" stroke-linecap="round" stroke-linejoin="round"/>
<path d="M90.732 181.144C90.732 181.568 90.632 181.968 90.432 182.344C90.232 182.72 89.912 183.028 89.472 183.268C89.032 183.5 88.468 183.616 87.78 183.616H86.268V187H84.9V178.66H87.78C88.42 178.66 88.96 178.772 89.4 178.996C89.848 179.212 90.18 179.508 90.396 179.884C90.62 180.26 90.732 180.68 90.732 181.144ZM87.78 182.5C88.3 182.5 88.688 182.384 88.944 182.152C89.2 181.912 89.328 181.576 89.328 181.144C89.328 180.232 88.812 179.776 87.78 179.776H86.268V182.5H87.78ZM93.4047 181.348C93.6047 181.012 93.8687 180.752 94.1967 180.568C94.5327 180.376 94.9287 180.28 95.3847 180.28V181.696H95.0367C94.5007 181.696 94.0927 181.832 93.8127 182.104C93.5407 182.376 93.4047 182.848 93.4047 183.52V187H92.0367V180.388H93.4047V181.348ZM99.5102 187.108C98.8862 187.108 98.3222 186.968 97.8182 186.688C97.3142 186.4 96.9182 186 96.6302 185.488C96.3422 184.968 96.1982 184.368 96.1982 183.688C96.1982 183.016 96.3462 182.42 96.6422 181.9C96.9382 181.38 97.3422 180.98 97.8542 180.7C98.3662 180.42 98.9382 180.28 99.5702 180.28C100.202 180.28 100.774 180.42 101.286 180.7C101.798 180.98 102.202 181.38 102.498 181.9C102.794 182.42 102.942 183.016 102.942 183.688C102.942 184.36 102.79 184.956 102.486 185.476C102.182 185.996 101.766 186.4 101.238 186.688C100.718 186.968 100.142 187.108 99.5102 187.108ZM99.5102 185.92C99.8622 185.92 100.19 185.836 100.494 185.668C100.806 185.5 101.058 185.248 101.25 184.912C101.442 184.576 101.538 184.168 101.538 183.688C101.538 183.208 101.446 182.804 101.262 182.476C101.078 182.14 100.834 181.888 100.53 181.72C100.226 181.552 99.8982 181.468 99.5462 181.468C99.1942 181.468 98.8662 181.552 98.5622 181.72C98.2662 181.888 98.0302 182.14 97.8542 182.476C97.6782 182.804 97.5902 183.208 97.5902 183.688C97.5902 184.4 97.7702 184.952 98.1302 185.344C98.4982 185.728 98.9582 185.92 99.5102 185.92ZM107.067 181.504H105.843V187H104.463V181.504H103.683V180.388H104.463V179.92C104.463 179.16 104.663 178.608 105.063 178.264C105.471 177.912 106.107 177.736 106.971 177.736V178.876C106.555 178.876 106.263 178.956 106.095 179.116C105.927 179.268 105.843 179.536 105.843 179.92V180.388H107.067V181.504ZM108.975 179.512C108.727 179.512 108.519 179.428 108.351 179.26C108.183 179.092 108.099 178.884 108.099 178.636C108.099 178.388 108.183 178.18 108.351 178.012C108.519 177.844 108.727 177.76 108.975 177.76C109.215 177.76 109.419 177.844 109.587 178.012C109.755 178.18 109.839 178.388 109.839 178.636C109.839 178.884 109.755 179.092 109.587 179.26C109.419 179.428 109.215 179.512 108.975 179.512ZM109.647 180.388V187H108.279V180.388H109.647ZM112.811 178.12V187H111.443V178.12H112.811ZM120.667 183.532C120.667 183.78 120.651 184.004 120.619 184.204H115.567C115.607 184.732 115.803 185.156 116.155 185.476C116.507 185.796 116.939 185.956 117.451 185.956C118.187 185.956 118.707 185.648 119.011 185.032H120.487C120.287 185.64 119.923 186.14 119.395 186.532C118.875 186.916 118.227 187.108 117.451 187.108C116.819 187.108 116.251 186.968 115.747 186.688C115.251 186.4 114.859 186 114.571 185.488C114.291 184.968 114.151 184.368 114.151 183.688C114.151 183.008 114.287 182.412 114.559 181.9C114.839 181.38 115.227 180.98 115.723 180.7C116.227 180.42 116.803 180.28 117.451 180.28C118.075 180.28 118.631 180.416 119.119 180.688C119.607 180.96 119.987 181.344 120.259 181.84C120.531 182.328 120.667 182.892 120.667 183.532ZM119.239 183.1C119.231 182.596 119.051 182.192 118.699 181.888C118.347 181.584 117.911 181.432 117.391 181.432C116.919 181.432 116.515 181.584 116.179 181.888C115.843 182.184 115.643 182.588 115.579 183.1H119.239Z" fill="#5857AB"/>
<rect x="249" y="166" width="2" height="34" rx="1" fill="#5857AB"/>
<path d="M48.7272 225V218.778M48.7273 215.222V209M56 225V217M56 213.444V209M63.2728 225V220.556M63.2727 217V209M46 218.778H51.4545M53.2728 213.444H58.7273M60.5454 220.556H66" stroke="#5857AB" stroke-width="2" stroke-linecap="round" stroke-linejoin="round"/>
<path d="M87.648 221.084C87.088 221.084 86.584 220.988 86.136 220.796C85.688 220.596 85.336 220.316 85.08 219.956C84.824 219.596 84.696 219.176 84.696 218.696H86.16C86.192 219.056 86.332 219.352 86.58 219.584C86.836 219.816 87.192 219.932 87.648 219.932C88.12 219.932 88.488 219.82 88.752 219.596C89.016 219.364 89.148 219.068 89.148 218.708C89.148 218.428 89.064 218.2 88.896 218.024C88.736 217.848 88.532 217.712 88.284 217.616C88.044 217.52 87.708 217.416 87.276 217.304C86.732 217.16 86.288 217.016 85.944 216.872C85.608 216.72 85.32 216.488 85.08 216.176C84.84 215.864 84.72 215.448 84.72 214.928C84.72 214.448 84.84 214.028 85.08 213.668C85.32 213.308 85.656 213.032 86.088 212.84C86.52 212.648 87.02 212.552 87.588 212.552C88.396 212.552 89.056 212.756 89.568 213.164C90.088 213.564 90.376 214.116 90.432 214.82H88.92C88.896 214.516 88.752 214.256 88.488 214.04C88.224 213.824 87.876 213.716 87.444 213.716C87.052 213.716 86.732 213.816 86.484 214.016C86.236 214.216 86.112 214.504 86.112 214.88C86.112 215.136 86.188 215.348 86.34 215.516C86.5 215.676 86.7 215.804 86.94 215.9C87.18 215.996 87.508 216.1 87.924 216.212C88.476 216.364 88.924 216.516 89.268 216.668C89.62 216.82 89.916 217.056 90.156 217.376C90.404 217.688 90.528 218.108 90.528 218.636C90.528 219.06 90.412 219.46 90.18 219.836C89.956 220.212 89.624 220.516 89.184 220.748C88.752 220.972 88.24 221.084 87.648 221.084ZM98.2022 217.532C98.2022 217.78 98.1862 218.004 98.1542 218.204H93.1022C93.1422 218.732 93.3382 219.156 93.6902 219.476C94.0422 219.796 94.4742 219.956 94.9862 219.956C95.7222 219.956 96.2422 219.648 96.5462 219.032H98.0222C97.8222 219.64 97.4582 220.14 96.9302 220.532C96.4102 220.916 95.7622 221.108 94.9862 221.108C94.3542 221.108 93.7862 220.968 93.2822 220.688C92.7862 220.4 92.3942 220 92.1062 219.488C91.8262 218.968 91.6862 218.368 91.6862 217.688C91.6862 217.008 91.8222 216.412 92.0942 215.9C92.3742 215.38 92.7622 214.98 93.2582 214.7C93.7622 214.42 94.3382 214.28 94.9862 214.28C95.6102 214.28 96.1662 214.416 96.6542 214.688C97.1422 214.96 97.5222 215.344 97.7942 215.84C98.0662 216.328 98.2022 216.892 98.2022 217.532ZM96.7742 217.1C96.7662 216.596 96.5862 216.192 96.2342 215.888C95.8822 215.584 95.4462 215.432 94.9262 215.432C94.4542 215.432 94.0502 215.584 93.7142 215.888C93.3782 216.184 93.1782 216.588 93.1142 217.1H96.7742ZM101.144 215.504V219.164C101.144 219.412 101.2 219.592 101.312 219.704C101.432 219.808 101.632 219.86 101.912 219.86H102.752V221H101.672C101.056 221 100.584 220.856 100.256 220.568C99.9284 220.28 99.7644 219.812 99.7644 219.164V215.504H98.9844V214.388H99.7644V212.744H101.144V214.388H102.752V215.504H101.144ZM105.609 215.504V219.164C105.609 219.412 105.665 219.592 105.777 219.704C105.897 219.808 106.097 219.86 106.377 219.86H107.217V221H106.137C105.521 221 105.049 220.856 104.721 220.568C104.393 220.28 104.229 219.812 104.229 219.164V215.504H103.449V214.388H104.229V212.744H105.609V214.388H107.217V215.504H105.609ZM109.174 213.512C108.926 213.512 108.718 213.428 108.55 213.26C108.382 213.092 108.298 212.884 108.298 212.636C108.298 212.388 108.382 212.18 108.55 212.012C108.718 211.844 108.926 211.76 109.174 211.76C109.414 211.76 109.618 211.844 109.786 212.012C109.954 212.18 110.038 212.388 110.038 212.636C110.038 212.884 109.954 213.092 109.786 213.26C109.618 213.428 109.414 213.512 109.174 213.512ZM109.846 214.388V221H108.478V214.388H109.846ZM114.978 214.28C115.498 214.28 115.962 214.388 116.37 214.604C116.786 214.82 117.11 215.14 117.342 215.564C117.574 215.988 117.69 216.5 117.69 217.1V221H116.334V217.304C116.334 216.712 116.186 216.26 115.89 215.948C115.594 215.628 115.19 215.468 114.678 215.468C114.166 215.468 113.758 215.628 113.454 215.948C113.158 216.26 113.01 216.712 113.01 217.304V221H111.642V214.388H113.01V215.144C113.234 214.872 113.518 214.66 113.862 214.508C114.214 214.356 114.586 214.28 114.978 214.28ZM122.099 214.28C122.611 214.28 123.063 214.384 123.455 214.592C123.855 214.792 124.167 215.044 124.391 215.348V214.388H125.771V221.108C125.771 221.716 125.643 222.256 125.387 222.728C125.131 223.208 124.759 223.584 124.271 223.856C123.791 224.128 123.215 224.264 122.543 224.264C121.647 224.264 120.903 224.052 120.311 223.628C119.719 223.212 119.383 222.644 119.303 221.924H120.659C120.763 222.268 120.983 222.544 121.319 222.752C121.663 222.968 122.071 223.076 122.543 223.076C123.095 223.076 123.539 222.908 123.875 222.572C124.219 222.236 124.391 221.748 124.391 221.108V220.004C124.159 220.316 123.843 220.58 123.443 220.796C123.051 221.004 122.603 221.108 122.099 221.108C121.523 221.108 120.995 220.964 120.515 220.676C120.043 220.38 119.667 219.972 119.387 219.452C119.115 218.924 118.979 218.328 118.979 217.664C118.979 217 119.115 216.412 119.387 215.9C119.667 215.388 120.043 214.992 120.515 214.712C120.995 214.424 121.523 214.28 122.099 214.28ZM124.391 217.688C124.391 217.232 124.295 216.836 124.103 216.5C123.919 216.164 123.675 215.908 123.371 215.732C123.067 215.556 122.739 215.468 122.387 215.468C122.035 215.468 121.707 215.556 121.403 215.732C121.099 215.9 120.851 216.152 120.659 216.488C120.475 216.816 120.383 217.208 120.383 217.664C120.383 218.12 120.475 218.52 120.659 218.864C120.851 219.208 121.099 219.472 121.403 219.656C121.715 219.832 122.043 219.92 122.387 219.92C122.739 219.92 123.067 219.832 123.371 219.656C123.675 219.48 123.919 219.224 124.103 218.888C124.295 218.544 124.391 218.144 124.391 217.688ZM129.968 221.108C129.448 221.108 128.98 221.016 128.564 220.832C128.156 220.64 127.832 220.384 127.592 220.064C127.352 219.736 127.224 219.372 127.208 218.972H128.624C128.648 219.252 128.78 219.488 129.02 219.68C129.268 219.864 129.576 219.956 129.944 219.956C130.328 219.956 130.624 219.884 130.832 219.74C131.048 219.588 131.156 219.396 131.156 219.164C131.156 218.916 131.036 218.732 130.796 218.612C130.564 218.492 130.192 218.36 129.68 218.216C129.184 218.08 128.78 217.948 128.468 217.82C128.156 217.692 127.884 217.496 127.652 217.232C127.428 216.968 127.316 216.62 127.316 216.188C127.316 215.836 127.42 215.516 127.628 215.228C127.836 214.932 128.132 214.7 128.516 214.532C128.908 214.364 129.356 214.28 129.86 214.28C130.612 214.28 131.216 214.472 131.672 214.856C132.136 215.232 132.384 215.748 132.416 216.404H131.048C131.024 216.108 130.904 215.872 130.688 215.696C130.472 215.52 130.18 215.432 129.812 215.432C129.452 215.432 129.176 215.5 128.984 215.636C128.792 215.772 128.696 215.952 128.696 216.176C128.696 216.352 128.76 216.5 128.888 216.62C129.016 216.74 129.172 216.836 129.356 216.908C129.54 216.972 129.812 217.056 130.172 217.16C130.652 217.288 131.044 217.42 131.348 217.556C131.66 217.684 131.928 217.876 132.152 218.132C132.376 218.388 132.492 218.728 132.5 219.152C132.5 219.528 132.396 219.864 132.188 220.16C131.98 220.456 131.684 220.688 131.3 220.856C130.924 221.024 130.48 221.108 129.968 221.108Z" fill="#5857AB"/>
<path d="M48.7272 259V252.778M48.7273 249.222V243M56 259V251M56 247.444V243M63.2728 259V254.556M63.2727 251V243M46 252.778H51.4545M53.2728 247.444H58.7273M60.5454 254.556H66" stroke="#5857AB" stroke-width="2" stroke-linecap="round" stroke-linejoin="round"/>
<path d="M87.648 255.084C87.088 255.084 86.584 254.988 86.136 254.796C85.688 254.596 85.336 254.316 85.08 253.956C84.824 253.596 84.696 253.176 84.696 252.696H86.16C86.192 253.056 86.332 253.352 86.58 253.584C86.836 253.816 87.192 253.932 87.648 253.932C88.12 253.932 88.488 253.82 88.752 253.596C89.016 253.364 89.148 253.068 89.148 252.708C89.148 252.428 89.064 252.2 88.896 252.024C88.736 251.848 88.532 251.712 88.284 251.616C88.044 251.52 87.708 251.416 87.276 251.304C86.732 251.16 86.288 251.016 85.944 250.872C85.608 250.72 85.32 250.488 85.08 250.176C84.84 249.864 84.72 249.448 84.72 248.928C84.72 248.448 84.84 248.028 85.08 247.668C85.32 247.308 85.656 247.032 86.088 246.84C86.52 246.648 87.02 246.552 87.588 246.552C88.396 246.552 89.056 246.756 89.568 247.164C90.088 247.564 90.376 248.116 90.432 248.82H88.92C88.896 248.516 88.752 248.256 88.488 248.04C88.224 247.824 87.876 247.716 87.444 247.716C87.052 247.716 86.732 247.816 86.484 248.016C86.236 248.216 86.112 248.504 86.112 248.88C86.112 249.136 86.188 249.348 86.34 249.516C86.5 249.676 86.7 249.804 86.94 249.9C87.18 249.996 87.508 250.1 87.924 250.212C88.476 250.364 88.924 250.516 89.268 250.668C89.62 250.82 89.916 251.056 90.156 251.376C90.404 251.688 90.528 252.108 90.528 252.636C90.528 253.06 90.412 253.46 90.18 253.836C89.956 254.212 89.624 254.516 89.184 254.748C88.752 254.972 88.24 255.084 87.648 255.084ZM98.2022 251.532C98.2022 251.78 98.1862 252.004 98.1542 252.204H93.1022C93.1422 252.732 93.3382 253.156 93.6902 253.476C94.0422 253.796 94.4742 253.956 94.9862 253.956C95.7222 253.956 96.2422 253.648 96.5462 253.032H98.0222C97.8222 253.64 97.4582 254.14 96.9302 254.532C96.4102 254.916 95.7622 255.108 94.9862 255.108C94.3542 255.108 93.7862 254.968 93.2822 254.688C92.7862 254.4 92.3942 254 92.1062 253.488C91.8262 252.968 91.6862 252.368 91.6862 251.688C91.6862 251.008 91.8222 250.412 92.0942 249.9C92.3742 249.38 92.7622 248.98 93.2582 248.7C93.7622 248.42 94.3382 248.28 94.9862 248.28C95.6102 248.28 96.1662 248.416 96.6542 248.688C97.1422 248.96 97.5222 249.344 97.7942 249.84C98.0662 250.328 98.2022 250.892 98.2022 251.532ZM96.7742 251.1C96.7662 250.596 96.5862 250.192 96.2342 249.888C95.8822 249.584 95.4462 249.432 94.9262 249.432C94.4542 249.432 94.0502 249.584 93.7142 249.888C93.3782 250.184 93.1782 250.588 93.1142 251.1H96.7742ZM101.144 249.504V253.164C101.144 253.412 101.2 253.592 101.312 253.704C101.432 253.808 101.632 253.86 101.912 253.86H102.752V255H101.672C101.056 255 100.584 254.856 100.256 254.568C99.9284 254.28 99.7644 253.812 99.7644 253.164V249.504H98.9844V248.388H99.7644V246.744H101.144V248.388H102.752V249.504H101.144ZM105.609 249.504V253.164C105.609 253.412 105.665 253.592 105.777 253.704C105.897 253.808 106.097 253.86 106.377 253.86H107.217V255H106.137C105.521 255 105.049 254.856 104.721 254.568C104.393 254.28 104.229 253.812 104.229 253.164V249.504H103.449V248.388H104.229V246.744H105.609V248.388H107.217V249.504H105.609ZM109.174 247.512C108.926 247.512 108.718 247.428 108.55 247.26C108.382 247.092 108.298 246.884 108.298 246.636C108.298 246.388 108.382 246.18 108.55 246.012C108.718 245.844 108.926 245.76 109.174 245.76C109.414 245.76 109.618 245.844 109.786 246.012C109.954 246.18 110.038 246.388 110.038 246.636C110.038 246.884 109.954 247.092 109.786 247.26C109.618 247.428 109.414 247.512 109.174 247.512ZM109.846 248.388V255H108.478V248.388H109.846ZM114.978 248.28C115.498 248.28 115.962 248.388 116.37 248.604C116.786 248.82 117.11 249.14 117.342 249.564C117.574 249.988 117.69 250.5 117.69 251.1V255H116.334V251.304C116.334 250.712 116.186 250.26 115.89 249.948C115.594 249.628 115.19 249.468 114.678 249.468C114.166 249.468 113.758 249.628 113.454 249.948C113.158 250.26 113.01 250.712 113.01 251.304V255H111.642V248.388H113.01V249.144C113.234 248.872 113.518 248.66 113.862 248.508C114.214 248.356 114.586 248.28 114.978 248.28ZM122.099 248.28C122.611 248.28 123.063 248.384 123.455 248.592C123.855 248.792 124.167 249.044 124.391 249.348V248.388H125.771V255.108C125.771 255.716 125.643 256.256 125.387 256.728C125.131 257.208 124.759 257.584 124.271 257.856C123.791 258.128 123.215 258.264 122.543 258.264C121.647 258.264 120.903 258.052 120.311 257.628C119.719 257.212 119.383 256.644 119.303 255.924H120.659C120.763 256.268 120.983 256.544 121.319 256.752C121.663 256.968 122.071 257.076 122.543 257.076C123.095 257.076 123.539 256.908 123.875 256.572C124.219 256.236 124.391 255.748 124.391 255.108V254.004C124.159 254.316 123.843 254.58 123.443 254.796C123.051 255.004 122.603 255.108 122.099 255.108C121.523 255.108 120.995 254.964 120.515 254.676C120.043 254.38 119.667 253.972 119.387 253.452C119.115 252.924 118.979 252.328 118.979 251.664C118.979 251 119.115 250.412 119.387 249.9C119.667 249.388 120.043 248.992 120.515 248.712C120.995 248.424 121.523 248.28 122.099 248.28ZM124.391 251.688C124.391 251.232 124.295 250.836 124.103 250.5C123.919 250.164 123.675 249.908 123.371 249.732C123.067 249.556 122.739 249.468 122.387 249.468C122.035 249.468 121.707 249.556 121.403 249.732C121.099 249.9 120.851 250.152 120.659 250.488C120.475 250.816 120.383 251.208 120.383 251.664C120.383 252.12 120.475 252.52 120.659 252.864C120.851 253.208 121.099 253.472 121.403 253.656C121.715 253.832 122.043 253.92 122.387 253.92C122.739 253.92 123.067 253.832 123.371 253.656C123.675 253.48 123.919 253.224 124.103 252.888C124.295 252.544 124.391 252.144 124.391 251.688ZM129.968 255.108C129.448 255.108 128.98 255.016 128.564 254.832C128.156 254.64 127.832 254.384 127.592 254.064C127.352 253.736 127.224 253.372 127.208 252.972H128.624C128.648 253.252 128.78 253.488 129.02 253.68C129.268 253.864 129.576 253.956 129.944 253.956C130.328 253.956 130.624 253.884 130.832 253.74C131.048 253.588 131.156 253.396 131.156 253.164C131.156 252.916 131.036 252.732 130.796 252.612C130.564 252.492 130.192 252.36 129.68 252.216C129.184 252.08 128.78 251.948 128.468 251.82C128.156 251.692 127.884 251.496 127.652 251.232C127.428 250.968 127.316 250.62 127.316 250.188C127.316 249.836 127.42 249.516 127.628 249.228C127.836 248.932 128.132 248.7 128.516 248.532C128.908 248.364 129.356 248.28 129.86 248.28C130.612 248.28 131.216 248.472 131.672 248.856C132.136 249.232 132.384 249.748 132.416 250.404H131.048C131.024 250.108 130.904 249.872 130.688 249.696C130.472 249.52 130.18 249.432 129.812 249.432C129.452 249.432 129.176 249.5 128.984 249.636C128.792 249.772 128.696 249.952 128.696 250.176C128.696 250.352 128.76 250.5 128.888 250.62C129.016 250.74 129.172 250.836 129.356 250.908C129.54 250.972 129.812 251.056 130.172 251.16C130.652 251.288 131.044 251.42 131.348 251.556C131.66 251.684 131.928 251.876 132.152 252.132C132.376 252.388 132.492 252.728 132.5 253.152C132.5 253.528 132.396 253.864 132.188 254.16C131.98 254.456 131.684 254.688 131.3 254.856C130.924 255.024 130.48 255.108 129.968 255.108Z" fill="#5857AB"/>
<path d="M48.7272 293V286.778M48.7273 283.222V277M56 293V285M56 281.444V277M63.2728 293V288.556M63.2727 285V277M46 286.778H51.4545M53.2728 281.444H58.7273M60.5454 288.556H66" stroke="#5857AB" stroke-width="2" stroke-linecap="round" stroke-linejoin="round"/>
<path d="M87.648 289.084C87.088 289.084 86.584 288.988 86.136 288.796C85.688 288.596 85.336 288.316 85.08 287.956C84.824 287.596 84.696 287.176 84.696 286.696H86.16C86.192 287.056 86.332 287.352 86.58 287.584C86.836 287.816 87.192 287.932 87.648 287.932C88.12 287.932 88.488 287.82 88.752 287.596C89.016 287.364 89.148 287.068 89.148 286.708C89.148 286.428 89.064 286.2 88.896 286.024C88.736 285.848 88.532 285.712 88.284 285.616C88.044 285.52 87.708 285.416 87.276 285.304C86.732 285.16 86.288 285.016 85.944 284.872C85.608 284.72 85.32 284.488 85.08 284.176C84.84 283.864 84.72 283.448 84.72 282.928C84.72 282.448 84.84 282.028 85.08 281.668C85.32 281.308 85.656 281.032 86.088 280.84C86.52 280.648 87.02 280.552 87.588 280.552C88.396 280.552 89.056 280.756 89.568 281.164C90.088 281.564 90.376 282.116 90.432 282.82H88.92C88.896 282.516 88.752 282.256 88.488 282.04C88.224 281.824 87.876 281.716 87.444 281.716C87.052 281.716 86.732 281.816 86.484 282.016C86.236 282.216 86.112 282.504 86.112 282.88C86.112 283.136 86.188 283.348 86.34 283.516C86.5 283.676 86.7 283.804 86.94 283.9C87.18 283.996 87.508 284.1 87.924 284.212C88.476 284.364 88.924 284.516 89.268 284.668C89.62 284.82 89.916 285.056 90.156 285.376C90.404 285.688 90.528 286.108 90.528 286.636C90.528 287.06 90.412 287.46 90.18 287.836C89.956 288.212 89.624 288.516 89.184 288.748C88.752 288.972 88.24 289.084 87.648 289.084ZM98.2022 285.532C98.2022 285.78 98.1862 286.004 98.1542 286.204H93.1022C93.1422 286.732 93.3382 287.156 93.6902 287.476C94.0422 287.796 94.4742 287.956 94.9862 287.956C95.7222 287.956 96.2422 287.648 96.5462 287.032H98.0222C97.8222 287.64 97.4582 288.14 96.9302 288.532C96.4102 288.916 95.7622 289.108 94.9862 289.108C94.3542 289.108 93.7862 288.968 93.2822 288.688C92.7862 288.4 92.3942 288 92.1062 287.488C91.8262 286.968 91.6862 286.368 91.6862 285.688C91.6862 285.008 91.8222 284.412 92.0942 283.9C92.3742 283.38 92.7622 282.98 93.2582 282.7C93.7622 282.42 94.3382 282.28 94.9862 282.28C95.6102 282.28 96.1662 282.416 96.6542 282.688C97.1422 282.96 97.5222 283.344 97.7942 283.84C98.0662 284.328 98.2022 284.892 98.2022 285.532ZM96.7742 285.1C96.7662 284.596 96.5862 284.192 96.2342 283.888C95.8822 283.584 95.4462 283.432 94.9262 283.432C94.4542 283.432 94.0502 283.584 93.7142 283.888C93.3782 284.184 93.1782 284.588 93.1142 285.1H96.7742ZM101.144 283.504V287.164C101.144 287.412 101.2 287.592 101.312 287.704C101.432 287.808 101.632 287.86 101.912 287.86H102.752V289H101.672C101.056 289 100.584 288.856 100.256 288.568C99.9284 288.28 99.7644 287.812 99.7644 287.164V283.504H98.9844V282.388H99.7644V280.744H101.144V282.388H102.752V283.504H101.144ZM105.609 283.504V287.164C105.609 287.412 105.665 287.592 105.777 287.704C105.897 287.808 106.097 287.86 106.377 287.86H107.217V289H106.137C105.521 289 105.049 288.856 104.721 288.568C104.393 288.28 104.229 287.812 104.229 287.164V283.504H103.449V282.388H104.229V280.744H105.609V282.388H107.217V283.504H105.609ZM109.174 281.512C108.926 281.512 108.718 281.428 108.55 281.26C108.382 281.092 108.298 280.884 108.298 280.636C108.298 280.388 108.382 280.18 108.55 280.012C108.718 279.844 108.926 279.76 109.174 279.76C109.414 279.76 109.618 279.844 109.786 280.012C109.954 280.18 110.038 280.388 110.038 280.636C110.038 280.884 109.954 281.092 109.786 281.26C109.618 281.428 109.414 281.512 109.174 281.512ZM109.846 282.388V289H108.478V282.388H109.846ZM114.978 282.28C115.498 282.28 115.962 282.388 116.37 282.604C116.786 282.82 117.11 283.14 117.342 283.564C117.574 283.988 117.69 284.5 117.69 285.1V289H116.334V285.304C116.334 284.712 116.186 284.26 115.89 283.948C115.594 283.628 115.19 283.468 114.678 283.468C114.166 283.468 113.758 283.628 113.454 283.948C113.158 284.26 113.01 284.712 113.01 285.304V289H111.642V282.388H113.01V283.144C113.234 282.872 113.518 282.66 113.862 282.508C114.214 282.356 114.586 282.28 114.978 282.28ZM122.099 282.28C122.611 282.28 123.063 282.384 123.455 282.592C123.855 282.792 124.167 283.044 124.391 283.348V282.388H125.771V289.108C125.771 289.716 125.643 290.256 125.387 290.728C125.131 291.208 124.759 291.584 124.271 291.856C123.791 292.128 123.215 292.264 122.543 292.264C121.647 292.264 120.903 292.052 120.311 291.628C119.719 291.212 119.383 290.644 119.303 289.924H120.659C120.763 290.268 120.983 290.544 121.319 290.752C121.663 290.968 122.071 291.076 122.543 291.076C123.095 291.076 123.539 290.908 123.875 290.572C124.219 290.236 124.391 289.748 124.391 289.108V288.004C124.159 288.316 123.843 288.58 123.443 288.796C123.051 289.004 122.603 289.108 122.099 289.108C121.523 289.108 120.995 288.964 120.515 288.676C120.043 288.38 119.667 287.972 119.387 287.452C119.115 286.924 118.979 286.328 118.979 285.664C118.979 285 119.115 284.412 119.387 283.9C119.667 283.388 120.043 282.992 120.515 282.712C120.995 282.424 121.523 282.28 122.099 282.28ZM124.391 285.688C124.391 285.232 124.295 284.836 124.103 284.5C123.919 284.164 123.675 283.908 123.371 283.732C123.067 283.556 122.739 283.468 122.387 283.468C122.035 283.468 121.707 283.556 121.403 283.732C121.099 283.9 120.851 284.152 120.659 284.488C120.475 284.816 120.383 285.208 120.383 285.664C120.383 286.12 120.475 286.52 120.659 286.864C120.851 287.208 121.099 287.472 121.403 287.656C121.715 287.832 122.043 287.92 122.387 287.92C122.739 287.92 123.067 287.832 123.371 287.656C123.675 287.48 123.919 287.224 124.103 286.888C124.295 286.544 124.391 286.144 124.391 285.688ZM129.968 289.108C129.448 289.108 128.98 289.016 128.564 288.832C128.156 288.64 127.832 288.384 127.592 288.064C127.352 287.736 127.224 287.372 127.208 286.972H128.624C128.648 287.252 128.78 287.488 129.02 287.68C129.268 287.864 129.576 287.956 129.944 287.956C130.328 287.956 130.624 287.884 130.832 287.74C131.048 287.588 131.156 287.396 131.156 287.164C131.156 286.916 131.036 286.732 130.796 286.612C130.564 286.492 130.192 286.36 129.68 286.216C129.184 286.08 128.78 285.948 128.468 285.82C128.156 285.692 127.884 285.496 127.652 285.232C127.428 284.968 127.316 284.62 127.316 284.188C127.316 283.836 127.42 283.516 127.628 283.228C127.836 282.932 128.132 282.7 128.516 282.532C128.908 282.364 129.356 282.28 129.86 282.28C130.612 282.28 131.216 282.472 131.672 282.856C132.136 283.232 132.384 283.748 132.416 284.404H131.048C131.024 284.108 130.904 283.872 130.688 283.696C130.472 283.52 130.18 283.432 129.812 283.432C129.452 283.432 129.176 283.5 128.984 283.636C128.792 283.772 128.696 283.952 128.696 284.176C128.696 284.352 128.76 284.5 128.888 284.62C129.016 284.74 129.172 284.836 129.356 284.908C129.54 284.972 129.812 285.056 130.172 285.16C130.652 285.288 131.044 285.42 131.348 285.556C131.66 285.684 131.928 285.876 132.152 286.132C132.376 286.388 132.492 286.728 132.5 287.152C132.5 287.528 132.396 287.864 132.188 288.16C131.98 288.456 131.684 288.688 131.3 288.856C130.924 289.024 130.48 289.108 129.968 289.108Z" fill="#5857AB"/>
<path d="M48.7272 327V320.778M48.7273 317.222V311M56 327V319M56 315.444V311M63.2728 327V322.556M63.2727 319V311M46 320.778H51.4545M53.2728 315.444H58.7273M60.5454 322.556H66" stroke="#5857AB" stroke-width="2" stroke-linecap="round" stroke-linejoin="round"/>
<path d="M87.648 323.084C87.088 323.084 86.584 322.988 86.136 322.796C85.688 322.596 85.336 322.316 85.08 321.956C84.824 321.596 84.696 321.176 84.696 320.696H86.16C86.192 321.056 86.332 321.352 86.58 321.584C86.836 321.816 87.192 321.932 87.648 321.932C88.12 321.932 88.488 321.82 88.752 321.596C89.016 321.364 89.148 321.068 89.148 320.708C89.148 320.428 89.064 320.2 88.896 320.024C88.736 319.848 88.532 319.712 88.284 319.616C88.044 319.52 87.708 319.416 87.276 319.304C86.732 319.16 86.288 319.016 85.944 318.872C85.608 318.72 85.32 318.488 85.08 318.176C84.84 317.864 84.72 317.448 84.72 316.928C84.72 316.448 84.84 316.028 85.08 315.668C85.32 315.308 85.656 315.032 86.088 314.84C86.52 314.648 87.02 314.552 87.588 314.552C88.396 314.552 89.056 314.756 89.568 315.164C90.088 315.564 90.376 316.116 90.432 316.82H88.92C88.896 316.516 88.752 316.256 88.488 316.04C88.224 315.824 87.876 315.716 87.444 315.716C87.052 315.716 86.732 315.816 86.484 316.016C86.236 316.216 86.112 316.504 86.112 316.88C86.112 317.136 86.188 317.348 86.34 317.516C86.5 317.676 86.7 317.804 86.94 317.9C87.18 317.996 87.508 318.1 87.924 318.212C88.476 318.364 88.924 318.516 89.268 318.668C89.62 318.82 89.916 319.056 90.156 319.376C90.404 319.688 90.528 320.108 90.528 320.636C90.528 321.06 90.412 321.46 90.18 321.836C89.956 322.212 89.624 322.516 89.184 322.748C88.752 322.972 88.24 323.084 87.648 323.084ZM98.2022 319.532C98.2022 319.78 98.1862 320.004 98.1542 320.204H93.1022C93.1422 320.732 93.3382 321.156 93.6902 321.476C94.0422 321.796 94.4742 321.956 94.9862 321.956C95.7222 321.956 96.2422 321.648 96.5462 321.032H98.0222C97.8222 321.64 97.4582 322.14 96.9302 322.532C96.4102 322.916 95.7622 323.108 94.9862 323.108C94.3542 323.108 93.7862 322.968 93.2822 322.688C92.7862 322.4 92.3942 322 92.1062 321.488C91.8262 320.968 91.6862 320.368 91.6862 319.688C91.6862 319.008 91.8222 318.412 92.0942 317.9C92.3742 317.38 92.7622 316.98 93.2582 316.7C93.7622 316.42 94.3382 316.28 94.9862 316.28C95.6102 316.28 96.1662 316.416 96.6542 316.688C97.1422 316.96 97.5222 317.344 97.7942 317.84C98.0662 318.328 98.2022 318.892 98.2022 319.532ZM96.7742 319.1C96.7662 318.596 96.5862 318.192 96.2342 317.888C95.8822 317.584 95.4462 317.432 94.9262 317.432C94.4542 317.432 94.0502 317.584 93.7142 317.888C93.3782 318.184 93.1782 318.588 93.1142 319.1H96.7742ZM101.144 317.504V321.164C101.144 321.412 101.2 321.592 101.312 321.704C101.432 321.808 101.632 321.86 101.912 321.86H102.752V323H101.672C101.056 323 100.584 322.856 100.256 322.568C99.9284 322.28 99.7644 321.812 99.7644 321.164V317.504H98.9844V316.388H99.7644V314.744H101.144V316.388H102.752V317.504H101.144ZM105.609 317.504V321.164C105.609 321.412 105.665 321.592 105.777 321.704C105.897 321.808 106.097 321.86 106.377 321.86H107.217V323H106.137C105.521 323 105.049 322.856 104.721 322.568C104.393 322.28 104.229 321.812 104.229 321.164V317.504H103.449V316.388H104.229V314.744H105.609V316.388H107.217V317.504H105.609ZM109.174 315.512C108.926 315.512 108.718 315.428 108.55 315.26C108.382 315.092 108.298 314.884 108.298 314.636C108.298 314.388 108.382 314.18 108.55 314.012C108.718 313.844 108.926 313.76 109.174 313.76C109.414 313.76 109.618 313.844 109.786 314.012C109.954 314.18 110.038 314.388 110.038 314.636C110.038 314.884 109.954 315.092 109.786 315.26C109.618 315.428 109.414 315.512 109.174 315.512ZM109.846 316.388V323H108.478V316.388H109.846ZM114.978 316.28C115.498 316.28 115.962 316.388 116.37 316.604C116.786 316.82 117.11 317.14 117.342 317.564C117.574 317.988 117.69 318.5 117.69 319.1V323H116.334V319.304C116.334 318.712 116.186 318.26 115.89 317.948C115.594 317.628 115.19 317.468 114.678 317.468C114.166 317.468 113.758 317.628 113.454 317.948C113.158 318.26 113.01 318.712 113.01 319.304V323H111.642V316.388H113.01V317.144C113.234 316.872 113.518 316.66 113.862 316.508C114.214 316.356 114.586 316.28 114.978 316.28ZM122.099 316.28C122.611 316.28 123.063 316.384 123.455 316.592C123.855 316.792 124.167 317.044 124.391 317.348V316.388H125.771V323.108C125.771 323.716 125.643 324.256 125.387 324.728C125.131 325.208 124.759 325.584 124.271 325.856C123.791 326.128 123.215 326.264 122.543 326.264C121.647 326.264 120.903 326.052 120.311 325.628C119.719 325.212 119.383 324.644 119.303 323.924H120.659C120.763 324.268 120.983 324.544 121.319 324.752C121.663 324.968 122.071 325.076 122.543 325.076C123.095 325.076 123.539 324.908 123.875 324.572C124.219 324.236 124.391 323.748 124.391 323.108V322.004C124.159 322.316 123.843 322.58 123.443 322.796C123.051 323.004 122.603 323.108 122.099 323.108C121.523 323.108 120.995 322.964 120.515 322.676C120.043 322.38 119.667 321.972 119.387 321.452C119.115 320.924 118.979 320.328 118.979 319.664C118.979 319 119.115 318.412 119.387 317.9C119.667 317.388 120.043 316.992 120.515 316.712C120.995 316.424 121.523 316.28 122.099 316.28ZM124.391 319.688C124.391 319.232 124.295 318.836 124.103 318.5C123.919 318.164 123.675 317.908 123.371 317.732C123.067 317.556 122.739 317.468 122.387 317.468C122.035 317.468 121.707 317.556 121.403 317.732C121.099 317.9 120.851 318.152 120.659 318.488C120.475 318.816 120.383 319.208 120.383 319.664C120.383 320.12 120.475 320.52 120.659 320.864C120.851 321.208 121.099 321.472 121.403 321.656C121.715 321.832 122.043 321.92 122.387 321.92C122.739 321.92 123.067 321.832 123.371 321.656C123.675 321.48 123.919 321.224 124.103 320.888C124.295 320.544 124.391 320.144 124.391 319.688ZM129.968 323.108C129.448 323.108 128.98 323.016 128.564 322.832C128.156 322.64 127.832 322.384 127.592 322.064C127.352 321.736 127.224 321.372 127.208 320.972H128.624C128.648 321.252 128.78 321.488 129.02 321.68C129.268 321.864 129.576 321.956 129.944 321.956C130.328 321.956 130.624 321.884 130.832 321.74C131.048 321.588 131.156 321.396 131.156 321.164C131.156 320.916 131.036 320.732 130.796 320.612C130.564 320.492 130.192 320.36 129.68 320.216C129.184 320.08 128.78 319.948 128.468 319.82C128.156 319.692 127.884 319.496 127.652 319.232C127.428 318.968 127.316 318.62 127.316 318.188C127.316 317.836 127.42 317.516 127.628 317.228C127.836 316.932 128.132 316.7 128.516 316.532C128.908 316.364 129.356 316.28 129.86 316.28C130.612 316.28 131.216 316.472 131.672 316.856C132.136 317.232 132.384 317.748 132.416 318.404H131.048C131.024 318.108 130.904 317.872 130.688 317.696C130.472 317.52 130.18 317.432 129.812 317.432C129.452 317.432 129.176 317.5 128.984 317.636C128.792 317.772 128.696 317.952 128.696 318.176C128.696 318.352 128.76 318.5 128.888 318.62C129.016 318.74 129.172 318.836 129.356 318.908C129.54 318.972 129.812 319.056 130.172 319.16C130.652 319.288 131.044 319.42 131.348 319.556C131.66 319.684 131.928 319.876 132.152 320.132C132.376 320.388 132.492 320.728 132.5 321.152C132.5 321.528 132.396 321.864 132.188 322.16C131.98 322.456 131.684 322.688 131.3 322.856C130.924 323.024 130.48 323.108 129.968 323.108Z" fill="#5857AB"/>
</g>
<rect x="0.5" y="0.5" width="284" height="418" rx="4.5" stroke="#7B61FF" stroke-dasharray="10 5"/>
<defs>
<filter id="filter0_d_3289:67439" x="10" y="12" width="265" height="138" filterUnits="userSpaceOnUse" color-interpolation-filters="sRGB">
<feFlood flood-opacity="0" result="BackgroundImageFix"/>
<feColorMatrix in="SourceAlpha" type="matrix" values="0 0 0 0 0 0 0 0 0 0 0 0 0 0 0 0 0 0 127 0" result="hardAlpha"/>
<feOffset dy="2"/>
<feGaussianBlur stdDeviation="5"/>
<feColorMatrix type="matrix" values="0 0 0 0 0 0 0 0 0 0 0 0 0 0 0 0 0 0 0.05 0"/>
<feBlend mode="normal" in2="BackgroundImageFix" result="effect1_dropShadow_3289:67439"/>
<feBlend mode="normal" in="SourceGraphic" in2="effect1_dropShadow_3289:67439" result="shape"/>
</filter>
<filter id="filter1_d_3289:67439" x="10" y="150" width="265" height="206" filterUnits="userSpaceOnUse" color-interpolation-filters="sRGB">
<feFlood flood-opacity="0" result="BackgroundImageFix"/>
<feColorMatrix in="SourceAlpha" type="matrix" values="0 0 0 0 0 0 0 0 0 0 0 0 0 0 0 0 0 0 127 0" result="hardAlpha"/>
<feOffset dy="2"/>
<feGaussianBlur stdDeviation="5"/>
<feColorMatrix type="matrix" values="0 0 0 0 0 0 0 0 0 0 0 0 0 0 0 0 0 0 0.05 0"/>
<feBlend mode="normal" in2="BackgroundImageFix" result="effect1_dropShadow_3289:67439"/>
<feBlend mode="normal" in="SourceGraphic" in2="effect1_dropShadow_3289:67439" result="shape"/>
</filter>
</defs>
</svg>
