<svg width="344" height="136" viewBox="0 0 344 136" fill="none" xmlns="http://www.w3.org/2000/svg">
<path d="M0 19C0 10.1634 7.16344 3 16 3H320C328.837 3 336 10.1634 336 19V121C336 122.105 335.105 123 334 123H1.99999C0.895423 123 0 122.105 0 121V19Z" fill="#252473"/>
<path d="M13.6801 81.4543C13.6801 82.2301 13.9387 82.8397 14.4559 83.283C14.9731 83.7079 15.5181 83.9203 16.0907 83.9203C16.6818 83.9203 17.2267 83.754 17.7255 83.4215C18.2427 83.0706 18.6583 82.8951 18.9723 82.8951C19.5265 82.8951 20.2007 83.3846 20.995 84.3636C21.4198 84.8993 21.6323 85.3796 21.6323 85.8044C21.6323 86.5064 21.1243 87.1621 20.1083 87.7717C19.0554 88.5106 17.7624 88.88 16.2292 88.88C14.5113 88.88 12.8581 88.2612 11.2695 87.0236C10.5122 86.4325 9.89337 85.6474 9.4131 84.6684C8.93283 83.6709 8.6927 82.5811 8.6927 81.3989C8.6927 80.1982 8.93283 79.1176 9.4131 78.157C9.89337 77.178 10.5122 76.393 11.2695 75.8019C12.8027 74.5827 14.4375 73.9732 16.1738 73.9732C16.8758 73.9732 17.5592 74.0748 18.2242 74.2779C18.8892 74.4627 19.3787 74.6474 19.6927 74.8321L20.136 75.1092C20.4685 75.3308 20.7271 75.5063 20.9119 75.6356C21.3921 76.0051 21.6323 76.4299 21.6323 76.9102C21.6323 77.372 21.4383 77.8984 21.0504 78.4895C20.3854 79.5055 19.7481 80.0135 19.1386 80.0135C18.7876 80.0135 18.2889 79.8103 17.6423 79.4039C17.3098 79.0899 16.8296 78.9329 16.2015 78.9329C15.592 78.9329 15.0193 79.1545 14.4836 79.5979C13.948 80.0412 13.6801 80.66 13.6801 81.4543ZM32.8983 75.6911C33.0092 74.6566 33.7388 74.1394 35.0873 74.1394C35.8077 74.1394 36.3433 74.1948 36.6943 74.3057C37.0453 74.4165 37.2854 74.6104 37.4147 74.8875C37.5625 75.1646 37.6456 75.414 37.6641 75.6356C37.701 75.8388 37.7195 76.1528 37.7195 76.5777V86.2755C37.7195 86.7003 37.701 87.0236 37.6641 87.2452C37.6456 87.4484 37.5717 87.6886 37.4424 87.9656C37.1838 88.4459 36.5465 88.686 35.5306 88.686C34.5331 88.686 33.8589 88.566 33.5079 88.3258C33.1754 88.0672 32.9815 87.6978 32.926 87.2175C32.2426 88.1965 31.0973 88.686 29.4903 88.686C27.9017 88.686 26.4239 87.9564 25.057 86.4971C23.6901 85.0378 23.0066 83.3477 23.0066 81.4266C23.0066 79.487 23.6901 77.7968 25.057 76.356C26.4424 74.8968 27.9571 74.1671 29.6011 74.1671C30.2291 74.1671 30.8018 74.2779 31.319 74.4996C31.8362 74.7213 32.1964 74.9337 32.3996 75.1369C32.6028 75.3216 32.769 75.5063 32.8983 75.6911ZM27.8555 81.4543C27.8555 82.0639 28.0956 82.618 28.5759 83.1168C29.0562 83.597 29.638 83.8372 30.3215 83.8372C31.005 83.8372 31.5684 83.5878 32.0117 83.0891C32.4735 82.5903 32.7044 82.0454 32.7044 81.4543C32.7044 80.8447 32.4827 80.2813 32.0394 79.7641C31.6145 79.2469 31.0327 78.9883 30.2938 78.9883C29.5734 78.9883 28.9823 79.2469 28.5205 79.7641C28.0772 80.2813 27.8555 80.8447 27.8555 81.4543ZM44.6937 76.079C45.5618 74.7675 46.6055 74.1117 47.8246 74.1117C49.7088 74.1117 51.1126 74.9152 52.0362 76.5223C52.2394 76.2452 52.4796 75.9589 52.7566 75.6633C53.0522 75.3493 53.514 75.0168 54.142 74.6659C54.7701 74.2964 55.4166 74.1117 56.0816 74.1117C57.5593 74.1117 58.797 74.6843 59.7944 75.8296C60.7919 76.9564 61.2907 78.8313 61.2907 81.4543V86.3032C61.2907 86.728 61.2722 87.0513 61.2353 87.2729C61.2168 87.4761 61.1337 87.7163 60.9859 87.9933C60.7457 88.4921 60.0346 88.7415 58.8524 88.7415C57.6886 88.7415 56.9775 88.4828 56.7189 87.9656C56.5896 87.6886 56.5064 87.4484 56.4695 87.2452C56.451 87.0236 56.4418 86.7003 56.4418 86.2755V81.4266C56.4418 79.8195 55.8692 79.016 54.7239 79.016C54.0774 79.016 53.6341 79.2284 53.3939 79.6533C53.1723 80.0781 53.0614 80.6785 53.0614 81.4543V86.3032C53.0614 86.7465 53.043 87.0697 53.006 87.2729C52.9875 87.4761 52.9044 87.7163 52.7566 87.9933C52.498 88.4921 51.7776 88.7415 50.5954 88.7415C49.4317 88.7415 48.7205 88.4828 48.4619 87.9656C48.3326 87.6886 48.2495 87.4484 48.2126 87.2452C48.1941 87.0236 48.1848 86.7003 48.1848 86.2755V81.4266C48.1848 79.8195 47.6122 79.016 46.467 79.016C45.3586 79.016 44.8045 79.8195 44.8045 81.4266V86.3309C44.8045 86.7557 44.786 87.079 44.7491 87.3006C44.7306 87.5038 44.6475 87.744 44.4997 88.0211C44.2226 88.5013 43.5022 88.7415 42.3385 88.7415C41.1748 88.7415 40.4636 88.4921 40.205 87.9933C40.0757 87.7163 39.9926 87.4761 39.9556 87.2729C39.9371 87.0697 39.9279 86.7465 39.9279 86.3032V76.55C39.9279 76.1251 39.9371 75.8111 39.9556 75.6079C39.9926 75.3863 40.0849 75.1461 40.2327 74.8875C40.5098 74.3888 41.1655 74.1394 42.1999 74.1394C43.2344 74.1394 43.9086 74.3057 44.2226 74.6382C44.5366 74.9706 44.6937 75.4509 44.6937 76.079ZM63.4958 92.7037V76.5223C63.4958 76.0974 63.5051 75.7834 63.5235 75.5802C63.5605 75.377 63.6436 75.1461 63.7729 74.8875C64.0315 74.3888 64.6503 74.1394 65.6293 74.1394C66.6083 74.1394 67.2641 74.2687 67.5966 74.5273C67.9476 74.7675 68.1507 75.1277 68.2062 75.6079C68.9081 74.6474 70.0072 74.1671 71.5034 74.1671C73.0181 74.1671 74.4497 74.8783 75.7981 76.3006C77.1466 77.723 77.8208 79.3762 77.8208 81.2603C77.8208 83.1445 77.1466 84.7977 75.7981 86.22C74.4681 87.6424 73.0458 88.3535 71.5311 88.3535C70.0164 88.3535 68.9173 87.9287 68.2339 87.079V92.676C68.2339 93.1008 68.2154 93.4148 68.1785 93.618C68.16 93.8212 68.0769 94.0521 67.9291 94.3107C67.7998 94.5878 67.5689 94.7818 67.2364 94.8926C66.9039 95.0034 66.4513 95.0588 65.8787 95.0588C65.3061 95.0588 64.8443 95.0034 64.4933 94.8926C64.1608 94.7818 63.9207 94.5971 63.7729 94.3384C63.6436 94.0798 63.5605 93.8489 63.5235 93.6457C63.5051 93.4426 63.4958 93.1285 63.4958 92.7037ZM68.982 79.6533C68.5571 80.152 68.3447 80.6969 68.3447 81.288C68.3447 81.8791 68.5571 82.4241 68.982 82.9228C69.4253 83.4031 69.9795 83.6432 70.6445 83.6432C71.3279 83.6432 71.9005 83.4031 72.3623 82.9228C72.8426 82.4425 73.0827 81.8976 73.0827 81.288C73.0827 80.6785 72.8611 80.1335 72.4178 79.6533C71.9744 79.1545 71.3926 78.9052 70.6722 78.9052C69.9702 78.9052 69.4068 79.1545 68.982 79.6533ZM89.0988 75.6911C89.2096 74.6566 89.9392 74.1394 91.2877 74.1394C92.0081 74.1394 92.5438 74.1948 92.8947 74.3057C93.2457 74.4165 93.4858 74.6104 93.6151 74.8875C93.7629 75.1646 93.846 75.414 93.8645 75.6356C93.9015 75.8388 93.9199 76.1528 93.9199 76.5777V86.2755C93.9199 86.7003 93.9015 87.0236 93.8645 87.2452C93.846 87.4484 93.7721 87.6886 93.6428 87.9656C93.3842 88.4459 92.747 88.686 91.731 88.686C90.7335 88.686 90.0593 88.566 89.7083 88.3258C89.3758 88.0672 89.1819 87.6978 89.1265 87.2175C88.443 88.1965 87.2977 88.686 85.6907 88.686C84.1021 88.686 82.6244 87.9564 81.2574 86.4971C79.8905 85.0378 79.207 83.3477 79.207 81.4266C79.207 79.487 79.8905 77.7968 81.2574 76.356C82.6428 74.8968 84.1575 74.1671 85.8015 74.1671C86.4296 74.1671 87.0022 74.2779 87.5194 74.4996C88.0366 74.7213 88.3968 74.9337 88.6 75.1369C88.8032 75.3216 88.9695 75.5063 89.0988 75.6911ZM84.0559 81.4543C84.0559 82.0639 84.2961 82.618 84.7763 83.1168C85.2566 83.597 85.8385 83.8372 86.5219 83.8372C87.2054 83.8372 87.7688 83.5878 88.2121 83.0891C88.6739 82.5903 88.9048 82.0454 88.9048 81.4543C88.9048 80.8447 88.6831 80.2813 88.2398 79.7641C87.815 79.2469 87.2331 78.9883 86.4942 78.9883C85.7738 78.9883 85.1827 79.2469 84.7209 79.7641C84.2776 80.2813 84.0559 80.8447 84.0559 81.4543ZM96.1283 76.5777C96.1283 76.1528 96.1376 75.8388 96.156 75.6356C96.193 75.414 96.2761 75.1646 96.4054 74.8875C96.664 74.4073 97.3844 74.1671 98.5666 74.1671C99.4533 74.1671 100.081 74.3241 100.451 74.6382C100.765 74.8968 100.931 75.2939 100.949 75.8296C100.968 76.0143 100.977 76.2822 100.977 76.6331V86.3309C100.977 86.7557 100.959 87.079 100.922 87.3006C100.903 87.5038 100.82 87.744 100.672 88.0211C100.432 88.5013 99.7211 88.7415 98.5389 88.7415C97.3752 88.7415 96.664 88.4921 96.4054 87.9933C96.2761 87.7163 96.193 87.4761 96.156 87.2729C96.1376 87.0697 96.1283 86.7465 96.1283 86.3032V76.5777ZM100.672 71.4517C100.543 71.7104 100.303 71.8951 99.952 72.0059C99.601 72.1167 99.13 72.1722 98.5389 72.1722C97.9663 72.1722 97.5045 72.1167 97.1535 72.0059C96.8026 71.8951 96.5532 71.7011 96.4054 71.424C96.2761 71.147 96.193 70.9068 96.156 70.7036C96.1376 70.482 96.1283 70.1587 96.1283 69.7339C96.1283 69.309 96.1376 68.995 96.156 68.7918C96.193 68.5701 96.2761 68.33 96.4054 68.0714C96.664 67.5726 97.3844 67.3233 98.5666 67.3233C99.7303 67.3233 100.432 67.5726 100.672 68.0714C100.82 68.3485 100.903 68.5978 100.922 68.8195C100.959 69.0227 100.977 69.3367 100.977 69.7616C100.977 70.1864 100.959 70.5097 100.922 70.7313C100.903 70.9345 100.82 71.1747 100.672 71.4517ZM112.445 86.9127C111.743 87.8363 110.626 88.2981 109.092 88.2981C107.559 88.2981 106.118 87.5962 104.77 86.1923C103.44 84.77 102.775 83.1168 102.775 81.2326C102.775 79.3485 103.449 77.6953 104.798 76.2729C106.146 74.8506 107.624 74.1394 109.231 74.1394C109.859 74.1394 110.432 74.2595 110.949 74.4996C111.466 74.7213 111.817 74.9337 112.002 75.1369C112.205 75.3216 112.362 75.4971 112.473 75.6633C112.528 75.1461 112.713 74.7582 113.027 74.4996C113.359 74.2225 113.886 74.084 114.606 74.084C115.327 74.084 115.853 74.1394 116.186 74.2502C116.518 74.3611 116.749 74.555 116.878 74.8321C117.026 75.0907 117.109 75.3216 117.128 75.5248C117.165 75.728 117.183 76.042 117.183 76.4669V87.9379C117.183 90.0622 116.444 91.7708 114.966 93.0639C113.489 94.3754 111.826 95.0311 109.979 95.0311C108.575 95.0311 107.236 94.6894 105.961 94.0059C104.687 93.3225 104.05 92.7037 104.05 92.1495C104.05 91.4291 104.327 90.7918 104.881 90.2377C105.232 89.8498 105.5 89.5819 105.684 89.4342C105.887 89.2864 106.118 89.2125 106.377 89.2125C106.636 89.2125 106.903 89.3233 107.181 89.545C108.067 90.2284 109.028 90.5702 110.062 90.5702C110.764 90.5702 111.337 90.2931 111.78 89.7389C112.223 89.1848 112.445 88.5198 112.445 87.744V86.9127ZM107.513 81.2603C107.513 81.8514 107.744 82.3871 108.206 82.8674C108.686 83.3477 109.259 83.5878 109.924 83.5878C110.607 83.5878 111.17 83.3477 111.614 82.8674C112.057 82.3686 112.279 81.833 112.279 81.2603C112.279 80.6692 112.066 80.1243 111.641 79.6256C111.217 79.1084 110.644 78.8497 109.924 78.8497C109.203 78.8497 108.621 79.0991 108.178 79.5979C107.735 80.0966 107.513 80.6508 107.513 81.2603ZM127.517 74.1394C129.364 74.1394 130.897 74.8506 132.117 76.2729C133.354 77.6768 133.973 79.3947 133.973 81.4266V86.3032C133.973 86.728 133.954 87.0513 133.918 87.2729C133.899 87.4761 133.825 87.707 133.696 87.9656C133.437 88.4644 132.717 88.7137 131.535 88.7137C130.223 88.7137 129.466 88.372 129.263 87.6886C129.152 87.3745 129.096 86.9035 129.096 86.2755V81.3989C129.096 80.6415 128.875 80.0504 128.431 79.6256C128.007 79.2007 127.425 78.9883 126.686 78.9883C125.965 78.9883 125.374 79.2099 124.912 79.6533C124.469 80.0966 124.247 80.6785 124.247 81.3989V86.3032C124.247 86.728 124.229 87.0513 124.192 87.2729C124.174 87.4761 124.09 87.707 123.943 87.9656C123.703 88.4644 122.991 88.7137 121.809 88.7137C120.645 88.7137 119.934 88.4644 119.676 87.9656C119.546 87.6886 119.463 87.4484 119.426 87.2452C119.408 87.0236 119.399 86.7003 119.399 86.2755V76.4669C119.399 76.0605 119.408 75.7557 119.426 75.5525C119.463 75.3308 119.556 75.0907 119.703 74.8321C119.962 74.3703 120.673 74.1394 121.837 74.1394C122.964 74.1394 123.656 74.3518 123.915 74.7767C124.1 75.0907 124.192 75.4694 124.192 75.9127C124.266 75.7834 124.432 75.5987 124.691 75.3586C124.949 75.1184 125.199 74.9245 125.439 74.7767C126.067 74.3518 126.76 74.1394 127.517 74.1394Z" fill="white"/>
<path d="M9.21915 111.439C8.86818 111.218 8.6927 110.867 8.6927 110.386C8.6927 109.906 9.04366 109.176 9.7456 108.197C9.94879 107.883 10.272 107.726 10.7154 107.726C11.1772 107.726 11.796 107.957 12.5718 108.419C13.3476 108.862 14.0496 109.084 14.6776 109.084C15.8044 109.084 16.3678 108.862 16.3678 108.419C16.3678 108.068 15.749 107.809 14.5113 107.643C13.3476 107.477 12.1931 107.043 11.0479 106.341C10.5122 106.008 10.0689 105.491 9.71789 104.789C9.36692 104.069 9.19144 103.219 9.19144 102.24C9.19144 99.3216 11.1956 97.8623 15.204 97.8623C16.5156 97.8623 17.864 98.1764 19.2494 98.8044C19.8959 99.0999 20.2192 99.4694 20.2192 99.9127C20.2192 100.356 20.016 100.901 19.6096 101.547C19.2032 102.194 18.7876 102.517 18.3627 102.517C18.1411 102.517 17.7255 102.379 17.1159 102.102C16.5248 101.825 15.8783 101.686 15.1763 101.686C14.0865 101.686 13.5416 101.889 13.5416 102.296C13.5416 102.85 14.1696 103.21 15.4257 103.376C16.6449 103.505 17.8271 103.856 18.9723 104.429C19.508 104.688 19.9513 105.14 20.3023 105.787C20.6717 106.415 20.8564 107.209 20.8564 108.17C20.8564 109.13 20.6717 109.952 20.3023 110.636C19.9513 111.301 19.4526 111.799 18.8061 112.132C17.6239 112.705 16.1369 112.991 14.3451 112.991C12.5718 112.991 10.8631 112.474 9.21915 111.439ZM29.1482 112.686C27.2826 112.686 25.7309 111.984 24.4933 110.58C23.2742 109.158 22.6646 107.431 22.6646 105.399V100.55C22.6646 100.107 22.6738 99.7834 22.6923 99.5802C22.7293 99.377 22.8124 99.1369 22.9417 98.8598C23.2003 98.3611 23.9207 98.1117 25.1029 98.1117C26.3959 98.1117 27.1533 98.4627 27.3749 99.1646C27.4858 99.4602 27.5412 99.9312 27.5412 100.578V105.427C27.5412 106.184 27.7536 106.775 28.1785 107.2C28.6218 107.625 29.2037 107.837 29.9241 107.837C30.6629 107.837 31.254 107.616 31.6974 107.172C32.1592 106.729 32.3901 106.147 32.3901 105.427V100.522C32.3901 100.097 32.3993 99.7834 32.4178 99.5802C32.4547 99.3586 32.5471 99.1092 32.6949 98.8321C32.935 98.3518 33.6462 98.1117 34.8284 98.1117C35.9921 98.1117 36.7033 98.3611 36.9619 98.8598C37.0912 99.1369 37.1651 99.3863 37.1835 99.6079C37.2205 99.8111 37.2389 100.125 37.2389 100.55V110.359C37.2389 110.765 37.2205 111.079 37.1835 111.301C37.1651 111.504 37.0819 111.735 36.9342 111.993C36.6571 112.474 35.9459 112.714 34.8006 112.714C33.6739 112.714 32.9812 112.492 32.7226 112.049C32.5378 111.735 32.4455 111.356 32.4455 110.913C32.3716 111.042 32.2053 111.227 31.9467 111.467C31.6881 111.707 31.4388 111.91 31.1986 112.076C30.5706 112.483 29.8871 112.686 29.1482 112.686ZM39.4679 100.578C39.4679 100.153 39.4771 99.8388 39.4956 99.6356C39.5326 99.414 39.6157 99.1646 39.745 98.8875C40.0036 98.4073 40.724 98.1671 41.9062 98.1671C42.7929 98.1671 43.4209 98.3241 43.7903 98.6382C44.1044 98.8968 44.2706 99.2939 44.2891 99.8296C44.3075 100.014 44.3168 100.282 44.3168 100.633V110.331C44.3168 110.756 44.2983 111.079 44.2614 111.301C44.2429 111.504 44.1598 111.744 44.012 112.021C43.7719 112.501 43.0607 112.741 41.8785 112.741C40.7148 112.741 40.0036 112.492 39.745 111.993C39.6157 111.716 39.5326 111.476 39.4956 111.273C39.4771 111.07 39.4679 110.746 39.4679 110.303V100.578ZM44.012 95.4517C43.8827 95.7104 43.6426 95.8951 43.2916 96.0059C42.9406 96.1167 42.4696 96.1722 41.8785 96.1722C41.3059 96.1722 40.8441 96.1167 40.4931 96.0059C40.1421 95.8951 39.8928 95.7011 39.745 95.424C39.6157 95.147 39.5326 94.9068 39.4956 94.7036C39.4771 94.482 39.4679 94.1587 39.4679 93.7339C39.4679 93.309 39.4771 92.995 39.4956 92.7918C39.5326 92.5701 39.6157 92.33 39.745 92.0714C40.0036 91.5726 40.724 91.3233 41.9062 91.3233C43.0699 91.3233 43.7719 91.5726 44.012 92.0714C44.1598 92.3485 44.2429 92.5978 44.2614 92.8195C44.2983 93.0227 44.3168 93.3367 44.3168 93.7616C44.3168 94.1864 44.2983 94.5097 44.2614 94.7313C44.2429 94.9345 44.1598 95.1747 44.012 95.4517ZM55.0088 103.044L53.2078 102.933V106.757C53.2078 107.255 53.2817 107.615 53.4294 107.837C53.5957 108.059 53.8912 108.17 54.3161 108.17C54.7594 108.17 55.0919 108.188 55.3136 108.225C55.5537 108.244 55.8031 108.327 56.0617 108.474C56.4865 108.715 56.699 109.333 56.699 110.331C56.699 111.495 56.4403 112.206 55.9231 112.464C55.6461 112.594 55.3967 112.677 55.175 112.714C54.9718 112.732 54.667 112.741 54.2607 112.741C52.3396 112.741 50.8803 112.307 49.8828 111.439C48.8853 110.571 48.3866 109.102 48.3866 107.034V102.933C48.0356 102.988 47.657 103.016 47.2506 103.016C46.8442 103.016 46.5025 102.859 46.2254 102.545C45.9668 102.231 45.8375 101.695 45.8375 100.938C45.8375 100.181 45.8836 99.6356 45.976 99.3031C46.0684 98.9522 46.1977 98.7028 46.3639 98.555C46.6595 98.3149 47.0289 98.1948 47.4722 98.1948L48.3866 98.3057V95.4517C48.3866 95.0269 48.3958 94.7129 48.4143 94.5097C48.4512 94.3065 48.5436 94.0848 48.6914 93.8447C48.9315 93.3829 49.6427 93.152 50.8249 93.152C52.081 93.152 52.8291 93.4937 53.0692 94.1772C53.1616 94.4727 53.2078 94.9438 53.2078 95.5903V98.3057C54.0205 98.2318 54.6301 98.1948 55.0365 98.1948C55.4613 98.1948 55.7754 98.2133 55.9785 98.2502C56.2002 98.2687 56.4496 98.3518 56.7267 98.4996C57.2069 98.7397 57.4471 99.4509 57.4471 100.633C57.4471 101.797 57.1977 102.508 56.699 102.767C56.4219 102.896 56.1725 102.979 55.9508 103.016C55.7477 103.034 55.4336 103.044 55.0088 103.044ZM72.5115 103.709C72.5115 104.835 72.2252 105.676 71.6525 106.23C71.0984 106.766 70.4796 107.034 69.7961 107.034H63.2294C63.2294 107.551 63.5341 107.985 64.1437 108.336C64.7533 108.687 65.3629 108.862 65.9724 108.862C67.0438 108.862 67.8843 108.752 68.4938 108.53L68.7986 108.419C69.242 108.216 69.6114 108.114 69.9069 108.114C70.498 108.114 71.006 108.53 71.4309 109.361C71.671 109.86 71.7911 110.285 71.7911 110.636C71.7911 112.28 69.8238 113.102 65.8893 113.102C64.5224 113.102 63.3032 112.871 62.2319 112.409C61.179 111.929 60.357 111.301 59.7659 110.525C58.6021 109.029 58.0203 107.357 58.0203 105.51C58.0203 103.182 58.7684 101.326 60.2646 99.9404C61.7793 98.5366 63.6634 97.8346 65.917 97.8346C68.4846 97.8346 70.3687 98.7397 71.5694 100.55C72.1975 101.511 72.5115 102.563 72.5115 103.709ZM66.6651 104.512C67.3671 104.512 67.718 104.217 67.718 103.626C67.718 103.201 67.5518 102.859 67.2193 102.6C66.9053 102.342 66.4435 102.212 65.8339 102.212C65.2428 102.212 64.6517 102.462 64.0606 102.961C63.4695 103.441 63.1739 103.958 63.1739 104.512H66.6651Z" fill="#A1A0D3"/>
<rect x="75.7303" y="108.843" width="21.5506" height="4.61798" rx="2.30899" fill="white"/>
<mask id="mask0" style="mask-type:alpha" maskUnits="userSpaceOnUse" x="145" y="3" width="191" height="120">
<path d="M145 121C145 122.105 145.895 123 147 123H334C335.105 123 336 122.105 336 121V19C336 10.1634 328.837 3 320 3H145V121Z" fill="#252473"/>
</mask>
<g mask="url(#mask0)">
<path opacity="0.16" fill-rule="evenodd" clip-rule="evenodd" d="M454.326 -157.352C471.133 -145.848 481.832 -128.471 498.369 -116.628C513.971 -105.455 534.61 -101.914 549.085 -89.4889C564.629 -76.1475 586.136 -61.308 585.531 -41.8136C584.852 -19.9048 556.581 -8.02026 545.956 11.3819C538.714 24.606 547.746 48.1514 533.072 53.9845C511.407 62.5958 480.341 29.3594 463.164 44.2908C444.686 60.3523 477.474 95.5736 463.006 114.888C453.59 127.458 430.398 111.178 413.82 110.165C397.448 109.166 380.282 114.825 365.066 108.906C349.851 102.988 345.335 81.3625 329.451 77.3458C295.254 68.6986 254.276 91.4992 224.522 73.3669C202.403 59.8876 209.113 26.7546 206.499 2.41835C203.83 -22.4247 184.576 -61.7016 208.944 -71.6441C252.807 -89.5403 304.74 -47.3667 351.677 -56.8154C367.784 -60.0577 355.417 -87.0336 359.356 -101.923C367.502 -132.716 358.806 -175.683 387.563 -192.467C409.078 -205.024 433.537 -171.58 454.326 -157.352Z" fill="#5857AB"/>
<path opacity="0.16" fill-rule="evenodd" clip-rule="evenodd" d="M401.52 -141.508C417.862 -129.397 427.869 -111.641 443.928 -99.2011C459.078 -87.4645 479.563 -83.1704 493.539 -70.2244C508.546 -56.3234 529.454 -40.7071 528.082 -21.2489C526.54 0.619187 497.821 11.46 486.44 30.4591C478.683 43.4085 486.781 67.2677 471.888 72.5592C449.9 80.3711 420.165 46.0213 402.412 60.3129C383.315 75.6863 414.692 112.083 399.475 130.853C389.571 143.07 367.036 125.952 350.51 124.333C334.189 122.735 316.812 127.761 301.841 121.29C286.87 114.818 283.209 93.0436 267.494 88.4481C233.662 78.5551 191.816 99.8388 162.797 80.6302C141.225 66.3507 149.235 33.4873 147.581 9.07287C145.892 -15.8499 128.198 -55.8035 152.941 -64.8466C197.476 -81.1239 247.711 -37.0792 294.987 -44.8024C311.209 -47.4526 299.914 -74.862 304.436 -89.5959C313.789 -120.069 306.791 -163.323 336.188 -179.042C358.182 -190.802 381.307 -156.487 401.52 -141.508Z" fill="#5857AB"/>
<path opacity="0.16" fill-rule="evenodd" clip-rule="evenodd" d="M315.759 -201.886C336.359 -201.237 355.226 -192.44 375.794 -191.365C395.2 -190.35 414.437 -198.381 433.62 -195.723C454.217 -192.869 480.645 -191.94 491.298 -175.361C503.269 -156.729 486.495 -131.773 488.738 -109.939C490.268 -95.0572 511.275 -80.2287 502.375 -67.5548C489.237 -48.8441 444.309 -60.0279 438.53 -38.4346C432.313 -15.207 479.812 -3.28417 478.801 20.5215C478.143 36.0157 449.485 34.7816 435.081 42.7597C420.855 50.639 409.779 64.4939 393.703 67.6555C377.628 70.817 361.486 55.1867 345.94 60.2906C312.474 71.2783 291.35 112.1 256.161 112.814C230.001 113.344 216.634 82.143 200.527 63.2397C184.083 43.9428 145.549 21.4354 160.18 0.175715C186.516 -38.0914 253.96 -30.5596 287.695 -63.4184C299.271 -74.6938 273.52 -90.6085 268.284 -105.121C257.454 -135.136 225.613 -166.339 239.988 -195.64C250.744 -217.561 290.281 -202.688 315.759 -201.886Z" fill="#5857AB"/>
<path opacity="0.16" fill-rule="evenodd" clip-rule="evenodd" d="M480.608 -128.386C499.669 -120.824 514.148 -106.214 533.024 -98.2633C550.833 -90.7618 571.769 -91.7901 588.773 -82.8247C607.031 -73.1981 631.449 -63.4059 635.409 -44.2802C639.859 -22.7857 615.086 -5.07164 609.261 16.1383C605.291 30.5946 619.585 51.5765 606.648 60.4441C587.548 73.5354 549.524 47.8923 536.271 66.168C522.015 85.827 562.18 113.031 552.591 134.989C546.349 149.28 519.953 138.449 503.564 141.06C487.378 143.638 471.973 152.877 455.766 150.412C439.561 147.947 430.114 127.856 413.7 127.389C378.363 126.384 343.756 157.491 310.534 146.28C285.837 137.946 284.643 104.207 276.417 81.0618C268.02 57.4349 240.095 23.3431 261.518 8.36799C300.08 -18.5869 360.522 11.2366 404.051 -8.15445C418.988 -14.8085 400.644 -38.4093 401.007 -53.771C401.76 -85.5429 383.261 -125.521 407.364 -148.114C425.397 -165.017 457.033 -137.738 480.608 -128.386Z" fill="#5857AB"/>
</g>
</svg>
