<svg width="1257" height="72" viewBox="0 0 1257 72" fill="none" xmlns="http://www.w3.org/2000/svg">
<path d="M0 36C0 16.1178 16.1178 0 36 0H1255C1256.1 0 1257 0.895431 1257 2V70C1257 71.1046 1256.1 72 1255 72H36C16.1177 72 0 55.8823 0 36Z" fill="#F6F8FA"/>
<circle cx="40" cy="36" r="16" fill="white" stroke="#E4EBF1" stroke-width="2"/>
<path d="M40 52C31.1634 52 24 44.8366 24 36" stroke="#1DB792" stroke-width="2" stroke-linecap="round"/>
<path d="M40 28L42.472 33.008L48 33.816L44 37.712L44.944 43.216L40 40.616L35.056 43.216L36 37.712L32 33.816L37.528 33.008L40 28Z" stroke="#1DB792" stroke-width="2" stroke-linecap="round" stroke-linejoin="round"/>
<path d="M75.648 23.584C75.088 23.584 74.584 23.488 74.136 23.296C73.688 23.096 73.336 22.816 73.08 22.456C72.824 22.096 72.696 21.676 72.696 21.196H74.16C74.192 21.556 74.332 21.852 74.58 22.084C74.836 22.316 75.192 22.432 75.648 22.432C76.12 22.432 76.488 22.32 76.752 22.096C77.016 21.864 77.148 21.568 77.148 21.208C77.148 20.928 77.064 20.7 76.896 20.524C76.736 20.348 76.532 20.212 76.284 20.116C76.044 20.02 75.708 19.916 75.276 19.804C74.732 19.66 74.288 19.516 73.944 19.372C73.608 19.22 73.32 18.988 73.08 18.676C72.84 18.364 72.72 17.948 72.72 17.428C72.72 16.948 72.84 16.528 73.08 16.168C73.32 15.808 73.656 15.532 74.088 15.34C74.52 15.148 75.02 15.052 75.588 15.052C76.396 15.052 77.056 15.256 77.568 15.664C78.088 16.064 78.376 16.616 78.432 17.32H76.92C76.896 17.016 76.752 16.756 76.488 16.54C76.224 16.324 75.876 16.216 75.444 16.216C75.052 16.216 74.732 16.316 74.484 16.516C74.236 16.716 74.112 17.004 74.112 17.38C74.112 17.636 74.188 17.848 74.34 18.016C74.5 18.176 74.7 18.304 74.94 18.4C75.18 18.496 75.508 18.6 75.924 18.712C76.476 18.864 76.924 19.016 77.268 19.168C77.62 19.32 77.916 19.556 78.156 19.876C78.404 20.188 78.528 20.608 78.528 21.136C78.528 21.56 78.412 21.96 78.18 22.336C77.956 22.712 77.624 23.016 77.184 23.248C76.752 23.472 76.24 23.584 75.648 23.584ZM80.8382 16.012C80.5902 16.012 80.3822 15.928 80.2142 15.76C80.0462 15.592 79.9622 15.384 79.9622 15.136C79.9622 14.888 80.0462 14.68 80.2142 14.512C80.3822 14.344 80.5902 14.26 80.8382 14.26C81.0782 14.26 81.2822 14.344 81.4502 14.512C81.6182 14.68 81.7022 14.888 81.7022 15.136C81.7022 15.384 81.6182 15.592 81.4502 15.76C81.2822 15.928 81.0782 16.012 80.8382 16.012ZM81.5102 16.888V23.5H80.1422V16.888H81.5102ZM91.3103 16.78C91.8303 16.78 92.2943 16.888 92.7023 17.104C93.1183 17.32 93.4423 17.64 93.6743 18.064C93.9143 18.488 94.0343 19 94.0343 19.6V23.5H92.6783V19.804C92.6783 19.212 92.5303 18.76 92.2343 18.448C91.9383 18.128 91.5343 17.968 91.0223 17.968C90.5103 17.968 90.1023 18.128 89.7983 18.448C89.5023 18.76 89.3543 19.212 89.3543 19.804V23.5H87.9983V19.804C87.9983 19.212 87.8503 18.76 87.5543 18.448C87.2583 18.128 86.8543 17.968 86.3423 17.968C85.8303 17.968 85.4223 18.128 85.1183 18.448C84.8223 18.76 84.6743 19.212 84.6743 19.804V23.5H83.3063V16.888H84.6743V17.644C84.8983 17.372 85.1823 17.16 85.5263 17.008C85.8703 16.856 86.2383 16.78 86.6303 16.78C87.1583 16.78 87.6303 16.892 88.0463 17.116C88.4623 17.34 88.7823 17.664 89.0063 18.088C89.2063 17.688 89.5183 17.372 89.9423 17.14C90.3663 16.9 90.8223 16.78 91.3103 16.78ZM97.143 17.86C97.375 17.556 97.691 17.3 98.091 17.092C98.491 16.884 98.943 16.78 99.447 16.78C100.023 16.78 100.547 16.924 101.019 17.212C101.499 17.492 101.875 17.888 102.147 18.4C102.419 18.912 102.555 19.5 102.555 20.164C102.555 20.828 102.419 21.424 102.147 21.952C101.875 22.472 101.499 22.88 101.019 23.176C100.547 23.464 100.023 23.608 99.447 23.608C98.943 23.608 98.495 23.508 98.103 23.308C97.711 23.1 97.391 22.844 97.143 22.54V26.644H95.775V16.888H97.143V17.86ZM101.163 20.164C101.163 19.708 101.067 19.316 100.875 18.988C100.691 18.652 100.443 18.4 100.131 18.232C99.827 18.056 99.499 17.968 99.147 17.968C98.803 17.968 98.475 18.056 98.163 18.232C97.859 18.408 97.611 18.664 97.419 19C97.235 19.336 97.143 19.732 97.143 20.188C97.143 20.644 97.235 21.044 97.419 21.388C97.611 21.724 97.859 21.98 98.163 22.156C98.475 22.332 98.803 22.42 99.147 22.42C99.499 22.42 99.827 22.332 100.131 22.156C100.443 21.972 100.691 21.708 100.875 21.364C101.067 21.02 101.163 20.62 101.163 20.164ZM105.276 14.62V23.5H103.908V14.62H105.276ZM113.132 20.032C113.132 20.28 113.116 20.504 113.084 20.704H108.032C108.072 21.232 108.268 21.656 108.62 21.976C108.972 22.296 109.404 22.456 109.916 22.456C110.652 22.456 111.172 22.148 111.476 21.532H112.952C112.752 22.14 112.388 22.64 111.86 23.032C111.34 23.416 110.692 23.608 109.916 23.608C109.284 23.608 108.716 23.468 108.212 23.188C107.716 22.9 107.324 22.5 107.036 21.988C106.756 21.468 106.616 20.868 106.616 20.188C106.616 19.508 106.752 18.912 107.024 18.4C107.304 17.88 107.692 17.48 108.188 17.2C108.692 16.92 109.268 16.78 109.916 16.78C110.54 16.78 111.096 16.916 111.584 17.188C112.072 17.46 112.452 17.844 112.724 18.34C112.996 18.828 113.132 19.392 113.132 20.032ZM111.704 19.6C111.696 19.096 111.516 18.692 111.164 18.388C110.812 18.084 110.376 17.932 109.856 17.932C109.384 17.932 108.98 18.084 108.644 18.388C108.308 18.684 108.108 19.088 108.044 19.6H111.704ZM117.235 16V14.752H119.731V23.5H118.351V16H117.235Z" fill="#252473"/>
<path d="M131 17.5L135 21.5L139 17.5" stroke="#252473" stroke-width="2" stroke-linecap="round" stroke-linejoin="round"/>
<path d="M77.06 36.53V37.27H75.16V43.5H74.25V37.27H72.34V36.53H77.06ZM80.5702 43.59C80.0568 43.59 79.5902 43.4733 79.1702 43.24C78.7568 43.0067 78.4302 42.6767 78.1902 42.25C77.9568 41.8167 77.8402 41.3167 77.8402 40.75C77.8402 40.19 77.9602 39.6967 78.2002 39.27C78.4468 38.8367 78.7802 38.5067 79.2002 38.28C79.6202 38.0467 80.0902 37.93 80.6102 37.93C81.1302 37.93 81.6002 38.0467 82.0202 38.28C82.4402 38.5067 82.7702 38.8333 83.0102 39.26C83.2568 39.6867 83.3802 40.1833 83.3802 40.75C83.3802 41.3167 83.2535 41.8167 83.0002 42.25C82.7535 42.6767 82.4168 43.0067 81.9902 43.24C81.5635 43.4733 81.0902 43.59 80.5702 43.59ZM80.5702 42.79C80.8968 42.79 81.2035 42.7133 81.4902 42.56C81.7768 42.4067 82.0068 42.1767 82.1802 41.87C82.3602 41.5633 82.4502 41.19 82.4502 40.75C82.4502 40.31 82.3635 39.9367 82.1902 39.63C82.0168 39.3233 81.7902 39.0967 81.5102 38.95C81.2302 38.7967 80.9268 38.72 80.6002 38.72C80.2668 38.72 79.9602 38.7967 79.6802 38.95C79.4068 39.0967 79.1868 39.3233 79.0202 39.63C78.8535 39.9367 78.7702 40.31 78.7702 40.75C78.7702 41.1967 78.8502 41.5733 79.0102 41.88C79.1768 42.1867 79.3968 42.4167 79.6702 42.57C79.9435 42.7167 80.2435 42.79 80.5702 42.79ZM85.6866 38.77V42C85.6866 42.2667 85.7433 42.4567 85.8566 42.57C85.97 42.6767 86.1666 42.73 86.4466 42.73H87.1166V43.5H86.2966C85.79 43.5 85.41 43.3833 85.1566 43.15C84.9033 42.9167 84.7766 42.5333 84.7766 42V38.77H84.0666V38.02H84.7766V36.64H85.6866V38.02H87.1166V38.77H85.6866ZM87.8792 40.74C87.8792 40.18 87.9926 39.69 88.2192 39.27C88.4459 38.8433 88.7559 38.5133 89.1492 38.28C89.5492 38.0467 89.9926 37.93 90.4792 37.93C90.9592 37.93 91.3759 38.0333 91.7292 38.24C92.0826 38.4467 92.3459 38.7067 92.5192 39.02V38.02H93.4392V43.5H92.5192V42.48C92.3392 42.8 92.0692 43.0667 91.7092 43.28C91.3559 43.4867 90.9426 43.59 90.4692 43.59C89.9826 43.59 89.5426 43.47 89.1492 43.23C88.7559 42.99 88.4459 42.6533 88.2192 42.22C87.9926 41.7867 87.8792 41.2933 87.8792 40.74ZM92.5192 40.75C92.5192 40.3367 92.4359 39.9767 92.2692 39.67C92.1026 39.3633 91.8759 39.13 91.5892 38.97C91.3092 38.8033 90.9992 38.72 90.6592 38.72C90.3192 38.72 90.0092 38.8 89.7292 38.96C89.4492 39.12 89.2259 39.3533 89.0592 39.66C88.8926 39.9667 88.8092 40.3267 88.8092 40.74C88.8092 41.16 88.8926 41.5267 89.0592 41.84C89.2259 42.1467 89.4492 42.3833 89.7292 42.55C90.0092 42.71 90.3192 42.79 90.6592 42.79C90.9992 42.79 91.3092 42.71 91.5892 42.55C91.8759 42.3833 92.1026 42.1467 92.2692 41.84C92.4359 41.5267 92.5192 41.1633 92.5192 40.75ZM95.887 36.1V43.5H94.977V36.1H95.887ZM99.764 40.01C99.764 39.33 99.9173 38.72 100.224 38.18C100.531 37.6333 100.947 37.2067 101.474 36.9C102.007 36.5933 102.597 36.44 103.244 36.44C104.004 36.44 104.667 36.6233 105.234 36.99C105.801 37.3567 106.214 37.8767 106.474 38.55H105.384C105.191 38.13 104.911 37.8067 104.544 37.58C104.184 37.3533 103.751 37.24 103.244 37.24C102.757 37.24 102.321 37.3533 101.934 37.58C101.547 37.8067 101.244 38.13 101.024 38.55C100.804 38.9633 100.694 39.45 100.694 40.01C100.694 40.5633 100.804 41.05 101.024 41.47C101.244 41.8833 101.547 42.2033 101.934 42.43C102.321 42.6567 102.757 42.77 103.244 42.77C103.751 42.77 104.184 42.66 104.544 42.44C104.911 42.2133 105.191 41.89 105.384 41.47H106.474C106.214 42.1367 105.801 42.6533 105.234 43.02C104.667 43.38 104.004 43.56 103.244 43.56C102.597 43.56 102.007 43.41 101.474 43.11C100.947 42.8033 100.531 42.38 100.224 41.84C99.9173 41.3 99.764 40.69 99.764 40.01ZM107.489 40.74C107.489 40.18 107.602 39.69 107.829 39.27C108.055 38.8433 108.365 38.5133 108.759 38.28C109.159 38.0467 109.602 37.93 110.089 37.93C110.569 37.93 110.985 38.0333 111.339 38.24C111.692 38.4467 111.955 38.7067 112.129 39.02V38.02H113.049V43.5H112.129V42.48C111.949 42.8 111.679 43.0667 111.319 43.28C110.965 43.4867 110.552 43.59 110.079 43.59C109.592 43.59 109.152 43.47 108.759 43.23C108.365 42.99 108.055 42.6533 107.829 42.22C107.602 41.7867 107.489 41.2933 107.489 40.74ZM112.129 40.75C112.129 40.3367 112.045 39.9767 111.879 39.67C111.712 39.3633 111.485 39.13 111.199 38.97C110.919 38.8033 110.609 38.72 110.269 38.72C109.929 38.72 109.619 38.8 109.339 38.96C109.059 39.12 108.835 39.3533 108.669 39.66C108.502 39.9667 108.419 40.3267 108.419 40.74C108.419 41.16 108.502 41.5267 108.669 41.84C108.835 42.1467 109.059 42.3833 109.339 42.55C109.619 42.71 109.929 42.79 110.269 42.79C110.609 42.79 110.919 42.71 111.199 42.55C111.485 42.3833 111.712 42.1467 111.879 41.84C112.045 41.5267 112.129 41.1633 112.129 40.75ZM115.496 36.1V43.5H114.586V36.1H115.496ZM117.957 36.1V43.5H117.047V36.1H117.957ZM121.448 43.59C121.028 43.59 120.652 43.52 120.318 43.38C119.985 43.2333 119.722 43.0333 119.528 42.78C119.335 42.52 119.228 42.2233 119.208 41.89H120.148C120.175 42.1633 120.302 42.3867 120.528 42.56C120.762 42.7333 121.065 42.82 121.438 42.82C121.785 42.82 122.058 42.7433 122.258 42.59C122.458 42.4367 122.558 42.2433 122.558 42.01C122.558 41.77 122.452 41.5933 122.238 41.48C122.025 41.36 121.695 41.2433 121.248 41.13C120.842 41.0233 120.508 40.9167 120.248 40.81C119.995 40.6967 119.775 40.5333 119.588 40.32C119.408 40.1 119.318 39.8133 119.318 39.46C119.318 39.18 119.402 38.9233 119.568 38.69C119.735 38.4567 119.972 38.2733 120.278 38.14C120.585 38 120.935 37.93 121.328 37.93C121.935 37.93 122.425 38.0833 122.798 38.39C123.172 38.6967 123.372 39.1167 123.398 39.65H122.488C122.468 39.3633 122.352 39.1333 122.138 38.96C121.932 38.7867 121.652 38.7 121.298 38.7C120.972 38.7 120.712 38.77 120.518 38.91C120.325 39.05 120.228 39.2333 120.228 39.46C120.228 39.64 120.285 39.79 120.398 39.91C120.518 40.0233 120.665 40.1167 120.838 40.19C121.018 40.2567 121.265 40.3333 121.578 40.42C121.972 40.5267 122.292 40.6333 122.538 40.74C122.785 40.84 122.995 40.9933 123.168 41.2C123.348 41.4067 123.442 41.6767 123.448 42.01C123.448 42.31 123.365 42.58 123.198 42.82C123.032 43.06 122.795 43.25 122.488 43.39C122.188 43.5233 121.842 43.59 121.448 43.59Z" fill="#8B8EAD"/>
<path d="M73.4595 52.79V51.2H76.2295V58.5H74.4495V52.79H73.4595ZM77.4592 53.26C77.4859 52.5467 77.7192 51.9967 78.1592 51.61C78.5992 51.2233 79.1959 51.03 79.9492 51.03C80.4492 51.03 80.8759 51.1167 81.2292 51.29C81.5892 51.4633 81.8592 51.7 82.0392 52C82.2259 52.3 82.3192 52.6367 82.3192 53.01C82.3192 53.45 82.2092 53.81 81.9892 54.09C81.7692 54.3633 81.5126 54.55 81.2192 54.65V54.69C81.5992 54.8167 81.8992 55.0267 82.1192 55.32C82.3392 55.6133 82.4492 55.99 82.4492 56.45C82.4492 56.8633 82.3526 57.23 82.1592 57.55C81.9726 57.8633 81.6959 58.11 81.3292 58.29C80.9692 58.47 80.5392 58.56 80.0392 58.56C79.2392 58.56 78.5992 58.3633 78.1192 57.97C77.6459 57.5767 77.3959 56.9833 77.3692 56.19H79.0292C79.0359 56.4833 79.1192 56.7167 79.2792 56.89C79.4392 57.0567 79.6726 57.14 79.9792 57.14C80.2392 57.14 80.4392 57.0667 80.5792 56.92C80.7259 56.7667 80.7992 56.5667 80.7992 56.32C80.7992 56 80.6959 55.77 80.4892 55.63C80.2892 55.4833 79.9659 55.41 79.5192 55.41H79.1992V54.02H79.5192C79.8592 54.02 80.1326 53.9633 80.3392 53.85C80.5526 53.73 80.6592 53.52 80.6592 53.22C80.6592 52.98 80.5926 52.7933 80.4592 52.66C80.3259 52.5267 80.1426 52.46 79.9092 52.46C79.6559 52.46 79.4659 52.5367 79.3392 52.69C79.2192 52.8433 79.1492 53.0333 79.1292 53.26H77.4592ZM83.2739 52.79V51.2H86.0439V58.5H84.2639V52.79H83.2739ZM87.1537 57.13C87.3803 56.95 87.4837 56.8667 87.4637 56.88C88.117 56.34 88.6303 55.8967 89.0037 55.55C89.3837 55.2033 89.7037 54.84 89.9637 54.46C90.2237 54.08 90.3537 53.71 90.3537 53.35C90.3537 53.0767 90.2903 52.8633 90.1637 52.71C90.037 52.5567 89.847 52.48 89.5937 52.48C89.3403 52.48 89.1403 52.5767 88.9937 52.77C88.8537 52.9567 88.7837 53.2233 88.7837 53.57H87.1337C87.147 53.0033 87.267 52.53 87.4937 52.15C87.727 51.77 88.0303 51.49 88.4037 51.31C88.7837 51.13 89.2037 51.04 89.6637 51.04C90.457 51.04 91.0537 51.2433 91.4537 51.65C91.8603 52.0567 92.0637 52.5867 92.0637 53.24C92.0637 53.9533 91.8203 54.6167 91.3337 55.23C90.847 55.8367 90.227 56.43 89.4737 57.01H92.1737V58.4H87.1537V57.13ZM92.9266 54.75C92.9266 53.6033 93.1466 52.7 93.5866 52.04C94.0332 51.38 94.7499 51.05 95.7366 51.05C96.7232 51.05 97.4366 51.38 97.8766 52.04C98.3232 52.7 98.5466 53.6033 98.5466 54.75C98.5466 55.91 98.3232 56.82 97.8766 57.48C97.4366 58.14 96.7232 58.47 95.7366 58.47C94.7499 58.47 94.0332 58.14 93.5866 57.48C93.1466 56.82 92.9266 55.91 92.9266 54.75ZM96.8666 54.75C96.8666 54.0767 96.7932 53.56 96.6466 53.2C96.4999 52.8333 96.1966 52.65 95.7366 52.65C95.2766 52.65 94.9732 52.8333 94.8266 53.2C94.6799 53.56 94.6066 54.0767 94.6066 54.75C94.6066 55.2033 94.6332 55.58 94.6866 55.88C94.7399 56.1733 94.8466 56.4133 95.0066 56.6C95.1732 56.78 95.4166 56.87 95.7366 56.87C96.0566 56.87 96.2966 56.78 96.4566 56.6C96.6232 56.4133 96.7332 56.1733 96.7866 55.88C96.8399 55.58 96.8666 55.2033 96.8666 54.75Z" fill="#1DB792"/>
<path d="M142.06 36.53V37.27H140.16V43.5H139.25V37.27H137.34V36.53H142.06ZM145.57 43.59C145.057 43.59 144.59 43.4733 144.17 43.24C143.757 43.0067 143.43 42.6767 143.19 42.25C142.957 41.8167 142.84 41.3167 142.84 40.75C142.84 40.19 142.96 39.6967 143.2 39.27C143.447 38.8367 143.78 38.5067 144.2 38.28C144.62 38.0467 145.09 37.93 145.61 37.93C146.13 37.93 146.6 38.0467 147.02 38.28C147.44 38.5067 147.77 38.8333 148.01 39.26C148.257 39.6867 148.38 40.1833 148.38 40.75C148.38 41.3167 148.253 41.8167 148 42.25C147.753 42.6767 147.417 43.0067 146.99 43.24C146.563 43.4733 146.09 43.59 145.57 43.59ZM145.57 42.79C145.897 42.79 146.203 42.7133 146.49 42.56C146.777 42.4067 147.007 42.1767 147.18 41.87C147.36 41.5633 147.45 41.19 147.45 40.75C147.45 40.31 147.363 39.9367 147.19 39.63C147.017 39.3233 146.79 39.0967 146.51 38.95C146.23 38.7967 145.927 38.72 145.6 38.72C145.267 38.72 144.96 38.7967 144.68 38.95C144.407 39.0967 144.187 39.3233 144.02 39.63C143.853 39.9367 143.77 40.31 143.77 40.75C143.77 41.1967 143.85 41.5733 144.01 41.88C144.177 42.1867 144.397 42.4167 144.67 42.57C144.943 42.7167 145.243 42.79 145.57 42.79ZM150.687 38.77V42C150.687 42.2667 150.743 42.4567 150.857 42.57C150.97 42.6767 151.167 42.73 151.447 42.73H152.117V43.5H151.297C150.79 43.5 150.41 43.3833 150.157 43.15C149.903 42.9167 149.777 42.5333 149.777 42V38.77H149.067V38.02H149.777V36.64H150.687V38.02H152.117V38.77H150.687ZM152.879 40.74C152.879 40.18 152.993 39.69 153.219 39.27C153.446 38.8433 153.756 38.5133 154.149 38.28C154.549 38.0467 154.993 37.93 155.479 37.93C155.959 37.93 156.376 38.0333 156.729 38.24C157.083 38.4467 157.346 38.7067 157.519 39.02V38.02H158.439V43.5H157.519V42.48C157.339 42.8 157.069 43.0667 156.709 43.28C156.356 43.4867 155.943 43.59 155.469 43.59C154.983 43.59 154.543 43.47 154.149 43.23C153.756 42.99 153.446 42.6533 153.219 42.22C152.993 41.7867 152.879 41.2933 152.879 40.74ZM157.519 40.75C157.519 40.3367 157.436 39.9767 157.269 39.67C157.103 39.3633 156.876 39.13 156.589 38.97C156.309 38.8033 155.999 38.72 155.659 38.72C155.319 38.72 155.009 38.8 154.729 38.96C154.449 39.12 154.226 39.3533 154.059 39.66C153.893 39.9667 153.809 40.3267 153.809 40.74C153.809 41.16 153.893 41.5267 154.059 41.84C154.226 42.1467 154.449 42.3833 154.729 42.55C155.009 42.71 155.319 42.79 155.659 42.79C155.999 42.79 156.309 42.71 156.589 42.55C156.876 42.3833 157.103 42.1467 157.269 41.84C157.436 41.5267 157.519 41.1633 157.519 40.75ZM160.887 36.1V43.5H159.977V36.1H160.887ZM166.014 42.76H168.454V43.5H165.104V36.53H166.014V42.76ZM169.89 37.13C169.717 37.13 169.57 37.07 169.45 36.95C169.33 36.83 169.27 36.6833 169.27 36.51C169.27 36.3367 169.33 36.19 169.45 36.07C169.57 35.95 169.717 35.89 169.89 35.89C170.057 35.89 170.197 35.95 170.31 36.07C170.43 36.19 170.49 36.3367 170.49 36.51C170.49 36.6833 170.43 36.83 170.31 36.95C170.197 37.07 170.057 37.13 169.89 37.13ZM170.33 38.02V43.5H169.42V38.02H170.33ZM173.821 43.59C173.401 43.59 173.025 43.52 172.691 43.38C172.358 43.2333 172.095 43.0333 171.901 42.78C171.708 42.52 171.601 42.2233 171.581 41.89H172.521C172.548 42.1633 172.675 42.3867 172.901 42.56C173.135 42.7333 173.438 42.82 173.811 42.82C174.158 42.82 174.431 42.7433 174.631 42.59C174.831 42.4367 174.931 42.2433 174.931 42.01C174.931 41.77 174.825 41.5933 174.611 41.48C174.398 41.36 174.068 41.2433 173.621 41.13C173.215 41.0233 172.881 40.9167 172.621 40.81C172.368 40.6967 172.148 40.5333 171.961 40.32C171.781 40.1 171.691 39.8133 171.691 39.46C171.691 39.18 171.775 38.9233 171.941 38.69C172.108 38.4567 172.345 38.2733 172.651 38.14C172.958 38 173.308 37.93 173.701 37.93C174.308 37.93 174.798 38.0833 175.171 38.39C175.545 38.6967 175.745 39.1167 175.771 39.65H174.861C174.841 39.3633 174.725 39.1333 174.511 38.96C174.305 38.7867 174.025 38.7 173.671 38.7C173.345 38.7 173.085 38.77 172.891 38.91C172.698 39.05 172.601 39.2333 172.601 39.46C172.601 39.64 172.658 39.79 172.771 39.91C172.891 40.0233 173.038 40.1167 173.211 40.19C173.391 40.2567 173.638 40.3333 173.951 40.42C174.345 40.5267 174.665 40.6333 174.911 40.74C175.158 40.84 175.368 40.9933 175.541 41.2C175.721 41.4067 175.815 41.6767 175.821 42.01C175.821 42.31 175.738 42.58 175.571 42.82C175.405 43.06 175.168 43.25 174.861 43.39C174.561 43.5233 174.215 43.59 173.821 43.59ZM178.216 38.77V42C178.216 42.2667 178.273 42.4567 178.386 42.57C178.499 42.6767 178.696 42.73 178.976 42.73H179.646V43.5H178.826C178.319 43.5 177.939 43.3833 177.686 43.15C177.433 42.9167 177.306 42.5333 177.306 42V38.77H176.596V38.02H177.306V36.64H178.216V38.02H179.646V38.77H178.216ZM185.625 43.57C185.165 43.57 184.751 43.49 184.385 43.33C184.025 43.1633 183.741 42.9367 183.535 42.65C183.328 42.3567 183.221 42.02 183.215 41.64H184.185C184.218 41.9667 184.351 42.2433 184.585 42.47C184.825 42.69 185.171 42.8 185.625 42.8C186.058 42.8 186.398 42.6933 186.645 42.48C186.898 42.26 187.025 41.98 187.025 41.64C187.025 41.3733 186.951 41.1567 186.805 40.99C186.658 40.8233 186.475 40.6967 186.255 40.61C186.035 40.5233 185.738 40.43 185.365 40.33C184.905 40.21 184.535 40.09 184.255 39.97C183.981 39.85 183.745 39.6633 183.545 39.41C183.351 39.15 183.255 38.8033 183.255 38.37C183.255 37.99 183.351 37.6533 183.545 37.36C183.738 37.0667 184.008 36.84 184.355 36.68C184.708 36.52 185.111 36.44 185.565 36.44C186.218 36.44 186.751 36.6033 187.165 36.93C187.585 37.2567 187.821 37.69 187.875 38.23H186.875C186.841 37.9633 186.701 37.73 186.455 37.53C186.208 37.3233 185.881 37.22 185.475 37.22C185.095 37.22 184.785 37.32 184.545 37.52C184.305 37.7133 184.185 37.9867 184.185 38.34C184.185 38.5933 184.255 38.8 184.395 38.96C184.541 39.12 184.718 39.2433 184.925 39.33C185.138 39.41 185.435 39.5033 185.815 39.61C186.275 39.7367 186.645 39.8633 186.925 39.99C187.205 40.11 187.445 40.3 187.645 40.56C187.845 40.8133 187.945 41.16 187.945 41.6C187.945 41.94 187.855 42.26 187.675 42.56C187.495 42.86 187.228 43.1033 186.875 43.29C186.521 43.4767 186.105 43.57 185.625 43.57ZM189.754 37.13C189.58 37.13 189.434 37.07 189.314 36.95C189.194 36.83 189.134 36.6833 189.134 36.51C189.134 36.3367 189.194 36.19 189.314 36.07C189.434 35.95 189.58 35.89 189.754 35.89C189.92 35.89 190.06 35.95 190.174 36.07C190.294 36.19 190.354 36.3367 190.354 36.51C190.354 36.6833 190.294 36.83 190.174 36.95C190.06 37.07 189.92 37.13 189.754 37.13ZM190.194 38.02V43.5H189.284V38.02H190.194ZM192.425 42.75H195.115V43.5H191.385V42.75L194.045 38.76H191.405V38.02H195.095V38.76L192.425 42.75ZM201.295 40.55C201.295 40.7233 201.285 40.9067 201.265 41.1H196.885C196.919 41.64 197.102 42.0633 197.435 42.37C197.775 42.67 198.185 42.82 198.665 42.82C199.059 42.82 199.385 42.73 199.645 42.55C199.912 42.3633 200.099 42.1167 200.205 41.81H201.185C201.039 42.3367 200.745 42.7667 200.305 43.1C199.865 43.4267 199.319 43.59 198.665 43.59C198.145 43.59 197.679 43.4733 197.265 43.24C196.859 43.0067 196.539 42.6767 196.305 42.25C196.072 41.8167 195.955 41.3167 195.955 40.75C195.955 40.1833 196.069 39.6867 196.295 39.26C196.522 38.8333 196.839 38.5067 197.245 38.28C197.659 38.0467 198.132 37.93 198.665 37.93C199.185 37.93 199.645 38.0433 200.045 38.27C200.445 38.4967 200.752 38.81 200.965 39.21C201.185 39.6033 201.295 40.05 201.295 40.55ZM200.355 40.36C200.355 40.0133 200.279 39.7167 200.125 39.47C199.972 39.2167 199.762 39.0267 199.495 38.9C199.235 38.7667 198.945 38.7 198.625 38.7C198.165 38.7 197.772 38.8467 197.445 39.14C197.125 39.4333 196.942 39.84 196.895 40.36H200.355Z" fill="#8B8EAD"/>
<path d="M137.27 52.79V51.2H140.04V58.5H138.26V52.79H137.27ZM141.27 53.26C141.296 52.5467 141.53 51.9967 141.97 51.61C142.41 51.2233 143.006 51.03 143.76 51.03C144.26 51.03 144.686 51.1167 145.04 51.29C145.4 51.4633 145.67 51.7 145.85 52C146.036 52.3 146.13 52.6367 146.13 53.01C146.13 53.45 146.02 53.81 145.8 54.09C145.58 54.3633 145.323 54.55 145.03 54.65V54.69C145.41 54.8167 145.71 55.0267 145.93 55.32C146.15 55.6133 146.26 55.99 146.26 56.45C146.26 56.8633 146.163 57.23 145.97 57.55C145.783 57.8633 145.506 58.11 145.14 58.29C144.78 58.47 144.35 58.56 143.85 58.56C143.05 58.56 142.41 58.3633 141.93 57.97C141.456 57.5767 141.206 56.9833 141.18 56.19H142.84C142.846 56.4833 142.93 56.7167 143.09 56.89C143.25 57.0567 143.483 57.14 143.79 57.14C144.05 57.14 144.25 57.0667 144.39 56.92C144.536 56.7667 144.61 56.5667 144.61 56.32C144.61 56 144.506 55.77 144.3 55.63C144.1 55.4833 143.776 55.41 143.33 55.41H143.01V54.02H143.33C143.67 54.02 143.943 53.9633 144.15 53.85C144.363 53.73 144.47 53.52 144.47 53.22C144.47 52.98 144.403 52.7933 144.27 52.66C144.136 52.5267 143.953 52.46 143.72 52.46C143.466 52.46 143.276 52.5367 143.15 52.69C143.03 52.8433 142.96 53.0333 142.94 53.26H141.27ZM147.084 52.79V51.2H149.854V58.5H148.074V52.79H147.084Z" fill="#1DB792"/>
<circle cx="243" cy="36" r="3" fill="#252473"/>
<path d="M250 36H273" stroke="#F58925" stroke-width="4" stroke-linecap="round"/>
<circle cx="280" cy="36" r="3" fill="#252473"/>
<path d="M668 36C668 29.3726 673.373 24 680 24H688C694.627 24 700 29.3726 700 36C700 42.6274 694.627 48 688 48H680C673.373 48 668 42.6274 668 36Z" fill="#E70D35"/>
<rect x="680" y="32" width="8" height="8" rx="1" stroke="white" stroke-width="2"/>
<rect width="107" height="72" transform="translate(716)" fill="#E4EBF1"/>
<path d="M747 44C747 46.2091 745.209 48 743 48L727 48C724.791 48 723 46.2091 723 44L723 28C723 25.7909 724.791 24 727 24L743 24C745.209 24 747 25.7909 747 28L747 44Z" fill="white"/>
<g clip-path="url(#clip0_3289:67518)">
<path d="M740 36L730 36" stroke="#5857AB" stroke-width="2" stroke-linecap="round" stroke-linejoin="round"/>
</g>
<rect x="749" y="24" width="41" height="24" rx="12" fill="#5857AB"/>
<path d="M757.628 33.79V32.2H760.398V39.5H758.618V33.79H757.628ZM761.568 35.75C761.568 34.6033 761.788 33.7 762.228 33.04C762.675 32.38 763.391 32.05 764.378 32.05C765.365 32.05 766.078 32.38 766.518 33.04C766.965 33.7 767.188 34.6033 767.188 35.75C767.188 36.91 766.965 37.82 766.518 38.48C766.078 39.14 765.365 39.47 764.378 39.47C763.391 39.47 762.675 39.14 762.228 38.48C761.788 37.82 761.568 36.91 761.568 35.75ZM765.508 35.75C765.508 35.0767 765.435 34.56 765.288 34.2C765.141 33.8333 764.838 33.65 764.378 33.65C763.918 33.65 763.615 33.8333 763.468 34.2C763.321 34.56 763.248 35.0767 763.248 35.75C763.248 36.2033 763.275 36.58 763.328 36.88C763.381 37.1733 763.488 37.4133 763.648 37.6C763.815 37.78 764.058 37.87 764.378 37.87C764.698 37.87 764.938 37.78 765.098 37.6C765.265 37.4133 765.375 37.1733 765.428 36.88C765.481 36.58 765.508 36.2033 765.508 35.75Z" fill="white"/>
<path d="M772.5 31.5L779.5 36L772.5 40.5V31.5Z" stroke="white" stroke-width="2" stroke-linecap="round" stroke-linejoin="round"/>
<path d="M816 44C816 46.2091 814.209 48 812 48L796 48C793.791 48 792 46.2091 792 44L792 28C792 25.7909 793.791 24 796 24L812 24C814.209 24 816 25.7909 816 28L816 44Z" fill="white"/>
<g clip-path="url(#clip1_3289:67518)">
<path d="M799 36L809 36M804 41L804 31" stroke="#5857AB" stroke-width="2" stroke-linecap="round" stroke-linejoin="round"/>
</g>
<rect width="107" height="72" transform="translate(824)" fill="#4E1BC9" fill-opacity="0.05"/>
<path d="M878.15 35.58C877.523 35.2467 877.21 34.7233 877.21 34.01C877.21 33.65 877.303 33.3233 877.49 33.03C877.677 32.73 877.96 32.4933 878.34 32.32C878.72 32.14 879.187 32.05 879.74 32.05C880.293 32.05 880.757 32.14 881.13 32.32C881.51 32.4933 881.793 32.73 881.98 33.03C882.167 33.3233 882.26 33.65 882.26 34.01C882.26 34.37 882.173 34.6833 882 34.95C881.833 35.2167 881.607 35.4267 881.32 35.58C881.68 35.7533 881.957 35.9933 882.15 36.3C882.343 36.6 882.44 36.9533 882.44 37.36C882.44 37.8333 882.32 38.2433 882.08 38.59C881.84 38.93 881.513 39.19 881.1 39.37C880.693 39.55 880.24 39.64 879.74 39.64C879.24 39.64 878.783 39.55 878.37 39.37C877.963 39.19 877.64 38.93 877.4 38.59C877.16 38.2433 877.04 37.8333 877.04 37.36C877.04 36.9467 877.137 36.59 877.33 36.29C877.523 35.9833 877.797 35.7467 878.15 35.58ZM880.6 34.27C880.6 33.9967 880.52 33.7867 880.36 33.64C880.207 33.4867 880 33.41 879.74 33.41C879.48 33.41 879.27 33.4867 879.11 33.64C878.957 33.7933 878.88 34.0067 878.88 34.28C878.88 34.54 878.96 34.7467 879.12 34.9C879.28 35.0467 879.487 35.12 879.74 35.12C879.993 35.12 880.2 35.0433 880.36 34.89C880.52 34.7367 880.6 34.53 880.6 34.27ZM879.74 36.32C879.427 36.32 879.173 36.4067 878.98 36.58C878.787 36.7467 878.69 36.98 878.69 37.28C878.69 37.56 878.783 37.79 878.97 37.97C879.163 38.15 879.42 38.24 879.74 38.24C880.06 38.24 880.31 38.15 880.49 37.97C880.677 37.79 880.77 37.56 880.77 37.28C880.77 36.9867 880.673 36.7533 880.48 36.58C880.293 36.4067 880.047 36.32 879.74 36.32Z" fill="#5857AB"/>
<g clip-path="url(#clip2_3289:67518)">
<path d="M899.5 32.7499V35.7499M899.5 38.7499H899.508M898.218 28.8949L891.865 39.4999C891.734 39.7267 891.665 39.9839 891.664 40.2458C891.663 40.5077 891.731 40.7653 891.861 40.9928C891.991 41.2203 892.178 41.41 892.403 41.5428C892.629 41.6756 892.886 41.747 893.148 41.7499H905.853C906.114 41.747 906.371 41.6756 906.597 41.5428C906.823 41.41 907.01 41.2203 907.139 40.9928C907.269 40.7653 907.337 40.5077 907.336 40.2458C907.335 39.9839 907.266 39.7267 907.135 39.4999L900.783 28.8949C900.649 28.6745 900.461 28.4922 900.236 28.3658C900.011 28.2393 899.758 28.1729 899.5 28.1729C899.242 28.1729 898.989 28.2393 898.764 28.3658C898.54 28.4922 898.351 28.6745 898.218 28.8949Z" stroke="#F58925" stroke-width="2" stroke-linecap="round" stroke-linejoin="round"/>
</g>
<rect width="107" height="72" transform="translate(932)" fill="#4E1BC9" fill-opacity="0.05"/>
<path d="M985.89 38.13C986.117 37.95 986.22 37.8667 986.2 37.88C986.853 37.34 987.367 36.8967 987.74 36.55C988.12 36.2033 988.44 35.84 988.7 35.46C988.96 35.08 989.09 34.71 989.09 34.35C989.09 34.0767 989.027 33.8633 988.9 33.71C988.773 33.5567 988.583 33.48 988.33 33.48C988.077 33.48 987.877 33.5767 987.73 33.77C987.59 33.9567 987.52 34.2233 987.52 34.57H985.87C985.883 34.0033 986.003 33.53 986.23 33.15C986.463 32.77 986.767 32.49 987.14 32.31C987.52 32.13 987.94 32.04 988.4 32.04C989.193 32.04 989.79 32.2433 990.19 32.65C990.597 33.0567 990.8 33.5867 990.8 34.24C990.8 34.9533 990.557 35.6167 990.07 36.23C989.583 36.8367 988.963 37.43 988.21 38.01H990.91V39.4H985.89V38.13Z" fill="#5857AB"/>
<g clip-path="url(#clip3_3289:67518)">
<path d="M1007.5 32.7499V35.7499M1007.5 38.7499H1007.51M1006.22 28.8949L999.865 39.4999C999.734 39.7267 999.665 39.9839 999.664 40.2458C999.663 40.5077 999.731 40.7653 999.861 40.9928C999.991 41.2203 1000.18 41.41 1000.4 41.5428C1000.63 41.6756 1000.89 41.747 1001.15 41.7499H1013.85C1014.11 41.747 1014.37 41.6756 1014.6 41.5428C1014.82 41.41 1015.01 41.2203 1015.14 40.9928C1015.27 40.7653 1015.34 40.5077 1015.34 40.2458C1015.34 39.9839 1015.27 39.7267 1015.14 39.4999L1008.78 28.8949C1008.65 28.6745 1008.46 28.4922 1008.24 28.3658C1008.01 28.2393 1007.76 28.1729 1007.5 28.1729C1007.24 28.1729 1006.99 28.2393 1006.76 28.3658C1006.54 28.4922 1006.35 28.6745 1006.22 28.8949Z" stroke="#F58925" stroke-width="2" stroke-linecap="round" stroke-linejoin="round"/>
</g>
<rect width="107" height="72" transform="translate(1040)" fill="#4E1BC9" fill-opacity="0.05"/>
<path d="M1088.27 33.79V32.2H1091.04V39.5H1089.26V33.79H1088.27ZM1097.35 33.69H1094.23V35.07C1094.36 34.9233 1094.55 34.8033 1094.79 34.71C1095.03 34.6167 1095.29 34.57 1095.57 34.57C1096.07 34.57 1096.48 34.6833 1096.81 34.91C1097.14 35.1367 1097.39 35.43 1097.54 35.79C1097.69 36.15 1097.77 36.54 1097.77 36.96C1097.77 37.74 1097.55 38.36 1097.11 38.82C1096.67 39.2733 1096.05 39.5 1095.25 39.5C1094.72 39.5 1094.25 39.41 1093.86 39.23C1093.47 39.0433 1093.16 38.7867 1092.95 38.46C1092.74 38.1333 1092.62 37.7567 1092.6 37.33H1094.27C1094.31 37.5367 1094.41 37.71 1094.56 37.85C1094.71 37.9833 1094.92 38.05 1095.19 38.05C1095.5 38.05 1095.74 37.95 1095.89 37.75C1096.04 37.55 1096.12 37.2833 1096.12 36.95C1096.12 36.6233 1096.04 36.3733 1095.88 36.2C1095.72 36.0267 1095.49 35.94 1095.18 35.94C1094.95 35.94 1094.77 35.9967 1094.62 36.11C1094.47 36.2167 1094.38 36.36 1094.33 36.54H1092.68V32.19H1097.35V33.69Z" fill="#5857AB"/>
<path d="M1148 0H1253C1254.1 0 1255 0.895431 1255 2V70C1255 71.1046 1254.1 72 1253 72H1148V0Z" fill="#4E1BC9" fill-opacity="0.05"/>
<path d="M1196.27 33.79V32.2H1199.04V39.5H1197.26V33.79H1196.27ZM1205.35 33.69H1202.23V35.07C1202.36 34.9233 1202.55 34.8033 1202.79 34.71C1203.03 34.6167 1203.29 34.57 1203.57 34.57C1204.07 34.57 1204.48 34.6833 1204.81 34.91C1205.14 35.1367 1205.39 35.43 1205.54 35.79C1205.69 36.15 1205.77 36.54 1205.77 36.96C1205.77 37.74 1205.55 38.36 1205.11 38.82C1204.67 39.2733 1204.05 39.5 1203.25 39.5C1202.72 39.5 1202.25 39.41 1201.86 39.23C1201.47 39.0433 1201.16 38.7867 1200.95 38.46C1200.74 38.1333 1200.62 37.7567 1200.6 37.33H1202.27C1202.31 37.5367 1202.41 37.71 1202.56 37.85C1202.71 37.9833 1202.92 38.05 1203.19 38.05C1203.5 38.05 1203.74 37.95 1203.89 37.75C1204.04 37.55 1204.12 37.2833 1204.12 36.95C1204.12 36.6233 1204.04 36.3733 1203.88 36.2C1203.72 36.0267 1203.49 35.94 1203.18 35.94C1202.95 35.94 1202.77 35.9967 1202.62 36.11C1202.47 36.2167 1202.38 36.36 1202.33 36.54H1200.68V32.19H1205.35V33.69Z" fill="#5857AB"/>
<defs>
<clipPath id="clip0_3289:67518">
<rect width="12" height="12" fill="white" transform="translate(741 42) rotate(180)"/>
</clipPath>
<clipPath id="clip1_3289:67518">
<rect width="12" height="12" fill="white" transform="translate(798 42) rotate(-90)"/>
</clipPath>
<clipPath id="clip2_3289:67518">
<rect width="18" height="18" fill="white" transform="translate(890.5 26)"/>
</clipPath>
<clipPath id="clip3_3289:67518">
<rect width="18" height="18" fill="white" transform="translate(998.5 26)"/>
</clipPath>
</defs>
</svg>
