<svg width="346" height="96" viewBox="0 0 346 96" fill="none" xmlns="http://www.w3.org/2000/svg">
<path d="M0 19C0 10.1634 7.16344 3 16 3H322C330.837 3 338 10.1634 338 19V81C338 82.1046 337.105 83 336 83H1.99999C0.895421 83 0 82.1046 0 81V19Z" fill="#252473"/>
<path d="M25.84 49.376C25.84 50.72 26.288 51.776 27.184 52.544C28.08 53.28 29.024 53.648 30.016 53.648C31.04 53.648 31.984 53.36 32.848 52.784C33.744 52.176 34.464 51.872 35.008 51.872C35.968 51.872 37.136 52.72 38.512 54.416C39.248 55.344 39.616 56.176 39.616 56.912C39.616 58.128 38.736 59.264 36.976 60.32C35.152 61.6 32.912 62.24 30.256 62.24C27.28 62.24 24.416 61.168 21.664 59.024C20.352 58 19.28 56.64 18.448 54.944C17.616 53.216 17.2 51.328 17.2 49.28C17.2 47.2 17.616 45.328 18.448 43.664C19.28 41.968 20.352 40.608 21.664 39.584C24.32 37.472 27.152 36.416 30.16 36.416C31.376 36.416 32.56 36.592 33.712 36.944C34.864 37.264 35.712 37.584 36.256 37.904L37.024 38.384C37.6 38.768 38.048 39.072 38.368 39.296C39.2 39.936 39.616 40.672 39.616 41.504C39.616 42.304 39.28 43.216 38.608 44.24C37.456 46 36.352 46.88 35.296 46.88C34.688 46.88 33.824 46.528 32.704 45.824C32.128 45.28 31.296 45.008 30.208 45.008C29.152 45.008 28.16 45.392 27.232 46.16C26.304 46.928 25.84 48 25.84 49.376Z" fill="white"/>
<path d="M42.9089 59.744C42.3009 59.36 41.9969 58.752 41.9969 57.92C41.9969 57.088 42.6049 55.824 43.8209 54.128C44.1729 53.584 44.7329 53.312 45.5009 53.312C46.3009 53.312 47.3729 53.712 48.7169 54.512C50.0609 55.28 51.2769 55.664 52.3649 55.664C54.3169 55.664 55.2929 55.28 55.2929 54.512C55.2929 53.904 54.2209 53.456 52.0769 53.168C50.0609 52.88 48.0609 52.128 46.0769 50.912C45.1489 50.336 44.3809 49.44 43.7729 48.224C43.1649 46.976 42.8609 45.504 42.8609 43.808C42.8609 38.752 46.3329 36.224 53.2769 36.224C55.5489 36.224 57.8849 36.768 60.2849 37.856C61.4049 38.368 61.9649 39.008 61.9649 39.776C61.9649 40.544 61.6129 41.488 60.9089 42.608C60.2049 43.728 59.4849 44.288 58.7489 44.288C58.3649 44.288 57.6449 44.048 56.5889 43.568C55.5649 43.088 54.4449 42.848 53.2289 42.848C51.3409 42.848 50.3969 43.2 50.3969 43.904C50.3969 44.864 51.4849 45.488 53.6609 45.776C55.7729 46 57.8209 46.608 59.8049 47.6C60.7329 48.048 61.5009 48.832 62.1089 49.952C62.7489 51.04 63.0689 52.416 63.0689 54.08C63.0689 55.744 62.7489 57.168 62.1089 58.352C61.5009 59.504 60.6369 60.368 59.5169 60.944C57.4689 61.936 54.8929 62.432 51.7889 62.432C48.7169 62.432 45.7569 61.536 42.9089 59.744Z" fill="#5857AB"/>
<rect x="35" y="66" width="28" height="9" rx="4.5" fill="white"/>
<mask id="mask0" style="mask-type:alpha" maskUnits="userSpaceOnUse" x="65" y="3" width="273" height="80">
<path d="M65 81C65 82.1046 65.8954 83 67 83H336C337.105 83 338 82.1046 338 81V19C338 10.1634 330.837 3 322 3H65V81Z" fill="#252473"/>
</mask>
<g mask="url(#mask0)">
<path opacity="0.16" fill-rule="evenodd" clip-rule="evenodd" d="M366.491 -194.352C382.82 -182.848 393.214 -165.471 409.28 -153.628C424.438 -142.455 444.489 -138.914 458.553 -126.489C473.654 -113.147 494.549 -98.3079 493.961 -78.8135C493.301 -56.9048 465.835 -45.0203 455.512 -25.6181C448.477 -12.394 457.252 11.1514 442.995 16.9845C421.947 25.5958 391.766 -7.64054 375.077 7.29083C357.125 23.3523 388.98 58.5736 374.924 77.8876C365.776 90.4584 343.244 74.1779 327.138 73.1655C311.232 72.1655 294.555 77.825 279.772 71.9061C264.991 65.9876 260.603 44.3625 245.171 40.3458C211.948 31.6986 172.137 54.4992 143.23 36.367C121.74 22.8876 128.259 -10.2454 125.719 -34.5816C123.126 -59.4246 104.421 -98.7016 128.095 -108.644C170.709 -126.54 221.164 -84.3667 266.765 -93.8154C282.413 -97.0576 270.398 -124.034 274.225 -138.923C282.139 -169.716 273.691 -212.683 301.629 -229.467C322.531 -242.024 346.294 -208.58 366.491 -194.352Z" fill="#5857AB"/>
<path opacity="0.16" fill-rule="evenodd" clip-rule="evenodd" d="M315.188 -178.508C331.065 -166.397 340.788 -148.641 356.389 -136.201C371.108 -124.464 391.01 -120.17 404.588 -107.224C419.167 -93.3234 439.48 -77.7071 438.147 -58.2489C436.649 -36.3808 408.748 -25.54 397.691 -6.5409C390.155 6.40852 398.022 30.2677 383.553 35.5592C362.191 43.3711 333.302 9.02124 316.055 23.3129C297.501 38.6862 327.985 75.0826 313.201 93.853C303.579 106.07 281.686 88.952 265.631 87.3333C249.774 85.7346 232.892 90.7615 218.347 84.2898C203.802 77.8184 200.245 56.0436 184.978 51.4481C152.11 41.5551 111.455 62.8388 83.2622 43.6302C62.3041 29.3507 70.0856 -3.51273 68.4785 -27.9271C66.8379 -52.8499 49.648 -92.8035 73.6859 -101.847C116.954 -118.124 165.758 -74.0792 211.688 -81.8024C227.449 -84.4527 216.475 -111.862 220.868 -126.596C229.955 -157.069 223.157 -200.323 251.717 -216.042C273.084 -227.802 295.55 -193.487 315.188 -178.508Z" fill="#5857AB"/>
<path opacity="0.16" fill-rule="evenodd" clip-rule="evenodd" d="M231.87 -238.886C251.883 -238.237 270.213 -229.44 290.195 -228.365C309.048 -227.35 327.738 -235.381 346.374 -232.723C366.385 -229.869 392.061 -228.94 402.41 -212.361C414.041 -193.729 397.744 -168.773 399.924 -146.939C401.41 -132.057 421.819 -117.229 413.173 -104.555C400.408 -85.8441 356.759 -97.0279 351.144 -75.4346C345.104 -52.207 391.252 -40.2842 390.269 -16.4785C389.63 -0.984303 361.788 -2.21843 347.794 5.75965C333.973 13.639 323.212 27.4939 307.594 30.6555C291.976 33.817 276.294 18.1867 261.191 23.2906C228.678 34.2783 208.155 75.1001 173.967 75.8138C148.552 76.3443 135.566 45.143 119.917 26.2398C103.942 6.94282 66.5047 -15.5646 80.7195 -36.8243C106.306 -75.0914 171.83 -67.5596 204.604 -100.418C215.851 -111.694 190.833 -127.608 185.746 -142.121C175.224 -172.136 144.289 -203.339 158.256 -232.64C168.705 -254.561 207.116 -239.688 231.87 -238.886Z" fill="#5857AB"/>
<path opacity="0.16" fill-rule="evenodd" clip-rule="evenodd" d="M392.025 -165.386C410.543 -157.824 424.61 -143.214 442.948 -135.263C460.251 -127.762 480.59 -128.79 497.11 -119.825C514.848 -110.198 538.572 -100.406 542.418 -81.2802C546.742 -59.7857 522.674 -42.0716 517.015 -20.8617C513.158 -6.40536 527.045 14.5765 514.476 23.4441C495.921 36.5354 458.978 10.8923 446.103 29.168C432.253 48.827 471.275 76.0306 461.958 97.9885C455.894 112.28 430.249 101.449 414.327 104.06C398.602 106.638 383.636 115.877 367.89 113.412C352.146 110.947 342.969 90.856 327.021 90.389C292.69 89.3837 259.069 120.491 226.792 109.28C202.799 100.946 201.639 67.2066 193.647 44.0618C185.489 20.4349 158.359 -13.6569 179.173 -28.632C216.637 -55.5869 275.358 -25.7634 317.647 -45.1544C332.159 -51.8085 314.337 -75.4093 314.691 -90.771C315.421 -122.543 297.449 -162.521 320.866 -185.114C338.385 -202.017 369.121 -174.738 392.025 -165.386Z" fill="#5857AB"/>
<path opacity="0.16" fill-rule="evenodd" clip-rule="evenodd" d="M511.17 -216.69C529.689 -209.128 543.756 -194.519 562.094 -186.568C579.396 -179.066 599.736 -180.095 616.256 -171.129C633.994 -161.503 657.717 -151.71 661.564 -132.585C665.887 -111.09 641.82 -93.3761 636.161 -72.1661C632.304 -57.7098 646.191 -36.728 633.622 -27.8603C615.066 -14.769 578.124 -40.4121 565.249 -22.1364C551.398 -2.4774 590.42 24.7262 581.104 46.6841C575.04 60.9757 549.395 50.145 533.473 52.7557C517.748 55.334 502.781 64.573 487.036 62.1075C471.292 59.6421 462.115 39.5516 446.167 39.0846C411.836 38.0792 378.214 69.1867 345.938 57.9756C321.944 49.6414 320.785 15.9022 312.793 -7.24267C304.635 -30.8695 277.505 -64.9614 298.318 -79.9364C335.782 -106.891 394.504 -77.0679 436.793 -96.4589C451.305 -103.113 433.483 -126.714 433.836 -142.075C434.567 -173.847 416.595 -213.825 440.012 -236.418C457.531 -253.322 488.266 -226.042 511.17 -216.69Z" fill="#5857AB"/>
</g>
</svg>
