<svg width="17" height="17" viewBox="0 0 17 17" fill="none" xmlns="http://www.w3.org/2000/svg">
<path d="M10.0333 4.33317C10.6845 4.46021 11.2829 4.77868 11.752 5.24779C12.2211 5.71691 12.5396 6.31535 12.6666 6.9665M10.0333 1.6665C11.3862 1.81679 12.6477 2.42262 13.6108 3.38451C14.5739 4.3464 15.1813 5.60718 15.3333 6.95984M14.6666 12.2798V14.2798C14.6674 14.4655 14.6294 14.6493 14.555 14.8194C14.4806 14.9895 14.3715 15.1422 14.2347 15.2677C14.0979 15.3933 13.9364 15.4888 13.7605 15.5483C13.5846 15.6078 13.3982 15.6299 13.2133 15.6132C11.1619 15.3903 9.19131 14.6893 7.45998 13.5665C5.84919 12.5429 4.48353 11.1773 3.45998 9.5665C2.33329 7.82731 1.63214 5.84717 1.41331 3.7865C1.39665 3.60215 1.41856 3.41634 1.47764 3.24092C1.53673 3.0655 1.63169 2.9043 1.75649 2.76758C1.88128 2.63087 2.03318 2.52164 2.2025 2.44685C2.37183 2.37206 2.55487 2.33334 2.73998 2.33317H4.73998C5.06351 2.32999 5.37717 2.44456 5.62248 2.65553C5.8678 2.8665 6.02803 3.15947 6.07331 3.47984C6.15772 4.11988 6.31428 4.74832 6.53998 5.35317C6.62967 5.59179 6.64908 5.85111 6.59591 6.10042C6.54274 6.34973 6.41922 6.57858 6.23998 6.75984L5.39331 7.6065C6.34235 9.27553 7.72428 10.6575 9.39331 11.6065L10.24 10.7598C10.4212 10.5806 10.6501 10.4571 10.8994 10.4039C11.1487 10.3507 11.408 10.3701 11.6466 10.4598C12.2515 10.6855 12.8799 10.8421 13.52 10.9265C13.8438 10.9722 14.1396 11.1353 14.351 11.3848C14.5624 11.6344 14.6748 11.9529 14.6666 12.2798Z" stroke="white" stroke-width="1.5" stroke-linecap="round" stroke-linejoin="round"/>
</svg>
