<svg width="24" height="24" viewBox="0 0 24 24" fill="none" xmlns="http://www.w3.org/2000/svg">
<path d="M19.6429 7.71088V3.48602C19.6359 3.32227 19.5479 3.17271 19.4082 3.08699C19.2749 3.005 19.1143 2.97962 18.9622 3.0166L9.6441 6.72508H5.0437C4.17641 6.74219 3.38626 7.22708 2.9782 7.99252L2.55572 8.15682C1.48608 8.5275 0.769606 9.53621 0.771897 10.6683C0.765159 11.7963 1.48518 12.8006 2.55572 13.1562L2.83736 13.2736C3.05421 13.835 3.4727 14.2953 4.01091 14.5645L5.2549 19.071C5.58861 20.2968 6.85282 21.0199 8.07857 20.6862C8.57298 20.5516 9.00831 20.2558 9.31546 19.8456C9.74145 19.2561 9.87937 18.5061 9.691 17.8036L8.84604 14.7054H9.64405L18.9622 18.4842L19.1265 18.5312C19.2249 18.5327 19.322 18.5085 19.4081 18.4608C19.5474 18.386 19.6367 18.2432 19.6428 18.0853V13.6257C21.2761 13.6257 22.6002 12.3016 22.6001 10.6682C22.6001 9.03493 21.2762 7.71093 19.6429 7.71088ZM2.74351 12.2174C2.11625 11.9664 1.71943 11.3428 1.7577 10.6683C1.71943 9.99374 2.11625 9.37012 2.74351 9.11912V12.2174ZM8.5644 19.2588C8.30589 19.6069 7.89469 19.8081 7.46125 19.7986C6.8441 19.7798 6.31119 19.3611 6.14685 18.7659L5.0437 14.7053H7.88373L8.77564 18.0383C8.89752 18.4559 8.81957 18.9064 8.5644 19.2588ZM9.31551 13.7665H5.0437C4.33181 13.8055 3.72307 13.26 3.68403 12.5481C3.68227 12.5161 3.68169 12.4841 3.68236 12.4521V9.11912C3.65604 8.34182 4.26483 7.69031 5.04213 7.66394C5.04267 7.66394 5.04316 7.66389 5.0437 7.66389H9.31551V13.7665ZM18.704 17.3811L10.2543 14.0012V7.57004L18.704 4.19014V17.3811ZM19.6429 12.6868V8.64974C20.7577 8.64979 21.6614 9.55356 21.6614 10.6684C21.6613 11.7831 20.7576 12.6868 19.6429 12.6868Z" fill="#5857AB" stroke="#5857AB"/>
</svg>
