<svg width="24" height="25" viewBox="0 0 24 25" fill="none" xmlns="http://www.w3.org/2000/svg">
<path d="M1 2L23 24" stroke="#F8F5FF" stroke-width="2" stroke-linecap="round" stroke-linejoin="round"/>
<path d="M15 10.3401V5.00009C15.0007 4.25612 14.725 3.53841 14.2264 2.98629C13.7277 2.43417 13.0417 2.08703 12.3015 2.01227C11.5613 1.9375 10.8197 2.14043 10.2207 2.58168C9.62172 3.02293 9.20805 3.671 9.06 4.40009M9 10.0001V13.0001C9.00052 13.5931 9.17675 14.1726 9.50643 14.6654C9.83611 15.1583 10.3045 15.5424 10.8523 15.7692C11.4002 15.9961 12.0029 16.0555 12.5845 15.94C13.1661 15.8244 13.7005 15.5391 14.12 15.1201L9 10.0001Z" stroke="#F8F5FF" stroke-width="2" stroke-linecap="round" stroke-linejoin="round"/>
<path d="M17 17.95C16.0238 18.9464 14.7721 19.6285 13.4056 19.9086C12.0391 20.1887 10.62 20.0542 9.3305 19.5223C8.04096 18.9903 6.93976 18.0853 6.16817 16.9232C5.39658 15.761 4.9898 14.3949 5 13V11M19 11V13C18.9996 13.4124 18.9628 13.824 18.89 14.23" stroke="#F8F5FF" stroke-width="2" stroke-linecap="round" stroke-linejoin="round"/>
<path d="M12 20V24" stroke="#F8F5FF" stroke-width="2" stroke-linecap="round" stroke-linejoin="round"/>
<path d="M8 24H16" stroke="#F8F5FF" stroke-width="2" stroke-linecap="round" stroke-linejoin="round"/>
</svg>
