<svg width="40" height="33" viewBox="0 0 40 33" fill="none" xmlns="http://www.w3.org/2000/svg">
<path d="M26.3566 22.8947L19.8385 16.377L13.3207 22.8947" stroke="#C8D6E3" stroke-width="3" stroke-linecap="round" stroke-linejoin="round"/>
<path d="M19.8385 16.377V31.0421" stroke="#C8D6E3" stroke-width="3" stroke-linecap="round" stroke-linejoin="round"/>
<path d="M33.51 26.7891C35.0985 25.9222 36.3532 24.5512 37.0762 22.8923C37.7991 21.2334 37.9493 19.381 37.5029 17.6274C37.0564 15.8737 36.0389 14.3185 34.6107 13.2072C33.1826 12.0959 31.4251 11.4917 29.6155 11.4899H27.5622C27.0693 9.58186 26.1503 7.81043 24.8742 6.30878C23.5981 4.80712 21.9982 3.61432 20.1947 2.82007C18.3912 2.02581 16.4312 1.65077 14.4619 1.72315C12.4926 1.79553 10.5653 2.31344 8.82499 3.23795C7.08469 4.16245 5.57663 5.46948 4.41421 7.06076C3.2518 8.65204 2.46528 10.4861 2.11381 12.4252C1.76233 14.3642 1.85504 16.3577 2.38497 18.2557C2.91489 20.1538 3.86824 21.907 5.17333 23.3835" stroke="#C8D6E3" stroke-width="3" stroke-linecap="round" stroke-linejoin="round"/>
<path d="M26.3566 22.8947L19.8385 16.377L13.3207 22.8947" stroke="#C8D6E3" stroke-width="3" stroke-linecap="round" stroke-linejoin="round"/>
</svg>
