<svg width="16" height="16" viewBox="0 0 16 16" fill="none" xmlns="http://www.w3.org/2000/svg">
<path d="M7.99998 11.2502C7.58577 11.2502 7.24998 11.5859 7.24998 12.0002C7.24998 12.4144 7.58577 12.7502 7.99998 12.7502V11.2502ZM8.00665 12.7502C8.42086 12.7502 8.75665 12.4144 8.75665 12.0002C8.75665 11.5859 8.42086 11.2502 8.00665 11.2502V12.7502ZM5.33331 3.91683C4.9191 3.91683 4.58331 4.25262 4.58331 4.66683C4.58331 5.08104 4.9191 5.41683 5.33331 5.41683V3.91683ZM10.6666 5.41683C11.0809 5.41683 11.4166 5.08104 11.4166 4.66683C11.4166 4.25262 11.0809 3.91683 10.6666 3.91683V5.41683ZM5.33331 5.91683C4.9191 5.91683 4.58331 6.25262 4.58331 6.66683C4.58331 7.08104 4.9191 7.41683 5.33331 7.41683V5.91683ZM10.6666 7.41683C11.0809 7.41683 11.4166 7.08104 11.4166 6.66683C11.4166 6.25262 11.0809 5.91683 10.6666 5.91683V7.41683ZM5.33331 7.91683C4.9191 7.91683 4.58331 8.25262 4.58331 8.66683C4.58331 9.08104 4.9191 9.41683 5.33331 9.41683V7.91683ZM7.99998 9.41683C8.41419 9.41683 8.74998 9.08104 8.74998 8.66683C8.74998 8.25262 8.41419 7.91683 7.99998 7.91683V9.41683ZM4.66665 2.0835H11.3333V0.583496H4.66665V2.0835ZM11.3333 2.0835C11.6555 2.0835 11.9166 2.34466 11.9166 2.66683H13.4166C13.4166 1.51624 12.4839 0.583496 11.3333 0.583496V2.0835ZM11.9166 2.66683V13.3335H13.4166V2.66683H11.9166ZM11.9166 13.3335C11.9166 13.6557 11.6555 13.9168 11.3333 13.9168V15.4168C12.4839 15.4168 13.4166 14.4841 13.4166 13.3335H11.9166ZM11.3333 13.9168H4.66665V15.4168H11.3333V13.9168ZM4.66665 13.9168C4.34448 13.9168 4.08331 13.6557 4.08331 13.3335H2.58331C2.58331 14.4841 3.51605 15.4168 4.66665 15.4168V13.9168ZM4.08331 13.3335V2.66683H2.58331V13.3335H4.08331ZM4.08331 2.66683C4.08331 2.34466 4.34448 2.0835 4.66665 2.0835V0.583496C3.51605 0.583496 2.58331 1.51624 2.58331 2.66683H4.08331ZM7.99998 12.7502H8.00665V11.2502H7.99998V12.7502ZM5.33331 5.41683H10.6666V3.91683H5.33331V5.41683ZM5.33331 7.41683H10.6666V5.91683H5.33331V7.41683ZM5.33331 9.41683H7.99998V7.91683H5.33331V9.41683Z" fill="white"/>
</svg>
