<svg width="24" height="24" viewBox="0 0 24 24" fill="none" xmlns="http://www.w3.org/2000/svg">
<path d="M13.9381 6C14.9149 6.19057 15.8125 6.66826 16.5162 7.37194C17.2199 8.07561 17.6976 8.97326 17.8881 9.95M13.9381 2C15.9674 2.22544 17.8597 3.13417 19.3044 4.57701C20.749 6.01984 21.6601 7.91101 21.8881 9.94M20.8881 17.92V20.92C20.8892 21.1985 20.8322 21.4742 20.7206 21.7293C20.6091 21.9845 20.4454 22.2136 20.2402 22.4019C20.035 22.5901 19.7927 22.7335 19.5289 22.8227C19.265 22.9119 18.9855 22.9451 18.7081 22.92C15.631 22.5856 12.6751 21.5341 10.0781 19.85C7.66194 18.3147 5.61345 16.2662 4.07812 13.85C2.38809 11.2412 1.33636 8.27099 1.00812 5.18C0.983127 4.90347 1.01599 4.62476 1.10462 4.36162C1.19324 4.09849 1.33569 3.85669 1.52288 3.65162C1.71008 3.44655 1.93792 3.28271 2.19191 3.17052C2.44589 3.05833 2.72046 3.00026 2.99812 3H5.99812C6.48342 2.99522 6.95391 3.16708 7.32188 3.48353C7.68985 3.79999 7.93019 4.23945 7.99812 4.72C8.12474 5.68007 8.35957 6.62273 8.69812 7.53C8.83266 7.88792 8.86178 8.27691 8.78202 8.65088C8.70227 9.02485 8.51698 9.36811 8.24812 9.64L6.97812 10.91C8.40167 13.4135 10.4746 15.4864 12.9781 16.91L14.2481 15.64C14.52 15.3711 14.8633 15.1858 15.2372 15.1061C15.6112 15.0263 16.0002 15.0555 16.3581 15.19C17.2654 15.5286 18.2081 15.7634 19.1681 15.89C19.6539 15.9585 20.0975 16.2032 20.4146 16.5775C20.7318 16.9518 20.9003 17.4296 20.8881 17.92Z" stroke="#F8F5FF" stroke-width="2" stroke-linecap="round" stroke-linejoin="round"/>
</svg>
