<svg width="18" height="16" viewBox="0 0 18 16" fill="none" xmlns="http://www.w3.org/2000/svg">
<path d="M16.3334 1.99987C15.6949 2.45019 14.9881 2.79461 14.24 3.01987C13.8385 2.55821 13.3049 2.231 12.7114 2.08249C12.1178 1.93397 11.493 1.97133 10.9214 2.1895C10.3498 2.40768 9.85898 2.79614 9.51534 3.30235C9.1717 3.80856 8.99182 4.40809 9.00002 5.01987V5.68653C7.82844 5.71691 6.66754 5.45708 5.62069 4.93017C4.57385 4.40325 3.67356 3.62563 3.00002 2.66653C3.00002 2.66653 0.333354 8.66654 6.33335 11.3332C4.96037 12.2652 3.32479 12.7325 1.66669 12.6665C7.66669 15.9999 15 12.6665 15 4.99987C14.9994 4.81417 14.9816 4.62893 14.9467 4.44653C15.6271 3.77553 16.1072 2.92834 16.3334 1.99987Z" stroke="white" stroke-width="1.5" stroke-linecap="round" stroke-linejoin="round"/>
</svg>
