<svg width="18" height="18" viewBox="0 0 18 18" fill="none" xmlns="http://www.w3.org/2000/svg">
<path d="M9.00001 6.74991V9.74991M9.00001 12.7499H9.00751M7.71752 2.89491L1.36502 13.4999C1.23404 13.7267 1.16474 13.9839 1.16401 14.2458C1.16327 14.5077 1.23113 14.7653 1.36084 14.9928C1.49054 15.2203 1.67756 15.41 1.9033 15.5428C2.12903 15.6756 2.38562 15.747 2.64752 15.7499H15.3525C15.6144 15.747 15.871 15.6756 16.0967 15.5428C16.3225 15.41 16.5095 15.2203 16.6392 14.9928C16.7689 14.7653 16.8368 14.5077 16.836 14.2458C16.8353 13.9839 16.766 13.7267 16.635 13.4999L10.2825 2.89491C10.1488 2.67449 9.96056 2.49225 9.73591 2.36577C9.51127 2.2393 9.25782 2.17285 9.00002 2.17285C8.74221 2.17285 8.48876 2.2393 8.26412 2.36577C8.03947 2.49225 7.85122 2.67449 7.71752 2.89491Z" stroke="white" stroke-width="2" stroke-linecap="round" stroke-linejoin="round"/>
</svg>
