<svg width="24" height="25" viewBox="0 0 24 25" fill="none" xmlns="http://www.w3.org/2000/svg">
<path d="M9 1.02002V4.02002M15 1.02002V4.02002M9 20.02V23.02M15 20.02V23.02M20 9.02002H23M20 14.02H23M1 9.02002H4M1 14.02H4M6 4.02002H18C19.1046 4.02002 20 4.91545 20 6.02002V18.02C20 19.1246 19.1046 20.02 18 20.02H6C4.89543 20.02 4 19.1246 4 18.02V6.02002C4 4.91545 4.89543 4.02002 6 4.02002ZM9 9.02002H15V15.02H9V9.02002Z" stroke="#5857AB" stroke-width="2" stroke-linecap="round" stroke-linejoin="round"/>
</svg>
