<svg width="32" height="33" viewBox="0 0 32 33" fill="none" xmlns="http://www.w3.org/2000/svg">
<path d="M16 12.5V17.8334M16 23.1667H16.0133M13.72 5.6467L2.42667 24.5C2.19383 24.9033 2.07063 25.3604 2.06933 25.8261C2.06802 26.2917 2.18866 26.7495 2.41924 27.1541C2.64982 27.5586 2.98231 27.8957 3.38362 28.1318C3.78493 28.368 4.24107 28.4949 4.70667 28.5H27.2933C27.7589 28.4949 28.2151 28.368 28.6164 28.1318C29.0177 27.8957 29.3502 27.5586 29.5808 27.1541C29.8114 26.7495 29.932 26.2917 29.9307 25.8261C29.9294 25.3604 29.8062 24.9033 29.5733 24.5L18.28 5.6467C18.0423 5.25484 17.7076 4.93085 17.3083 4.70601C16.9089 4.48116 16.4583 4.36304 16 4.36304C15.5417 4.36304 15.0911 4.48116 14.6917 4.70601C14.2924 4.93085 13.9577 5.25484 13.72 5.6467Z" stroke="#F58925" stroke-width="3" stroke-linecap="round" stroke-linejoin="round"/>
</svg>
