<svg width="40" height="33" viewBox="0 0 40 33" fill="none" xmlns="http://www.w3.org/2000/svg">
<path d="M26.8566 22.8945L20.3385 16.3767L13.8207 22.8945" stroke="#C8D6E3" stroke-width="3" stroke-linecap="round" stroke-linejoin="round"/>
<path d="M20.3385 16.3767V31.0419" stroke="#C8D6E3" stroke-width="3" stroke-linecap="round" stroke-linejoin="round"/>
<path d="M34.01 26.7891C35.5985 25.9222 36.8532 24.5512 37.5762 22.8923C38.2991 21.2334 38.4493 19.381 38.0029 17.6274C37.5564 15.8737 36.5389 14.3185 35.1107 13.2072C33.6826 12.0959 31.9251 11.4917 30.1155 11.4899H28.0622C27.5693 9.58186 26.6503 7.81043 25.3742 6.30878C24.0981 4.80712 22.4982 3.61432 20.6947 2.82007C18.8912 2.02581 16.9312 1.65077 14.9619 1.72315C12.9926 1.79553 11.0653 2.31344 9.32499 3.23795C7.58469 4.16245 6.07663 5.46948 4.91421 7.06076C3.7518 8.65204 2.96528 10.4861 2.61381 12.4252C2.26233 14.3642 2.35504 16.3577 2.88497 18.2557C3.41489 20.1538 4.36824 21.907 5.67333 23.3835" stroke="#C8D6E3" stroke-width="3" stroke-linecap="round" stroke-linejoin="round"/>
<path d="M26.8566 22.8945L20.3385 16.3767L13.8207 22.8945" stroke="#C8D6E3" stroke-width="3" stroke-linecap="round" stroke-linejoin="round"/>
</svg>
