<svg width="18" height="18" viewBox="0 0 18 18" fill="none" xmlns="http://www.w3.org/2000/svg">
<path d="M8.99998 6.74991V9.74991M8.99998 12.7499H9.00748M7.71749 2.89491L1.36499 13.4999C1.23401 13.7267 1.16471 13.9839 1.16398 14.2458C1.16324 14.5077 1.2311 14.7653 1.3608 14.9928C1.49051 15.2203 1.67753 15.41 1.90327 15.5428C2.129 15.6756 2.38558 15.747 2.64749 15.7499H15.3525C15.6144 15.747 15.871 15.6756 16.0967 15.5428C16.3224 15.41 16.5095 15.2203 16.6392 14.9928C16.7689 14.7653 16.8367 14.5077 16.836 14.2458C16.8353 13.9839 16.766 13.7267 16.635 13.4999L10.2825 2.89491C10.1488 2.67449 9.96053 2.49225 9.73588 2.36577C9.51124 2.2393 9.25779 2.17285 8.99998 2.17285C8.74218 2.17285 8.48873 2.2393 8.26409 2.36577C8.03944 2.49225 7.85119 2.67449 7.71749 2.89491Z" stroke="white" stroke-width="2" stroke-linecap="round" stroke-linejoin="round"/>
</svg>
