<svg width="83" height="92" viewBox="0 0 83 92" fill="none" xmlns="http://www.w3.org/2000/svg">
<path d="M16.5402 9.36601C34.4812 9.36601 46.8015 0 55.4465 0C64.0915 0 82.2477 5.00845 82.2477 45.0891C82.2477 85.1698 57.8224 91.0513 48.3137 91.0513C3.78678 91.0539 -15.2332 9.36601 16.5402 9.36601Z" fill="#F6F8FA"/>
<path d="M65.4922 72.3192H17.5078C14.6417 72.3192 12.3203 69.9797 12.3203 67.0912V27.881H70.6797V67.0912C70.6797 69.9797 68.3583 72.3192 65.4922 72.3192Z" fill="#F6F8FA"/>
<path d="M70.3594 28.1491H12V24.228C12 21.3395 14.3214 19 17.1875 19H65.1719C68.038 19 70.3594 21.3395 70.3594 24.228V28.1491Z" fill="#F13E17"/>
<path d="M41.4998 64.477C49.0203 64.477 55.1169 58.3328 55.1169 50.7535C55.1169 43.1742 49.0203 37.0299 41.4998 37.0299C33.9792 37.0299 27.8826 43.1742 27.8826 50.7535C27.8826 58.3328 33.9792 64.477 41.4998 64.477Z" fill="#F13E17"/>
<path d="M18.8047 67.0911V27.8809H12.3203V67.0911C12.3203 69.9796 14.6417 72.3191 17.5078 72.3191H23.9922C21.1261 72.3191 18.8047 69.9796 18.8047 67.0911Z" fill="#E4EBF1"/>
<path d="M33.7185 50.7534C33.7185 44.187 38.3017 38.7106 44.4177 37.3618C43.4762 37.1553 42.5035 37.0298 41.4998 37.0298C33.9805 37.0298 27.8826 43.1727 27.8826 50.7534C27.8826 58.3314 33.9805 64.4769 41.4998 64.4769C42.5035 64.4769 43.4762 64.3514 44.4177 64.1423C38.3017 62.7961 33.7185 57.3198 33.7185 50.7534Z" fill="#E70D35"/>
<path d="M23.3438 18.7319H17.5078C14.6417 18.7319 12.3203 21.0715 12.3203 23.96V27.881H18.1563V23.96C18.1563 21.0715 20.4777 18.7319 23.3438 18.7319Z" fill="#E70D35"/>
<path d="M41.4998 66.4377C32.917 66.4377 25.9373 59.4034 25.9373 50.7537C25.9373 42.1039 32.917 35.0696 41.4998 35.0696C50.0825 35.0696 57.0622 42.1039 57.0622 50.7537C57.0622 59.4034 50.0825 66.4377 41.4998 66.4377ZM41.4998 38.9906C35.0647 38.9906 29.8279 44.2683 29.8279 50.7537C29.8279 57.239 35.0647 62.5167 41.4998 62.5167C47.9348 62.5167 53.1716 57.239 53.1716 50.7537C53.1716 44.2683 47.9348 38.9906 41.4998 38.9906Z" fill="#252473"/>
<path d="M36.8721 55.4078C36.1124 54.6421 36.1124 53.4008 36.8721 52.6352L43.3555 46.1012C44.1152 45.3355 45.3469 45.3355 46.1066 46.1012C46.8663 46.8668 46.8663 48.1081 46.1066 48.8737L39.6232 55.4078C38.8635 56.1734 37.6318 56.1734 36.8721 55.4078Z" fill="#252473"/>
<path d="M36.8721 48.8725C36.1124 48.1069 36.1124 46.8655 36.8721 46.0999C37.6318 45.3343 38.8635 45.3343 39.6232 46.0999L46.1066 52.634C46.8663 53.3996 46.8663 54.6409 46.1066 55.4065C45.3469 56.1722 44.1152 56.1722 43.3555 55.4065L36.8721 48.8725Z" fill="#252473"/>
<path d="M65.4922 74.2798H17.5078C13.5731 74.2798 10.375 71.0567 10.375 67.0912V23.96C10.375 19.9946 13.5731 16.7715 17.5078 16.7715H65.4922C69.4269 16.7715 72.625 19.9946 72.625 23.96V67.0912C72.625 71.0567 69.4269 74.2798 65.4922 74.2798ZM17.5078 20.6925C15.7207 20.6925 14.2656 22.159 14.2656 23.96V67.0912C14.2656 68.8923 15.7207 70.3588 17.5078 70.3588H65.4922C67.2793 70.3588 68.7344 68.8923 68.7344 67.0912V23.96C68.7344 22.159 67.2793 20.6925 65.4922 20.6925H17.5078Z" fill="#252473"/>
<path d="M12.3203 25.9207H70.6797V29.8417H12.3203V25.9207Z" fill="#252473"/>
<path d="M0 72.3193C0 71.2365 0.877749 70.3588 1.96051 70.3588H81.0395C82.1222 70.3588 83 71.2365 83 72.3193C83 73.402 82.1223 74.2798 81.0395 74.2798H1.96051C0.877752 74.2798 0 73.402 0 72.3193Z" fill="#252473"/>
<path d="M76.5159 16.7717C74.3708 16.7717 72.6252 15.0125 72.6252 12.8507C72.6252 10.6889 74.3708 8.92969 76.5159 8.92969C78.6609 8.92969 80.4065 10.6889 80.4065 12.8507C80.4065 15.0125 78.6609 16.7717 76.5159 16.7717ZM76.5159 11.5437C75.8026 11.5437 75.219 12.1292 75.219 12.8507C75.219 13.5722 75.8026 14.1577 76.5159 14.1577C77.2292 14.1577 77.8127 13.5722 77.8127 12.8507C77.8127 12.1292 77.2292 11.5437 76.5159 11.5437Z" fill="#C8D6E3"/>
</svg>
