<svg width="91" height="83" viewBox="0 0 91 83" fill="none" xmlns="http://www.w3.org/2000/svg">
<path d="M83.3812 14.9172C81.2206 14.9172 79.4624 13.1589 79.4624 10.9984C79.4624 8.83782 81.2206 7.07959 83.3812 7.07959C85.5418 7.07959 87.3 8.83782 87.3 10.9984C87.3 13.1589 85.5418 14.9172 83.3812 14.9172ZM83.3812 9.69212C82.6628 9.69212 82.0749 10.2773 82.0749 10.9984C82.0749 11.7194 82.6628 12.3046 83.3812 12.3046C84.0996 12.3046 84.6875 11.7194 84.6875 10.9984C84.6875 10.2773 84.0996 9.69212 83.3812 9.69212Z" fill="#C8D6E3"/>
<path d="M9.36069 15.9024C9.36069 33.9732 0 46.3827 0 55.0903C0 63.7978 5.0056 82.0855 45.0635 82.0855C85.1214 82.0855 90.9996 57.4833 90.9996 47.9058C91.0022 3.05655 9.36069 -16.1011 9.36069 15.9024Z" fill="#F6F8FA"/>
<path d="M69.6655 67.821H21.3337C18.4469 67.821 16.1086 65.4828 16.1086 62.5959V23.408H74.8905V62.5959C74.8905 65.4828 72.5523 67.821 69.6655 67.821Z" fill="#F6F8FA"/>
<path d="M74.8905 23.408H16.1086V19.4892C16.1086 16.6024 18.4469 14.2642 21.3337 14.2642H69.6655C72.5523 14.2642 74.8905 16.6024 74.8905 19.4892V23.408Z" fill="#F58925"/>
<path d="M61.828 57.4883C61.828 58.8599 60.6968 59.9832 59.3147 59.9832H31.6846C30.3026 59.9832 29.1714 58.8599 29.1714 57.4883C29.1714 57.0154 29.2968 56.5661 29.5476 56.1925L43.3626 33.7482C43.7885 33.0246 44.5931 32.5517 45.4971 32.5517C46.401 32.5517 47.2057 33.0246 47.6315 33.7482L61.4466 56.1925C61.7026 56.5661 61.828 57.0154 61.828 57.4883Z" fill="#F58925"/>
<path d="M27.2119 14.2642H21.3337C18.4469 14.2642 16.1086 16.6024 16.1086 19.4892V23.408H21.9868V19.4892C21.9868 16.6024 24.325 14.2642 27.2119 14.2642Z" fill="#E2633A"/>
<path d="M35.0496 57.4883C35.0496 57.0154 35.175 56.5661 35.4258 56.1925L48.4388 35.0545L47.6341 33.7482C47.2083 33.0246 46.4036 32.5517 45.4997 32.5517C44.5958 32.5517 43.7911 33.0246 43.3653 33.7482L29.5476 56.1925C29.2968 56.5661 29.1714 57.0154 29.1714 57.4883C29.1714 58.8599 30.3026 59.9832 31.6846 59.9832H37.5628C36.1808 59.9832 35.0496 58.8599 35.0496 57.4883Z" fill="#E2633A"/>
<path d="M21.9868 62.5961V23.4082H16.1086V62.5961C16.1086 65.483 18.4469 67.8212 21.3337 67.8212H27.2119C24.325 67.8212 21.9868 65.483 21.9868 62.5961Z" fill="#E4EBF1"/>
<path d="M69.6652 69.7803H21.3334C17.3702 69.7803 14.1489 66.559 14.1489 62.5958V19.4891C14.1489 15.5259 17.3702 12.3047 21.3334 12.3047H69.6652C73.6284 12.3047 76.8496 15.5259 76.8496 19.4891V62.5958C76.8496 66.559 73.6284 69.7803 69.6652 69.7803ZM21.3334 16.2235C19.5333 16.2235 18.0677 17.6891 18.0677 19.4891V62.5958C18.0677 64.3959 19.5333 65.8615 21.3334 65.8615H69.6652C71.4652 65.8615 72.9308 64.3959 72.9308 62.5958V19.4891C72.9308 17.6891 71.4652 16.2235 69.6652 16.2235H21.3334Z" fill="#252473"/>
<path d="M16.1086 21.4488H74.8905V25.3676H16.1086V21.4488Z" fill="#252473"/>
<path d="M59.3149 61.9429H31.6848C29.2186 61.9429 27.2122 59.9443 27.2122 57.4886C27.2122 56.616 27.4577 55.7878 27.9228 55.0955L41.6934 32.7192C42.4615 31.4208 43.9245 30.5926 45.4999 30.5926C47.0752 30.5926 48.5382 31.4208 49.3246 32.7531L63.1187 55.166C63.542 55.7904 63.7876 56.616 63.7876 57.4886C63.7876 59.9443 61.7811 61.9429 59.3149 61.9429ZM45.4999 34.5114C45.27 34.5114 45.1158 34.6368 45.0531 34.7439L31.131 57.4886C31.131 57.7786 31.3844 58.0241 31.6848 58.0241H59.3149C59.6153 58.0241 59.8688 57.7786 59.8688 57.4886C59.8688 57.4024 59.8531 57.3266 59.8243 57.2848L45.9649 34.7726C45.8839 34.6368 45.7298 34.5114 45.4999 34.5114Z" fill="#252473"/>
<path d="M43.54 43.0021C43.54 41.9199 44.4173 41.0427 45.4994 41.0427C46.5816 41.0427 47.4588 41.9199 47.4588 43.0021V48.2271C47.4588 49.3093 46.5816 50.1865 45.4994 50.1865C44.4173 50.1865 43.54 49.3093 43.54 48.2271V43.0021Z" fill="#252473"/>
<path d="M45.4994 56.7178C46.5816 56.7178 47.4588 55.8406 47.4588 54.7584C47.4588 53.6763 46.5816 52.799 45.4994 52.799C44.4173 52.799 43.54 53.6763 43.54 54.7584C43.54 55.8406 44.4173 56.7178 45.4994 56.7178Z" fill="#252473"/>
<path d="M3.69922 67.8211C3.69922 66.739 4.57647 65.8617 5.65861 65.8617H85.3407C86.4229 65.8617 87.3001 66.739 87.3001 67.8211C87.3001 68.9032 86.4229 69.7805 85.3407 69.7805H5.65861C4.57647 69.7805 3.69922 68.9032 3.69922 67.8211Z" fill="#252473"/>
</svg>
