<svg width="94" height="94" viewBox="0 0 94 94" fill="none" xmlns="http://www.w3.org/2000/svg">
<path d="M21.8733 83.1197C39.9343 83.1197 52.3371 92.4753 61.04 92.4753C69.7428 92.4753 88.0206 87.4724 88.0206 47.4362C88.0206 7.40007 63.4317 1.52246 53.8594 1.52246C9.03445 1.52246 -10.1128 83.1197 21.8733 83.1197Z" fill="#F6F8FA"/>
<path d="M77.3542 5.875H79.9653V11.0972H77.3542V5.875Z" fill="#C8D6E3"/>
<path d="M83.2292 13.7085H88.4514V16.3196H83.2292V13.7085Z" fill="#C8D6E3"/>
<path d="M71.1528 73.7639H22.8472C19.9619 73.7639 17.625 71.427 17.625 68.5417V29.375H76.375V68.5417C76.375 71.427 74.0381 73.7639 71.1528 73.7639Z" fill="#F6F8FA"/>
<path d="M76.375 29.3752H17.625V25.4586C17.625 22.5733 19.9619 20.2363 22.8472 20.2363H71.1528C74.0381 20.2363 76.375 22.5733 76.375 25.4586V29.3752Z" fill="#1DB792"/>
<path d="M47 65.9303C54.5709 65.9303 60.7084 59.7929 60.7084 52.222C60.7084 44.6511 54.5709 38.5137 47 38.5137C39.4291 38.5137 33.2917 44.6511 33.2917 52.222C33.2917 59.7929 39.4291 65.9303 47 65.9303Z" fill="#1DB792"/>
<path d="M39.1667 52.222C39.1667 45.6629 43.7805 40.1926 49.9375 38.8453C48.9897 38.639 48.0105 38.5137 47 38.5137C39.4304 38.5137 33.2917 44.6498 33.2917 52.222C33.2917 59.7916 39.4304 65.9303 47 65.9303C48.0105 65.9303 48.9897 65.805 49.9375 65.5961C43.7805 64.2514 39.1667 58.7811 39.1667 52.222Z" fill="#1A987A"/>
<path d="M24.1528 68.5417V29.375H17.625V68.5417C17.625 71.427 19.9619 73.7639 22.8472 73.7639H29.375C26.4897 73.7639 24.1528 71.427 24.1528 68.5417Z" fill="#E4EBF1"/>
<path d="M28.7222 20.2363H22.8472C19.9619 20.2363 17.625 22.5733 17.625 25.4586V29.3752H23.5V25.4586C23.5 22.5733 25.8369 20.2363 28.7222 20.2363Z" fill="#1A987A"/>
<path d="M47 67.889C38.3598 67.889 31.3333 60.8625 31.3333 52.2223C31.3333 43.5822 38.3598 36.5557 47 36.5557C55.6401 36.5557 62.6666 43.5822 62.6666 52.2223C62.6666 60.8625 55.6401 67.889 47 67.889ZM47 40.4723C40.5218 40.4723 35.25 45.7442 35.25 52.2223C35.25 58.7005 40.5218 63.9723 47 63.9723C53.4781 63.9723 58.75 58.7005 58.75 52.2223C58.75 45.7442 53.4781 40.4723 47 40.4723Z" fill="#252473"/>
<path d="M45.3994 58.75C44.9241 58.75 44.4515 58.5803 44.0755 58.2356L41.2459 55.6428C40.4482 54.9118 40.3945 53.6724 41.1261 52.8751C41.8568 52.0788 43.0945 52.0251 43.8915 52.7551L45.308 54.0526L50.1059 49.0245C50.8523 48.2423 52.0914 48.2128 52.8741 48.9588C53.6575 49.7054 53.6869 50.9458 52.9397 51.7287L46.8172 58.1442C46.4308 58.5463 45.9164 58.75 45.3994 58.75Z" fill="#252473"/>
<path d="M71.1528 75.7223H22.8472C18.8862 75.7223 15.6667 72.5028 15.6667 68.5417V25.4584C15.6667 21.4973 18.8862 18.2778 22.8472 18.2778H71.1528C75.1138 18.2778 78.3333 21.4973 78.3333 25.4584V68.5417C78.3333 72.5028 75.1138 75.7223 71.1528 75.7223ZM22.8472 22.1945C21.0482 22.1945 19.5834 23.6593 19.5834 25.4584V68.5417C19.5834 70.3408 21.0482 71.8056 22.8472 71.8056H71.1528C72.9518 71.8056 74.4167 70.3408 74.4167 68.5417V25.4584C74.4167 23.6593 72.9518 22.1945 71.1528 22.1945H22.8472Z" fill="#252473"/>
<path d="M17.625 27.4165H76.375V31.3332H17.625V27.4165Z" fill="#252473"/>
<path d="M5.22223 73.764C5.22223 72.6824 6.099 71.8057 7.18056 71.8057H86.8195C87.901 71.8057 88.7778 72.6824 88.7778 73.764C88.7778 74.8456 87.901 75.7223 86.8195 75.7223H7.18056C6.09901 75.7223 5.22223 74.8456 5.22223 73.764Z" fill="#252473"/>
</svg>
