<svg width="1257" height="43" viewBox="0 0 1257 43" fill="none" xmlns="http://www.w3.org/2000/svg">
<path d="M0 21.5C0 9.62588 9.62588 0 21.5 0H1255C1256.1 0 1257 0.895431 1257 2V41C1257 42.1046 1256.1 43 1255 43H21.5C9.62587 43 0 33.3741 0 21.5Z" fill="#E4EBF1"/>
<path d="M74.268 16.896H77.088V18H72.9V9.66H74.268V16.896ZM78.928 10.512C78.68 10.512 78.472 10.428 78.304 10.26C78.136 10.092 78.052 9.884 78.052 9.636C78.052 9.388 78.136 9.18 78.304 9.012C78.472 8.844 78.68 8.76 78.928 8.76C79.168 8.76 79.372 8.844 79.54 9.012C79.708 9.18 79.792 9.388 79.792 9.636C79.792 9.884 79.708 10.092 79.54 10.26C79.372 10.428 79.168 10.512 78.928 10.512ZM79.6 11.388V18H78.232V11.388H79.6ZM83.7961 18.108C83.2761 18.108 82.8081 18.016 82.3921 17.832C81.9841 17.64 81.6601 17.384 81.4201 17.064C81.1801 16.736 81.0521 16.372 81.0361 15.972H82.4521C82.4761 16.252 82.6081 16.488 82.8481 16.68C83.0961 16.864 83.4041 16.956 83.7721 16.956C84.1561 16.956 84.4521 16.884 84.6601 16.74C84.8761 16.588 84.9841 16.396 84.9841 16.164C84.9841 15.916 84.8641 15.732 84.6241 15.612C84.3921 15.492 84.0201 15.36 83.5081 15.216C83.0121 15.08 82.6081 14.948 82.2961 14.82C81.9841 14.692 81.7121 14.496 81.4801 14.232C81.2561 13.968 81.1441 13.62 81.1441 13.188C81.1441 12.836 81.2481 12.516 81.4561 12.228C81.6641 11.932 81.9601 11.7 82.3441 11.532C82.7361 11.364 83.1841 11.28 83.6881 11.28C84.4401 11.28 85.0441 11.472 85.5001 11.856C85.9641 12.232 86.2121 12.748 86.2441 13.404H84.8761C84.8521 13.108 84.7321 12.872 84.5161 12.696C84.3001 12.52 84.0081 12.432 83.6401 12.432C83.2801 12.432 83.0041 12.5 82.8121 12.636C82.6201 12.772 82.5241 12.952 82.5241 13.176C82.5241 13.352 82.5881 13.5 82.7161 13.62C82.8441 13.74 83.0001 13.836 83.1841 13.908C83.3681 13.972 83.6401 14.056 84.0001 14.16C84.4801 14.288 84.8721 14.42 85.1761 14.556C85.4881 14.684 85.7561 14.876 85.9801 15.132C86.2041 15.388 86.3201 15.728 86.3281 16.152C86.3281 16.528 86.2241 16.864 86.0161 17.16C85.8081 17.456 85.5121 17.688 85.1281 17.856C84.7521 18.024 84.3081 18.108 83.7961 18.108ZM89.4023 12.504V16.164C89.4023 16.412 89.4583 16.592 89.5703 16.704C89.6903 16.808 89.8903 16.86 90.1703 16.86H91.0103V18H89.9303C89.3143 18 88.8423 17.856 88.5143 17.568C88.1863 17.28 88.0223 16.812 88.0223 16.164V12.504H87.2423V11.388H88.0223V9.744H89.4023V11.388H91.0103V12.504H89.4023ZM95.0283 10.5V9.252H97.5243V18H96.1443V10.5H95.0283Z" fill="#252473"/>
<path d="M73.68 33.26H76.12V34H72.77V27.03H73.68V33.26ZM77.5564 27.63C77.3831 27.63 77.2364 27.57 77.1164 27.45C76.9964 27.33 76.9364 27.1833 76.9364 27.01C76.9364 26.8367 76.9964 26.69 77.1164 26.57C77.2364 26.45 77.3831 26.39 77.5564 26.39C77.7231 26.39 77.8631 26.45 77.9764 26.57C78.0964 26.69 78.1564 26.8367 78.1564 27.01C78.1564 27.1833 78.0964 27.33 77.9764 27.45C77.8631 27.57 77.7231 27.63 77.5564 27.63ZM77.9964 28.52V34H77.0864V28.52H77.9964ZM81.4873 34.09C81.0673 34.09 80.6907 34.02 80.3573 33.88C80.024 33.7333 79.7607 33.5333 79.5673 33.28C79.374 33.02 79.2673 32.7233 79.2473 32.39H80.1873C80.214 32.6633 80.3407 32.8867 80.5673 33.06C80.8007 33.2333 81.104 33.32 81.4773 33.32C81.824 33.32 82.0973 33.2433 82.2973 33.09C82.4973 32.9367 82.5973 32.7433 82.5973 32.51C82.5973 32.27 82.4907 32.0933 82.2773 31.98C82.064 31.86 81.734 31.7433 81.2873 31.63C80.8807 31.5233 80.5473 31.4167 80.2873 31.31C80.034 31.1967 79.814 31.0333 79.6273 30.82C79.4473 30.6 79.3573 30.3133 79.3573 29.96C79.3573 29.68 79.4407 29.4233 79.6073 29.19C79.774 28.9567 80.0107 28.7733 80.3173 28.64C80.624 28.5 80.974 28.43 81.3673 28.43C81.974 28.43 82.464 28.5833 82.8373 28.89C83.2107 29.1967 83.4107 29.6167 83.4373 30.15H82.5273C82.5073 29.8633 82.3907 29.6333 82.1773 29.46C81.9707 29.2867 81.6907 29.2 81.3373 29.2C81.0107 29.2 80.7507 29.27 80.5573 29.41C80.364 29.55 80.2673 29.7333 80.2673 29.96C80.2673 30.14 80.324 30.29 80.4373 30.41C80.5573 30.5233 80.704 30.6167 80.8773 30.69C81.0573 30.7567 81.304 30.8333 81.6173 30.92C82.0107 31.0267 82.3307 31.1333 82.5773 31.24C82.824 31.34 83.034 31.4933 83.2073 31.7C83.3873 31.9067 83.4807 32.1767 83.4873 32.51C83.4873 32.81 83.404 33.08 83.2373 33.32C83.0707 33.56 82.834 33.75 82.5273 33.89C82.2273 34.0233 81.8807 34.09 81.4873 34.09ZM85.882 29.27V32.5C85.882 32.7667 85.9386 32.9567 86.052 33.07C86.1653 33.1767 86.362 33.23 86.642 33.23H87.312V34H86.492C85.9853 34 85.6053 33.8833 85.352 33.65C85.0986 33.4167 84.972 33.0333 84.972 32.5V29.27H84.262V28.52H84.972V27.14H85.882V28.52H87.312V29.27H85.882ZM93.2905 34.07C92.8305 34.07 92.4172 33.99 92.0505 33.83C91.6905 33.6633 91.4072 33.4367 91.2005 33.15C90.9939 32.8567 90.8872 32.52 90.8805 32.14H91.8505C91.8839 32.4667 92.0172 32.7433 92.2505 32.97C92.4905 33.19 92.8372 33.3 93.2905 33.3C93.7239 33.3 94.0639 33.1933 94.3105 32.98C94.5639 32.76 94.6905 32.48 94.6905 32.14C94.6905 31.8733 94.6172 31.6567 94.4705 31.49C94.3239 31.3233 94.1405 31.1967 93.9205 31.11C93.7005 31.0233 93.4039 30.93 93.0305 30.83C92.5705 30.71 92.2005 30.59 91.9205 30.47C91.6472 30.35 91.4105 30.1633 91.2105 29.91C91.0172 29.65 90.9205 29.3033 90.9205 28.87C90.9205 28.49 91.0172 28.1533 91.2105 27.86C91.4039 27.5667 91.6739 27.34 92.0205 27.18C92.3739 27.02 92.7772 26.94 93.2305 26.94C93.8839 26.94 94.4172 27.1033 94.8305 27.43C95.2505 27.7567 95.4872 28.19 95.5405 28.73H94.5405C94.5072 28.4633 94.3672 28.23 94.1205 28.03C93.8739 27.8233 93.5472 27.72 93.1405 27.72C92.7605 27.72 92.4505 27.82 92.2105 28.02C91.9705 28.2133 91.8505 28.4867 91.8505 28.84C91.8505 29.0933 91.9205 29.3 92.0605 29.46C92.2072 29.62 92.3839 29.7433 92.5905 29.83C92.8039 29.91 93.1005 30.0033 93.4805 30.11C93.9405 30.2367 94.3105 30.3633 94.5905 30.49C94.8705 30.61 95.1105 30.8 95.3105 31.06C95.5105 31.3133 95.6105 31.66 95.6105 32.1C95.6105 32.44 95.5205 32.76 95.3405 33.06C95.1605 33.36 94.8939 33.6033 94.5405 33.79C94.1872 33.9767 93.7705 34.07 93.2905 34.07ZM97.4197 27.63C97.2464 27.63 97.0997 27.57 96.9797 27.45C96.8597 27.33 96.7997 27.1833 96.7997 27.01C96.7997 26.8367 96.8597 26.69 96.9797 26.57C97.0997 26.45 97.2464 26.39 97.4197 26.39C97.5864 26.39 97.7264 26.45 97.8397 26.57C97.9597 26.69 98.0197 26.8367 98.0197 27.01C98.0197 27.1833 97.9597 27.33 97.8397 27.45C97.7264 27.57 97.5864 27.63 97.4197 27.63ZM97.8597 28.52V34H96.9497V28.52H97.8597ZM100.091 33.25H102.781V34H99.0506V33.25L101.711 29.26H99.0706V28.52H102.761V29.26L100.091 33.25ZM108.961 31.05C108.961 31.2233 108.951 31.4067 108.931 31.6H104.551C104.585 32.14 104.768 32.5633 105.101 32.87C105.441 33.17 105.851 33.32 106.331 33.32C106.725 33.32 107.051 33.23 107.311 33.05C107.578 32.8633 107.765 32.6167 107.871 32.31H108.851C108.705 32.8367 108.411 33.2667 107.971 33.6C107.531 33.9267 106.985 34.09 106.331 34.09C105.811 34.09 105.345 33.9733 104.931 33.74C104.525 33.5067 104.205 33.1767 103.971 32.75C103.738 32.3167 103.621 31.8167 103.621 31.25C103.621 30.6833 103.735 30.1867 103.961 29.76C104.188 29.3333 104.505 29.0067 104.911 28.78C105.325 28.5467 105.798 28.43 106.331 28.43C106.851 28.43 107.311 28.5433 107.711 28.77C108.111 28.9967 108.418 29.31 108.631 29.71C108.851 30.1033 108.961 30.55 108.961 31.05ZM108.021 30.86C108.021 30.5133 107.945 30.2167 107.791 29.97C107.638 29.7167 107.428 29.5267 107.161 29.4C106.901 29.2667 106.611 29.2 106.291 29.2C105.831 29.2 105.438 29.3467 105.111 29.64C104.791 29.9333 104.608 30.34 104.561 30.86H108.021Z" fill="#A1A0D3"/>
<path d="M112.569 28.76C112.595 28.0467 112.829 27.4967 113.269 27.11C113.709 26.7233 114.305 26.53 115.059 26.53C115.559 26.53 115.985 26.6167 116.339 26.79C116.699 26.9633 116.969 27.2 117.149 27.5C117.335 27.8 117.429 28.1367 117.429 28.51C117.429 28.95 117.319 29.31 117.099 29.59C116.879 29.8633 116.622 30.05 116.329 30.15V30.19C116.709 30.3167 117.009 30.5267 117.229 30.82C117.449 31.1133 117.559 31.49 117.559 31.95C117.559 32.3633 117.462 32.73 117.269 33.05C117.082 33.3633 116.805 33.61 116.439 33.79C116.079 33.97 115.649 34.06 115.149 34.06C114.349 34.06 113.709 33.8633 113.229 33.47C112.755 33.0767 112.505 32.4833 112.479 31.69H114.139C114.145 31.9833 114.229 32.2167 114.389 32.39C114.549 32.5567 114.782 32.64 115.089 32.64C115.349 32.64 115.549 32.5667 115.689 32.42C115.835 32.2667 115.909 32.0667 115.909 31.82C115.909 31.5 115.805 31.27 115.599 31.13C115.399 30.9833 115.075 30.91 114.629 30.91H114.309V29.52H114.629C114.969 29.52 115.242 29.4633 115.449 29.35C115.662 29.23 115.769 29.02 115.769 28.72C115.769 28.48 115.702 28.2933 115.569 28.16C115.435 28.0267 115.252 27.96 115.019 27.96C114.765 27.96 114.575 28.0367 114.449 28.19C114.329 28.3433 114.259 28.5333 114.239 28.76H112.569ZM120.403 31.86C120.503 32.3867 120.81 32.65 121.323 32.65C121.677 32.65 121.927 32.4933 122.073 32.18C122.22 31.8667 122.293 31.3567 122.293 30.65C122.147 30.8567 121.947 31.0167 121.693 31.13C121.44 31.2433 121.157 31.3 120.843 31.3C120.417 31.3 120.037 31.2133 119.703 31.04C119.37 30.86 119.107 30.5967 118.913 30.25C118.727 29.8967 118.633 29.47 118.633 28.97C118.633 28.4767 118.733 28.0467 118.933 27.68C119.14 27.3133 119.43 27.03 119.803 26.83C120.183 26.63 120.63 26.53 121.143 26.53C122.13 26.53 122.82 26.8367 123.213 27.45C123.607 28.0633 123.803 28.9667 123.803 30.16C123.803 31.0267 123.723 31.7433 123.563 32.31C123.41 32.87 123.147 33.2967 122.773 33.59C122.407 33.8833 121.903 34.03 121.263 34.03C120.757 34.03 120.323 33.93 119.963 33.73C119.61 33.53 119.337 33.2667 119.143 32.94C118.957 32.6133 118.85 32.2533 118.823 31.86H120.403ZM121.233 29.95C121.513 29.95 121.737 29.8667 121.903 29.7C122.07 29.5267 122.153 29.2933 122.153 29C122.153 28.68 122.067 28.4333 121.893 28.26C121.72 28.0867 121.487 28 121.193 28C120.9 28 120.667 28.09 120.493 28.27C120.327 28.4433 120.243 28.6833 120.243 28.99C120.243 29.2767 120.327 29.51 120.493 29.69C120.667 29.8633 120.913 29.95 121.233 29.95ZM124.716 30.25C124.716 29.1033 124.936 28.2 125.376 27.54C125.822 26.88 126.539 26.55 127.526 26.55C128.512 26.55 129.226 26.88 129.666 27.54C130.112 28.2 130.336 29.1033 130.336 30.25C130.336 31.41 130.112 32.32 129.666 32.98C129.226 33.64 128.512 33.97 127.526 33.97C126.539 33.97 125.822 33.64 125.376 32.98C124.936 32.32 124.716 31.41 124.716 30.25ZM128.656 30.25C128.656 29.5767 128.582 29.06 128.436 28.7C128.289 28.3333 127.986 28.15 127.526 28.15C127.066 28.15 126.762 28.3333 126.616 28.7C126.469 29.06 126.396 29.5767 126.396 30.25C126.396 30.7033 126.422 31.08 126.476 31.38C126.529 31.6733 126.636 31.9133 126.796 32.1C126.962 32.28 127.206 32.37 127.526 32.37C127.846 32.37 128.086 32.28 128.246 32.1C128.412 31.9133 128.522 31.6733 128.576 31.38C128.629 31.08 128.656 30.7033 128.656 30.25ZM131.059 28.29V26.7H133.829V34H132.049V28.29H131.059Z" fill="#1DB792"/>
<rect width="107" height="43" transform="translate(826)" fill="#4E1BC9" fill-opacity="0.05"/>
<path d="M874.27 19.29V17.7H877.04V25H875.26V19.29H874.27ZM883.35 19.19H880.23V20.57C880.363 20.4233 880.55 20.3033 880.79 20.21C881.03 20.1167 881.29 20.07 881.57 20.07C882.07 20.07 882.483 20.1833 882.81 20.41C883.143 20.6367 883.386 20.93 883.54 21.29C883.693 21.65 883.77 22.04 883.77 22.46C883.77 23.24 883.55 23.86 883.11 24.32C882.67 24.7733 882.05 25 881.25 25C880.716 25 880.253 24.91 879.86 24.73C879.466 24.5433 879.163 24.2867 878.95 23.96C878.736 23.6333 878.62 23.2567 878.6 22.83H880.27C880.31 23.0367 880.406 23.21 880.56 23.35C880.713 23.4833 880.923 23.55 881.19 23.55C881.503 23.55 881.736 23.45 881.89 23.25C882.043 23.05 882.12 22.7833 882.12 22.45C882.12 22.1233 882.04 21.8733 881.88 21.7C881.72 21.5267 881.486 21.44 881.18 21.44C880.953 21.44 880.766 21.4967 880.62 21.61C880.473 21.7167 880.376 21.86 880.33 22.04H878.68V17.69H883.35V19.19Z" fill="#5857AB"/>
<rect width="107" height="43" transform="translate(934)" fill="#4E1BC9" fill-opacity="0.05"/>
<path d="M982.27 19.29V17.7H985.04V25H983.26V19.29H982.27ZM991.35 19.19H988.23V20.57C988.363 20.4233 988.55 20.3033 988.79 20.21C989.03 20.1167 989.29 20.07 989.57 20.07C990.07 20.07 990.483 20.1833 990.81 20.41C991.143 20.6367 991.386 20.93 991.54 21.29C991.693 21.65 991.77 22.04 991.77 22.46C991.77 23.24 991.55 23.86 991.11 24.32C990.67 24.7733 990.05 25 989.25 25C988.716 25 988.253 24.91 987.86 24.73C987.466 24.5433 987.163 24.2867 986.95 23.96C986.736 23.6333 986.62 23.2567 986.6 22.83H988.27C988.31 23.0367 988.406 23.21 988.56 23.35C988.713 23.4833 988.923 23.55 989.19 23.55C989.503 23.55 989.736 23.45 989.89 23.25C990.043 23.05 990.12 22.7833 990.12 22.45C990.12 22.1233 990.04 21.8733 989.88 21.7C989.72 21.5267 989.486 21.44 989.18 21.44C988.953 21.44 988.766 21.4967 988.62 21.61C988.473 21.7167 988.376 21.86 988.33 22.04H986.68V17.69H991.35V19.19Z" fill="#5857AB"/>
<rect width="107" height="43" transform="translate(1042)" fill="#4E1BC9" fill-opacity="0.05"/>
<path d="M1090.27 19.29V17.7H1093.04V25H1091.26V19.29H1090.27ZM1099.35 19.19H1096.23V20.57C1096.36 20.4233 1096.55 20.3033 1096.79 20.21C1097.03 20.1167 1097.29 20.07 1097.57 20.07C1098.07 20.07 1098.48 20.1833 1098.81 20.41C1099.14 20.6367 1099.39 20.93 1099.54 21.29C1099.69 21.65 1099.77 22.04 1099.77 22.46C1099.77 23.24 1099.55 23.86 1099.11 24.32C1098.67 24.7733 1098.05 25 1097.25 25C1096.72 25 1096.25 24.91 1095.86 24.73C1095.47 24.5433 1095.16 24.2867 1094.95 23.96C1094.74 23.6333 1094.62 23.2567 1094.6 22.83H1096.27C1096.31 23.0367 1096.41 23.21 1096.56 23.35C1096.71 23.4833 1096.92 23.55 1097.19 23.55C1097.5 23.55 1097.74 23.45 1097.89 23.25C1098.04 23.05 1098.12 22.7833 1098.12 22.45C1098.12 22.1233 1098.04 21.8733 1097.88 21.7C1097.72 21.5267 1097.49 21.44 1097.18 21.44C1096.95 21.44 1096.77 21.4967 1096.62 21.61C1096.47 21.7167 1096.38 21.86 1096.33 22.04H1094.68V17.69H1099.35V19.19Z" fill="#5857AB"/>
<path d="M1150 0H1255C1256.1 0 1257 0.895431 1257 2V41C1257 42.1046 1256.1 43 1255 43H1150V0Z" fill="#4E1BC9" fill-opacity="0.05"/>
<path d="M1198.27 19.29V17.7H1201.04V25H1199.26V19.29H1198.27ZM1207.35 19.19H1204.23V20.57C1204.36 20.4233 1204.55 20.3033 1204.79 20.21C1205.03 20.1167 1205.29 20.07 1205.57 20.07C1206.07 20.07 1206.48 20.1833 1206.81 20.41C1207.14 20.6367 1207.39 20.93 1207.54 21.29C1207.69 21.65 1207.77 22.04 1207.77 22.46C1207.77 23.24 1207.55 23.86 1207.11 24.32C1206.67 24.7733 1206.05 25 1205.25 25C1204.72 25 1204.25 24.91 1203.86 24.73C1203.47 24.5433 1203.16 24.2867 1202.95 23.96C1202.74 23.6333 1202.62 23.2567 1202.6 22.83H1204.27C1204.31 23.0367 1204.41 23.21 1204.56 23.35C1204.71 23.4833 1204.92 23.55 1205.19 23.55C1205.5 23.55 1205.74 23.45 1205.89 23.25C1206.04 23.05 1206.12 22.7833 1206.12 22.45C1206.12 22.1233 1206.04 21.8733 1205.88 21.7C1205.72 21.5267 1205.49 21.44 1205.18 21.44C1204.95 21.44 1204.77 21.4967 1204.62 21.61C1204.47 21.7167 1204.38 21.86 1204.33 22.04H1202.68V17.69H1207.35V19.19Z" fill="#5857AB"/>
</svg>
