<svg width="1331" height="804" viewBox="0 0 1331 804" fill="none" xmlns="http://www.w3.org/2000/svg">
<mask id="mask0" style="mask-type:alpha" maskUnits="userSpaceOnUse" x="0" y="0" width="1331" height="804">
<rect width="1331" height="804" rx="4" fill="#C4C4C4"/>
</mask>
<g mask="url(#mask0)">
<path opacity="0.1" fill-rule="evenodd" clip-rule="evenodd" d="M965.891 490.053C1035.14 488.476 1098.31 522.423 1155.74 561.16C1215.06 601.175 1287.68 643.657 1298.48 714.396C1309.19 784.504 1230.38 833.834 1207.63 901.006C1185.35 966.789 1222.04 1056.98 1167.77 1100.32C1113.85 1143.39 1034.82 1097.51 965.891 1094.09C901.636 1090.9 833.957 1112.84 778.069 1080.98C719.491 1047.58 680.265 986.092 662.437 921.06C645.104 857.835 660.751 792.24 681.904 730.189C702.774 668.968 732.835 611.43 782.225 569.667C834.456 525.502 897.509 491.61 965.891 490.053Z" fill="#5857AB"/>
<path opacity="0.1" fill-rule="evenodd" clip-rule="evenodd" d="M1265.11 -198.694C1367.46 -173.084 1433.73 -85.0738 1518.32 -22.0351C1601.48 39.9372 1728.75 66.8795 1755.8 166.98C1782.87 267.14 1671.21 349.423 1645.9 450.041C1617.55 562.714 1667 692.098 1599.85 786.923C1522.77 895.759 1397.76 1001.79 1265.11 987.743C1132 973.645 1083.55 803.664 978.224 721.086C878.977 643.271 712.972 638.141 668.651 520.093C624.361 402.126 730.008 285.039 769.599 165.414C808.902 46.6596 798.511 -102.831 899.332 -176.915C1000.22 -251.046 1143.65 -229.085 1265.11 -198.694Z" fill="#5857AB"/>
<path opacity="0.1" fill-rule="evenodd" clip-rule="evenodd" d="M1977.94 109.838C2012.77 209.43 1975.64 313.153 1969.44 418.467C1963.34 521.999 2010.74 643.143 1941.96 720.739C1873.14 798.381 1743.04 750.284 1645.07 784.411C1535.35 822.626 1454.4 935.023 1338.28 931.007C1204.99 926.396 1047.72 880.194 986.58 761.634C925.233 642.665 1040.65 508.798 1051.79 375.425C1062.28 249.747 975.37 108.218 1049.66 6.33267C1123.9 -95.4833 1279.77 -71.5314 1401.48 -104.169C1522.3 -136.569 1641.5 -227.377 1758.79 -183.833C1876.16 -140.263 1936.61 -8.34654 1977.94 109.838Z" fill="#5857AB"/>
<path opacity="0.1" fill-rule="evenodd" clip-rule="evenodd" d="M1497.65 169.644C1591.88 172.52 1695.82 155.21 1770.08 213.308C1843.65 270.871 1854.47 374.502 1875.74 465.471C1895.17 548.582 1908.23 632.227 1887.38 714.994C1865.38 802.334 1835.33 901.668 1755.39 943.156C1676.83 983.933 1585.38 929.029 1497.65 917.275C1424.75 907.509 1351.67 912.579 1285.62 880.218C1208.89 842.622 1130.31 796.875 1094.01 719.51C1055.54 637.506 1065.84 542.868 1085.91 454.536C1107.69 358.653 1132.01 252.245 1212.86 196.303C1293.24 140.69 1399.96 166.663 1497.65 169.644Z" fill="#5857AB"/>
</g>
</svg>
