<svg width="21" height="45" viewBox="0 0 21 45" fill="none" xmlns="http://www.w3.org/2000/svg">
<mask id="mask0_4019:64337" style="mask-type:alpha" maskUnits="userSpaceOnUse" x="0" y="0" width="21" height="45">
<rect x="0.5" width="20" height="45" fill="#C4C4C4"/>
</mask>
<g mask="url(#mask0_4019:64337)">
<path d="M5.13 -4.75V-6.206H8.042V4H6.432V-4.75H5.13ZM10.0245 -4.75V-6.206H12.9365V4H11.3265V-4.75H10.0245Z" fill="#A1A0D3"/>
<path d="M3.63 18.25V16.794H6.542V27H4.932V18.25H3.63ZM9.61653 24.83C10.5125 24.0553 11.2172 23.4207 11.7305 22.926C12.2532 22.422 12.6872 21.8993 13.0325 21.358C13.3779 20.8167 13.5505 20.2753 13.5505 19.734C13.5505 19.174 13.4152 18.7353 13.1445 18.418C12.8832 18.1007 12.4679 17.942 11.8985 17.942C11.3479 17.942 10.9185 18.1193 10.6105 18.474C10.3119 18.8193 10.1532 19.286 10.1345 19.874H8.59453C8.62253 18.81 8.93986 17.998 9.54653 17.438C10.1625 16.8687 10.9419 16.584 11.8845 16.584C12.9019 16.584 13.6952 16.864 14.2645 17.424C14.8432 17.984 15.1325 18.7307 15.1325 19.664C15.1325 20.336 14.9599 20.9847 14.6145 21.61C14.2785 22.226 13.8725 22.7813 13.3965 23.276C12.9299 23.7613 12.3325 24.326 11.6045 24.97L10.9745 25.53H15.4125V26.86H8.60853V25.698L9.61653 24.83Z" fill="#5857AB"/>
<path d="M3.13 41.25V39.794H6.042V50H4.432V41.25H3.13ZM8.20653 42.314C8.26253 41.446 8.59386 40.7693 9.20053 40.284C9.81653 39.7987 10.6005 39.556 11.5525 39.556C12.2059 39.556 12.7705 39.6727 13.2465 39.906C13.7225 40.1393 14.0819 40.4567 14.3245 40.858C14.5672 41.2593 14.6885 41.712 14.6885 42.216C14.6885 42.7947 14.5345 43.2893 14.2265 43.7C13.9185 44.1107 13.5499 44.386 13.1205 44.526V44.582C13.6712 44.75 14.1005 45.058 14.4085 45.506C14.7165 45.9447 14.8705 46.5093 14.8705 47.2C14.8705 47.7507 14.7445 48.2407 14.4925 48.67C14.2405 49.0993 13.8672 49.44 13.3725 49.692C12.8779 49.9347 12.2852 50.056 11.5945 50.056C10.5865 50.056 9.75586 49.7993 9.10253 49.286C8.45853 48.7633 8.1132 48.0167 8.06653 47.046H9.60653C9.64386 47.5407 9.8352 47.9467 10.1805 48.264C10.5259 48.572 10.9925 48.726 11.5805 48.726C12.1499 48.726 12.5885 48.572 12.8965 48.264C13.2045 47.9467 13.3585 47.5407 13.3585 47.046C13.3585 46.3927 13.1485 45.9307 12.7285 45.66C12.3179 45.38 11.6832 45.24 10.8245 45.24H10.4605V43.924H10.8385C11.5945 43.9147 12.1685 43.7887 12.5605 43.546C12.9619 43.3033 13.1625 42.9207 13.1625 42.398C13.1625 41.95 13.0179 41.5953 12.7285 41.334C12.4392 41.0633 12.0285 40.928 11.4965 40.928C10.9739 40.928 10.5679 41.0633 10.2785 41.334C9.9892 41.5953 9.81653 41.922 9.76053 42.314H8.20653Z" fill="#A1A0D3"/>
</g>
</svg>
