<svg width="18" height="45" viewBox="0 0 18 45" fill="none" xmlns="http://www.w3.org/2000/svg">
<mask id="mask0_4019:64348" style="mask-type:alpha" maskUnits="userSpaceOnUse" x="0" y="0" width="18" height="45">
<rect x="0.5" width="17" height="45" fill="#C4C4C4"/>
</mask>
<g mask="url(#mask0_4019:64348)">
<path d="M7.42 -4.834H2.73V-2.048C2.926 -2.30933 3.21533 -2.52867 3.598 -2.706C3.99 -2.88333 4.40533 -2.972 4.844 -2.972C5.628 -2.972 6.26267 -2.804 6.748 -2.468C7.24267 -2.132 7.59267 -1.70733 7.798 -1.194C8.01267 -0.680667 8.12 -0.139334 8.12 0.43C8.12 1.12067 7.98467 1.73667 7.714 2.278C7.45267 2.81 7.056 3.23 6.524 3.538C6.00133 3.846 5.35733 4 4.592 4C3.57467 4 2.758 3.748 2.142 3.244C1.526 2.74 1.15733 2.07267 1.036 1.242H2.59C2.69267 1.68067 2.92133 2.03067 3.276 2.292C3.63067 2.544 4.074 2.67 4.606 2.67C5.26867 2.67 5.76333 2.46933 6.09 2.068C6.426 1.66667 6.594 1.13467 6.594 0.472C6.594 -0.2 6.426 -0.713333 6.09 -1.068C5.754 -1.432 5.25933 -1.614 4.606 -1.614C4.14867 -1.614 3.76133 -1.49733 3.444 -1.264C3.136 -1.04 2.912 -0.732 2.772 -0.34H1.26V-6.234H7.42V-4.834ZM11.7694 1.228C11.8627 1.69467 12.0634 2.04933 12.3714 2.292C12.6794 2.53467 13.0947 2.656 13.6174 2.656C14.2801 2.656 14.7654 2.39467 15.0734 1.872C15.3814 1.34933 15.5354 0.458 15.5354 -0.802C15.3114 -0.484667 14.9941 -0.237334 14.5834 -0.0600003C14.1821 0.108 13.7434 0.192 13.2674 0.192C12.6607 0.192 12.1101 0.0706665 11.6154 -0.172C11.1207 -0.424 10.7287 -0.792667 10.4394 -1.278C10.1594 -1.77267 10.0194 -2.37 10.0194 -3.07C10.0194 -4.09667 10.3181 -4.91333 10.9154 -5.52C11.5221 -6.136 12.3527 -6.444 13.4074 -6.444C14.6767 -6.444 15.5774 -6.01933 16.1094 -5.17C16.6507 -4.33 16.9214 -3.03733 16.9214 -1.292C16.9214 -0.0880002 16.8187 0.896666 16.6134 1.662C16.4174 2.42733 16.0721 3.006 15.5774 3.398C15.0827 3.79 14.3967 3.986 13.5194 3.986C12.5207 3.986 11.7507 3.72467 11.2094 3.202C10.6681 2.67933 10.3647 2.02133 10.2994 1.228H11.7694ZM13.5474 -1.152C14.1074 -1.152 14.5461 -1.32467 14.8634 -1.67C15.1901 -2.02467 15.3534 -2.49133 15.3534 -3.07C15.3534 -3.714 15.1807 -4.21333 14.8354 -4.568C14.4994 -4.932 14.0374 -5.114 13.4494 -5.114C12.8614 -5.114 12.3947 -4.92733 12.0494 -4.554C11.7134 -4.19 11.5454 -3.70933 11.5454 -3.112C11.5454 -2.54267 11.7087 -2.07133 12.0354 -1.698C12.3714 -1.334 12.8754 -1.152 13.5474 -1.152Z" fill="#A1A0D3"/>
<path d="M0.84 21.764C0.84 20.1493 1.11067 18.8893 1.652 17.984C2.20267 17.0693 3.14533 16.612 4.48 16.612C5.81467 16.612 6.75267 17.0693 7.294 17.984C7.84467 18.8893 8.12 20.1493 8.12 21.764C8.12 23.3973 7.84467 24.676 7.294 25.6C6.75267 26.5147 5.81467 26.972 4.48 26.972C3.14533 26.972 2.20267 26.5147 1.652 25.6C1.11067 24.676 0.84 23.3973 0.84 21.764ZM6.552 21.764C6.552 21.008 6.50067 20.3687 6.398 19.846C6.30467 19.3233 6.10867 18.8987 5.81 18.572C5.51133 18.236 5.068 18.068 4.48 18.068C3.892 18.068 3.44867 18.236 3.15 18.572C2.85133 18.8987 2.65067 19.3233 2.548 19.846C2.45467 20.3687 2.408 21.008 2.408 21.764C2.408 22.548 2.45467 23.206 2.548 23.738C2.64133 24.27 2.83733 24.6993 3.136 25.026C3.444 25.3527 3.892 25.516 4.48 25.516C5.068 25.516 5.51133 25.3527 5.81 25.026C6.118 24.6993 6.31867 24.27 6.412 23.738C6.50533 23.206 6.552 22.548 6.552 21.764ZM9.80875 21.764C9.80875 20.1493 10.0794 18.8893 10.6208 17.984C11.1714 17.0693 12.1141 16.612 13.4488 16.612C14.7834 16.612 15.7214 17.0693 16.2628 17.984C16.8134 18.8893 17.0888 20.1493 17.0888 21.764C17.0888 23.3973 16.8134 24.676 16.2628 25.6C15.7214 26.5147 14.7834 26.972 13.4488 26.972C12.1141 26.972 11.1714 26.5147 10.6208 25.6C10.0794 24.676 9.80875 23.3973 9.80875 21.764ZM15.5208 21.764C15.5208 21.008 15.4694 20.3687 15.3668 19.846C15.2734 19.3233 15.0774 18.8987 14.7788 18.572C14.4801 18.236 14.0368 18.068 13.4488 18.068C12.8608 18.068 12.4174 18.236 12.1188 18.572C11.8201 18.8987 11.6194 19.3233 11.5168 19.846C11.4234 20.3687 11.3768 21.008 11.3768 21.764C11.3768 22.548 11.4234 23.206 11.5168 23.738C11.6101 24.27 11.8061 24.6993 12.1048 25.026C12.4128 25.3527 12.8608 25.516 13.4488 25.516C14.0368 25.516 14.4801 25.3527 14.7788 25.026C15.0868 24.6993 15.2874 24.27 15.3808 23.738C15.4741 23.206 15.5208 22.548 15.5208 21.764Z" fill="#5857AB"/>
<path d="M2.84 44.764C2.84 43.1493 3.11067 41.8893 3.652 40.984C4.20267 40.0693 5.14533 39.612 6.48 39.612C7.81467 39.612 8.75267 40.0693 9.294 40.984C9.84467 41.8893 10.12 43.1493 10.12 44.764C10.12 46.3973 9.84467 47.676 9.294 48.6C8.75267 49.5147 7.81467 49.972 6.48 49.972C5.14533 49.972 4.20267 49.5147 3.652 48.6C3.11067 47.676 2.84 46.3973 2.84 44.764ZM8.552 44.764C8.552 44.008 8.50067 43.3687 8.398 42.846C8.30467 42.3233 8.10867 41.8987 7.81 41.572C7.51133 41.236 7.068 41.068 6.48 41.068C5.892 41.068 5.44867 41.236 5.15 41.572C4.85133 41.8987 4.65067 42.3233 4.548 42.846C4.45467 43.3687 4.408 44.008 4.408 44.764C4.408 45.548 4.45467 46.206 4.548 46.738C4.64133 47.27 4.83733 47.6993 5.136 48.026C5.444 48.3527 5.892 48.516 6.48 48.516C7.068 48.516 7.51133 48.3527 7.81 48.026C8.118 47.6993 8.31867 47.27 8.412 46.738C8.50533 46.206 8.552 45.548 8.552 44.764ZM11.5988 41.25V39.794H14.5108V50H12.9008V41.25H11.5988Z" fill="#A1A0D3"/>
</g>
</svg>
