<svg width="64" height="108" viewBox="0 0 64 108" fill="none" xmlns="http://www.w3.org/2000/svg">
<rect x="20" y="20" width="24" height="24" rx="12" fill="#1DB792"/>
<path d="M35.3561 29.7769L30.8831 34.2499L28.85 32.2168M39.5 32C39.5 36.1421 36.1421 39.5 32 39.5C27.8579 39.5 24.5 36.1421 24.5 32C24.5 27.8579 27.8579 24.5 32 24.5C36.1421 24.5 39.5 27.8579 39.5 32Z" stroke="white" stroke-width="2" stroke-linecap="round" stroke-linejoin="round"/>
<path d="M35.3561 73.7769L30.8831 78.2499L28.85 76.2168M39.5 76C39.5 80.1421 36.1421 83.5 32 83.5C27.8579 83.5 24.5 80.1421 24.5 76C24.5 71.8579 27.8579 68.5 32 68.5C36.1421 68.5 39.5 71.8579 39.5 76Z" stroke="#1DB792" stroke-width="2" stroke-linecap="round" stroke-linejoin="round"/>
<rect x="0.5" y="0.5" width="63" height="107" rx="4.5" stroke="#7B61FF" stroke-dasharray="10 5"/>
</svg>
