<svg width="20" height="9" viewBox="0 0 20 9" fill="none" xmlns="http://www.w3.org/2000/svg">
<path d="M19 6.08018C19 6.54696 18.7893 6.99462 18.4142 7.32468C18.0391 7.65475 17.5304 7.84018 17 7.84018H16C15.4696 7.84018 14.9609 7.65475 14.5858 7.32468C14.2107 6.99462 14 6.54696 14 6.08018V3.44018C14 2.97339 14.2107 2.52573 14.5858 2.19567C14.9609 1.8656 15.4696 1.68018 16 1.68018H19V6.08018ZM1 6.08018C1 6.54696 1.21071 6.99462 1.58579 7.32468C1.96086 7.65475 2.46957 7.84018 3 7.84018H4C4.53043 7.84018 5.03914 7.65475 5.41421 7.32468C5.78929 6.99462 6 6.54696 6 6.08018V3.44018C6 2.97339 5.78929 2.52573 5.41421 2.19567C5.03914 1.8656 4.53043 1.68018 4 1.68018H1V6.08018Z" stroke="#5857AB" stroke-width="2" stroke-linecap="round" stroke-linejoin="round"/>
</svg>
