<svg width="64" height="108" viewBox="0 0 64 108" fill="none" xmlns="http://www.w3.org/2000/svg">
<rect x="20" y="20" width="24" height="24" rx="12" fill="#F58925"/>
<path d="M32.0001 28.7499V31.7499M32.0001 34.7499H32.0076M30.7176 24.8949L24.3651 35.4999C24.2341 35.7267 24.1648 35.9839 24.1641 36.2458C24.1633 36.5077 24.2312 36.7653 24.3609 36.9928C24.4906 37.2203 24.6776 37.41 24.9034 37.5428C25.1291 37.6756 25.3857 37.747 25.6476 37.7499H38.3526C38.6145 37.747 38.8711 37.6756 39.0968 37.5428C39.3225 37.41 39.5096 37.2203 39.6393 36.9928C39.769 36.7653 39.8368 36.5077 39.8361 36.2458C39.8354 35.9839 39.7661 35.7267 39.6351 35.4999L33.2826 24.8949C33.1489 24.6745 32.9606 24.4922 32.736 24.3658C32.5113 24.2393 32.2579 24.1729 32.0001 24.1729C31.7423 24.1729 31.4888 24.2393 31.2642 24.3658C31.0395 24.4922 30.8513 24.6745 30.7176 24.8949Z" stroke="white" stroke-width="2" stroke-linecap="round" stroke-linejoin="round"/>
<path d="M32.0001 72.7499V75.7499M32.0001 78.7499H32.0076M30.7176 68.8949L24.3651 79.4999C24.2341 79.7267 24.1648 79.9839 24.1641 80.2458C24.1633 80.5077 24.2312 80.7653 24.3609 80.9928C24.4906 81.2203 24.6776 81.41 24.9034 81.5428C25.1291 81.6756 25.3857 81.747 25.6476 81.7499H38.3526C38.6145 81.747 38.8711 81.6756 39.0968 81.5428C39.3225 81.41 39.5096 81.2203 39.6393 80.9928C39.769 80.7653 39.8368 80.5077 39.8361 80.2458C39.8354 79.9839 39.7661 79.7267 39.6351 79.4999L33.2826 68.8949C33.1489 68.6745 32.9606 68.4922 32.736 68.3658C32.5113 68.2393 32.2579 68.1729 32.0001 68.1729C31.7423 68.1729 31.4888 68.2393 31.2642 68.3658C31.0395 68.4922 30.8513 68.6745 30.7176 68.8949Z" stroke="#F58925" stroke-width="2" stroke-linecap="round" stroke-linejoin="round"/>
<rect x="0.5" y="0.5" width="63" height="107" rx="4.5" stroke="#7B61FF" stroke-dasharray="10 5"/>
</svg>
